<?xml version="1.0" encoding="UTF-8" standalone="no"?>
<!-- Created with Inkscape (http://www.inkscape.org/) -->

<svg
   xmlns:dc="http://purl.org/dc/elements/1.1/"
   xmlns:cc="http://creativecommons.org/ns#"
   xmlns:rdf="http://www.w3.org/1999/02/22-rdf-syntax-ns#"
   xmlns:svg="http://www.w3.org/2000/svg"
   xmlns="http://www.w3.org/2000/svg"
   xmlns:sodipodi="http://sodipodi.sourceforge.net/DTD/sodipodi-0.dtd"
   xmlns:inkscape="http://www.inkscape.org/namespaces/inkscape"
   width="397"
   height="47"
   id="svg3361"
   version="1.1"
   inkscape:version="0.48.4 r9939"
   sodipodi:docname="新規ドキュメント 7">
  <defs
     id="defs3363" />
  <sodipodi:namedview
     id="base"
     pagecolor="#ffffff"
     bordercolor="#666666"
     borderopacity="1.0"
     inkscape:pageopacity="0.0"
     inkscape:pageshadow="2"
     inkscape:zoom="4"
     inkscape:cx="197.44959"
     inkscape:cy="25.295648"
     inkscape:document-units="px"
     inkscape:current-layer="layer1"
     showgrid="false"
     inkscape:window-width="1920"
     inkscape:window-height="1017"
     inkscape:window-x="892"
     inkscape:window-y="250"
     inkscape:window-maximized="1" />
  <metadata
     id="metadata3366">
    <rdf:RDF>
      <cc:Work
         rdf:about="">
        <dc:format>image/svg+xml</dc:format>
        <dc:type
           rdf:resource="http://purl.org/dc/dcmitype/StillImage" />
        <dc:title></dc:title>
      </cc:Work>
    </rdf:RDF>
  </metadata>
  <g
     inkscape:label="レイヤー 1"
     inkscape:groupmode="layer"
     id="layer1"
     transform="translate(0,-1005.3622)">
    <g
       transform="scale(1.0592486,0.94406549)"
       style="font-size:23.91883659px;font-style:normal;font-variant:normal;font-weight:normal;font-stretch:normal;text-align:center;line-height:100%;letter-spacing:0px;word-spacing:0px;writing-mode:lr-tb;text-anchor:middle;fill:#000000;fill-opacity:1;stroke:none;font-family:IPAmjMincho;-inkscape-font-specification:IPAmjMincho"
       id="text3369">
      <path
         d="m 0.50660788,1069.4284 c 0.36594262,0.7708 0.80585572,1.1562 1.31974052,1.1562 0.7396727,0 1.7907924,-0.2258 3.1533622,-0.6774 0.9498936,-0.3114 1.5805654,-0.6618 1.8920174,-1.0511 0.2024287,-0.2258 0.3931875,-0.3387 0.5722768,-0.3387 0.2257864,0 0.4982989,0.1285 0.8175384,0.3854 0.3192184,0.257 0.4788329,0.5295 0.4788439,0.8175 -1.1e-5,0.148 -0.1206951,0.2803 -0.3620527,0.3971 -0.4126725,0.218 -0.7474735,0.4672 -1.0044043,0.7475 -2.7718512,2.8808 -4.157772,5.8084 -4.1577665,8.7827 -5.5e-6,1.6584 0.4282285,2.9276 1.2847031,3.8074 0.7708144,0.7786 1.818041,1.1679 3.1416832,1.1679 1.8920055,0 3.4219691,-0.693 4.5898941,-2.0789 1.113394,-1.4171 1.670098,-3.4025 1.670114,-5.9563 -1.6e-5,-2.2736 -0.295887,-4.5782 -0.887613,-6.9141 -0.09345,-0.3737 -0.260849,-0.7825 -0.502202,-1.2263 -0.124592,-0.2336 -0.186881,-0.4477 -0.186866,-0.6423 -1.5e-5,-0.2414 0.280284,-0.3621 0.840896,-0.3621 0.576154,0 0.875918,0.3037 0.899293,0.911 0.05449,0.8565 0.494399,1.9815 1.31974,3.3752 0.677371,1.1758 1.736276,2.5227 3.176721,4.041 0.435999,0.4283 0.68126,0.6813 0.735784,0.7592 0.210202,0.2803 0.315314,0.5606 0.315336,0.8409 -2.2e-5,0.6851 -0.237497,1.0277 -0.712426,1.0277 -0.210245,0 -0.424362,-0.1129 -0.642352,-0.3387 -0.163528,-0.1713 -0.412682,-0.4905 -0.747463,-0.9577 -1.30808,-1.8219 -2.39813,-3.7723 -3.270154,-5.8512 l -0.151828,0.07 c 0.576153,2.3903 0.864237,4.512 0.864255,6.3651 -1.8e-5,2.4915 -0.599545,4.4614 -1.798585,5.9096 -1.300289,1.6585 -3.114444,2.4877 -5.4424694,2.4877 -1.9854583,0 -3.4920632,-0.6618 -4.5198193,-1.9855 -0.8642594,-1.1212 -1.2963864,-2.5888 -1.2963822,-4.403 -4.2e-6,-1.7285 0.4243368,-3.3791 1.273024,-4.9519 0.5995221,-1.1212 1.5844602,-2.4955 2.9548172,-4.1228 l -0.070075,-0.07 c -2.2034666,0.8098 -3.4142008,1.2809 -3.6322061,1.4132 -0.2880894,0.1791 -0.5450297,0.2687 -0.7708219,0.2686 -0.2647304,10e-5 -0.5411359,-0.1907 -0.8292175,-0.5722 -0.36594844,-0.4594 -0.63846096,-1.0901 -0.81753836,-1.8921 z M 15.7245,1066.5786 c 1.027744,0.3582 1.833602,0.8059 2.417578,1.3431 0.506074,0.4672 0.759122,0.9266 0.759143,1.3782 -2.1e-5,0.5606 -0.241389,0.8409 -0.724105,0.8409 -0.327036,0 -0.587869,-0.2453 -0.782501,-0.7358 -0.373752,-0.8954 -1.05114,-1.6779 -2.032167,-2.3475 z m 2.195675,-1.6467 c 1.012169,0.3037 1.829707,0.7358 2.452615,1.2964 0.52943,0.4749 0.794157,0.9343 0.79418,1.3781 -2.3e-5,0.5606 -0.229712,0.8409 -0.689068,0.8409 -0.303679,0 -0.576192,-0.2608 -0.817538,-0.7825 -0.358181,-0.7942 -1.058928,-1.5455 -2.102242,-2.2541 z"
         style=""
         id="path3378" />
      <path
         d="m 43.485767,1077.7439 c -0.583977,2.7095 -1.506626,4.7456 -2.767951,6.1082 -1.043353,1.1289 -2.226836,1.6934 -3.550452,1.6934 -1.432653,0 -2.386447,-0.4866 -2.861384,-1.4599 -0.443819,-0.9421 -0.70076,-2.2268 -0.770822,-3.8541 -0.07009,-1.0589 -0.229701,-1.7869 -0.478844,-2.184 -0.194663,-0.3114 -0.471069,-0.4671 -0.829218,-0.4671 -0.61511,0 -1.374252,0.4399 -2.277428,1.3197 -1.611725,1.6351 -2.935357,3.6984 -3.970901,6.19 -0.210228,0.5138 -0.490526,0.7708 -0.840896,0.7708 -0.44381,0 -0.665713,-0.3971 -0.66571,-1.1913 -3e-6,-0.3348 0.214114,-0.911 0.642352,-1.7285 2.725121,-4.9519 4.83904,-8.7321 6.341761,-11.3404 0.700737,-1.2536 1.05111,-2.1061 1.051121,-2.5578 -1.1e-5,-0.4204 -0.303668,-0.8331 -0.910971,-1.2379 l 0.408769,-0.5373 c 0.778597,0.3037 1.409269,0.6852 1.892017,1.1446 0.397078,0.3737 0.595623,0.7124 0.595635,1.0161 -1.2e-5,0.1168 -0.120697,0.3465 -0.362052,0.689 l -0.420449,0.6424 c -1.448221,2.0867 -3.562139,5.4386 -6.341761,10.0557 l 0.07007,0.07 c 1.300269,-1.713 2.378639,-2.8887 3.235116,-3.5271 0.646235,-0.4905 1.257442,-0.7358 1.833622,-0.7358 0.864243,0 1.483236,0.3309 1.85698,0.9927 0.334789,0.584 0.52944,1.495 0.583956,2.7329 0.07785,1.7675 0.291964,2.8381 0.642352,3.2118 0.327001,0.4127 0.821416,0.619 1.483248,0.619 1.175681,0 2.292983,-0.6307 3.351907,-1.892 0.996599,-1.1835 1.802457,-2.7758 2.417578,-4.7768 z"
         style=""
         id="path3380" />
      <path
         d="m 59.673027,1071.2153 1.413173,0 c 0.256925,-1.0122 0.439898,-2.0166 0.548919,-3.0133 l -4.309595,0 -0.256941,-0.5956 8.75934,0 1.19127,-1.5066 c 0.599506,0.4672 1.132852,1.0239 1.600039,1.6701 l -0.233582,0.4321 -4.881872,0 c -0.45161,1.0045 -1.027779,2.0089 -1.72851,3.0133 l 3.597169,0 0.864255,-1.1212 c 0.942094,0.7942 1.413151,1.2808 1.413173,1.4599 -2.2e-5,0.109 -0.0662,0.2024 -0.198545,0.2803 l -0.572276,0.3854 0,10.7681 -1.343099,0 0,-0.981 -6.049784,0 0,0.981 -1.366457,0 0,-12.6134 c 0.52944,0.2569 0.945995,0.4749 1.249666,0.654 z m -0.186866,0.5956 0,2.5694 6.049784,0 0,-2.5694 z m 6.049784,9.6002 0,-3.0365 -6.049784,0 0,3.0365 z m 0,-3.6322 0,-2.803 -6.049784,0 0,2.803 z m -14.06166,-6.5403 0,-4.9286 c 1.440417,0.023 2.160629,0.1908 2.160637,0.5022 -8e-6,0.1791 -0.288093,0.3855 -0.864255,0.619 l 0,3.8074 2.440936,0 0.910972,-1.3197 0.25694,0.2686 c 0.436009,0.4594 0.770811,0.8487 1.004405,1.1679 l -0.280299,0.4789 -4.332954,0 0,0.8642 c 2.771835,0.7942 4.157756,1.6818 4.157767,2.6628 -1.1e-5,0.5295 -0.245273,0.7942 -0.735785,0.7942 -0.256951,0 -0.529463,-0.2063 -0.817538,-0.619 -0.529463,-0.7786 -1.39761,-1.5027 -2.604444,-2.1723 l 0,2.9548 -1.296382,0 0,-2.8263 c -1.175703,1.3392 -2.69788,2.5188 -4.566536,3.5388 l -0.385411,-0.5256 c 1.915373,-1.2458 3.468695,-2.803 4.659969,-4.6716 l -3.947542,0 -0.256941,-0.5957 z m 1.0628,9.8105 c 2.725118,1.0745 4.087681,2.1606 4.087692,3.2585 -1.1e-5,0.5372 -0.256952,0.8058 -0.770822,0.8058 -0.241379,0 -0.494426,-0.2297 -0.759143,-0.6891 -0.638467,-1.0589 -1.549438,-1.9737 -2.732914,-2.7445 -0.661823,2.2501 -2.479871,3.8891 -5.454149,4.9169 l -0.315336,-0.549 c 3.052139,-1.4637 4.624926,-3.5193 4.718364,-6.1665 l -4.064333,0 -0.26862,-0.5957 4.332953,0 0,-2.3475 c 1.487134,0.07 2.230704,0.2687 2.230712,0.5957 -8e-6,0.1791 -0.288092,0.3659 -0.864255,0.5606 l 0,1.1912 2.347503,0 1.027763,-1.3664 c 0.47494,0.4282 0.918746,0.9304 1.33142,1.5066 l -0.303658,0.4555 -4.403028,0 c -0.02336,0.4438 -0.07008,0.8331 -0.140149,1.1679 z m -4.438065,-14.0617 c 1.596142,1.0278 2.394214,2.0244 2.394219,2.9899 -5e-6,0.5762 -0.280303,0.8642 -0.840897,0.8642 -0.350377,0 -0.548922,-0.2219 -0.595635,-0.6657 -0.09344,-0.981 -0.525563,-1.9153 -1.296382,-2.803 z m 5.477507,3.6322 c 0.482728,-0.9421 0.922641,-2.1762 1.31974,-3.7023 1.222404,0.3816 1.833611,0.732 1.833622,1.0512 -1.1e-5,0.1946 -0.284203,0.3075 -0.852576,0.3387 -0.599538,1.0044 -1.222423,1.8647 -1.868659,2.581 z m 9.787102,12.3682 c 3.47257,0.8643 5.208864,1.8375 5.208887,2.9198 -2.3e-5,0.5762 -0.256963,0.8642 -0.770822,0.8642 -0.218032,0 -0.51001,-0.2063 -0.875934,-0.6189 -0.778628,-0.9266 -2.055544,-1.8142 -3.830751,-2.6629 z m -8.689265,3.6322 c 2.273524,-0.9343 4.044855,-2.1528 5.313999,-3.6555 1.144538,0.5528 1.716815,0.9771 1.716831,1.273 -1.6e-5,0.1713 -0.190775,0.2569 -0.572277,0.2569 -0.0623,0 -0.237491,-0.016 -0.525561,-0.047 -1.362577,1.0978 -3.227341,2.0049 -5.594298,2.7212 z"
         style=""
         id="path3382" />
      <path
         d="m 81.466262,1074.6606 c 0.467152,0 0.883707,0.183 1.249666,0.5489 0.319215,0.3193 0.47883,0.7086 0.478844,1.1679 -1.4e-5,0.3115 -0.08566,0.6151 -0.256941,0.911 -0.358173,0.545 -0.848695,0.8175 -1.471569,0.8175 -0.412674,0 -0.778619,-0.1362 -1.097837,-0.4087 -0.412673,-0.366 -0.619004,-0.8059 -0.618994,-1.3198 -1e-5,-0.5839 0.245251,-1.0511 0.735785,-1.4015 0.303646,-0.2102 0.630661,-0.3153 0.981046,-0.3153 z"
         style=""
         id="path3384" />
      <path
         d="m 111.31809,1068.2838 c 0.67737,0 1.24576,0.257 1.70515,0.7708 0.40486,0.4438 0.6073,0.9577 0.60732,1.5417 -2e-5,0.6929 -0.25696,1.273 -0.77082,1.7402 -0.44383,0.4048 -0.95771,0.6073 -1.54165,0.6073 -0.69298,0 -1.27304,-0.257 -1.74019,-0.7709 -0.40489,-0.4515 -0.60733,-0.9771 -0.60731,-1.5766 -2e-5,-0.6774 0.25692,-1.2458 0.77082,-1.7052 0.45158,-0.4048 0.97714,-0.6073 1.57668,-0.6073 z m 0,0.7708 c -0.45939,0 -0.8487,0.1713 -1.16791,0.5139 -0.27253,0.3037 -0.40878,0.6463 -0.40877,1.0278 -1e-5,0.4671 0.17517,0.8564 0.52556,1.1679 0.29586,0.2725 0.64623,0.4088 1.05112,0.4087 0.44379,10e-5 0.82142,-0.1751 1.13288,-0.5255 0.27249,-0.3037 0.40875,-0.654 0.40877,-1.0511 -2e-5,-0.4438 -0.17132,-0.8214 -0.51388,-1.1329 -0.30368,-0.2725 -0.64627,-0.4088 -1.02777,-0.4088 z m -15.428114,7.79 c 0.506092,0.475 0.856466,0.7124 1.051121,0.7124 0.264723,0 0.766925,-0.4126 1.506606,-1.238 1.479349,-1.7051 2.779627,-3.1183 3.900827,-4.2395 0.41265,-0.4126 0.80974,-0.619 1.19127,-0.619 0.41265,0 1.09004,0.4399 2.03217,1.3198 3.34021,3.0132 6.22106,5.2205 8.64254,6.622 0.73187,0.4049 1.09782,0.9071 1.09784,1.5066 -2e-5,0.3037 -0.0818,0.5412 -0.24526,0.7125 -0.14017,0.1479 -0.30757,0.2219 -0.5022,0.2219 -0.33482,0 -1.1874,-0.5412 -2.55773,-1.6234 -2.1879,-1.7519 -4.7612,-4.1072 -7.7199,-7.0659 -0.30366,-0.3037 -0.52946,-0.4555 -0.67739,-0.4555 -0.21802,0 -0.57618,0.2959 -1.07447,0.8876 -1.56501,1.8453 -2.67453,3.2079 -3.328554,4.0877 -0.412667,0.5684 -0.747468,1.0628 -1.004404,1.4833 -0.155726,0.2413 -0.362057,0.362 -0.618993,0.362 -0.249159,0 -0.591746,-0.2297 -1.027763,-0.6891 -0.412665,-0.4515 -0.755252,-0.9693 -1.027762,-1.5533 z"
         style=""
         id="path3386" />
      <path
         d="m 122.24975,1073.8197 0.52556,-0.4088 c 1.8998,1.277 2.8497,2.4994 2.84971,3.6673 -1e-5,0.7163 -0.29588,1.0745 -0.88762,1.0745 -0.25694,0 -0.44381,-0.09 -0.56059,-0.2687 -0.0934,-0.1479 -0.18688,-0.4399 -0.2803,-0.8759 -0.20245,-1.0667 -0.75137,-2.1295 -1.64676,-3.1884 z m 4.33295,-1.1446 0.52556,-0.397 c 1.0044,0.8175 1.70125,1.526 2.09057,2.1256 0.35814,0.545 0.53722,1.0939 0.53724,1.6467 -2e-5,0.7631 -0.31925,1.1446 -0.95769,1.1446 -0.22581,0 -0.38932,-0.093 -0.49052,-0.2803 -0.0934,-0.1713 -0.18299,-0.4905 -0.26862,-0.9577 -0.20245,-1.1212 -0.6813,-2.2151 -1.43654,-3.2819 z m -1.55332,13.5945 -0.36205,-0.5839 c 2.6784,-1.6117 4.75339,-3.2896 6.22497,-5.0337 1.44041,-1.7052 2.47985,-3.6517 3.11832,-5.8396 0.16349,-0.5528 0.24525,-0.9538 0.24527,-1.2029 -2e-5,-0.2959 -0.31925,-0.5918 -0.95769,-0.8876 l 0.2219,-0.549 c 0.84088,0.1714 1.50659,0.4205 1.99713,0.7475 0.45157,0.2959 0.67737,0.6073 0.67739,0.9343 -2e-5,0.2103 -0.0623,0.3932 -0.18687,0.549 -0.17909,0.2336 -0.33871,0.5528 -0.47884,0.9576 -1.28472,3.0055 -2.75629,5.3179 -4.41471,6.9374 -1.47158,1.4327 -3.49985,2.7563 -6.08482,3.9709 z"
         style=""
         id="path3388" />
      <path
         d="m 152.05486,1073.7496 c 2.49932,0.6385 4.46141,1.3976 5.88627,2.2775 1.29248,0.7941 1.93872,1.5533 1.93874,2.2774 -2e-5,0.6696 -0.25696,1.0044 -0.77082,1.0044 -0.29589,0 -0.62291,-0.2414 -0.98105,-0.7241 -0.59954,-0.7553 -1.42098,-1.4871 -2.46429,-2.1957 -0.95771,-0.6618 -2.16065,-1.2613 -3.60885,-1.7986 -1e-5,1.5339 0.0156,2.9237 0.0467,4.1695 0.0934,2.7329 0.14014,4.7884 0.14015,6.1665 -10e-6,0.9266 -0.33481,1.3899 -1.0044,1.3899 -0.49053,0 -0.73579,-0.3504 -0.73579,-1.0512 0,-0.2335 0.0233,-0.6423 0.0701,-1.2263 0.109,-2.6083 0.1635,-5.676 0.16351,-9.2031 -1e-5,-3.6517 -0.0467,-5.7267 -0.14015,-6.225 -0.1168,-0.5372 -0.619,-0.9499 -1.50661,-1.238 l 0.21023,-0.6073 c 0.92653,0.039 1.70903,0.2531 2.3475,0.6424 0.48272,0.2881 0.72409,0.5606 0.7241,0.8175 -1e-5,0.2025 -0.0506,0.4127 -0.15182,0.6307 -0.10902,0.2725 -0.16352,0.7397 -0.16351,1.4015 z"
         style=""
         id="path3390" />
      <path
         d="m 182.89941,1067.4195 c 1.03553,0.3582 1.84529,0.8059 2.42926,1.3431 0.50608,0.4594 0.75912,0.9188 0.75914,1.3782 -2e-5,0.5606 -0.24139,0.8409 -0.7241,0.8409 -0.32704,0 -0.58787,-0.2492 -0.7825,-0.7475 -0.37375,-0.8954 -1.05114,-1.674 -2.03217,-2.3358 z m 2.20736,-1.6584 c 1.01217,0.3115 1.8297,0.7436 2.45261,1.2964 0.52943,0.475 0.79416,0.9382 0.79418,1.3898 -2e-5,0.5606 -0.22971,0.8409 -0.68907,0.8409 -0.30367,0 -0.57619,-0.2647 -0.81753,-0.7942 -0.35818,-0.7864 -1.05893,-1.5377 -2.10225,-2.254 z m -13.34924,11.0835 0.73579,0.1401 c -0.27252,2.3047 -0.9577,4.1461 -2.05553,5.5243 -0.5061,0.6229 -0.97715,0.9343 -1.41317,0.9343 -0.47495,0 -0.71243,-0.3659 -0.71243,-1.0978 0,-0.4361 0.2803,-0.8604 0.8409,-1.2731 1.37035,-1.0121 2.23849,-2.4214 2.60444,-4.2278 z m 10.16084,-0.6073 c 1.44819,0.9265 2.59664,1.9815 3.44534,3.165 0.63844,0.8799 0.95766,1.6935 0.95769,2.441 -3e-5,0.7941 -0.32704,1.1912 -0.98105,1.1912 -0.42825,0 -0.70855,-0.2803 -0.8409,-0.8409 -0.50611,-2.219 -1.53387,-4.037 -3.08328,-5.4541 z m -5.18553,-3.2819 c -1e-5,-0.7941 -0.0156,-1.7168 -0.0467,-2.7679 -0.0234,-0.5995 -0.11291,-1.0472 -0.26862,-1.3431 -0.23359,-0.3893 -0.72801,-0.6852 -1.48325,-0.8876 l 0.19855,-0.6424 c 1.06668,0.023 1.8959,0.1519 2.48765,0.3854 0.42822,0.1714 0.64234,0.4439 0.64235,0.8176 -1e-5,0.2102 -0.0234,0.4243 -0.0701,0.6423 l -0.0701,0.549 c -0.0857,0.8253 -0.12848,1.8686 -0.12847,3.13 1.57278,-0.1168 2.9003,-0.2336 3.98258,-0.3504 0.43601,-0.047 0.85645,-0.144 1.26135,-0.292 0.30364,-0.1246 0.55279,-0.1868 0.74746,-0.1869 0.70073,10e-5 1.23797,0.1246 1.61172,0.3738 0.31142,0.1946 0.46714,0.4438 0.46717,0.7474 -3e-5,0.3816 -0.28811,0.5723 -0.86426,0.5723 -0.44383,0 -0.85649,-0.015 -1.23799,-0.047 -0.52947,-0.031 -1.129,-0.047 -1.79858,-0.047 -0.7942,0 -2.18401,0.062 -4.16945,0.1868 -1e-5,3.9476 0.0584,6.8051 0.17519,8.5725 0.0311,0.3504 0.0467,0.6385 0.0467,0.8643 -2e-5,0.981 -0.1207,1.674 -0.36206,2.0789 -0.21802,0.3659 -0.48664,0.5489 -0.80585,0.5489 -0.25696,0 -0.46718,-0.2414 -0.63068,-0.7241 -0.16352,-0.4672 -0.35427,-0.7825 -0.57227,-0.946 -0.74748,-0.5684 -1.71295,-1.1368 -2.89643,-1.7052 l 0.17519,-0.5489 c 1.33141,0.4282 2.54215,0.7708 3.63221,1.0278 0.0156,-1.0512 0.0233,-2.223 0.0234,-3.5155 l 0,-1.5533 c -2e-5,-1.1523 -0.008,-2.4876 -0.0234,-4.0059 -1.54166,0.1557 -3.03269,0.3231 -4.47311,0.5022 -0.46717,0.054 -0.82533,0.1207 -1.07447,0.1985 -0.21023,0.078 -0.39321,0.1168 -0.54892,0.1168 -0.36595,0 -0.76694,-0.1946 -1.20295,-0.5839 -0.3971,-0.3504 -0.74747,-0.802 -1.05112,-1.3548 l 0.5022,-0.3854 c 0.73189,0.6384 1.45988,0.9577 2.18399,0.9577 0.76303,0 2.64337,-0.1285 5.64102,-0.3855 z"
         style=""
         id="path3392" />
      <path
         d="m 199.89253,1073.7496 c 2.49932,0.6385 4.46141,1.3976 5.88628,2.2775 1.29247,0.7941 1.93872,1.5533 1.93873,2.2774 -1e-5,0.6696 -0.25695,1.0044 -0.77082,1.0044 -0.29589,0 -0.6229,-0.2414 -0.98104,-0.7241 -0.59955,-0.7553 -1.42098,-1.4871 -2.4643,-2.1957 -0.9577,-0.6618 -2.16065,-1.2613 -3.60885,-1.7986 -1e-5,1.5339 0.0156,2.9237 0.0467,4.1695 0.0934,2.7329 0.14014,4.7884 0.14015,6.1665 -1e-5,0.9266 -0.33481,1.3899 -1.0044,1.3899 -0.49054,0 -0.7358,-0.3504 -0.73579,-1.0512 -1e-5,-0.2335 0.0233,-0.6423 0.0701,-1.2263 0.10899,-2.6083 0.16349,-5.676 0.1635,-9.2031 -1e-5,-3.6517 -0.0467,-5.7267 -0.14015,-6.225 -0.1168,-0.5372 -0.619,-0.9499 -1.5066,-1.238 l 0.21022,-0.6073 c 0.92654,0.039 1.70904,0.2531 2.34751,0.6424 0.48272,0.2881 0.72409,0.5606 0.7241,0.8175 -1e-5,0.2025 -0.0506,0.4127 -0.15183,0.6307 -0.10901,0.2725 -0.16352,0.7397 -0.16351,1.4015 z"
         style=""
         id="path3394" />
      <path
         d="m 214.84181,1084.3543 c 2.03995,-1.5261 3.49984,-3.2935 4.37967,-5.3024 0.76303,-1.744 1.14455,-3.7879 1.14455,-6.1315 0,-0.6618 -0.12069,-1.1017 -0.36205,-1.3197 -0.33481,-0.2881 -0.66182,-0.4866 -0.98105,-0.5957 l 0.24527,-0.619 c 0.84867,0.093 1.53385,0.2842 2.05552,0.5723 0.56059,0.3037 0.84089,0.6307 0.8409,0.9811 -1e-5,0.2024 -0.0312,0.4165 -0.0934,0.6423 -0.0623,0.2725 -0.14405,0.8137 -0.24526,1.6234 -0.35817,2.7952 -1.07838,5.022 -2.16063,6.6805 -0.98884,1.526 -2.45262,2.873 -4.39135,4.0409 z m 20.71876,-9.4251 c -1.03557,1.674 -2.32027,3.2312 -3.85411,4.6717 -1.06671,1.0122 -2.51881,2.2073 -4.35631,3.5855 -0.42825,0.3192 -0.70076,0.5567 -0.81754,0.7124 -0.13238,0.1946 -0.27253,0.292 -0.42045,0.292 -0.30367,0 -0.6229,-0.2297 -0.95769,-0.6891 -0.22581,-0.3114 -0.3387,-0.5762 -0.33869,-0.7942 -1e-5,-0.062 0.0389,-0.1985 0.11679,-0.4088 0.0623,-0.179 0.11288,-0.5528 0.15183,-1.1212 0.0311,-0.8642 0.0467,-3.0988 0.0467,-6.7038 -1e-5,-2.7017 -0.0623,-4.255 -0.18686,-4.6599 -0.15574,-0.5061 -0.58786,-0.8721 -1.29638,-1.0979 l 0.21022,-0.6774 c 1.23019,0.1869 2.04383,0.4088 2.44094,0.6657 0.33478,0.2103 0.50218,0.5217 0.5022,0.9344 -2e-5,0.2024 -0.0312,0.4204 -0.0934,0.654 -0.0857,0.3193 -0.14405,0.9227 -0.17518,1.8103 -0.0935,4.7884 -0.14016,8.043 -0.14015,9.7637 1.72071,-0.9577 3.30517,-2.0711 4.7534,-3.3402 1.23018,-1.0901 2.52656,-2.4409 3.88915,-4.0527 z"
         style=""
         id="path3396" />
      <path
         d="m 248.89812,1074.6606 c 0.46716,0 0.88371,0.183 1.24967,0.5489 0.31922,0.3193 0.47883,0.7086 0.47884,1.1679 -1e-5,0.3115 -0.0857,0.6151 -0.25694,0.911 -0.35817,0.545 -0.84869,0.8175 -1.47157,0.8175 -0.41267,0 -0.77862,-0.1362 -1.09783,-0.4087 -0.41268,-0.366 -0.61901,-0.8059 -0.619,-1.3198 -1e-5,-0.5839 0.24525,-1.0511 0.73579,-1.4015 0.30364,-0.2102 0.63066,-0.3153 0.98104,-0.3153 z"
         style=""
         id="path3398" />
      <path
         d="m 266.55695,1070.8182 3.13001,0 c 0.52166,-1.1679 1.02386,-2.7719 1.5066,-4.8118 1.59614,0.3114 2.39421,0.6229 2.39422,0.9343 -1e-5,0.1947 -0.32702,0.3621 -0.98104,0.5022 -0.54504,1.0901 -1.24579,2.2152 -2.10224,3.3753 l 8.31553,0 1.03944,-1.2731 c 1.06667,0.8332 1.60002,1.386 1.60004,1.6585 -2e-5,0.093 -0.0662,0.1791 -0.19854,0.2569 l -0.68907,0.4088 0,14.996 -1.48325,0 0,-1.7519 -12.80032,0 0,2.0789 -1.5066,0 0,-17.215 c 0.47494,0.1869 0.98493,0.4282 1.52996,0.7241 z m -0.26862,0.5956 0,5.9797 12.80032,0 0,-5.9797 z m 12.80032,13.104 0,-6.5287 -12.80032,0 0,6.5287 z"
         style=""
         id="path3400" />
      <path
         d="m 289.47137,1073.1774 c -0.86426,0.8331 -1.81416,1.6156 -2.8497,2.3475 l -0.40877,-0.4789 c 2.80298,-2.3514 4.95583,-5.4697 6.45855,-9.355 1.49492,0.3582 2.24238,0.7008 2.24239,1.0278 -10e-6,0.218 -0.37374,0.3621 -1.12119,0.4321 -0.31924,0.5762 -0.51779,0.9422 -0.59564,1.0979 l 5.5943,0 1.02776,-1.1212 c 1.02775,0.8954 1.54163,1.4599 1.54165,1.6934 -2e-5,0.1324 -0.11681,0.2375 -0.35038,0.3154 l -0.68906,0.2336 c -0.97328,1.2457 -1.95432,2.363 -2.94314,3.3519 l 5.45415,0 0.93433,-1.1446 c 0.96545,0.7864 1.44819,1.2886 1.44821,1.5066 -2e-5,0.109 -0.0584,0.1947 -0.17519,0.257 l -0.61899,0.4321 0,6.2717 -1.36646,0 0,-1.0511 -12.18132,0 0,4.8818 c -10e-6,0.4905 0.14403,0.7864 0.43212,0.8876 0.45938,0.1558 2.44482,0.2336 5.95636,0.2336 3.12998,0 5.23612,-0.086 6.3184,-0.2569 0.4905,-0.1012 0.83309,-0.4283 1.02776,-0.9811 0.24914,-0.763 0.42432,-1.7713 0.52556,-3.0249 l 0.64235,0.2687 c -2e-5,1.6584 0.0662,2.6784 0.19855,3.0599 0.11677,0.2803 0.40875,0.4321 0.87593,0.4555 -0.0234,0.8097 -0.42825,1.2964 -1.21463,1.4599 -0.98106,0.179 -3.51932,0.2686 -7.61478,0.2686 -4.53151,0 -7.09702,-0.1129 -7.69654,-0.3387 -0.56839,-0.2414 -0.85258,-0.8487 -0.85258,-1.822 z m 1.4015,0.1401 0,5.0804 5.36071,0 0,-5.0804 z m 0.26862,-0.5956 5.32568,0 c 0.98882,-1.3003 1.7791,-2.5928 2.37086,-3.8775 l -6.00307,0 c -0.75526,1.2614 -1.59226,2.4098 -2.51101,3.4453 0.14014,0.062 0.41266,0.2064 0.81754,0.4322 z m 6.43519,0.5956 0,5.0804 5.47751,0 0,-5.0804 z"
         style=""
         id="path3402" />
      <path
         d="m 319.48673,1073.7496 c 2.49932,0.6385 4.46141,1.3976 5.88627,2.2775 1.29247,0.7941 1.93872,1.5533 1.93874,2.2774 -2e-5,0.6696 -0.25696,1.0044 -0.77082,1.0044 -0.29589,0 -0.62291,-0.2414 -0.98105,-0.7241 -0.59954,-0.7553 -1.42098,-1.4871 -2.46429,-2.1957 -0.95771,-0.6618 -2.16065,-1.2613 -3.60885,-1.7986 -1e-5,1.5339 0.0156,2.9237 0.0467,4.1695 0.0934,2.7329 0.14014,4.7884 0.14015,6.1665 -10e-6,0.9266 -0.33481,1.3899 -1.0044,1.3899 -0.49053,0 -0.73579,-0.3504 -0.73579,-1.0512 0,-0.2335 0.0233,-0.6423 0.0701,-1.2263 0.10899,-2.6083 0.1635,-5.676 0.16351,-9.2031 -10e-6,-3.6517 -0.0467,-5.7267 -0.14015,-6.225 -0.1168,-0.5372 -0.619,-0.9499 -1.50661,-1.238 l 0.21023,-0.6073 c 0.92653,0.039 1.70903,0.2531 2.3475,0.6424 0.48272,0.2881 0.72409,0.5606 0.7241,0.8175 -10e-6,0.2025 -0.0506,0.4127 -0.15183,0.6307 -0.10901,0.2725 -0.16351,0.7397 -0.1635,1.4015 z"
         style=""
         id="path3404" />
      <path
         d="m 353.79997,1073.3525 c -1.8609,2.4916 -3.64001,4.4654 -5.33736,5.9214 -1.75188,1.5105 -4.00595,3.0365 -6.76221,4.5782 -0.35817,0.2024 -0.63068,0.4243 -0.81754,0.6657 -0.15573,0.2258 -0.31534,0.3387 -0.47884,0.3387 -0.2881,0 -0.64625,-0.2881 -1.07448,-0.8643 -0.33481,-0.436 -0.50221,-0.7942 -0.5022,-1.0745 -10e-6,-0.1168 0.0389,-0.2686 0.11679,-0.4554 0.1635,-0.3971 0.24525,-2.3437 0.24526,-5.8396 -10e-6,-4.2746 -0.0467,-6.5948 -0.14015,-6.9608 -0.0623,-0.288 -0.21023,-0.5255 -0.44381,-0.7124 -0.1713,-0.1401 -0.45549,-0.3075 -0.85257,-0.5022 l 0.21022,-0.619 c 0.9499,0.1324 1.70904,0.366 2.27743,0.7008 0.49051,0.2803 0.73578,0.5723 0.73578,0.8759 0,0.1947 -0.0467,0.4321 -0.14015,0.7124 -0.10122,0.3115 -0.16351,0.8954 -0.18686,1.7519 -0.0311,1.4093 -0.0662,3.2468 -0.10511,5.5125 -0.0389,2.4994 -0.0701,4.2006 -0.0934,5.1038 4.60156,-1.9465 8.87612,-5.1583 12.82368,-9.6353 z"
         style=""
         id="path3406" />
      <path
         d="m 369.81206,1073.1774 0,2.6394 c -2e-5,3.6284 0.0545,6.1627 0.1635,7.6031 0.0156,0.1558 0.0234,0.3543 0.0234,0.5957 -10e-6,0.7241 -0.11291,1.2263 -0.33869,1.5066 -0.21024,0.2413 -0.4555,0.362 -0.73579,0.362 -0.19466,0 -0.36595,-0.09 -0.51388,-0.2686 -0.1168,-0.1479 -0.1752,-0.3153 -0.17518,-0.5022 -2e-5,-0.654 0.008,-1.0823 0.0233,-1.2847 0.14014,-2.1645 0.21022,-5.4191 0.21023,-9.7637 -2.68621,1.7051 -5.64492,3.165 -8.87613,4.3796 l -0.30366,-0.6423 c 4.04875,-1.8765 7.60699,-4.0721 10.67472,-6.587 1.76742,-1.4327 2.65114,-2.3475 2.65116,-2.7446 -2e-5,-0.2492 -0.26475,-0.545 -0.79418,-0.8876 l 0.26862,-0.5256 c 1.79856,0.4672 2.69785,1.0005 2.69787,1.6 -2e-5,0.1713 -0.0818,0.3232 -0.24526,0.4555 -0.20246,0.1791 -0.46329,0.4283 -0.7825,0.7475 -0.80198,0.802 -2.11783,1.9076 -3.94754,3.3169 z"
         style=""
         id="path3408" />
      <path
         d="m 59.007317,1095.5662 c 0.474937,0.6151 0.984925,1.1796 1.529965,1.6935 0.895383,-0.9187 1.63506,-1.9037 2.219032,-2.9548 1.035531,0.5528 1.553304,0.9849 1.553323,1.2964 -1.9e-5,0.1401 -0.159633,0.2102 -0.478844,0.2102 -0.01559,0 -0.163526,-0.016 -0.443806,-0.047 -0.474969,0.4827 -1.273041,1.1251 -2.39422,1.927 0.40486,0.366 0.914848,0.7514 1.529965,1.1563 0.825306,-0.6852 1.709026,-1.6273 2.65116,-2.8264 0.988811,0.5995 1.483227,1.0278 1.483248,1.2847 -2.1e-5,0.1635 -0.167422,0.2453 -0.502202,0.2453 -0.0078,0 -0.182993,-0.016 -0.52556,-0.047 -0.638478,0.5917 -1.475481,1.164 -2.511011,1.7168 1.300256,0.7475 2.95869,1.347 4.975305,1.7986 -0.373754,0.3971 -0.692983,0.8603 -0.957688,1.3898 -1.424873,-0.5217 -2.507137,-0.9772 -3.246795,-1.3665 l -2.802989,0 0,3.3052 2.721235,0 1.109517,-1.3898 c 0.638438,0.5762 1.148426,1.094 1.529964,1.5533 l -0.245261,0.4322 -5.115455,0 0,3.7139 c -1.5e-5,0.4049 0.112883,0.6424 0.338695,0.7124 0.217994,0.1168 0.782484,0.1752 1.693472,0.1752 1.362545,0 2.129473,-0.1674 2.300787,-0.5022 0.233562,-0.5061 0.400962,-1.4482 0.502202,-2.8263 l 0.642351,0.2569 c -2.1e-5,1.1913 0.05448,1.9426 0.163508,2.2541 0.124556,0.3893 0.41264,0.5723 0.864255,0.5489 -0.02338,0.6463 -0.288107,1.0511 -0.79418,1.2146 -0.49833,0.1947 -1.596166,0.292 -3.293512,0.292 -1.775242,0 -2.845827,-0.097 -3.211758,-0.292 -0.381532,-0.2102 -0.572291,-0.6812 -0.572277,-1.4131 l 0,-4.1344 -2.978175,0 c -0.218021,3.4336 -2.394229,5.5709 -6.528628,6.4118 l -0.338694,-0.5723 c 3.464797,-1.0745 5.306203,-3.021 5.524223,-5.8395 l -4.519819,0 -0.291978,-0.5957 4.835155,0 0,-3.3052 -1.483248,0 c -1.012198,0.6541 -2.215146,1.2536 -3.608848,1.7986 l -0.315336,-0.5255 c 3.34022,-1.5495 5.804512,-3.8619 7.392883,-6.9374 l -3.994259,0 -0.210224,-0.5957 4.204483,0 0.829217,-1.0044 c 0.92653,0.7319 1.389801,1.1874 1.389815,1.3665 -1.4e-5,0.086 -0.07009,0.1635 -0.210224,0.2336 z m -0.455486,0.5022 c -1.082277,1.8298 -2.331941,3.2897 -3.748997,4.3797 l 7.147621,0 0.327016,-0.3621 c -1.36258,-0.9343 -2.604458,-2.2735 -3.72564,-4.0176 z m 1.167912,4.9753 -2.954817,0 0,3.3052 2.954817,0 z m -9.658631,-8.2454 6.62206,0 0,-3.13 c 1.502701,0 2.254057,0.1907 2.25407,0.5722 -1.3e-5,0.1869 -0.295884,0.3855 -0.887613,0.5957 l 0,1.9621 6.77389,0 1.19127,-1.53 c 0.529432,0.475 1.054992,1.0317 1.576681,1.6701 l -0.233583,0.4555 -17.483641,0 0,5.0687 c -5e-6,5.7228 -1.125092,9.9974 -3.375266,12.8237 l -0.502202,-0.362 c 1.658433,-2.9042 2.487649,-7.0503 2.487652,-12.4383 l 0,-6.3534 c 0.96547,0.4049 1.49103,0.6268 1.576682,0.6657 z m 1.646755,2.9431 c 1.977656,0.7086 2.966487,1.5183 2.966497,2.4293 -10e-6,0.5761 -0.260843,0.8642 -0.782501,0.8642 -0.303666,0 -0.529462,-0.2063 -0.677389,-0.619 -0.280307,-0.8876 -0.868155,-1.6467 -1.763547,-2.2774 z"
         style=""
         id="path3410" />
      <path
         d="m 86.932092,1103.8701 c 0.132345,-0.1557 0.408751,-0.5217 0.829217,-1.0979 1.090032,0.693 1.635057,1.1835 1.635077,1.4716 -2e-5,0.1791 -0.194672,0.2686 -0.583956,0.2686 -0.02338,0 -0.171313,-0.015 -0.443807,-0.047 -0.981064,0.8565 -2.180119,1.7168 -3.597168,2.5811 1.829711,1.1913 4.079886,1.9893 6.750531,2.3942 -0.490545,0.3971 -0.872063,0.8837 -1.144554,1.4599 -4.663878,-1.1757 -7.972959,-3.6789 -9.927252,-7.5097 l -3.819072,0 0,5.279 c 2.234596,-0.3192 4.251188,-0.6696 6.049784,-1.0511 l 0.116791,0.619 c -3.122228,0.9732 -6.193833,1.709 -9.214825,2.2073 -0.116795,0.5528 -0.27641,0.8292 -0.478844,0.8292 -0.319233,0 -0.685178,-0.7085 -1.097837,-2.1256 1.736291,-0.1557 2.822448,-0.2608 3.258474,-0.3153 l 0,-11.6674 c -1.393713,0.9187 -2.884745,1.7246 -4.473102,2.4175 l -0.338695,-0.5022 c 4.554851,-2.3124 7.97683,-5.5242 10.265946,-9.6352 1.339193,0.3036 2.008795,0.6034 2.008809,0.8993 -1.4e-5,0.1946 -0.342601,0.3387 -1.027763,0.4321 2.748471,2.7018 6.166557,4.7106 10.254267,6.0264 -0.506117,0.436 -0.864277,0.8993 -1.074479,1.3898 -3.815197,-1.6117 -7.011379,-3.9008 -9.588557,-6.8673 -1.167923,1.7519 -2.810784,3.4454 -4.928588,5.0804 l 0.502202,0.257 3.421982,0 0,-2.8965 c 1.502701,0.07 2.254056,0.2765 2.25407,0.619 -1.4e-5,0.1869 -0.319242,0.3894 -0.957688,0.6073 l 0,1.6702 3.900826,0 0.677389,-0.5957 c 0.879809,0.5451 1.319722,0.911 1.31974,1.0979 -1.8e-5,0.086 -0.05841,0.1713 -0.175187,0.2569 l -0.373731,0.3387 z m -0.221904,0.2569 -1.097837,0 0,-0.7358 -4.344632,0 c 0.716306,1.2302 1.701244,2.3125 2.954817,3.2468 0.872025,-0.7474 1.701242,-1.5844 2.487652,-2.511 z m -1.097837,-1.3314 0,-2.6161 -8.981243,0 0,2.6161 z m 0,-3.2118 0,-2.3241 -8.981243,0 0,2.3241 z"
         style=""
         id="path3412" />
      <path
         d="m 103.78506,1094.9005 3.92419,0 0,-5.2089 c 1.64284,0.07 2.46427,0.2765 2.46429,0.619 -2e-5,0.2258 -0.35818,0.4555 -1.07448,0.6891 l 0,3.9008 3.99426,0 0.89929,-1.1212 c 0.98103,0.7786 1.47155,1.2808 1.47157,1.5066 -2e-5,0.086 -0.0662,0.1791 -0.19854,0.2803 l -0.57228,0.4088 0,14.8091 -1.38982,0 0,-1.8453 -9.70534,0 0,1.8453 -1.38982,0 0,-16.7245 c 0.36594,0.1635 0.8915,0.4438 1.57668,0.8409 z m -0.18686,0.5956 0,5.8396 4.11105,0 0,-5.8396 z m 9.70534,12.8471 0,-6.4119 -4.20448,0 0,6.4119 z m 0,-7.0075 0,-5.8396 -4.20448,0 0,5.8396 z m -5.59429,0.5956 -4.11105,0 0,6.4119 4.11105,0 z m -12.718566,-6.7155 c 2.219029,0.6385 3.328544,1.5222 3.328549,2.6512 -5e-6,0.6229 -0.264731,0.9343 -0.79418,0.9343 -0.373736,0 -0.618997,-0.1985 -0.735785,-0.5956 -0.311446,-0.981 -0.992727,-1.8375 -2.043845,-2.5694 z m 1.786905,-5.1738 c 2.366963,0.5995 3.550441,1.4365 3.550451,2.511 -1e-5,0.6385 -0.28809,0.9577 -0.864253,0.9577 -0.358166,0 -0.618999,-0.2569 -0.782501,-0.7708 -0.28809,-0.8331 -1.008302,-1.5728 -2.160637,-2.2191 z m 4.881871,4.8585 -2.919779,9.3316 c -0.319234,1.0512 -0.478849,1.822 -0.478843,2.3125 -6e-6,0.1635 0.03892,0.4438 0.116791,0.8409 0.163502,0.7708 0.245256,1.4716 0.245261,2.1022 -5e-6,1.0512 -0.342592,1.5767 -1.027762,1.5767 -0.576174,0 -0.864259,-0.2452 -0.864255,-0.7358 -4e-6,-0.023 0.03893,-0.3854 0.116791,-1.0861 0.09343,-0.693 0.140146,-1.2731 0.140149,-1.7402 -3e-6,-1.0122 -0.284195,-1.6974 -0.852575,-2.0555 -0.30366,-0.1947 -0.82922,-0.3543 -1.576681,-0.4789 l 0,-0.619 c 0.474949,0.031 0.755247,0.047 0.840896,0.047 0.965471,0 1.627287,-0.3114 1.985451,-0.9343 1.191264,-2.0322 2.425357,-5.0298 3.702276,-8.9929 z"
         style=""
         id="path3414" />
      <path
         d="m 131.21931,1114.3229 -0.68907,0.3854 c -2.88864,-3.5582 -4.33295,-7.5058 -4.33295,-11.8426 0,-4.3369 1.44431,-8.2844 4.33295,-11.8427 l 0.68907,0.4088 c -2.26575,3.3636 -3.39863,7.1827 -3.39862,11.4572 -1e-5,4.2357 1.13287,8.0469 3.39862,11.4339 z"
         style=""
         id="path3416" />
      <path
         d="m 139.48813,1106.7899 0,0.689 -1.3431,0 0,-9.1097 c 0.4983,0.1557 1.00051,0.3387 1.50661,0.5489 l 10.63968,0 0.88761,-0.8409 c 0.88759,0.6074 1.3314,0.9889 1.33142,1.1446 -2e-5,0.093 -0.0623,0.1908 -0.18687,0.292 l -0.5022,0.362 0,7.3462 -1.3431,0 0,-0.4321 z m 0,-5.4776 10.99005,0 0,-1.7985 -10.99005,0 z m 0,0.5957 0,1.7285 10.99005,0 0,-1.7285 z m 0,2.3241 0,1.9621 10.99005,0 0,-1.9621 z m 8.31553,-11.866 0,0.4789 c 0.26471,0.9188 0.87981,1.7168 1.8453,2.3942 1.37812,0.9655 3.25846,1.6507 5.64102,2.0555 -0.47497,0.4906 -0.80199,0.9461 -0.98105,1.3665 -3.75291,-1.0978 -5.97583,-2.694 -6.66877,-4.7884 -0.66184,2.3514 -3.11834,3.928 -7.36953,4.73 l -0.33869,-0.5489 c 2.40589,-0.5918 4.21615,-1.5533 5.43079,-2.8848 0.73188,-0.8097 1.09782,-1.6467 1.09783,-2.511 l 0,-0.292 -2.76795,0 c -0.71633,0.841 -1.53776,1.5884 -2.46429,2.2424 l -0.3387,-0.3503 c 1.3392,-1.3392 2.30467,-2.9159 2.89643,-4.7301 1.30804,0.2103 1.96207,0.4633 1.96209,0.7592 -2e-5,0.1713 -0.32703,0.3309 -0.98105,0.4788 -0.14795,0.2959 -0.35428,0.6307 -0.61899,1.0044 l 8.15202,0 0.91098,-1.0745 c 0.98881,0.911 1.48322,1.4911 1.48324,1.7402 -2e-5,0.1324 -0.10513,0.2219 -0.31533,0.2686 l -0.66571,0.1635 c -0.60734,0.6074 -1.39762,1.1991 -2.37086,1.7753 l -0.40877,-0.3621 c 0.61508,-0.6851 1.07056,-1.3236 1.36645,-1.9154 z m 6.56367,18.745 c -0.19468,0 -0.5139,-0.1518 -0.95769,-0.4555 -1.38594,-0.9265 -3.7023,-1.8336 -6.94908,-2.7212 l 0.31534,-0.5022 c 5.50474,0.8331 8.25712,1.8142 8.25714,2.9431 -2e-5,0.4906 -0.22193,0.7358 -0.66571,0.7358 z m -19.71436,0.1051 -0.33869,-0.5489 c 2.71734,-0.6852 5.13491,-1.7713 7.25273,-3.2584 1.19126,0.5761 1.7869,0.9927 1.78691,1.2496 -10e-6,0.1713 -0.2297,0.257 -0.68907,0.257 -0.22581,0 -0.40878,-0.01 -0.54892,-0.023 -2.37476,1.0978 -4.86241,1.8725 -7.46296,2.3241 z m 2.79131,-18.161 c -0.30366,0 -0.53335,-0.1752 -0.68906,-0.5255 -0.30366,-0.7086 -0.91098,-1.347 -1.82195,-1.9154 l 0.26862,-0.3971 c 1.99324,0.5995 2.98985,1.273 2.98986,2.0205 -1e-5,0.545 -0.24916,0.8175 -0.74747,0.8175 z m 3.90083,-1.6 -3.49206,4.1577 c -0.18687,0.2336 -0.2803,0.4984 -0.2803,0.7942 0,0.1558 0.0311,0.3621 0.0934,0.619 0.0623,0.257 0.0934,0.5295 0.0934,0.8176 0,0.288 -0.10901,0.5177 -0.32702,0.689 -0.17908,0.1324 -0.38152,0.1986 -0.60731,0.1986 -0.44381,0 -0.66571,-0.1674 -0.66571,-0.5022 0,-0.2725 0.0311,-0.5217 0.0934,-0.7475 0.0857,-0.2102 0.12847,-0.4866 0.12847,-0.8292 0,-0.2336 -0.0857,-0.4166 -0.25694,-0.5489 -0.21022,-0.1635 -0.60731,-0.327 -1.19127,-0.4906 l 0.17519,-0.4321 c 0.55281,0.1168 0.8954,0.1752 1.02776,0.1752 0.31923,0 0.59563,-0.097 0.82922,-0.292 0.51388,-0.4126 1.21852,-1.0511 2.11392,-1.9154 0.81753,-0.7863 1.4521,-1.4404 1.9037,-1.962 z"
         style=""
         id="path3418" />
      <path
         d="m 176.07881,1101.908 -2.60444,0 0,7.1242 c -2e-5,1.3081 -0.75137,1.9621 -2.25407,1.9621 -2e-5,-0.4671 -0.25306,-0.8097 -0.75914,-1.0277 -0.38932,-0.1557 -1.05892,-0.3154 -2.00881,-0.4789 l 0,-0.6423 c 1.18347,0.1557 2.12948,0.2336 2.83802,0.2336 0.54501,0 0.81753,-0.2531 0.81754,-0.7592 l 0,-6.4118 -2.53437,0 0,1.1679 -1.3431,0 0,-8.9345 0.29198,0.1401 c 0.41265,0.1791 0.80974,0.3777 1.19127,0.5957 l 1.60004,0 c 0.24914,-0.9733 0.42822,-1.931 0.53724,-2.8731 l -5.40743,0 0,5.9563 c -1e-5,5.8941 -1.26914,10.2893 -3.80739,13.1858 l -0.47885,-0.4088 c 1.93094,-3.0288 2.89642,-7.28 2.89642,-12.7536 l 0,-7.3111 c 0.51388,0.1869 1.06279,0.4321 1.64676,0.7358 l 10.02068,0 1.1796,-1.53 c 0.0934,0.078 0.19852,0.1752 0.31533,0.292 0.56058,0.5372 0.9966,0.981 1.30806,1.3314 l -0.25694,0.5022 -5.54758,0 c -0.45939,0.9499 -1.01221,1.9076 -1.65843,2.8731 l 3.80739,0 0.85257,-1.0278 c 0.9966,0.7475 1.49491,1.2341 1.49493,1.4599 -2e-5,0.109 -0.074,0.2102 -0.2219,0.3036 l -0.57228,0.3855 0,7.0308 -1.3431,0 z m 0,-0.5957 0,-2.7329 -6.50527,0 0,2.7329 z m 0,-3.3285 0,-2.511 -6.50527,0 0,2.511 z m -18.03256,-2.7212 c 1.86087,0.7397 2.79131,1.6312 2.79131,2.6745 0,0.6073 -0.2803,0.911 -0.84089,0.911 -0.37374,0 -0.59564,-0.2142 -0.66571,-0.6424 -0.18687,-0.9655 -0.728,-1.8141 -1.6234,-2.546 z m 1.67012,-5.1739 c 1.96208,0.6229 2.94313,1.4677 2.94313,2.5344 0,0.6229 -0.28809,0.9343 -0.86425,0.9343 -0.31145,0 -0.52557,-0.2452 -0.64235,-0.7358 -0.21802,-0.8642 -0.80976,-1.6156 -1.77523,-2.254 z m 15.24125,13.758 c 1.51826,0.8643 2.72121,1.8998 3.60885,3.1067 0.39706,0.5372 0.59561,1.0628 0.59563,1.5766 -2e-5,0.6696 -0.28032,1.0044 -0.8409,1.0044 -0.36596,0 -0.64237,-0.3192 -0.82921,-0.9576 -0.4594,-1.5183 -1.42488,-2.951 -2.89643,-4.298 z m -9.64696,5.8162 c 1.37034,-1.5338 2.40979,-3.4336 3.11833,-5.6994 1.37034,0.5295 2.05551,0.9538 2.05552,1.273 -1e-5,0.2103 -0.3426,0.3271 -1.02776,0.3504 -0.88762,1.8453 -2.13339,3.3519 -3.73732,4.5198 z m -0.98104,-15.3814 -2.9665,10.4528 c -0.26473,0.9811 -0.39709,1.6234 -0.39709,1.9271 0,0.1791 0.0311,0.3971 0.0934,0.654 0.218,1.1134 0.32701,1.892 0.32701,2.3358 0,0.9422 -0.36595,1.4132 -1.09784,1.4132 -0.53724,0 -0.80586,-0.2803 -0.80586,-0.8409 0,-0.023 0.0195,-0.1713 0.0584,-0.4438 0.0545,-0.3893 0.10122,-0.7085 0.14015,-0.9577 0.0934,-0.6073 0.14015,-1.1445 0.14015,-1.6117 0,-1.2769 -0.6151,-2.0244 -1.8453,-2.2424 l 0,-0.619 c 0.30365,0.047 0.5567,0.07 0.75914,0.07 0.74746,0 1.24966,-0.2725 1.50661,-0.8175 0.8331,-1.6585 1.86865,-4.4537 3.10664,-8.3857 l 0.40877,-1.343 z"
         style=""
         id="path3420" />
      <path
         d="m 193.78436,1100.8335 c 3.05213,1.2769 5.26726,2.6161 6.64542,4.0176 0.7163,0.693 1.07446,1.2847 1.07448,1.7752 -2e-5,0.7631 -0.28811,1.1446 -0.86426,1.1446 -0.2336,0 -0.47886,-0.1985 -0.73578,-0.5956 -1.52609,-2.2424 -3.71787,-4.15 -6.57535,-5.7228 -1.44043,1.6896 -2.98597,3.1028 -4.63661,4.2395 -1.54943,1.0667 -3.33634,1.9972 -5.36071,2.7913 l -0.26862,-0.6657 c 3.39472,-1.783 6.11596,-3.8152 8.1637,-6.0965 1.89979,-2.1256 3.42976,-4.6872 4.5899,-7.6848 -2.93537,0.3893 -5.16218,0.7007 -6.68046,0.9343 -0.3971,0.07 -0.66572,0.1363 -0.80586,0.1985 -0.21802,0.078 -0.44381,0.1168 -0.67739,0.1168 -0.25695,0 -0.58785,-0.253 -0.99272,-0.7591 -0.35817,-0.4438 -0.63847,-0.9227 -0.8409,-1.4366 l 0.57228,-0.3386 c 0.35036,0.3971 0.63066,0.6501 0.84089,0.7591 0.24915,0.1324 0.57227,0.1986 0.96937,0.1985 1.71293,10e-5 4.02539,-0.1829 6.9374,-0.5489 0.36593,-0.047 0.69294,-0.1674 0.98104,-0.362 0.24136,-0.1402 0.40876,-0.2102 0.50221,-0.2103 0.1557,10e-5 0.45157,0.2142 0.88761,0.6424 0.42822,0.436 0.64233,0.7553 0.64235,0.9577 -2e-5,0.1791 -0.10513,0.3153 -0.31534,0.4088 -0.32703,0.1479 -0.61122,0.4671 -0.85257,0.9576 -0.98106,1.9933 -2.04775,3.7529 -3.20008,5.279 z"
         style=""
         id="path3422" />
      <path
         d="m 217.96014,1098.8714 c -0.11681,2.8653 -0.60343,5.096 -1.45989,6.6921 -1.05113,2.0011 -2.73292,3.5427 -5.04538,4.625 l -0.40877,-0.584 c 2.03216,-1.2769 3.4648,-2.9003 4.29792,-4.8702 0.62287,-1.4949 0.9421,-3.4025 0.95768,-5.7227 -2.34362,0.2413 -4.20059,0.4671 -5.57094,0.6774 -0.28809,0.047 -0.50999,0.1012 -0.66571,0.1635 -0.2258,0.062 -0.38541,0.093 -0.47884,0.093 -0.41267,0 -0.86426,-0.2375 -1.35478,-0.7124 -0.41266,-0.3893 -0.76693,-0.8604 -1.0628,-1.4132 l 0.5022,-0.4321 c 0.52945,0.4204 0.93433,0.689 1.21463,0.8058 0.28808,0.1168 0.65014,0.1752 1.08616,0.1752 1.15233,0 3.58159,-0.1596 7.28777,-0.4788 3.28571,-0.2881 5.09597,-0.4944 5.43079,-0.619 0.46715,-0.1791 0.87592,-0.2686 1.22631,-0.2686 0.62287,0 1.12507,0.1207 1.50661,0.362 0.35035,0.218 0.52554,0.4983 0.52556,0.8409 -2e-5,0.3504 -0.31925,0.5256 -0.95769,0.5256 l -2.37086,-0.058 c -0.94992,0 -2.50324,0.066 -4.65997,0.1985 z m -7.11258,-6.7856 c 0.72409,0.6152 1.41705,0.9227 2.07888,0.9227 1.37034,0 3.14946,-0.1285 5.33736,-0.3854 0.62287,-0.078 1.14064,-0.2141 1.55332,-0.4088 0.28807,-0.1401 0.51776,-0.2102 0.68907,-0.2102 0.47493,0 0.90706,0.1012 1.29638,0.3036 0.36593,0.1947 0.5489,0.4283 0.54892,0.7008 -2e-5,0.366 -0.27253,0.5567 -0.81754,0.5723 -2.86529,0.1168 -5.60599,0.3192 -8.2221,0.6073 -0.10901,0.016 -0.2297,0.039 -0.36205,0.07 -0.18688,0.047 -0.36985,0.07 -0.54892,0.07 -0.61511,10e-5 -1.30028,-0.615 -2.05553,-1.8453 z"
         style=""
         id="path3424" />
      <path
         d="m 231.37943,1098.778 c 0.73968,0.7942 1.53775,1.1913 2.39422,1.1913 1.42485,0 2.82634,-0.031 4.20449,-0.093 1.68178,-0.07 4.076,-0.2063 7.18265,-0.4088 0.91874,-0.054 1.54163,-0.1362 1.86866,-0.2452 0.25693,-0.093 0.47883,-0.1402 0.66571,-0.1402 0.42822,0 0.86035,0.1129 1.29639,0.3387 0.45935,0.2336 0.68904,0.5139 0.68906,0.8409 -2e-5,0.475 -0.31146,0.7125 -0.93433,0.7125 -0.35039,0 -0.74748,-0.016 -1.19127,-0.047 -0.65404,-0.047 -1.37426,-0.07 -2.16063,-0.07 -1.93875,0 -5.48531,0.1752 -10.63968,0.5255 -0.34259,0.023 -0.64625,0.078 -0.91097,0.1635 -0.2258,0.062 -0.41656,0.093 -0.57228,0.093 -0.83311,0 -1.63119,-0.8176 -2.39422,-2.4526 z"
         style=""
         id="path3426" />
      <path
         d="m 259.26917,1091.7939 c 1.50271,0.2803 2.71344,0.7708 3.63221,1.4715 0.73188,0.5606 1.09782,1.1135 1.09784,1.6585 -2e-5,0.2803 -0.0818,0.5139 -0.24527,0.7007 -0.16351,0.1869 -0.37763,0.2803 -0.64235,0.2803 -0.31145,0 -0.57228,-0.1907 -0.7825,-0.5723 -0.70854,-1.2301 -1.81806,-2.2034 -3.32855,-2.9197 z m -3.11832,4.5431 c 1.6195,0.3193 2.86527,0.8215 3.73732,1.5067 0.70074,0.5606 1.05111,1.1484 1.05112,1.7635 -1e-5,0.5917 -0.29588,0.8876 -0.88762,0.8876 -0.27252,0 -0.54892,-0.2141 -0.82921,-0.6423 -0.84869,-1.3003 -1.95042,-2.2658 -3.30519,-2.8965 z m 1.565,9.5419 c 0.63845,0.7007 1.12508,1.0511 1.45989,1.0511 0.40487,0 1.12897,-0.2569 2.17232,-0.7708 0.94989,-0.475 1.99322,-1.0862 3.13,-1.8336 3.25457,-2.1568 6.29113,-5.1466 9.10971,-8.9696 l 0.58396,0.4555 c -1.7441,2.9353 -3.7568,5.4269 -6.03811,7.4746 -1.9076,1.7052 -4.21617,3.3013 -6.92571,4.7885 -0.57618,0.3192 -1.01609,0.5372 -1.31974,0.654 -0.21024,0.078 -0.38542,0.1168 -0.52556,0.1168 -0.3426,0 -0.72801,-0.2686 -1.15624,-0.8059 -0.38152,-0.4749 -0.71243,-1.0667 -0.99272,-1.7752 z"
         style=""
         id="path3428" />
      <path
         d="m 291.59698,1106.7548 c 0.13235,-1.9543 0.2141,-3.3869 0.24526,-4.2979 -2.37477,0.2414 -4.16946,0.4477 -5.38408,0.619 -0.49053,0.078 -0.79418,0.144 -0.91097,0.1985 -0.17909,0.078 -0.33091,0.1168 -0.45548,0.1168 -0.56839,0 -1.23021,-0.5216 -1.98545,-1.565 l 0.45548,-0.4204 c 0.57617,0.4282 1.21462,0.6423 1.91538,0.6423 0.50608,0 1.09004,-0.031 1.75187,-0.093 0.73966,-0.062 2.29298,-0.2219 4.65997,-0.4788 l 0.18686,-3.4454 c -2.74071,0.2336 -4.83516,0.4477 -6.28336,0.6424 -0.3971,0.047 -0.66183,0.09 -0.79418,0.1284 -0.2336,0.062 -0.41657,0.093 -0.54892,0.093 -0.43603,0 -1.03556,-0.5373 -1.79859,-1.6117 l 0.43213,-0.4322 c 0.45937,0.3271 0.82532,0.5295 1.09784,0.6073 0.23357,0.062 0.60341,0.093 1.10951,0.093 0.78639,0 2.02048,-0.062 3.70228,-0.1869 0.87203,-0.062 1.66232,-0.144 2.37087,-0.2453 0.26471,-0.023 0.48661,-0.1089 0.6657,-0.2569 0.20243,-0.1791 0.36204,-0.2686 0.47885,-0.2686 0.22578,0 0.56837,0.2297 1.02776,0.6891 0.31921,0.3192 0.47883,0.5839 0.47885,0.7941 -2e-5,0.1636 -0.10513,0.3465 -0.31534,0.549 -0.21803,0.2491 -0.33482,0.5606 -0.35037,0.9343 -0.14796,1.9465 -0.33093,4.2356 -0.54892,6.8673 0.21799,0.07 0.41654,0.2024 0.59563,0.3971 0.17128,0.1869 0.25693,0.3659 0.25694,0.5372 -10e-6,0.1947 -0.074,0.3193 -0.2219,0.3738 -0.13238,0.047 -0.40879,0.07 -0.82922,0.07 -1.89982,0 -4.32907,0.1869 -7.28777,0.5606 -0.26473,0.039 -0.45939,0.086 -0.58395,0.1402 -0.14795,0.062 -0.28031,0.093 -0.39709,0.093 -0.53725,0 -1.15235,-0.6073 -1.84531,-1.8219 l 0.45549,-0.3504 c 0.68517,0.5372 1.25744,0.8059 1.71683,0.8059 0.50609,0 1.2808,-0.039 2.32415,-0.1168 1.37812,-0.086 2.91587,-0.2064 4.61325,-0.3621 z"
         style=""
         id="path3430" />
      <path
         d="m 305.16812,1092.7749 c 1.87643,0.5528 3.24678,1.2458 4.11105,2.0789 0.70073,0.654 1.05111,1.2769 1.05112,1.8687 -10e-6,0.8097 -0.30367,1.2146 -0.91097,1.2146 -0.26474,0 -0.58397,-0.3114 -0.95769,-0.9343 -0.89541,-1.5105 -2.09836,-2.7291 -3.60885,-3.6556 z m 0.35037,12.9638 c 0.42823,0.6385 0.86814,0.9577 1.31974,0.9577 0.52945,0 1.29637,-0.2647 2.30079,-0.7942 5.06872,-2.6472 9.09412,-6.1938 12.07621,-10.6396 l 0.54891,0.4788 c -1.53387,2.6862 -3.25849,4.9286 -5.17384,6.7272 -1.82196,1.7207 -4.12275,3.3519 -6.90236,4.8935 -0.92656,0.5061 -1.48715,0.8409 -1.6818,1.0044 -0.28809,0.257 -0.65404,0.3854 -1.09783,0.3854 -0.24138,0 -0.57229,-0.2686 -0.99273,-0.8058 -0.40488,-0.5295 -0.72022,-1.1407 -0.94601,-1.8336 z"
         style=""
         id="path3432" />
      <path
         d="m 326.37738,1091.023 c 2.88863,3.5505 4.33295,7.4981 4.33296,11.8427 -10e-6,4.3368 -1.44433,8.2844 -4.33296,11.8426 l -0.68906,-0.3854 c 2.26574,-3.387 3.39861,-7.1982 3.39862,-11.4339 -1e-5,-4.2512 -1.13288,-8.0702 -3.39862,-11.4572 z"
         style=""
         id="path3434" />
    </g>
  </g>
</svg>
