<?xml version="1.0" encoding="UTF-8" standalone="no"?>
<!-- Created with Inkscape (http://www.inkscape.org/) -->

<svg
   xmlns:dc="http://purl.org/dc/elements/1.1/"
   xmlns:cc="http://creativecommons.org/ns#"
   xmlns:rdf="http://www.w3.org/1999/02/22-rdf-syntax-ns#"
   xmlns:svg="http://www.w3.org/2000/svg"
   xmlns="http://www.w3.org/2000/svg"
   xmlns:sodipodi="http://sodipodi.sourceforge.net/DTD/sodipodi-0.dtd"
   xmlns:inkscape="http://www.inkscape.org/namespaces/inkscape"
   width="397"
   height="47"
   id="svg3361"
   version="1.1"
   inkscape:version="0.48.4 r9939"
   sodipodi:docname="binpet.svg">
  <defs
     id="defs3363" />
  <sodipodi:namedview
     id="base"
     pagecolor="#ffffff"
     bordercolor="#666666"
     borderopacity="1.0"
     inkscape:pageopacity="0.0"
     inkscape:pageshadow="2"
     inkscape:zoom="4"
     inkscape:cx="205.85284"
     inkscape:cy="33.711433"
     inkscape:document-units="px"
     inkscape:current-layer="layer1"
     showgrid="false"
     inkscape:window-width="1920"
     inkscape:window-height="1017"
     inkscape:window-x="892"
     inkscape:window-y="250"
     inkscape:window-maximized="1" />
  <metadata
     id="metadata3366">
    <rdf:RDF>
      <cc:Work
         rdf:about="">
        <dc:format>image/svg+xml</dc:format>
        <dc:type
           rdf:resource="http://purl.org/dc/dcmitype/StillImage" />
        <dc:title />
      </cc:Work>
    </rdf:RDF>
  </metadata>
  <g
     inkscape:label="レイヤー 1"
     inkscape:groupmode="layer"
     id="layer1"
     transform="translate(0,-1005.3622)">
    <g
       transform="scale(1.1211178,0.89196691)"
       style="font-size:22.59895514999999800px;font-style:normal;font-variant:normal;font-weight:normal;font-stretch:normal;text-align:center;line-height:125%;letter-spacing:0px;word-spacing:0px;writing-mode:lr-tb;text-anchor:middle;fill:#ffffff;fill-opacity:1;stroke:none;font-family:IPAmjMincho;-inkscape-font-specification:IPAmjMincho"
       id="text3121">
      <path
         d="m 0.48137374,1131.3856 c 0.34574929,0.7283 0.76138726,1.0925 1.24691496,1.0925 0.6988564,0 1.6919736,-0.2134 2.9793545,-0.64 0.8974768,-0.2943 1.4933471,-0.6253 1.7876126,-0.9932 0.1912584,-0.2133 0.3714908,-0.3199 0.5406977,-0.32 0.2133271,1e-4 0.4708019,0.1214 0.7724252,0.3642 0.3016035,0.2428 0.4524101,0.5002 0.4524205,0.7724 -1.04e-5,0.1398 -0.1140349,0.2648 -0.342074,0.3752 -0.3899005,0.206 -0.7062267,0.4414 -0.9489796,0.7062 -2.6188958,2.7219 -3.9283391,5.4879 -3.928334,8.2981 -5.1e-6,1.5669 0.4045981,2.766 1.2138111,3.5972 0.7282795,0.7357 1.7177185,1.1035 2.9683198,1.1035 1.7876015,0 3.2331385,-0.6547 4.3366155,-1.9642 1.051955,-1.3388 1.57794,-3.2147 1.577955,-5.6276 -1.5e-5,-2.1481 -0.27956,-4.3256 -0.838633,-6.5325 -0.08829,-0.3531 -0.246455,-0.7393 -0.47449,-1.1587 -0.117717,-0.2206 -0.176568,-0.423 -0.176554,-0.6069 -1.4e-5,-0.228 0.264817,-0.342 0.794494,-0.3421 0.544361,10e-5 0.827583,0.287 0.849668,0.8608 0.05148,0.8092 0.467117,1.8722 1.246915,3.189 0.639992,1.1108 1.640466,2.3835 3.001424,3.818 0.41194,0.4046 0.643667,0.6436 0.695182,0.7172 0.198603,0.2648 0.297915,0.5297 0.297936,0.7945 -2.1e-5,0.6474 -0.224392,0.9711 -0.673114,0.971 -0.198643,10e-5 -0.400945,-0.1066 -0.606905,-0.32 -0.154505,-0.1618 -0.38991,-0.4634 -0.706218,-0.9048 -1.235897,-1.7214 -2.265797,-3.5642 -3.0897,-5.5284 l -0.143451,0.066 c 0.54436,2.2584 0.816548,4.263 0.816564,6.0138 -1.6e-5,2.3541 -0.566461,4.2153 -1.699336,5.5836 -1.228537,1.5669 -2.9425835,2.3503 -5.1421446,2.3503 -1.8758974,0 -3.2993653,-0.6253 -4.2704081,-1.8758 -0.8165681,-1.0594 -1.2248496,-2.4461 -1.2248457,-4.1601 -3.9e-6,-1.6331 0.4009212,-3.1927 1.2027764,-4.6787 0.5664395,-1.0593 1.4970271,-2.3577 2.7917655,-3.8952 l -0.066208,-0.066 c -2.0818756,0.765 -3.2257995,1.2101 -3.4317749,1.3352 -0.2721921,0.1692 -0.5149541,0.2538 -0.7282866,0.2538 -0.2501221,0 -0.5112752,-0.1803 -0.78345992,-0.5407 -0.3457548,-0.4341 -0.60322962,-1.0299 -0.77242522,-1.7877 z m 14.37814426,-2.6924 c 0.97103,0.3384 1.73242,0.7614 2.284171,1.269 0.478149,0.4414 0.717232,0.8754 0.717252,1.3021 -2e-5,0.5296 -0.228069,0.7945 -0.684148,0.7945 -0.308989,0 -0.555429,-0.2318 -0.739321,-0.6952 -0.353127,-0.846 -0.993136,-1.5853 -1.920028,-2.218 z m 2.074513,-1.5559 c 0.956316,0.2869 1.72874,0.6952 2.317276,1.2248 0.500215,0.4488 0.750334,0.8828 0.750356,1.3021 -2.2e-5,0.5297 -0.217037,0.7945 -0.651044,0.7945 -0.286922,0 -0.544397,-0.2464 -0.772426,-0.7393 -0.338416,-0.7503 -1.000494,-1.4602 -1.986236,-2.1297 z"
         style="fill:#ffffff"
         id="path3130" />
      <path
         d="m 41.088871,1139.2423 c -0.551752,2.56 -1.423488,4.4838 -2.615211,5.7711 -0.985779,1.0667 -2.103955,1.6 -3.354532,1.6 -1.353597,0 -2.254759,-0.4597 -2.703489,-1.3793 -0.419328,-0.8901 -0.66209,-2.1039 -0.728286,-3.6414 -0.06622,-1.0005 -0.217026,-1.6883 -0.452421,-2.0635 -0.183921,-0.2942 -0.445074,-0.4414 -0.78346,-0.4414 -0.581167,0 -1.298418,0.4157 -2.151756,1.2469 -1.522787,1.5449 -2.773379,3.4943 -3.751779,5.8484 -0.198628,0.4855 -0.463459,0.7283 -0.794495,0.7283 -0.419319,0 -0.628977,-0.3752 -0.628975,-1.1255 -2e-6,-0.3164 0.202299,-0.8608 0.606906,-1.6332 2.574745,-4.6787 4.572014,-8.2502 5.991813,-10.7146 0.662069,-1.1844 0.993108,-1.9899 0.993118,-2.4166 -10e-6,-0.3972 -0.286911,-0.7871 -0.860702,-1.1697 l 0.386212,-0.5076 c 0.735633,0.2869 1.331503,0.6474 1.787613,1.0814 0.375166,0.3531 0.562755,0.6732 0.562767,0.96 -1.2e-5,0.1104 -0.114037,0.3274 -0.342074,0.6511 l -0.397247,0.6069 c -1.368307,1.9715 -3.365576,5.1385 -5.991813,9.5008 l 0.06621,0.066 c 1.228517,-1.6184 2.247381,-2.7292 3.056597,-3.3324 0.610574,-0.4635 1.188053,-0.6952 1.732439,-0.6952 0.816553,0 1.401388,0.3126 1.754509,0.9379 0.316314,0.5518 0.500224,1.4125 0.551732,2.5821 0.07355,1.6699 0.275853,2.6815 0.606906,3.0346 0.308956,0.3899 0.776089,0.5848 1.4014,0.5848 1.110805,0 2.166452,-0.5959 3.166943,-1.7876 0.941604,-1.1182 1.702994,-2.6226 2.284172,-4.5132 z"
         style="fill:#ffffff"
         id="path3132" />
      <path
         d="m 56.382891,1133.0739 1.335192,0 c 0.242747,-0.9563 0.415623,-1.9053 0.518628,-2.8469 l -4.071784,0 -0.242762,-0.5628 8.275984,0 1.125534,-1.4234 c 0.566424,0.4414 1.070339,0.9674 1.511747,1.5779 l -0.220693,0.4083 -4.612482,0 c -0.42669,0.949 -0.971065,1.898 -1.633128,2.8469 l 3.398671,0 0.816564,-1.0593 c 0.890108,0.7504 1.335171,1.2102 1.335192,1.3793 -2.1e-5,0.103 -0.06255,0.1913 -0.187589,0.2649 l -0.540698,0.3641 0,10.174 -1.268984,0 0,-0.9269 -5.715947,0 0,0.9269 -1.291053,0 0,-11.9175 c 0.500225,0.2428 0.893793,0.4488 1.180707,0.618 z m -0.176555,0.5628 0,2.4276 5.715947,0 0,-2.4276 z m 5.715947,9.0705 0,-2.869 -5.715947,0 0,2.869 z m 0,-3.4318 0,-2.6483 -5.715947,0 0,2.6483 z m -13.285714,-6.1794 0,-4.6566 c 1.360933,0.022 2.041402,0.1802 2.04141,0.4745 -8e-6,0.1692 -0.272196,0.3641 -0.816564,0.5848 l 0,3.5973 2.306241,0 0.860702,-1.2469 0.242763,0.2538 c 0.411949,0.434 0.728275,0.8019 0.948979,1.1035 l -0.264831,0.4524 -4.093854,0 0,0.8165 c 2.61888,0.7504 3.928323,1.589 3.928334,2.5159 -1.1e-5,0.5003 -0.231738,0.7504 -0.695183,0.7504 -0.242772,0 -0.500247,-0.1949 -0.772425,-0.5848 -0.500246,-0.7357 -1.320487,-1.4198 -2.460726,-2.0525 l 0,2.7918 -1.224846,0 0,-2.6704 c -1.110825,1.2653 -2.549006,2.3798 -4.314546,3.3435 l -0.364144,-0.4966 c 1.80968,-1.177 3.277286,-2.6483 4.402824,-4.4138 l -3.72971,0 -0.242763,-0.5628 z m 1.004153,9.2691 c 2.574742,1.0152 3.862116,2.0414 3.862126,3.0787 -1e-5,0.5076 -0.242772,0.7614 -0.728287,0.7614 -0.228058,0 -0.467142,-0.217 -0.717252,-0.6511 -0.603235,-1.0004 -1.463937,-1.8648 -2.582107,-2.5931 -0.625302,2.126 -2.343027,3.6745 -5.153179,4.6456 l -0.297936,-0.5187 c 2.883717,-1.383 4.369715,-3.3251 4.457997,-5.8263 l -3.840057,0 -0.253797,-0.5627 4.093854,0 0,-2.218 c 1.405072,0.066 2.10761,0.2538 2.107618,0.5628 -8e-6,0.1692 -0.272196,0.3457 -0.816564,0.5296 l 0,1.1256 2.217964,0 0.971048,-1.2911 c 0.448732,0.4046 0.868049,0.8791 1.25795,1.4235 l -0.286901,0.4303 -4.160061,0 c -0.02208,0.4194 -0.06621,0.7872 -0.132416,1.1035 z m -4.193166,-13.2857 c 1.508065,0.9711 2.262098,1.9127 2.262103,2.8249 -5e-6,0.5444 -0.264836,0.8165 -0.794495,0.8165 -0.331042,0 -0.518631,-0.2096 -0.562767,-0.6289 -0.08828,-0.9269 -0.496561,-1.8097 -1.224845,-2.6484 z m 5.175249,3.4318 c 0.456091,-0.8901 0.871729,-2.0561 1.246915,-3.498 1.15495,0.3605 1.732429,0.6915 1.73244,0.9931 -1.1e-5,0.1839 -0.26852,0.2906 -0.805529,0.32 -0.566455,0.949 -1.154968,1.7619 -1.765544,2.4387 z m 9.247034,11.6857 c 3.280948,0.8165 4.92143,1.7361 4.921452,2.7586 -2.2e-5,0.5444 -0.242784,0.8166 -0.728287,0.8166 -0.206,0 -0.481866,-0.195 -0.827598,-0.5848 -0.735663,-0.8755 -1.942116,-1.7141 -3.619364,-2.5159 z m -8.209777,3.4317 c 2.148067,-0.8827 3.821654,-2.034 5.020764,-3.4538 1.081381,0.5223 1.622078,0.9232 1.622093,1.2028 -1.5e-5,0.1618 -0.180247,0.2427 -0.540698,0.2427 -0.05887,0 -0.224385,-0.015 -0.496559,-0.044 -1.287388,1.0372 -3.049251,1.8943 -5.285595,2.5711 z"
         style="fill:#ffffff"
         id="path3134" />
      <path
         d="m 76.973542,1136.3292 c 0.441374,0 0.834943,0.1728 1.180707,0.5186 0.301601,0.3016 0.452408,0.6694 0.452421,1.1035 -1.3e-5,0.2942 -0.08093,0.5811 -0.242762,0.8607 -0.338409,0.5149 -0.801863,0.7724 -1.390366,0.7724 -0.389902,0 -0.735653,-0.1288 -1.037257,-0.3862 -0.3899,-0.3458 -0.584845,-0.7614 -0.584836,-1.2469 -9e-6,-0.5518 0.231718,-0.9932 0.695183,-1.3242 0.28689,-0.1986 0.59586,-0.2979 0.92691,-0.2979 z"
         style="fill:#ffffff"
         id="path3136" />
      <path
         d="m 105.1781,1130.3042 c 0.63999,10e-5 1.17701,0.2428 1.61105,0.7283 0.38252,0.4194 0.57379,0.9049 0.57381,1.4566 -2e-5,0.6547 -0.24279,1.2028 -0.72829,1.6442 -0.41934,0.3825 -0.90486,0.5738 -1.45657,0.5738 -0.65474,0 -1.2028,-0.2428 -1.64417,-0.7283 -0.38255,-0.4267 -0.57381,-0.9232 -0.5738,-1.4897 -1e-5,-0.64 0.24275,-1.177 0.72829,-1.6111 0.42666,-0.3825 0.92321,-0.5737 1.48968,-0.5738 z m 0,0.7283 c -0.43405,0 -0.80187,0.1619 -1.10347,0.4856 -0.25749,0.2869 -0.38623,0.6106 -0.38621,0.971 -2e-5,0.4414 0.1655,0.8092 0.49656,1.1035 0.27953,0.2575 0.61056,0.3862 0.99312,0.3862 0.41929,0 0.77608,-0.1655 1.07036,-0.4966 0.25745,-0.2869 0.38619,-0.6179 0.38621,-0.9931 -2e-5,-0.4193 -0.16186,-0.7761 -0.48553,-1.0704 -0.28691,-0.2574 -0.6106,-0.3862 -0.97104,-0.3862 z m -14.576772,7.3601 c 0.478165,0.4488 0.809204,0.6732 0.993118,0.6732 0.250115,0 0.724605,-0.3899 1.42347,-1.1697 1.397715,-1.6111 2.626238,-2.9463 3.685571,-4.0056 0.389882,-0.3899 0.76506,-0.5848 1.125534,-0.5848 0.389881,0 1.02989,0.4156 1.920029,1.2469 3.15589,2.8469 5.87777,4.9325 8.16564,6.2566 0.69148,0.3826 1.03723,0.8571 1.03725,1.4235 -2e-5,0.2869 -0.0773,0.5113 -0.23172,0.6731 -0.13244,0.1398 -0.2906,0.2097 -0.47449,0.2097 -0.31635,0 -1.12188,-0.5113 -2.41659,-1.5338 -2.06717,-1.6552 -4.49847,-3.8806 -7.293901,-6.676 -0.286911,-0.2869 -0.500247,-0.4303 -0.64001,-0.4304 -0.205989,10e-5 -0.544385,0.2796 -1.015187,0.8387 -1.47865,1.7435 -2.52694,3.0308 -3.144874,3.8621 -0.389896,0.537 -0.706222,1.0042 -0.94898,1.4014 -0.147133,0.2281 -0.342078,0.3421 -0.584836,0.3421 -0.23541,0 -0.559092,-0.217 -0.971049,-0.6511 -0.389893,-0.4266 -0.713576,-0.9158 -0.971049,-1.4676 z"
         style="fill:#ffffff"
         id="path3138" />
      <path
         d="m 115.50652,1135.5347 0.49656,-0.3862 c 1.79496,1.2064 2.69245,2.3614 2.69246,3.4648 -10e-6,0.6768 -0.27956,1.0152 -0.83864,1.0152 -0.24277,0 -0.41932,-0.085 -0.52966,-0.2538 -0.0883,-0.1397 -0.17656,-0.4156 -0.26483,-0.8276 -0.19128,-1.0078 -0.7099,-2.012 -1.55589,-3.0124 z m 4.09386,-1.0814 0.49656,-0.3752 c 0.94896,0.7724 1.60736,1.4419 1.9752,2.0083 0.33838,0.515 0.50758,1.0336 0.50759,1.5559 -1e-5,0.7209 -0.30162,1.0814 -0.90484,1.0814 -0.21335,0 -0.36783,-0.088 -0.46346,-0.2649 -0.0883,-0.1618 -0.17288,-0.4634 -0.25379,-0.9048 -0.19128,-1.0593 -0.6437,-2.0929 -1.35726,-3.1007 z m -1.46761,12.8443 -0.34208,-0.5517 c 2.53061,-1.5228 4.49109,-3.1081 5.88147,-4.756 1.36093,-1.611 2.34301,-3.4501 2.94625,-5.5173 0.15447,-0.5223 0.23171,-0.9011 0.23173,-1.1366 -2e-5,-0.2795 -0.30163,-0.559 -0.90484,-0.8386 l 0.20966,-0.5186 c 0.79447,0.1618 1.42345,0.3972 1.88692,0.7062 0.42666,0.2796 0.63999,0.5738 0.64001,0.8828 -2e-5,0.1986 -0.0589,0.3715 -0.17655,0.5186 -0.16922,0.2207 -0.32003,0.5223 -0.45242,0.9048 -1.21383,2.8396 -2.6042,5.0245 -4.1711,6.5546 -1.39038,1.3536 -3.30673,2.6042 -5.74905,3.7518 z"
         style="fill:#ffffff"
         id="path3140" />
      <path
         d="m 143.66694,1135.4685 c 2.36141,0.6032 4.21523,1.3204 5.56147,2.1517 1.22115,0.7504 1.83173,1.4676 1.83175,2.1518 -2e-5,0.6326 -0.24278,0.949 -0.72829,0.9489 -0.27956,10e-5 -0.58853,-0.228 -0.92691,-0.6841 -0.56646,-0.7136 -1.34256,-1.4051 -2.32831,-2.0745 -0.90485,-0.6253 -2.04142,-1.1917 -3.40971,-1.6993 -1e-5,1.4492 0.0147,2.7623 0.0441,3.9393 0.0883,2.5821 0.13241,4.5242 0.13242,5.8263 -1e-5,0.8754 -0.31634,1.3131 -0.94898,1.3131 -0.46346,0 -0.69519,-0.331 -0.69518,-0.9931 -1e-5,-0.2207 0.0221,-0.6069 0.0662,-1.1586 0.10299,-2.4644 0.15448,-5.3629 0.15449,-8.6953 -1e-5,-3.4502 -0.0442,-5.4107 -0.13242,-5.8815 -0.11035,-0.5076 -0.58484,-0.8975 -1.42347,-1.1697 l 0.19863,-0.5738 c 0.87541,0.037 1.61473,0.2391 2.21796,0.6069 0.45609,0.2722 0.68414,0.5297 0.68415,0.7725 -1e-5,0.1913 -0.0478,0.3899 -0.14345,0.5958 -0.103,0.2575 -0.1545,0.6989 -0.15449,1.3242 z"
         style="fill:#ffffff"
         id="path3142" />
      <path
         d="m 172.80944,1129.4877 c 0.97839,0.3384 1.74346,0.7614 2.29521,1.269 0.47815,0.434 0.71723,0.868 0.71725,1.3021 -2e-5,0.5296 -0.22807,0.7945 -0.68415,0.7944 -0.30899,10e-5 -0.55543,-0.2353 -0.73932,-0.7062 -0.35312,-0.8459 -0.99313,-1.5816 -1.92003,-2.2069 z m 2.08555,-1.5669 c 0.95632,0.2942 1.72874,0.7025 2.31728,1.2248 0.50021,0.4488 0.75033,0.8865 0.75035,1.3131 -2e-5,0.5297 -0.21703,0.7945 -0.65104,0.7945 -0.28692,0 -0.5444,-0.2501 -0.77243,-0.7503 -0.33841,-0.743 -1.00049,-1.4529 -1.98623,-2.1297 z m -12.6126,10.4718 0.69518,0.1325 c -0.25748,2.1775 -0.90484,3.9173 -1.94209,5.2193 -0.47818,0.5886 -0.92324,0.8828 -1.3352,0.8828 -0.44874,0 -0.67311,-0.3457 -0.67311,-1.0372 0,-0.412 0.26483,-0.8129 0.79449,-1.2028 1.29473,-0.9564 2.11497,-2.2879 2.46073,-3.9946 z m 9.60014,-0.5738 c 1.36828,0.8755 2.45335,1.8723 3.25522,2.9904 0.60321,0.8313 0.90482,1.6001 0.90484,2.3063 -2e-5,0.7503 -0.30899,1.1255 -0.92691,1.1255 -0.40462,0 -0.66945,-0.2648 -0.79449,-0.7945 -0.47819,-2.0966 -1.44923,-3.8143 -2.91315,-5.1532 z m -4.89938,-3.1007 c -1e-5,-0.7503 -0.0147,-1.6221 -0.0441,-2.6152 -0.0221,-0.5664 -0.10668,-0.9894 -0.2538,-1.269 -0.2207,-0.3678 -0.68783,-0.6473 -1.4014,-0.8386 l 0.18759,-0.6069 c 1.00782,0.022 1.79128,0.1434 2.35038,0.3641 0.40459,0.1619 0.6069,0.4193 0.60691,0.7724 -10e-6,0.1987 -0.0221,0.401 -0.0662,0.6069 l -0.0662,0.5187 c -0.0809,0.7798 -0.12139,1.7655 -0.12138,2.9573 1.48599,-0.1104 2.74026,-0.2207 3.76282,-0.3311 0.41194,-0.044 0.80919,-0.1361 1.19174,-0.2759 0.28688,-0.1176 0.52229,-0.1765 0.70622,-0.1765 0.66206,0 1.16965,0.1177 1.52278,0.3531 0.29423,0.1839 0.44136,0.4193 0.44138,0.7062 -2e-5,0.3605 -0.2722,0.5407 -0.81656,0.5407 -0.41934,0 -0.80923,-0.015 -1.16967,-0.044 -0.50026,-0.029 -1.0667,-0.044 -1.69934,-0.044 -0.75037,10e-5 -2.06349,0.059 -3.93937,0.1766 -1e-5,3.7297 0.0552,6.4295 0.16552,8.0994 0.0294,0.3311 0.0441,0.6033 0.0441,0.8166 -1e-5,0.9269 -0.11404,1.5816 -0.34207,1.9642 -0.206,0.3457 -0.45979,0.5186 -0.76139,0.5186 -0.24278,0 -0.4414,-0.2281 -0.59588,-0.6842 -0.15449,-0.4413 -0.33472,-0.7393 -0.54069,-0.8938 -0.70623,-0.537 -1.61843,-1.074 -2.7366,-1.611 l 0.16552,-0.5187 c 1.25795,0.4047 2.40187,0.7283 3.43178,0.9711 0.0147,-0.9931 0.0221,-2.1003 0.0221,-3.3214 l 0,-1.4676 c -1e-5,-1.0888 -0.007,-2.3504 -0.0221,-3.7849 -1.45658,0.1471 -2.86534,0.3053 -4.22627,0.4745 -0.44139,0.052 -0.77979,0.114 -1.01519,0.1876 -0.19863,0.073 -0.3715,0.1103 -0.51863,0.1103 -0.34575,0 -0.72461,-0.1839 -1.13656,-0.5517 -0.37519,-0.3311 -0.70622,-0.7577 -0.99312,-1.2801 l 0.47449,-0.3641 c 0.6915,0.6032 1.37932,0.9049 2.06348,0.9048 0.72092,10e-5 2.4975,-0.1213 5.32973,-0.3641 z"
         style="fill:#ffffff"
         id="path3144" />
      <path
         d="m 188.86485,1135.4685 c 2.3614,0.6032 4.21522,1.3204 5.56146,2.1517 1.22115,0.7504 1.83174,1.4676 1.83175,2.1518 -1e-5,0.6326 -0.24278,0.949 -0.72828,0.9489 -0.27956,10e-5 -0.58853,-0.228 -0.92691,-0.6841 -0.56646,-0.7136 -1.34257,-1.4051 -2.32831,-2.0745 -0.90486,-0.6253 -2.04142,-1.1917 -3.40971,-1.6993 -1e-5,1.4492 0.0147,2.7623 0.0441,3.9393 0.0883,2.5821 0.13241,4.5242 0.13242,5.8263 -1e-5,0.8754 -0.31634,1.3131 -0.94898,1.3131 -0.46347,0 -0.6952,-0.331 -0.69519,-0.9931 -1e-5,-0.2207 0.0221,-0.6069 0.0662,-1.1586 0.10298,-2.4644 0.15448,-5.3629 0.15449,-8.6953 -1e-5,-3.4502 -0.0442,-5.4107 -0.13242,-5.8815 -0.11035,-0.5076 -0.58484,-0.8975 -1.42347,-1.1697 l 0.19862,-0.5738 c 0.87541,0.037 1.61473,0.2391 2.21797,0.6069 0.45609,0.2722 0.68414,0.5297 0.68415,0.7725 -1e-5,0.1913 -0.0478,0.3899 -0.14345,0.5958 -0.103,0.2575 -0.1545,0.6989 -0.15449,1.3242 z"
         style="fill:#ffffff"
         id="path3146" />
      <path
         d="m 202.9892,1145.4879 c 1.92738,-1.4418 3.30671,-3.1118 4.13799,-5.0097 0.72092,-1.6478 1.08139,-3.5789 1.08139,-5.7932 0,-0.6253 -0.11403,-1.0409 -0.34207,-1.2469 -0.31633,-0.2722 -0.6253,-0.4598 -0.92691,-0.5628 l 0.23173,-0.5848 c 0.80184,0.088 1.44921,0.2685 1.9421,0.5407 0.52965,0.2869 0.79448,0.5959 0.79449,0.9269 -1e-5,0.1913 -0.0294,0.3936 -0.0883,0.6069 -0.0589,0.2575 -0.1361,0.7688 -0.23173,1.5338 -0.3384,2.641 -1.01887,4.7449 -2.0414,6.3118 -0.93428,1.4419 -2.31728,2.7145 -4.14903,3.818 z m 19.57546,-8.9049 c -0.97843,1.5816 -2.19224,3.0529 -3.64143,4.4138 -1.00785,0.9564 -2.37983,2.0856 -4.11593,3.3877 -0.40461,0.3016 -0.66209,0.5259 -0.77242,0.6731 -0.12507,0.1839 -0.25749,0.2758 -0.39725,0.2758 -0.28691,0 -0.58853,-0.217 -0.90484,-0.651 -0.21335,-0.2943 -0.32002,-0.5444 -0.32001,-0.7504 -1e-5,-0.059 0.0368,-0.1876 0.11035,-0.3862 0.0588,-0.1692 0.10666,-0.5223 0.14345,-1.0593 0.0294,-0.8166 0.0441,-2.9279 0.0441,-6.3339 -1e-5,-2.5527 -0.0589,-4.0203 -0.17655,-4.4028 -0.14714,-0.4782 -0.55543,-0.8239 -1.22485,-1.0373 l 0.19862,-0.64 c 1.16231,0.1766 1.93105,0.3862 2.30624,0.629 0.31632,0.1986 0.47448,0.4929 0.47449,0.8828 -1e-5,0.1912 -0.0294,0.3972 -0.0883,0.6179 -0.0809,0.3016 -0.13611,0.8718 -0.16552,1.7104 -0.0883,4.5242 -0.13243,7.5992 -0.13242,9.2249 1.62576,-0.9048 3.12279,-1.9568 4.4911,-3.1559 1.1623,-1.0299 2.38714,-2.3062 3.67454,-3.829 z"
         style="fill:#ffffff"
         id="path3148" />
      <path
         d="m 235.16622,1136.3292 c 0.44138,0 0.83495,0.1728 1.18071,0.5186 0.3016,0.3016 0.45241,0.6694 0.45242,1.1035 -1e-5,0.2942 -0.0809,0.5811 -0.24276,0.8607 -0.33841,0.5149 -0.80186,0.7724 -1.39037,0.7724 -0.3899,0 -0.73565,-0.1288 -1.03725,-0.3862 -0.3899,-0.3458 -0.58485,-0.7614 -0.58484,-1.2469 -1e-5,-0.5518 0.23172,-0.9932 0.69518,-1.3242 0.28689,-0.1986 0.59586,-0.2979 0.92691,-0.2979 z"
         style="fill:#ffffff"
         id="path3150" />
      <path
         d="m 251.85061,1132.6988 2.95728,0 c 0.49287,-1.1035 0.96736,-2.6189 1.42347,-4.5463 1.50806,0.2943 2.26209,0.5885 2.2621,0.8828 -1e-5,0.1839 -0.30898,0.342 -0.92691,0.4744 -0.51496,1.03 -1.17704,2.093 -1.98623,3.1891 l 7.85666,0 0.98209,-1.2028 c 1.00781,0.7871 1.51172,1.3094 1.51174,1.5669 -2e-5,0.088 -0.0625,0.1692 -0.18759,0.2428 l -0.65104,0.3862 0,14.1685 -1.4014,0 0,-1.6552 -12.09397,0 0,1.9641 -1.42347,0 0,-16.265 c 0.44874,0.1765 0.93058,0.4046 1.44554,0.6841 z m -0.2538,0.5627 0,5.6498 12.09397,0 0,-5.6498 z m 12.09397,12.3809 0,-6.1684 -12.09397,0 0,6.1684 z"
         style="fill:#ffffff"
         id="path3152" />
      <path
         d="m 273.50059,1134.9278 c -0.81656,0.7871 -1.71405,1.5264 -2.69245,2.2179 l -0.38621,-0.4524 c 2.64831,-2.2216 4.68236,-5.1679 6.10216,-8.8387 1.41242,0.3384 2.11864,0.662 2.11865,0.971 -1e-5,0.206 -0.35312,0.3421 -1.05933,0.4083 -0.30162,0.5444 -0.48921,0.8901 -0.56276,1.0372 l 5.28559,0 0.97105,-1.0593 c 0.97103,0.846 1.45656,1.3794 1.45657,1.6 -10e-6,0.1251 -0.11036,0.2244 -0.33104,0.298 l -0.65104,0.2207 c -0.91957,1.177 -1.84648,2.2327 -2.78073,3.1669 l 5.15318,0 0.88277,-1.0814 c 0.91218,0.743 1.36828,1.2175 1.3683,1.4235 -2e-5,0.103 -0.0552,0.1839 -0.16552,0.2427 l -0.58484,0.4083 0,5.9256 -1.29105,0 0,-0.9931 -11.50914,0 0,4.6125 c 0,0.4635 0.13609,0.743 0.40828,0.8386 0.43403,0.1472 2.30991,0.2207 5.62767,0.2207 2.95727,0 4.94719,-0.081 5.96975,-0.2427 0.46343,-0.096 0.78712,-0.4046 0.97105,-0.927 0.23538,-0.7209 0.4009,-1.6735 0.49655,-2.8579 l 0.60691,0.2538 c -2e-5,1.5669 0.0625,2.5306 0.18759,2.891 0.11033,0.2649 0.38619,0.4083 0.8276,0.4304 -0.0221,0.7651 -0.40463,1.2248 -1.14761,1.3793 -0.92692,0.1692 -3.32512,0.2538 -7.19458,0.2538 -4.28146,0 -6.7054,-0.1066 -7.27184,-0.32 -0.53702,-0.228 -0.80553,-0.8018 -0.80553,-1.7214 z m 1.32416,0.1324 0,4.8 5.0649,0 0,-4.8 z m 0.2538,-0.5628 5.0318,0 c 0.93425,-1.2285 1.68093,-2.4497 2.24003,-3.6635 l -5.67181,0 c -0.71358,1.1918 -1.50439,2.2768 -2.37245,3.2552 0.13241,0.059 0.38989,0.195 0.77243,0.4083 z m 6.08009,0.5628 0,4.8 5.17525,0 0,-4.8 z"
         style="fill:#ffffff"
         id="path3154" />
      <path
         d="m 301.85962,1135.4685 c 2.3614,0.6032 4.21522,1.3204 5.56146,2.1517 1.22115,0.7504 1.83173,1.4676 1.83175,2.1518 -2e-5,0.6326 -0.24278,0.949 -0.72829,0.9489 -0.27956,10e-5 -0.58853,-0.228 -0.92691,-0.6841 -0.56646,-0.7136 -1.34256,-1.4051 -2.32831,-2.0745 -0.90485,-0.6253 -2.04142,-1.1917 -3.4097,-1.6993 -1e-5,1.4492 0.0147,2.7623 0.0441,3.9393 0.0883,2.5821 0.1324,4.5242 0.13241,5.8263 -1e-5,0.8754 -0.31633,1.3131 -0.94898,1.3131 -0.46346,0 -0.69519,-0.331 -0.69518,-0.9931 -1e-5,-0.2207 0.0221,-0.6069 0.0662,-1.1586 0.10298,-2.4644 0.15447,-5.3629 0.15448,-8.6953 -1e-5,-3.4502 -0.0441,-5.4107 -0.13241,-5.8815 -0.11036,-0.5076 -0.58485,-0.8975 -1.42347,-1.1697 l 0.19862,-0.5738 c 0.87541,0.037 1.61473,0.2391 2.21797,0.6069 0.45608,0.2722 0.68413,0.5297 0.68414,0.7725 -1e-5,0.1913 -0.0478,0.3899 -0.14345,0.5958 -0.103,0.2575 -0.15449,0.6989 -0.15448,1.3242 z"
         style="fill:#ffffff"
         id="path3156" />
      <path
         d="m 334.27942,1135.0933 c -1.7582,2.354 -3.43915,4.2189 -5.04283,5.5945 -1.65521,1.4272 -3.7849,2.8691 -6.38906,4.3256 -0.33841,0.1913 -0.59588,0.401 -0.77243,0.629 -0.14713,0.2133 -0.29794,0.32 -0.45242,0.32 -0.27219,0 -0.61059,-0.2722 -1.01519,-0.8166 -0.31633,-0.4119 -0.47449,-0.7503 -0.47449,-1.0151 0,-0.1104 0.0368,-0.2538 0.11035,-0.4304 0.15448,-0.3752 0.23172,-2.2143 0.23173,-5.5173 -10e-6,-4.0387 -0.0442,-6.2309 -0.13242,-6.5767 -0.0589,-0.2721 -0.19863,-0.4965 -0.41931,-0.6731 -0.16185,-0.1324 -0.43036,-0.2905 -0.80553,-0.4745 l 0.19862,-0.5848 c 0.89748,0.1251 1.61473,0.3458 2.15176,0.6621 0.46344,0.2648 0.69517,0.5407 0.69518,0.8276 -1e-5,0.1839 -0.0442,0.4083 -0.13242,0.6731 -0.0956,0.2943 -0.15449,0.846 -0.17655,1.6552 -0.0294,1.3315 -0.0625,3.0676 -0.0993,5.2083 -0.0368,2.3615 -0.0662,3.9688 -0.0883,4.8222 4.34764,-1.8391 8.38632,-4.8737 12.11604,-9.1036 z"
         style="fill:#ffffff"
         id="path3158" />
      <path
         d="m 349.4079,1134.9278 0,2.4938 c -10e-6,3.4281 0.0515,5.8226 0.15449,7.1835 0.0147,0.1472 0.0221,0.3348 0.0221,0.5628 -10e-6,0.6842 -0.10668,1.1586 -0.32001,1.4235 -0.19863,0.228 -0.43036,0.3421 -0.69518,0.3421 -0.18392,0 -0.34576,-0.085 -0.48552,-0.2538 -0.11036,-0.1398 -0.16553,-0.298 -0.16552,-0.4745 -10e-6,-0.618 0.007,-1.0226 0.0221,-1.2138 0.1324,-2.0451 0.19861,-5.1201 0.19862,-9.225 -2.53798,1.6111 -5.33342,2.9904 -8.38633,4.138 l -0.2869,-0.6069 c 3.82534,-1.7729 7.18722,-3.8474 10.08566,-6.2236 1.6699,-1.3535 2.50485,-2.2179 2.50487,-2.5931 -2e-5,-0.2354 -0.25013,-0.5149 -0.75036,-0.8386 l 0.2538,-0.4966 c 1.69932,0.4414 2.54899,0.9453 2.549,1.5118 -10e-6,0.1618 -0.0773,0.3053 -0.23172,0.4303 -0.19129,0.1692 -0.43773,0.4046 -0.73933,0.7062 -0.75772,0.7577 -2.00096,1.8024 -3.72971,3.1339 z"
         style="fill:#ffffff"
         id="path3160" />
      <path
         d="m 55.753916,1161.7309 c 0.448729,0.5812 0.930575,1.1145 1.445539,1.6 0.845974,-0.868 1.544834,-1.7986 2.096582,-2.7917 0.978388,0.5223 1.46759,0.9306 1.467608,1.2248 -1.8e-5,0.1324 -0.150824,0.1987 -0.45242,0.1986 -0.01473,10e-5 -0.154503,-0.015 -0.419317,-0.044 -0.448759,0.4561 -1.202792,1.063 -2.262102,1.8207 0.382519,0.3458 0.864365,0.7099 1.445538,1.0924 0.779765,-0.6473 1.614719,-1.5374 2.504865,-2.6703 0.934247,0.5664 1.40138,0.971 1.4014,1.2138 -2e-5,0.1545 -0.158183,0.2317 -0.47449,0.2317 -0.0074,0 -0.172895,-0.015 -0.496559,-0.044 -0.603246,0.5591 -1.394061,1.0998 -2.372449,1.6221 1.228506,0.7062 2.795424,1.2726 4.70076,1.6993 -0.35313,0.3752 -0.654744,0.8129 -0.904841,1.3131 -1.346246,-0.4929 -2.368789,-0.9232 -3.067632,-1.291 l -2.648315,0 0,3.1228 2.571072,0 1.048292,-1.3132 c 0.603208,0.5444 1.085054,1.0336 1.445538,1.4677 l -0.231727,0.4082 -4.833175,0 0,3.5091 c -1.5e-5,0.3825 0.106653,0.6069 0.320005,0.6731 0.205964,0.1103 0.739305,0.1655 1.600023,0.1655 1.287358,0 2.011965,-0.1582 2.173826,-0.4745 0.220673,-0.4782 0.378836,-1.3683 0.474489,-2.6704 l 0.606906,0.2428 c -2e-5,1.1255 0.05147,1.8354 0.154485,2.1297 0.117683,0.3678 0.38987,0.5407 0.816564,0.5186 -0.02209,0.6106 -0.272209,0.9931 -0.750356,1.1476 -0.470832,0.1839 -1.508087,0.2759 -3.11177,0.2759 -1.677282,0 -2.68879,-0.092 -3.034528,-0.2759 -0.360479,-0.1986 -0.540711,-0.6437 -0.540698,-1.3352 l 0,-3.9063 -2.813834,0 c -0.205991,3.2442 -2.262111,5.2636 -6.168368,6.0581 l -0.320004,-0.5407 c 3.273604,-1.0152 5.013398,-2.8543 5.219387,-5.5174 l -4.270408,0 -0.275866,-0.5627 4.568344,0 0,-3.1228 -1.4014,0 c -0.956344,0.6179 -2.092911,1.1844 -3.409706,1.6993 l -0.297936,-0.4966 c 3.155902,-1.4639 5.48421,-3.6487 6.984931,-6.5545 l -3.773849,0 -0.198623,-0.5628 3.972472,0 0.78346,-0.949 c 0.875402,0.6915 1.31311,1.1219 1.313123,1.2911 -1.3e-5,0.081 -0.06622,0.1545 -0.198623,0.2207 z m -0.430351,0.4745 c -1.022556,1.7288 -2.203262,3.1081 -3.542122,4.138 l 6.753204,0 0.30897,-0.3421 c -1.28739,-0.8827 -2.46074,-2.148 -3.520052,-3.7959 z m 1.103464,4.7008 -2.791765,0 0,3.1228 2.791765,0 z m -9.125652,-7.7905 6.256644,0 0,-2.9573 c 1.419779,0 2.129674,0.1803 2.129687,0.5407 -1.3e-5,0.1766 -0.279557,0.3642 -0.838633,0.5628 l 0,1.8538 6.400095,0 1.125534,-1.4455 c 0.500217,0.4487 0.996775,0.9747 1.489677,1.5779 l -0.220693,0.4304 -16.518865,0 0,4.789 c -5e-6,5.407 -1.063008,9.4457 -3.189013,12.116 l -0.47449,-0.342 c 1.566918,-2.744 2.350377,-6.6613 2.35038,-11.7519 l 0,-6.0029 c 0.912193,0.3826 1.408752,0.5922 1.489677,0.629 z m 1.555885,2.7807 c 1.868526,0.6695 2.802791,1.4345 2.8028,2.2952 -9e-6,0.5444 -0.246449,0.8166 -0.739321,0.8166 -0.286909,0 -0.500245,-0.1949 -0.64001,-0.5848 -0.264838,-0.8387 -0.820248,-1.5559 -1.666231,-2.1518 z"
         style="fill:#ffffff"
         id="path3162" />
      <path
         d="m 82.137755,1169.5765 c 0.125042,-0.1471 0.386195,-0.4928 0.78346,-1.0372 1.029881,0.6547 1.544831,1.1182 1.54485,1.3904 -1.9e-5,0.1692 -0.18393,0.2538 -0.551732,0.2538 -0.02209,0 -0.16186,-0.015 -0.419317,-0.044 -0.926927,0.8092 -2.059816,1.6221 -3.398671,2.4387 1.728745,1.1255 3.854751,1.8795 6.378026,2.2621 -0.463476,0.3752 -0.823941,0.8349 -1.081396,1.3793 -4.406517,-1.1108 -7.532997,-3.4759 -9.379449,-7.0953 l -3.608329,0 0,4.9877 c 2.111286,-0.3016 4.0166,-0.6327 5.715946,-0.9931 l 0.110347,0.5848 c -2.949939,0.9196 -5.852048,1.6147 -8.706336,2.0856 -0.11035,0.5223 -0.261157,0.7834 -0.45242,0.7834 -0.301617,0 -0.647369,-0.6694 -1.037257,-2.0083 1.64048,-0.1471 2.666701,-0.2464 3.078666,-0.2979 l 0,-11.0236 c -1.316805,0.868 -2.72556,1.6294 -4.226269,2.2841 l -0.320005,-0.4745 c 4.303507,-2.1848 7.536655,-5.2193 9.699454,-9.1035 1.265294,0.2869 1.897946,0.5701 1.897959,0.8496 -1.3e-5,0.184 -0.323695,0.32 -0.971049,0.4083 2.596806,2.5527 5.826276,4.4507 9.688419,5.6939 -0.478188,0.412 -0.816584,0.8497 -1.015187,1.3131 -3.604668,-1.5228 -6.62448,-3.6855 -9.059444,-6.4884 -1.103475,1.6553 -2.655681,3.2553 -4.656621,4.8001 l 0.47449,0.2428 3.233151,0 0,-2.7366 c 1.419779,0.066 2.129674,0.2611 2.129687,0.5848 -1.3e-5,0.1766 -0.301626,0.3679 -0.904841,0.5738 l 0,1.578 3.685572,0 0.640009,-0.5628 c 0.83126,0.515 1.246898,0.8607 1.246915,1.0373 -1.7e-5,0.081 -0.05519,0.1618 -0.16552,0.2427 l -0.353108,0.32 z m -0.209659,0.2428 -1.037256,0 0,-0.6952 -4.104889,0 c 0.67678,1.1623 1.607367,2.1849 2.791766,3.0677 0.823905,-0.7063 1.607364,-1.4971 2.350379,-2.3725 z m -1.037256,-1.2579 0,-2.4718 -8.485643,0 0,2.4718 z m 0,-3.0346 0,-2.1959 -8.485643,0 0,2.1959 z"
         style="fill:#ffffff"
         id="path3164" />
      <path
         d="m 98.060749,1161.1019 3.707641,0 0,-4.9214 c 1.55219,0.066 2.32829,0.2612 2.32831,0.5848 -2e-5,0.2134 -0.33841,0.4304 -1.01519,0.6511 l 0,3.6855 3.77385,0 0.84967,-1.0593 c 0.92689,0.7357 1.39034,1.2102 1.39037,1.4235 -3e-5,0.081 -0.0626,0.1692 -0.18759,0.2648 l -0.5407,0.3862 0,13.992 -1.31312,0 0,-1.7435 -9.169795,0 0,1.7435 -1.313123,0 0,-15.8017 c 0.345743,0.1545 0.842302,0.4194 1.489677,0.7945 z m -0.176554,0.5628 0,5.5173 3.884195,0 0,-5.5173 z m 9.169795,12.1381 0,-6.058 -3.97248,0 0,6.058 z m 0,-6.6208 0,-5.5173 -3.97248,0 0,5.5173 z m -5.2856,0.5628 -3.884195,0 0,6.058 3.884195,0 z m -12.01673,-6.3449 c 2.096579,0.6032 3.14487,1.4382 3.144875,2.5048 -5e-6,0.5886 -0.250124,0.8828 -0.750356,0.8828 -0.353113,0 -0.58484,-0.1876 -0.695183,-0.5628 -0.29426,-0.9269 -0.937947,-1.7361 -1.931063,-2.4276 z m 1.688301,-4.8884 c 2.23635,0.5665 3.354526,1.3573 3.354533,2.3725 -7e-6,0.6032 -0.272195,0.9048 -0.816564,0.9048 -0.338402,0 -0.584842,-0.2427 -0.739321,-0.7283 -0.272193,-0.7871 -0.952662,-1.486 -2.04141,-2.0966 z m 4.612482,4.5904 -2.758661,8.8167 c -0.301619,0.9931 -0.452425,1.7214 -0.452421,2.1849 -4e-6,0.1545 0.03678,0.4193 0.110347,0.7945 0.15448,0.7283 0.231722,1.3903 0.231727,1.9862 -5e-6,0.9931 -0.323687,1.4897 -0.971048,1.4897 -0.54438,0 -0.816568,-0.2317 -0.816564,-0.6952 -4e-6,-0.022 0.03678,-0.3641 0.110346,-1.0262 0.08827,-0.6547 0.132412,-1.2028 0.132416,-1.6442 -4e-6,-0.9563 -0.268513,-1.6037 -0.805529,-1.9421 -0.286904,-0.1839 -0.783462,-0.3347 -1.489677,-0.4524 l 0,-0.5848 c 0.44874,0.029 0.713571,0.044 0.794494,0.044 0.912194,0 1.53749,-0.2942 1.87589,-0.8828 1.125529,-1.92 2.291522,-4.7522 3.497983,-8.4966 z"
         style="fill:#ffffff"
         id="path3166" />
      <path
         d="m 123.98113,1179.4526 -0.65104,0.3641 c -2.72924,-3.3619 -4.09386,-7.0916 -4.09386,-11.1891 0,-4.0976 1.36462,-7.8273 4.09386,-11.1892 l 0.65104,0.3862 c -2.14073,3.178 -3.21109,6.7864 -3.21108,10.825 -1e-5,4.0019 1.07035,7.6029 3.21108,10.803 z"
         style="fill:#ffffff"
         id="path3168" />
      <path
         d="m 131.79366,1172.3352 0,0.6511 -1.26899,0 0,-8.6071 c 0.47081,0.1472 0.9453,0.32 1.42347,0.5187 l 10.05257,0 0.83863,-0.7945 c 0.83861,0.5738 1.25793,0.9342 1.25795,1.0814 -2e-5,0.088 -0.0589,0.1802 -0.17656,0.2758 l -0.47449,0.3421 0,6.9408 -1.26898,0 0,-0.4083 z m 0,-5.1752 10.3836,0 0,-1.6994 -10.3836,0 z m 0,0.5627 0,1.6332 10.3836,0 0,-1.6332 z m 0,2.1959 0,1.8538 10.3836,0 0,-1.8538 z m 7.85667,-11.2112 0,0.4524 c 0.2501,0.8681 0.83126,1.6221 1.74347,2.2621 1.30207,0.9123 3.07865,1.5596 5.32973,1.9421 -0.44876,0.4635 -0.75773,0.8939 -0.92691,1.2911 -3.54581,-1.0373 -5.64607,-2.5453 -6.30078,-4.5242 -0.62531,2.2216 -2.94626,3.7113 -6.96286,4.469 l -0.32001,-0.5186 c 2.27313,-0.5591 3.9835,-1.4676 5.13112,-2.7256 0.69149,-0.765 1.03724,-1.5558 1.03725,-2.3724 l 0,-0.2759 -2.61521,0 c -0.6768,0.7945 -1.4529,1.5007 -2.32831,2.1187 l -0.32,-0.3311 c 1.26529,-1.2653 2.17749,-2.7549 2.73659,-4.469 1.23587,0.1986 1.85381,0.4377 1.85382,0.7173 -10e-6,0.1618 -0.30898,0.3126 -0.92691,0.4524 -0.13978,0.2795 -0.33473,0.5959 -0.58484,0.949 l 7.70219,0 0.8607,-1.0152 c 0.93424,0.8607 1.40138,1.4087 1.4014,1.6441 -2e-5,0.1251 -0.0993,0.2097 -0.29794,0.2538 l -0.62897,0.1545 c -0.57382,0.5738 -1.3205,1.1329 -2.24004,1.6773 l -0.38621,-0.3421 c 0.58114,-0.6473 1.01149,-1.2506 1.29106,-1.8097 z m 6.20147,17.7106 c -0.18393,0 -0.48555,-0.1434 -0.90484,-0.4303 -1.30947,-0.8754 -3.498,-1.7325 -6.56562,-2.5711 l 0.29794,-0.4745 c 5.20098,0.7872 7.80147,1.7141 7.80149,2.7807 -2e-5,0.4635 -0.20968,0.6952 -0.62897,0.6952 z m -18.62649,0.099 -0.32,-0.5186 c 2.56739,-0.6474 4.85156,-1.6736 6.85252,-3.0787 1.12552,0.5444 1.68829,0.938 1.6883,1.1808 -1e-5,0.1618 -0.21703,0.2427 -0.65105,0.2427 -0.21334,0 -0.38622,-0.01 -0.51863,-0.022 -2.24371,1.0373 -4.59409,1.7693 -7.05114,2.1959 z m 2.63729,-17.1588 c -0.28691,0 -0.50392,-0.1655 -0.65105,-0.4966 -0.2869,-0.6694 -0.8607,-1.2726 -1.7214,-1.8097 l 0.25379,-0.3752 c 1.88325,0.5665 2.82487,1.2028 2.82487,1.909 0,0.515 -0.23541,0.7725 -0.70621,0.7725 z m 3.68557,-1.5118 -3.29936,3.9284 c -0.17656,0.2207 -0.26484,0.4708 -0.26483,0.7503 -1e-5,0.1471 0.0294,0.3421 0.0883,0.5848 0.0589,0.2428 0.0883,0.5003 0.0883,0.7725 0,0.2722 -0.10299,0.4892 -0.30897,0.651 -0.1692,0.1251 -0.36047,0.1876 -0.5738,0.1876 -0.41932,0 -0.62898,-0.1581 -0.62898,-0.4745 0,-0.2575 0.0294,-0.4929 0.0883,-0.7062 0.0809,-0.1986 0.12138,-0.4598 0.12138,-0.7835 0,-0.2206 -0.0809,-0.3935 -0.24276,-0.5186 -0.19863,-0.1545 -0.5738,-0.3089 -1.12553,-0.4634 l 0.16552,-0.4083 c 0.5223,0.1103 0.84598,0.1655 0.97104,0.1655 0.30162,0 0.56277,-0.092 0.78346,-0.2759 0.48552,-0.3899 1.15128,-0.9931 1.99728,-1.8097 0.77241,-0.7429 1.37196,-1.3609 1.79864,-1.8538 z"
         style="fill:#ffffff"
         id="path3170" />
      <path
         d="m 166.36521,1167.7227 -2.46073,0 0,6.7312 c -1e-5,1.2358 -0.70991,1.8538 -2.12968,1.8538 -2e-5,-0.4414 -0.2391,-0.7651 -0.71725,-0.9711 -0.36784,-0.1471 -1.00049,-0.2979 -1.89796,-0.4524 l 0,-0.6069 c 1.11816,0.1471 2.01197,0.2207 2.68142,0.2207 0.51493,0 0.77241,-0.2391 0.77242,-0.7173 l 0,-6.058 -2.39452,0 0,1.1035 -1.26898,0 0,-8.4415 0.27586,0.1324 c 0.38988,0.1692 0.76506,0.3568 1.12554,0.5628 l 1.51174,0 c 0.2354,-0.9196 0.40459,-1.8244 0.5076,-2.7146 l -5.10904,0 0,5.6277 c -1e-5,5.5688 -1.19911,9.7215 -3.5973,12.4581 l -0.45242,-0.3862 c 1.82439,-2.8616 2.73659,-6.8782 2.73659,-12.0498 l 0,-6.9077 c 0.48552,0.1766 1.00415,0.4083 1.55589,0.6952 l 9.46773,0 1.1145,-1.4456 c 0.0882,0.074 0.18756,0.1656 0.29793,0.2759 0.52964,0.5076 0.9416,0.9269 1.23588,1.258 l -0.24276,0.4744 -5.24146,0 c -0.43404,0.8975 -0.95635,1.8024 -1.56692,2.7146 l 3.5973,0 0.80553,-0.9711 c 0.9416,0.7063 1.41241,1.166 1.41243,1.3794 -2e-5,0.103 -0.0699,0.1986 -0.20966,0.2869 l -0.5407,0.3641 0,6.6429 -1.26898,0 z m 0,-0.5627 0,-2.5821 -6.1463,0 0,2.5821 z m 0,-3.1449 0,-2.3725 -6.1463,0 0,2.3725 z m -17.03749,-2.5711 c 1.75818,0.6989 2.63727,1.5412 2.63728,2.5269 -1e-5,0.5739 -0.26484,0.8608 -0.7945,0.8607 -0.35311,10e-5 -0.56277,-0.2022 -0.62897,-0.6069 -0.17656,-0.9121 -0.68783,-1.714 -1.53382,-2.4055 z m 1.57795,-4.8883 c 1.85382,0.5885 2.78073,1.3867 2.78073,2.3945 0,0.5885 -0.27219,0.8828 -0.81656,0.8828 -0.29426,0 -0.49657,-0.2318 -0.60691,-0.6952 -0.20598,-0.8166 -0.76507,-1.5265 -1.67726,-2.1297 z m 14.40021,12.9988 c 1.43449,0.8165 2.57106,1.795 3.40971,2.9352 0.37516,0.5076 0.56275,1.0041 0.56277,1.4897 -2e-5,0.6326 -0.26486,0.949 -0.7945,0.949 -0.34577,0 -0.60692,-0.3017 -0.78346,-0.9049 -0.43405,-1.4345 -1.34624,-2.7881 -2.73659,-4.0607 z m -9.11461,5.4952 c 1.29472,-1.4492 2.2768,-3.2442 2.94625,-5.3849 1.29472,0.5003 1.94208,0.9012 1.94209,1.2028 -1e-5,0.1986 -0.32369,0.309 -0.97104,0.331 -0.83865,1.7435 -2.01568,3.167 -3.53109,4.2704 z m -0.92691,-14.5326 -2.8028,9.876 c -0.25013,0.9269 -0.37519,1.5338 -0.37518,1.8207 -1e-5,0.1692 0.0294,0.3752 0.0883,0.618 0.20597,1.0519 0.30896,1.7876 0.30897,2.2069 -1e-5,0.8901 -0.34576,1.3352 -1.03726,1.3352 -0.5076,0 -0.76139,-0.2648 -0.76139,-0.7945 0,-0.022 0.0184,-0.1618 0.0552,-0.4193 0.0515,-0.3678 0.0956,-0.6695 0.13242,-0.9049 0.0883,-0.5738 0.13241,-1.0814 0.13241,-1.5227 0,-1.2065 -0.58116,-1.9127 -1.74347,-2.1187 l 0,-0.5848 c 0.2869,0.044 0.52598,0.066 0.71725,0.066 0.70622,0 1.1807,-0.2575 1.42347,-0.7724 0.78713,-1.567 1.76554,-4.2079 2.93522,-7.9229 l 0.38621,-1.269 z"
         style="fill:#ffffff"
         id="path3172" />
      <path
         d="m 183.09373,1166.7075 c 2.88371,1.2065 4.97661,2.4718 6.27872,3.796 0.67677,0.6547 1.01516,1.2138 1.01518,1.6772 -2e-5,0.721 -0.2722,1.0814 -0.81656,1.0814 -0.22071,0 -0.45244,-0.1876 -0.69518,-0.5627 -1.44188,-2.1187 -3.51271,-3.921 -6.21251,-5.407 -1.36095,1.5963 -2.8212,2.9315 -4.38075,4.0056 -1.46394,1.0078 -3.15224,1.8869 -5.06491,2.6372 l -0.25379,-0.6289 c 3.20739,-1.6847 5.77846,-3.6047 7.71321,-5.7601 1.79496,-2.0083 3.2405,-4.4286 4.33662,-7.2608 -2.77339,0.3678 -4.87732,0.6621 -6.31182,0.8827 -0.37518,0.066 -0.62898,0.1288 -0.76139,0.1876 -0.20599,0.074 -0.41932,0.1104 -0.64001,0.1104 -0.24277,0 -0.55541,-0.2391 -0.93794,-0.7173 -0.3384,-0.4193 -0.60323,-0.8717 -0.7945,-1.3572 l 0.5407,-0.32 c 0.33103,0.3752 0.59587,0.6142 0.7945,0.7172 0.23539,0.1251 0.54069,0.1876 0.91587,0.1876 1.61841,0 3.80326,-0.1729 6.55458,-0.5186 0.34574,-0.044 0.65471,-0.1582 0.92691,-0.3421 0.22804,-0.1324 0.3862,-0.1986 0.47449,-0.1986 0.14711,0 0.42666,0.2023 0.83863,0.6069 0.40459,0.412 0.60689,0.7136 0.60691,0.9048 -2e-5,0.1692 -0.0993,0.298 -0.29794,0.3862 -0.30898,0.1398 -0.57749,0.4414 -0.80553,0.9049 -0.92692,1.8832 -1.93475,3.5458 -3.02349,4.9876 z"
         style="fill:#ffffff"
         id="path3174" />
      <path
         d="m 205.93545,1164.8537 c -0.11035,2.7072 -0.57013,4.8148 -1.37933,6.3229 -0.99312,1.8906 -2.58211,3.3471 -4.76696,4.3697 l -0.38622,-0.5517 c 1.92002,-1.2065 3.27361,-2.7403 4.06075,-4.6015 0.58851,-1.4124 0.89012,-3.2147 0.90485,-5.407 -2.2143,0.2281 -3.96881,0.4414 -5.26353,0.64 -0.27219,0.044 -0.48185,0.096 -0.62898,0.1545 -0.21334,0.059 -0.36414,0.088 -0.45242,0.088 -0.38989,0 -0.81656,-0.2244 -1.28002,-0.6731 -0.38989,-0.3678 -0.72461,-0.8129 -1.00415,-1.3352 l 0.47449,-0.4083 c 0.50024,0.3973 0.88277,0.6511 1.1476,0.7614 0.27219,0.1104 0.61426,0.1655 1.02623,0.1655 1.08874,0 3.38395,-0.1508 6.88562,-0.4524 3.10439,-0.2722 4.81476,-0.4671 5.13111,-0.5848 0.44136,-0.1692 0.82758,-0.2538 1.15863,-0.2538 0.5885,0 1.06299,0.114 1.42347,0.342 0.33102,0.206 0.49654,0.4709 0.49656,0.7945 -2e-5,0.3311 -0.30163,0.4966 -0.90484,0.4966 l -2.24003,-0.055 c -0.8975,0 -2.36511,0.063 -4.40283,0.1876 z m -6.72009,-6.4111 c 0.68414,0.5812 1.33886,0.8717 1.96416,0.8717 1.29472,0 2.97567,-0.1213 5.04284,-0.3641 0.5885,-0.074 1.0777,-0.2023 1.4676,-0.3862 0.27218,-0.1324 0.48919,-0.1986 0.65105,-0.1987 0.44872,10e-5 0.85701,0.096 1.22484,0.2869 0.34574,0.184 0.51861,0.4047 0.51863,0.6621 -2e-5,0.3458 -0.25749,0.526 -0.77242,0.5407 -2.70718,0.1104 -5.29664,0.3017 -7.76839,0.5738 -0.103,0.015 -0.21703,0.037 -0.34208,0.066 -0.17656,0.044 -0.34944,0.066 -0.51863,0.066 -0.58116,10e-5 -1.22853,-0.5811 -1.94209,-1.7434 z"
         style="fill:#ffffff"
         id="path3176" />
      <path
         d="m 218.61426,1164.7654 c 0.69886,0.7504 1.45289,1.1256 2.2621,1.1256 1.34622,0 2.67038,-0.029 3.97248,-0.088 1.58897,-0.066 3.85107,-0.1949 6.7863,-0.3862 0.86805,-0.052 1.45656,-0.1287 1.76555,-0.2317 0.24274,-0.088 0.4524,-0.1324 0.62897,-0.1325 0.40459,10e-5 0.81287,0.1067 1.22485,0.32 0.43401,0.2207 0.65102,0.4856 0.65104,0.7945 -2e-5,0.4488 -0.29428,0.6732 -0.88277,0.6732 -0.33106,0 -0.70624,-0.015 -1.12553,-0.044 -0.61796,-0.044 -1.29843,-0.066 -2.04141,-0.066 -1.83177,0 -5.18262,0.1655 -10.05257,0.4966 -0.32368,0.022 -0.61059,0.073 -0.8607,0.1545 -0.21334,0.059 -0.39357,0.088 -0.5407,0.088 -0.78714,0 -1.54117,-0.7724 -2.2621,-2.3172 z"
         style="fill:#ffffff"
         id="path3178" />
      <path
         d="m 244.96499,1158.1667 c 1.41979,0.2649 2.56371,0.7283 3.43178,1.3904 0.69149,0.5297 1.03724,1.052 1.03726,1.5669 -2e-5,0.2649 -0.0773,0.4855 -0.23173,0.6621 -0.1545,0.1766 -0.3568,0.2648 -0.60691,0.2648 -0.29426,0 -0.5407,-0.1802 -0.73932,-0.5407 -0.66944,-1.1623 -1.71773,-2.0818 -3.14487,-2.7586 z m -2.94625,4.2925 c 1.53014,0.3016 2.70716,0.7761 3.53109,1.4235 0.66207,0.5296 0.99311,1.0851 0.99312,1.6662 -1e-5,0.5591 -0.27955,0.8386 -0.83863,0.8386 -0.25749,0 -0.51864,-0.2023 -0.78346,-0.6069 -0.80186,-1.2285 -1.84279,-2.1407 -3.12281,-2.7366 z m 1.47865,9.0153 c 0.60322,0.6621 1.06299,0.9931 1.37933,0.9931 0.38252,0 1.06667,-0.2427 2.05244,-0.7283 0.89748,-0.4487 1.88324,-1.0262 2.95729,-1.7324 3.07497,-2.0377 5.94397,-4.8626 8.60702,-8.4746 l 0.55173,0.4303 c -1.64786,2.7734 -3.54949,5.1275 -5.70491,7.0622 -1.80234,1.6111 -3.98352,3.1191 -6.54354,4.5242 -0.54439,0.3016 -0.96003,0.5076 -1.24692,0.618 -0.19863,0.074 -0.36415,0.1103 -0.49656,0.1103 -0.32369,0 -0.68783,-0.2538 -1.09243,-0.7614 -0.36047,-0.4487 -0.67312,-1.0078 -0.93794,-1.6772 z"
         style="fill:#ffffff"
         id="path3180" />
      <path
         d="m 275.50889,1172.3021 c 0.12505,-1.8465 0.20229,-3.2 0.23173,-4.0607 -2.24372,0.228 -3.93938,0.423 -5.08697,0.5848 -0.46347,0.074 -0.75037,0.1361 -0.8607,0.1876 -0.16921,0.074 -0.31266,0.1103 -0.43036,0.1103 -0.53702,0 -1.16232,-0.4928 -1.87589,-1.4786 l 0.43036,-0.3973 c 0.54436,0.4046 1.14759,0.6069 1.80968,0.6069 0.47816,0 1.02989,-0.029 1.65519,-0.088 0.69885,-0.059 2.16646,-0.2097 4.40283,-0.4525 l 0.17655,-3.2552 c -2.58947,0.2207 -4.56835,0.423 -5.93664,0.6069 -0.37518,0.044 -0.6253,0.085 -0.75035,0.1214 -0.2207,0.059 -0.39358,0.088 -0.51863,0.088 -0.41197,0 -0.97841,-0.5076 -1.69934,-1.5228 l 0.40829,-0.4083 c 0.43402,0.309 0.77977,0.5003 1.03725,0.5738 0.22069,0.059 0.57012,0.088 1.04829,0.088 0.74299,0 1.90899,-0.059 3.49799,-0.1766 0.8239,-0.059 1.57058,-0.136 2.24003,-0.2317 0.2501,-0.022 0.45976,-0.103 0.62897,-0.2427 0.19126,-0.1692 0.34206,-0.2538 0.45242,-0.2538 0.21333,0 0.53701,0.217 0.97105,0.651 0.3016,0.3016 0.45241,0.5518 0.45242,0.7504 -1e-5,0.1545 -0.0993,0.3273 -0.29793,0.5186 -0.206,0.2354 -0.31634,0.5297 -0.33104,0.8828 -0.13979,1.8391 -0.31266,4.0019 -0.51863,6.4883 0.20597,0.066 0.39355,0.1913 0.56277,0.3752 0.16182,0.1766 0.24274,0.3458 0.24276,0.5076 -2e-5,0.1839 -0.0699,0.3016 -0.20966,0.3531 -0.12507,0.044 -0.38623,0.066 -0.78346,0.066 -1.79498,0 -4.09018,0.1766 -6.88562,0.5297 -0.25012,0.037 -0.43403,0.081 -0.55173,0.1324 -0.13978,0.059 -0.26484,0.088 -0.37518,0.088 -0.5076,0 -1.08876,-0.5738 -1.74347,-1.7214 l 0.43035,-0.3311 c 0.64736,0.5076 1.18806,0.7614 1.62209,0.7614 0.47816,0 1.21013,-0.037 2.1959,-0.1103 1.30207,-0.081 2.75497,-0.195 4.35868,-0.3421 z"
         style="fill:#ffffff"
         id="path3182" />
      <path
         d="m 288.33115,1159.0936 c 1.77289,0.5224 3.06762,1.1771 3.88419,1.9642 0.66207,0.618 0.99311,1.2065 0.99312,1.7655 -10e-6,0.7651 -0.28691,1.1477 -0.8607,1.1476 -0.25013,10e-5 -0.55174,-0.2942 -0.90484,-0.8827 -0.846,-1.4272 -1.98256,-2.5784 -3.40971,-3.4539 z m 0.33104,12.2485 c 0.4046,0.6032 0.82024,0.9048 1.24691,0.9048 0.50023,0 1.22484,-0.2501 2.17383,-0.7503 4.78902,-2.5012 8.59229,-5.8521 11.40982,-10.0526 l 0.51863,0.4524 c -1.44923,2.538 -3.07868,4.6567 -4.88835,6.356 -1.72142,1.6258 -3.89524,3.1669 -6.52147,4.6235 -0.87543,0.4782 -1.40509,0.7945 -1.58899,0.949 -0.2722,0.2427 -0.61795,0.3641 -1.03726,0.3641 -0.22805,0 -0.5407,-0.2538 -0.93794,-0.7614 -0.38254,-0.5002 -0.68048,-1.0777 -0.89381,-1.7324 z"
         style="fill:#ffffff"
         id="path3184" />
      <path
         d="m 308.37006,1157.4384 c 2.72924,3.3546 4.09385,7.0843 4.09386,11.1892 -10e-6,4.0975 -1.36462,7.8272 -4.09386,11.1891 l -0.65104,-0.3641 c 2.14072,-3.2001 3.21108,-6.8011 3.21108,-10.803 0,-4.0166 -1.07036,-7.6249 -3.21108,-10.825 z"
         style="fill:#ffffff"
         id="path3186" />
    </g>
  </g>
</svg>
