<?xml version="1.0" encoding="UTF-8" standalone="no"?>
<!-- Created with Inkscape (http://www.inkscape.org/) -->

<svg
   xmlns:dc="http://purl.org/dc/elements/1.1/"
   xmlns:cc="http://creativecommons.org/ns#"
   xmlns:rdf="http://www.w3.org/1999/02/22-rdf-syntax-ns#"
   xmlns:svg="http://www.w3.org/2000/svg"
   xmlns="http://www.w3.org/2000/svg"
   xmlns:sodipodi="http://sodipodi.sourceforge.net/DTD/sodipodi-0.dtd"
   xmlns:inkscape="http://www.inkscape.org/namespaces/inkscape"
   width="247"
   height="72"
   id="svg3361"
   version="1.1"
   inkscape:version="0.48.4 r9939"
   sodipodi:docname="binpet.svg">
  <defs
     id="defs3363" />
  <sodipodi:namedview
     id="base"
     pagecolor="#ffffff"
     bordercolor="#666666"
     borderopacity="1.0"
     inkscape:pageopacity="0.0"
     inkscape:pageshadow="2"
     inkscape:zoom="5.6568542"
     inkscape:cx="141.04475"
     inkscape:cy="40.627027"
     inkscape:document-units="px"
     inkscape:current-layer="layer1"
     showgrid="false"
     inkscape:window-width="1920"
     inkscape:window-height="1017"
     inkscape:window-x="892"
     inkscape:window-y="250"
     inkscape:window-maximized="1" />
  <metadata
     id="metadata3366">
    <rdf:RDF>
      <cc:Work
         rdf:about="">
        <dc:format>image/svg+xml</dc:format>
        <dc:type
           rdf:resource="http://purl.org/dc/dcmitype/StillImage" />
        <dc:title />
      </cc:Work>
    </rdf:RDF>
  </metadata>
  <g
     inkscape:label="レイヤー 1"
     inkscape:groupmode="layer"
     id="layer1"
     transform="translate(0,-980.3622)">
    <g
       transform="scale(1.1168655,0.89536295)"
       style="font-size:22.45596313000000100px;font-style:normal;font-variant:normal;font-weight:normal;font-stretch:normal;text-align:center;line-height:125%;letter-spacing:0px;word-spacing:0px;writing-mode:lr-tb;text-anchor:middle;fill:#ffffff;fill-opacity:1;stroke:none;font-family:IPAmjMincho;-inkscape-font-specification:IPAmjMincho"
       id="text3055">
      <path
         d="m 0.47585195,1099.1595 c 0.34356161,0.7237 0.75656965,1.0856 1.23902535,1.0856 0.6944344,0 1.6812677,-0.212 2.9605029,-0.636 0.8917982,-0.2924 1.4838982,-0.6213 1.7763018,-0.9868 0.1900482,-0.212 0.3691402,-0.318 0.5372764,-0.318 0.2119774,0 0.467823,0.1206 0.7675379,0.3618 0.299695,0.2413 0.4495475,0.4971 0.4495578,0.7676 -1.03e-5,0.1389 -0.1133134,0.2631 -0.3399096,0.3728 -0.3874334,0.2047 -0.7017581,0.4386 -0.942975,0.7017 -2.6023251,2.7047 -3.9034831,5.4532 -3.903478,8.2456 -5.1e-6,1.557 0.4020381,2.7485 1.2061309,3.5745 0.7236714,0.731 1.7068498,1.0965 2.9495381,1.0965 1.7762907,0 3.2126815,-0.6506 4.3091765,-1.9518 1.045299,-1.3303 1.567955,-3.1944 1.56797,-5.592 -1.5e-5,-2.1345 -0.27779,-4.2982 -0.833327,-6.4912 -0.08773,-0.3508 -0.244895,-0.7346 -0.471487,-1.1513 -0.116972,-0.2193 -0.175451,-0.4203 -0.175437,-0.6031 -1.4e-5,-0.2266 0.263141,-0.3399 0.789467,-0.3399 0.540916,0 0.822347,0.2851 0.844292,0.8553 0.05115,0.8041 0.464161,1.8604 1.239025,3.1688 0.635943,1.1038 1.630086,2.3684 2.982433,3.7938 0.409333,0.4021 0.639594,0.6397 0.690784,0.7128 0.197346,0.2631 0.296029,0.5263 0.29605,0.7894 -2.1e-5,0.6433 -0.222972,0.9649 -0.668854,0.9649 -0.197387,0 -0.398409,-0.106 -0.603066,-0.3179 -0.153527,-0.1609 -0.387443,-0.4606 -0.701749,-0.8992 -1.228078,-1.7105 -2.25146,-3.5416 -3.070151,-5.4933 l -0.142543,0.066 c 0.540916,2.2441 0.811381,4.236 0.811397,5.9758 -1.6e-5,2.3391 -0.562876,4.1885 -1.688583,5.5482 -1.220764,1.557 -2.9239648,2.3355 -5.1096086,2.3355 -1.8640278,0 -3.2784889,-0.6213 -4.2433875,-1.864 -0.8114014,-1.0527 -1.2170996,-2.4306 -1.2170957,-4.1338 -3.9e-6,-1.6228 0.3983844,-3.1725 1.195166,-4.6491 0.5628554,-1.0526 1.4875548,-2.3428 2.7741009,-3.8705 l -0.065789,-0.066 c -2.0687029,0.7602 -3.2053887,1.2025 -3.4100608,1.3267 -0.2704698,0.1682 -0.5116958,0.2522 -0.7236785,0.2522 -0.2485395,0 -0.5080401,-0.1791 -0.77850265,-0.5373 -0.34356708,-0.4312 -0.59941276,-1.0233 -0.7675378,-1.7763 z M 14.76302,1096.4841 c 0.964887,0.3363 1.721459,0.7566 2.269719,1.261 0.475123,0.4386 0.712694,0.8699 0.712714,1.2938 -2e-5,0.5264 -0.226627,0.7895 -0.67982,0.7895 -0.307034,0 -0.551915,-0.2302 -0.734643,-0.6908 -0.350893,-0.8406 -0.986852,-1.5752 -1.90788,-2.2039 z m 2.061387,-1.546 c 0.950265,0.2851 1.717802,0.6908 2.302614,1.2171 0.49705,0.4459 0.745586,0.8772 0.745608,1.2938 -2.2e-5,0.5264 -0.215664,0.7895 -0.646925,0.7895 -0.285107,0 -0.540952,-0.2449 -0.767538,-0.7346 -0.336275,-0.7456 -0.994164,-1.451 -1.973668,-2.1163 z"
         style="fill:#ffffff"
         id="path3066" />
      <path
         d="m 40.826411,1106.9665 c -0.548262,2.5438 -1.414482,4.4554 -2.598664,5.7346 -0.979541,1.0599 -2.090643,1.5899 -3.333307,1.5899 -1.345032,0 -2.240492,-0.4569 -2.686382,-1.3706 -0.416675,-0.8845 -0.657901,-2.0906 -0.723679,-3.6184 -0.0658,-0.9941 -0.215652,-1.6776 -0.449558,-2.0504 -0.182757,-0.2924 -0.442258,-0.4386 -0.778502,-0.4386 -0.57749,0 -1.290203,0.413 -2.138141,1.239 -1.513153,1.5351 -2.755832,3.4722 -3.728041,5.8114 -0.197371,0.4824 -0.460526,0.7237 -0.789468,0.7237 -0.416666,0 -0.624997,-0.3728 -0.624995,-1.1185 -2e-6,-0.3143 0.201019,-0.8552 0.603066,-1.6227 2.558453,-4.6491 4.543085,-8.1981 5.9539,-10.6469 0.65788,-1.1769 0.986824,-1.9773 0.986835,-2.4013 -1.1e-5,-0.3947 -0.285096,-0.7821 -0.855257,-1.1623 l 0.383769,-0.5043 c 0.730978,0.2851 1.323078,0.6432 1.776302,1.0745 0.372792,0.3509 0.559194,0.6689 0.559206,0.9539 -1.2e-5,0.1097 -0.113315,0.3254 -0.33991,0.647 l -0.394733,0.603 c -1.359649,1.9591 -3.34428,5.106 -5.953901,9.4408 l 0.06579,0.066 c 1.220744,-1.6081 2.233162,-2.7119 3.037257,-3.3113 0.606711,-0.4605 1.180536,-0.6908 1.721478,-0.6908 0.811386,0 1.392521,0.3107 1.743407,0.932 0.314313,0.5482 0.497059,1.4035 0.548241,2.5658 0.07309,1.6593 0.274108,2.6644 0.603066,3.0153 0.307001,0.3874 0.771178,0.5811 1.392532,0.5811 1.103777,0 2.152745,-0.5921 3.146905,-1.7763 0.935647,-1.1111 1.692219,-2.6059 2.269719,-4.4846 z"
         style="fill:#ffffff"
         id="path3068" />
      <path
         d="m 56.023659,1100.8372 1.326744,0 c 0.241211,-0.9503 0.412994,-1.8933 0.515347,-2.829 l -4.046021,0 -0.241226,-0.5592 8.223619,0 1.118413,-1.4144 c 0.56284,0.4386 1.063567,0.9612 1.502181,1.5679 l -0.219297,0.4057 -4.583297,0 c -0.42399,0.943 -0.96492,1.886 -1.622794,2.829 l 3.377166,0 0.811397,-1.0527 c 0.884476,0.7457 1.326723,1.2025 1.326744,1.3706 -2.1e-5,0.1024 -0.06215,0.1901 -0.186402,0.2632 l -0.537276,0.3618 0,10.1096 -1.260955,0 0,-0.921 -5.67978,0 0,0.921 -1.282885,0 0,-11.842 c 0.49706,0.2412 0.888139,0.4459 1.173237,0.614 z m -0.175437,0.5592 0,2.4122 5.67978,0 0,-2.4122 z m 5.67978,9.0131 0,-2.8509 -5.67978,0 0,2.8509 z m 0,-3.4101 0,-2.6316 -5.67978,0 0,2.6316 z m -13.20165,-6.1403 0,-4.6272 c 1.352321,0.022 2.028485,0.1792 2.028492,0.4715 -7e-6,0.1682 -0.270473,0.3619 -0.811397,0.5812 l 0,3.5745 2.291649,0 0.855256,-1.239 0.241226,0.2522 c 0.409343,0.4313 0.723668,0.7968 0.942975,1.0964 l -0.263155,0.4496 -4.067951,0 0,0.8114 c 2.602309,0.7456 3.903468,1.5789 3.903478,2.5 -1e-5,0.4971 -0.230272,0.7456 -0.690784,0.7456 -0.241236,0 -0.497081,-0.1937 -0.767538,-0.5811 -0.49708,-0.731 -1.312132,-1.4108 -2.445156,-2.0395 l 0,2.7741 -1.217095,0 0,-2.6535 c -1.103797,1.2573 -2.532878,2.3648 -4.287247,3.3224 l -0.36184,-0.4935 c 1.798229,-1.1695 3.25655,-2.6315 4.374966,-4.3859 l -3.706111,0 -0.241226,-0.5592 z m 0.997799,9.2105 c 2.55845,1.0087 3.837678,2.0284 3.837689,3.0591 -1.1e-5,0.5044 -0.241237,0.7566 -0.723679,0.7566 -0.226616,0 -0.464187,-0.2156 -0.712713,-0.6469 -0.599419,-0.9942 -1.454675,-1.8531 -2.56577,-2.5767 -0.621346,2.1125 -2.328202,3.6512 -5.120573,4.6161 l -0.296051,-0.5153 c 2.865471,-1.3743 4.342066,-3.3041 4.42979,-5.7894 l -3.815759,0 -0.252191,-0.5592 4.06795,0 0,-2.204 c 1.396181,0.066 2.094274,0.2522 2.094282,0.5592 -8e-6,0.1682 -0.270473,0.3436 -0.811397,0.5263 l 0,1.1185 2.20393,0 0.964904,-1.2829 c 0.445893,0.402 0.862556,0.8735 1.24999,1.4144 l -0.285085,0.4277 -4.133739,0 c -0.02194,0.4166 -0.0658,0.7821 -0.131578,1.0965 z m -4.166634,-13.2017 c 1.498522,0.9649 2.247785,1.9006 2.247789,2.807 -4e-6,0.5409 -0.26316,0.8114 -0.789467,0.8114 -0.328949,0 -0.51535,-0.2083 -0.559206,-0.625 -0.08772,-0.921 -0.49342,-1.7982 -1.217096,-2.6316 z m 5.142503,3.4101 c 0.453205,-0.8845 0.866213,-2.0431 1.239025,-3.4759 1.147642,0.3582 1.721468,0.6872 1.721478,0.9868 -10e-6,0.1828 -0.266821,0.2888 -0.800432,0.318 -0.56287,0.943 -1.14766,1.7508 -1.754372,2.4233 z m 9.188524,11.6117 c 3.260188,0.8114 4.890291,1.7251 4.890312,2.7412 -2.1e-5,0.5409 -0.241247,0.8114 -0.723678,0.8114 -0.204697,0 -0.478818,-0.1937 -0.822362,-0.5811 -0.731008,-0.8699 -1.929827,-1.7032 -3.596463,-2.5 z m -8.15783,3.4101 c 2.134475,-0.8772 3.797472,-2.0212 4.988995,-3.432 1.074539,0.519 1.611815,0.9174 1.61183,1.1951 -1.5e-5,0.1609 -0.179107,0.2413 -0.537277,0.2413 -0.05849,0 -0.222965,-0.015 -0.493417,-0.044 -1.279242,1.0307 -3.029958,1.8823 -5.252151,2.5548 z"
         style="fill:#ffffff"
         id="path3070" />
      <path
         d="m 76.484024,1104.0718 c 0.438581,0 0.82966,0.1718 1.173236,0.5153 0.299693,0.2998 0.449545,0.6652 0.449558,1.0965 -1.3e-5,0.2924 -0.08042,0.5775 -0.241226,0.8553 -0.336267,0.5117 -0.796789,0.7675 -1.381568,0.7675 -0.387435,0 -0.730999,-0.1279 -1.030694,-0.3838 -0.387433,-0.3435 -0.581145,-0.7565 -0.581135,-1.239 -1e-5,-0.5482 0.230251,-0.9868 0.690784,-1.3158 0.285075,-0.1973 0.592089,-0.296 0.921045,-0.296 z"
         style="fill:#ffffff"
         id="path3072" />
      <path
         d="m 104.51012,1098.085 c 0.63594,0 1.16956,0.2412 1.60086,0.7237 0.3801,0.4167 0.57016,0.8991 0.57017,1.4473 -1e-5,0.6506 -0.24124,1.1952 -0.72367,1.6338 -0.41669,0.3801 -0.89914,0.5702 -1.44736,0.5702 -0.6506,0 -1.19518,-0.2413 -1.63376,-0.7237 -0.38013,-0.424 -0.57019,-0.9174 -0.57017,-1.4803 -2e-5,-0.6359 0.24121,-1.1695 0.72368,-1.6008 0.42395,-0.3801 0.91737,-0.5702 1.48025,-0.5702 z m 0,0.7237 c -0.4313,0 -0.79679,0.1608 -1.09648,0.4824 -0.25587,0.2851 -0.38379,0.6068 -0.38377,0.9649 -2e-5,0.4386 0.16445,0.8041 0.49341,1.0965 0.27776,0.2559 0.60671,0.3838 0.98684,0.3838 0.41664,0 0.77117,-0.1645 1.06359,-0.4934 0.25582,-0.2851 0.38375,-0.6141 0.38377,-0.9869 -2e-5,-0.4166 -0.16084,-0.7711 -0.48246,-1.0636 -0.2851,-0.2558 -0.60673,-0.3837 -0.9649,-0.3837 z m -14.484536,7.3135 c 0.47514,0.4459 0.804084,0.6689 0.986834,0.6689 0.248533,0 0.72002,-0.3874 1.414463,-1.1623 1.388872,-1.6009 2.609621,-2.9276 3.662251,-3.9802 0.387416,-0.3874 0.760219,-0.5812 1.118413,-0.5812 0.387414,0 1.023373,0.4131 1.907879,1.2391 3.135926,2.8289 5.840576,4.9012 8.113976,6.217 0.6871,0.3801 1.03067,0.8516 1.03069,1.4145 -2e-5,0.2851 -0.0768,0.508 -0.23026,0.6688 -0.1316,0.1389 -0.28876,0.2084 -0.47149,0.2084 -0.31434,0 -1.11478,-0.5081 -2.4013,-1.5242 -2.05409,-1.6447 -4.47,-3.8559 -7.247746,-6.6337 -0.285096,-0.285 -0.497082,-0.4276 -0.63596,-0.4276 -0.204686,0 -0.540941,0.2778 -1.008764,0.8333 -1.469294,1.7325 -2.510951,3.0117 -3.124976,3.8377 -0.387429,0.5336 -0.701753,0.9978 -0.942975,1.3925 -0.146202,0.2267 -0.339913,0.34 -0.581135,0.34 -0.23392,0 -0.555555,-0.2157 -0.964905,-0.647 -0.387426,-0.4239 -0.709061,-0.91 -0.964905,-1.4583 z"
         style="fill:#ffffff"
         id="path3074" />
      <path
         d="m 114.7732,1103.2823 0.49341,-0.3837 c 1.78361,1.1988 2.67541,2.3464 2.67542,3.4429 -1e-5,0.6725 -0.27778,1.0088 -0.83333,1.0088 -0.24123,0 -0.41667,-0.084 -0.52631,-0.2522 -0.0877,-0.1389 -0.17544,-0.413 -0.26315,-0.8224 -0.19007,-1.0014 -0.70541,-1.9992 -1.54604,-2.9934 z m 4.06795,-1.0745 0.49341,-0.3728 c 0.94297,0.7675 1.5972,1.4327 1.96271,1.9956 0.33624,0.5117 0.50437,1.027 0.50438,1.546 -10e-6,0.7164 -0.29972,1.0746 -0.89912,1.0746 -0.21199,0 -0.3655,-0.088 -0.46052,-0.2632 -0.0877,-0.1608 -0.17179,-0.4605 -0.25219,-0.8991 -0.19007,-1.0526 -0.63962,-2.0797 -1.34867,-3.0811 z m -1.45833,12.763 -0.33991,-0.5482 c 2.5146,-1.5132 4.46268,-3.0884 5.84426,-4.7259 1.35231,-1.6008 2.32818,-3.4283 2.92761,-5.4824 0.15349,-0.519 0.23024,-0.8954 0.23026,-1.1293 -2e-5,-0.2778 -0.29972,-0.5556 -0.89912,-0.8334 l 0.20833,-0.5153 c 0.78945,0.1608 1.41445,0.3947 1.87499,0.7017 0.42395,0.2778 0.63594,0.5702 0.63596,0.8772 -2e-5,0.1974 -0.0585,0.3692 -0.17544,0.5154 -0.16814,0.2193 -0.318,0.519 -0.44956,0.8991 -1.20614,2.8216 -2.58771,4.9926 -4.1447,6.5131 -1.38158,1.345 -3.2858,2.5877 -5.71268,3.728 z"
         style="fill:#ffffff"
         id="path3076" />
      <path
         d="m 142.75543,1103.2165 c 2.34646,0.5995 4.18855,1.3122 5.52627,2.1382 1.21343,0.7456 1.82015,1.4583 1.82016,2.1381 -10e-6,0.6287 -0.24124,0.943 -0.72367,0.943 -0.2778,0 -0.58481,-0.2266 -0.92105,-0.6798 -0.56288,-0.7091 -1.33407,-1.3962 -2.31358,-2.0614 -0.89913,-0.6213 -2.0285,-1.1842 -3.38813,-1.6886 -1e-5,1.4401 0.0146,2.7449 0.0439,3.9144 0.0877,2.5658 0.13157,4.4956 0.13158,5.7895 -1e-5,0.8698 -0.31434,1.3048 -0.94298,1.3048 -0.46053,0 -0.69079,-0.329 -0.69078,-0.9868 -1e-5,-0.2193 0.0219,-0.6031 0.0658,-1.1514 0.10233,-2.4488 0.1535,-5.3289 0.15351,-8.6402 -1e-5,-3.4284 -0.0439,-5.3764 -0.13158,-5.8443 -0.10966,-0.5044 -0.58115,-0.8918 -1.41446,-1.1623 l 0.19736,-0.5701 c 0.86987,0.036 1.60451,0.2376 2.20393,0.603 0.4532,0.2705 0.67981,0.5264 0.67982,0.7676 -1e-5,0.19 -0.0475,0.3874 -0.14254,0.5921 -0.10235,0.2558 -0.15352,0.6944 -0.15351,1.3158 z"
         style="fill:#ffffff"
         id="path3078" />
      <path
         d="m 171.71354,1097.2736 c 0.97219,0.3363 1.73242,0.7566 2.28068,1.261 0.47512,0.4313 0.71269,0.8625 0.71271,1.2938 -2e-5,0.5263 -0.22662,0.7895 -0.67982,0.7895 -0.30703,0 -0.55191,-0.2339 -0.73464,-0.7018 -0.35089,-0.8406 -0.98685,-1.5716 -1.90788,-2.1929 z m 2.07235,-1.557 c 0.95026,0.2924 1.7178,0.6981 2.30261,1.2171 0.49705,0.4459 0.74559,0.8808 0.74561,1.3048 -2e-5,0.5263 -0.21566,0.7895 -0.64693,0.7895 -0.2851,0 -0.54095,-0.2485 -0.76753,-0.7456 -0.33628,-0.7383 -0.99417,-1.4437 -1.97367,-2.1162 z m -12.5328,10.4056 0.69079,0.1316 c -0.25586,2.1637 -0.89913,3.8925 -1.92981,5.1864 -0.47515,0.5847 -0.9174,0.8771 -1.32675,0.8771 -0.4459,0 -0.66885,-0.3435 -0.66885,-1.0307 0,-0.4093 0.26315,-0.8077 0.78947,-1.1951 1.28653,-0.9503 2.10158,-2.2734 2.44515,-3.9693 z m 9.5394,-0.5702 c 1.35962,0.8699 2.43783,1.8604 3.23462,2.9715 0.59939,0.826 0.8991,1.5899 0.89912,2.2917 -2e-5,0.7456 -0.30704,1.1184 -0.92105,1.1184 -0.40206,0 -0.66521,-0.2632 -0.78946,-0.7895 -0.47516,-2.0833 -1.44007,-3.7902 -2.89472,-5.1206 z m -4.86838,-3.0811 c -1e-5,-0.7456 -0.0146,-1.6118 -0.0439,-2.5986 -0.0219,-0.5629 -0.10601,-0.9832 -0.25219,-1.261 -0.21931,-0.3655 -0.68349,-0.6432 -1.39254,-0.8333 l 0.18641,-0.6031 c 1.00144,0.022 1.77994,0.1426 2.3355,0.3619 0.40204,0.1608 0.60306,0.4166 0.60307,0.7675 -1e-5,0.1974 -0.0219,0.3984 -0.0658,0.6031 l -0.0658,0.5153 c -0.0804,0.7749 -0.12062,1.7544 -0.12061,2.9386 1.47658,-0.1097 2.72292,-0.2193 3.739,-0.329 0.40934,-0.044 0.80408,-0.1352 1.18421,-0.2741 0.28506,-0.1169 0.51898,-0.1754 0.70174,-0.1754 0.65788,0 1.16226,0.1169 1.51315,0.3509 0.29238,0.1827 0.43857,0.4166 0.43859,0.7017 -2e-5,0.3582 -0.27048,0.5373 -0.81139,0.5373 -0.41669,0 -0.80411,-0.015 -1.16228,-0.044 -0.49708,-0.029 -1.05994,-0.044 -1.68858,-0.044 -0.74562,0 -2.05043,0.058 -3.91444,0.1754 -10e-6,3.7061 0.0548,6.3888 0.16447,8.0482 0.0292,0.3289 0.0438,0.5994 0.0439,0.8114 -1e-5,0.921 -0.11331,1.5716 -0.33991,1.9517 -0.20469,0.3436 -0.45688,0.5154 -0.75657,0.5154 -0.24124,0 -0.43861,-0.2266 -0.5921,-0.6799 -0.15352,-0.4386 -0.33261,-0.7346 -0.53728,-0.8881 -0.70176,-0.5336 -1.60818,-1.0673 -2.71928,-1.6009 l 0.16448,-0.5153 c 1.24998,0.402 2.38666,0.7237 3.41006,0.9649 0.0146,-0.9868 0.0219,-2.087 0.0219,-3.3004 l 0,-1.4584 c -1e-5,-1.0818 -0.007,-2.3355 -0.0219,-3.7609 -1.44737,0.1462 -2.84721,0.3034 -4.19953,0.4715 -0.4386,0.051 -0.77485,0.1133 -1.00876,0.1864 -0.19738,0.073 -0.36916,0.1097 -0.51535,0.1097 -0.34357,0 -0.72003,-0.1828 -1.12938,-0.5483 -0.37281,-0.3289 -0.70175,-0.7529 -0.98683,-1.2719 l 0.47148,-0.3618 c 0.68713,0.5994 1.3706,0.8991 2.05043,0.8991 0.71636,0 2.48169,-0.1206 5.29601,-0.3619 z"
         style="fill:#ffffff"
         id="path3080" />
      <path
         d="m 187.66736,1103.2165 c 2.34646,0.5995 4.18855,1.3122 5.52627,2.1382 1.21342,0.7456 1.82014,1.4583 1.82016,2.1381 -2e-5,0.6287 -0.24124,0.943 -0.72368,0.943 -0.27779,0 -0.5848,-0.2266 -0.92104,-0.6798 -0.56288,-0.7091 -1.33407,-1.3962 -2.31358,-2.0614 -0.89913,-0.6213 -2.02851,-1.1842 -3.38813,-1.6886 -1e-5,1.4401 0.0146,2.7449 0.0439,3.9144 0.0877,2.5658 0.13156,4.4956 0.13157,5.7895 -1e-5,0.8698 -0.31433,1.3048 -0.94297,1.3048 -0.46053,0 -0.69079,-0.329 -0.69078,-0.9868 -10e-6,-0.2193 0.0219,-0.6031 0.0658,-1.1514 0.10233,-2.4488 0.1535,-5.3289 0.15351,-8.6402 -10e-6,-3.4284 -0.0439,-5.3764 -0.13158,-5.8443 -0.10965,-0.5044 -0.58114,-0.8918 -1.41446,-1.1623 l 0.19737,-0.5701 c 0.86987,0.036 1.60451,0.2376 2.20393,0.603 0.4532,0.2705 0.67981,0.5264 0.67982,0.7676 -1e-5,0.19 -0.0475,0.3874 -0.14255,0.5921 -0.10234,0.2558 -0.15351,0.6944 -0.1535,1.3158 z"
         style="fill:#ffffff"
         id="path3082" />
      <path
         d="m 201.70233,1113.1726 c 1.91519,-1.4327 3.28579,-3.0921 4.11181,-4.978 0.71637,-1.6374 1.07455,-3.5563 1.07456,-5.7566 -1e-5,-0.6213 -0.11331,-1.0343 -0.33991,-1.239 -0.31433,-0.2704 -0.62135,-0.4568 -0.92105,-0.5592 l 0.23026,-0.5811 c 0.79677,0.088 1.44004,0.2668 1.92981,0.5372 0.52631,0.2851 0.78946,0.5922 0.78947,0.9211 -1e-5,0.1901 -0.0292,0.3911 -0.0877,0.6031 -0.0585,0.2558 -0.13524,0.7638 -0.23026,1.5241 -0.33626,2.6242 -1.01243,4.7148 -2.02849,6.2718 -0.92836,1.4328 -2.30262,2.6974 -4.12278,3.7939 z m 19.4516,-8.8486 c -0.97223,1.5716 -2.17836,3.0336 -3.61839,4.3859 -1.00147,0.9503 -2.36476,2.0724 -4.08988,3.3662 -0.40205,0.2997 -0.6579,0.5227 -0.76754,0.6689 -0.12428,0.1827 -0.25585,0.2741 -0.39473,0.2741 -0.2851,0 -0.5848,-0.2157 -0.89911,-0.6469 -0.212,-0.2924 -0.318,-0.541 -0.31798,-0.7456 -2e-5,-0.059 0.0365,-0.1864 0.10964,-0.3838 0.0585,-0.1681 0.10599,-0.519 0.14255,-1.0526 0.0292,-0.8114 0.0438,-2.9094 0.0439,-6.2938 -2e-5,-2.5366 -0.0585,-3.9949 -0.17544,-4.375 -0.14621,-0.4751 -0.55191,-0.8187 -1.2171,-1.0307 l 0.19737,-0.636 c 1.15495,0.1755 1.91883,0.3838 2.29165,0.625 0.31431,0.1974 0.47147,0.4898 0.47149,0.8772 -2e-5,0.1901 -0.0293,0.3948 -0.0877,0.614 -0.0804,0.2998 -0.13525,0.8663 -0.16448,1.6996 -0.0877,4.4956 -0.13159,7.5511 -0.13157,9.1666 1.61547,-0.8991 3.10303,-1.9444 4.46268,-3.136 1.15494,-1.0233 2.37204,-2.2916 3.65129,-3.8047 z"
         style="fill:#ffffff"
         id="path3084" />
      <path
         d="m 14.46697,1128.5343 2.938573,0 c 0.489753,-1.0965 0.96124,-2.6023 1.414462,-4.5175 1.498515,0.2924 2.247778,0.5848 2.24779,0.8772 -1.2e-5,0.1828 -0.307027,0.3399 -0.921046,0.4715 -0.511702,1.0234 -1.169591,2.0797 -1.973668,3.1688 l 7.806956,0 0.975869,-1.1951 c 1.001435,0.7821 1.502162,1.3011 1.502181,1.557 -1.9e-5,0.088 -0.06215,0.1681 -0.186402,0.2412 l -0.646924,0.3838 0,14.0788 -1.392533,0 0,-1.6447 -12.017449,0 0,1.9517 -1.414463,0 0,-16.1622 c 0.445899,0.1755 0.924696,0.4021 1.436392,0.6799 z m -0.252191,0.5592 0,5.614 12.017449,0 0,-5.614 z m 12.017449,12.3026 0,-6.1294 -12.017449,0 0,6.1294 z"
         style="fill:#ffffff"
         id="path3086" />
      <path
         d="m 35.979958,1130.7492 c -0.811401,0.7822 -1.703206,1.5168 -2.675418,2.2039 l -0.383769,-0.4495 c 2.631555,-2.2076 4.652735,-5.1352 6.063549,-8.7828 1.403489,0.3362 2.105237,0.6579 2.105247,0.9649 -1e-5,0.2047 -0.350884,0.3399 -1.052624,0.4057 -0.299713,0.5409 -0.486115,0.8845 -0.559206,1.0307 l 5.252152,0 0.964904,-1.0527 c 0.96489,0.8407 1.447342,1.3707 1.447357,1.5899 -1.5e-5,0.1243 -0.109663,0.223 -0.328944,0.2961 l -0.646925,0.2193 c -0.913749,1.1696 -1.834794,2.2185 -2.763136,3.1469 l 5.120573,0 0.877186,-1.0746 c 0.906407,0.7383 1.35962,1.2098 1.359639,1.4145 -1.9e-5,0.1023 -0.05484,0.1828 -0.164473,0.2412 l -0.581135,0.4057 0,5.8881 -1.282885,0 0,-0.9868 -11.436313,0 0,4.5833 c -6e-6,0.4605 0.135227,0.7383 0.405698,0.8333 0.431277,0.1462 2.295295,0.2193 5.592062,0.2193 2.938558,0 4.91588,-0.08 5.93197,-0.2412 0.460505,-0.095 0.782139,-0.4021 0.964905,-0.9211 0.233897,-0.7163 0.39837,-1.663 0.493417,-2.8398 l 0.603065,0.2521 c -1.9e-5,1.5571 0.06211,2.5146 0.186403,2.8728 0.109628,0.2632 0.383748,0.4057 0.822361,0.4277 -0.02195,0.7602 -0.402063,1.2171 -1.140341,1.3706 -0.921064,0.1681 -3.304084,0.2522 -7.149067,0.2522 -4.25436,0 -6.662965,-0.106 -7.22582,-0.318 -0.533626,-0.2266 -0.800437,-0.7968 -0.800432,-1.7105 z m 1.315779,0.1316 0,4.7697 5.032855,0 0,-4.7697 z m 0.252191,-0.5592 4.99996,0 c 0.928344,-1.2208 1.670296,-2.4342 2.22586,-3.6403 l -5.63592,0 c -0.709066,1.1842 -1.494878,2.2624 -2.357438,3.2346 0.131573,0.059 0.387418,0.1937 0.767538,0.4057 z m 6.041619,0.5592 0,4.7697 5.142503,0 0,-4.7697 z"
         style="fill:#ffffff"
         id="path3088" />
      <path
         d="m 64.15956,1131.2865 c 2.34646,0.5994 4.188549,1.3121 5.526272,2.1381 1.213424,0.7456 1.820144,1.4584 1.820161,2.1382 -1.7e-5,0.6286 -0.241243,0.943 -0.723678,0.9429 -0.277792,10e-5 -0.584807,-0.2266 -0.921046,-0.6798 -0.562876,-0.709 -1.334068,-1.3962 -2.313578,-2.0614 -0.899128,-0.6213 -2.028504,-1.1842 -3.388131,-1.6885 -1e-5,1.44 0.01461,2.7448 0.04386,3.9144 0.08771,2.5658 0.131568,4.4956 0.131578,5.7894 -1e-5,0.8699 -0.314335,1.3048 -0.942975,1.3048 -0.460531,0 -0.690793,-0.3289 -0.690784,-0.9868 -9e-6,-0.2193 0.02192,-0.6031 0.06579,-1.1513 0.10233,-2.4488 0.153499,-5.3289 0.153508,-8.6403 -9e-6,-3.4283 -0.04387,-5.3764 -0.131578,-5.8442 -0.109657,-0.5044 -0.581144,-0.8918 -1.414463,-1.1623 l 0.197367,-0.5702 c 0.869868,0.037 1.60451,0.2376 2.20393,0.6031 0.453203,0.2705 0.679809,0.5263 0.679819,0.7675 -10e-6,0.1901 -0.04752,0.3875 -0.142543,0.5921 -0.102348,0.2559 -0.153517,0.6945 -0.153507,1.3158 z"
         style="fill:#ffffff"
         id="path3090" />
      <path
         d="m 96.374218,1130.9137 c -1.74708,2.3392 -3.417387,4.1922 -5.010925,5.5592 -1.644738,1.4181 -3.760947,2.8508 -6.348635,4.2982 -0.336262,0.19 -0.592108,0.3984 -0.767537,0.625 -0.146206,0.2119 -0.296058,0.3179 -0.449558,0.3179 -0.270473,0 -0.606727,-0.2704 -1.008764,-0.8114 -0.314331,-0.4093 -0.471493,-0.7456 -0.471488,-1.0087 -5e-6,-0.1097 0.03654,-0.2522 0.109649,-0.4277 0.153501,-0.3728 0.230255,-2.2002 0.230261,-5.4824 -6e-6,-4.0131 -0.04387,-6.1914 -0.131578,-6.535 -0.05849,-0.2705 -0.197373,-0.4934 -0.416663,-0.6689 -0.160823,-0.1315 -0.427634,-0.2887 -0.800433,-0.4714 l 0.197367,-0.5812 c 0.8918,0.1243 1.604513,0.3436 2.138141,0.6579 0.460515,0.2632 0.690776,0.5373 0.690784,0.8224 -8e-6,0.1827 -0.04387,0.4057 -0.131578,0.6688 -0.09504,0.2924 -0.153515,0.8407 -0.175437,1.6448 -0.02925,1.3231 -0.06214,3.0482 -0.09868,5.1753 -0.03656,2.3465 -0.0658,3.9437 -0.08772,4.7917 4.32013,-1.8275 8.333252,-4.8428 12.039379,-9.046 z"
         style="fill:#ffffff"
         id="path3092" />
      <path
         d="m 111.40699,1130.7492 0,2.4781 c -10e-6,3.4064 0.0512,5.7857 0.15351,7.1381 0.0146,0.1462 0.0219,0.3326 0.0219,0.5592 -1e-5,0.6798 -0.106,1.1513 -0.31798,1.4144 -0.19738,0.2266 -0.42764,0.3399 -0.69078,0.3399 -0.18276,0 -0.34358,-0.084 -0.48246,-0.2521 -0.10965,-0.1389 -0.16448,-0.2961 -0.16447,-0.4715 -10e-6,-0.6141 0.007,-1.0161 0.0219,-1.2062 0.13157,-2.0321 0.19736,-5.0876 0.19737,-9.1666 -2.52192,1.6009 -5.29967,2.9715 -8.33327,4.1118 l -0.28508,-0.603 c 3.80113,-1.7617 7.14174,-3.8231 10.02185,-6.1842 1.65933,-1.345 2.489,-2.2039 2.48901,-2.5767 -1e-5,-0.2339 -0.24855,-0.5117 -0.74561,-0.8333 l 0.2522,-0.4935 c 1.68856,0.4387 2.53285,0.9394 2.53287,1.5022 -2e-5,0.1609 -0.0768,0.3034 -0.23026,0.4277 -0.19008,0.1681 -0.43496,0.402 -0.73464,0.7017 -0.75294,0.7529 -1.98831,1.7909 -3.70612,3.114 z"
         style="fill:#ffffff"
         id="path3094" />
      <path
         d="m 132.62393,1132.1417 c 0.43858,1e-4 0.82966,0.1718 1.17324,0.5154 0.29969,0.2997 0.44954,0.6652 0.44956,1.0965 -2e-5,0.2924 -0.0804,0.5775 -0.24123,0.8552 -0.33627,0.5117 -0.79679,0.7676 -1.38157,0.7676 -0.38743,0 -0.731,-0.1279 -1.03069,-0.3838 -0.38744,-0.3436 -0.58115,-0.7566 -0.58114,-1.239 -1e-5,-0.5483 0.23025,-0.9869 0.69079,-1.3158 0.28507,-0.1974 0.59209,-0.296 0.92104,-0.2961 z"
         style="fill:#ffffff"
         id="path3096" />
      <path
         d="m 156.69172,1129.3128 c 0.44589,0.5775 0.92469,1.1075 1.4364,1.5899 0.84062,-0.8625 1.53506,-1.7872 2.08331,-2.7741 0.9722,0.519 1.45831,0.9247 1.45833,1.2171 -2e-5,0.1316 -0.14987,0.1974 -0.44956,0.1974 -0.0146,0 -0.15353,-0.015 -0.41667,-0.044 -0.44592,0.4532 -1.19518,1.0563 -2.24779,1.8092 0.3801,0.3436 0.8589,0.7054 1.4364,1.0855 0.77483,-0.6432 1.6045,-1.5277 2.48901,-2.6535 0.92834,0.5629 1.39252,0.965 1.39254,1.2062 -2e-5,0.1535 -0.15719,0.2303 -0.47149,0.2302 -0.007,10e-5 -0.1718,-0.015 -0.49342,-0.044 -0.59943,0.5555 -1.38524,1.0928 -2.35744,1.6118 1.22074,0.7018 2.77774,1.2646 4.67102,1.6886 -0.3509,0.3728 -0.6506,0.8077 -0.89912,1.3048 -1.33772,-0.4897 -2.3538,-0.9174 -3.04822,-1.2829 l -2.63156,0 0,3.1031 2.55481,0 1.04166,-1.3048 c 0.59939,0.5409 1.07818,1.027 1.43639,1.4583 l -0.23026,0.4057 -4.8026,0 0,3.4868 c -1e-5,0.3801 0.10598,0.6031 0.31798,0.6688 0.20466,0.1097 0.73463,0.1645 1.5899,0.1645 1.27921,0 1.99924,-0.1571 2.16007,-0.4715 0.21928,-0.4751 0.37644,-1.3596 0.47149,-2.6535 l 0.60307,0.2413 c -2e-5,1.1184 0.0512,1.8238 0.1535,2.1162 0.11694,0.3655 0.38741,0.5373 0.8114,0.5153 -0.022,0.6067 -0.27048,0.9869 -0.74561,1.1404 -0.46785,0.1827 -1.49854,0.2741 -3.09208,0.2741 -1.66667,0 -2.67177,-0.091 -3.01532,-0.2741 -0.3582,-0.1974 -0.53729,-0.6396 -0.53728,-1.3268 l 0,-3.8815 -2.79603,0 c -0.20469,3.2236 -2.2478,5.2302 -6.12934,6.0197 l -0.31798,-0.5373 c 3.25289,-1.0088 4.98168,-2.8362 5.18636,-5.4824 l -4.24338,0 -0.27412,-0.5592 4.53943,0 0,-3.1031 -1.39253,0 c -0.95029,0.6141 -2.07967,1.1769 -3.38813,1.6886 l -0.29605,-0.4934 c 3.13593,-1.4547 5.44951,-3.6257 6.94073,-6.5131 l -3.74997,0 -0.19736,-0.5592 3.94733,0 0.77851,-0.943 c 0.86986,0.6871 1.3048,1.1148 1.30481,1.2829 -1e-5,0.08 -0.0658,0.1535 -0.19737,0.2193 z m -0.42762,0.4715 c -1.01609,1.7178 -2.18932,3.0884 -3.51971,4.1118 l 6.71047,0 0.30702,-0.3399 c -1.27925,-0.8772 -2.44517,-2.1345 -3.49778,-3.7719 z m 1.09648,4.671 -2.7741,0 0,3.1031 2.7741,0 z m -9.06791,-7.7411 6.21705,0 0,-2.9386 c 1.4108,0 2.1162,0.1791 2.11622,0.5373 -2e-5,0.1754 -0.27779,0.3618 -0.83333,0.5592 l 0,1.8421 6.3596,0 1.11841,-1.4364 c 0.49705,0.4459 0.99047,0.9685 1.48025,1.5679 l -0.2193,0.4277 -16.41434,0 0,4.7587 c 0,5.3728 -1.05628,9.3859 -3.16883,12.0394 l -0.47149,-0.3399 c 1.557,-2.7266 2.3355,-6.6191 2.33551,-11.6776 l 0,-5.9648 c 0.90642,0.3801 1.39983,0.5884 1.48025,0.625 z m 1.54604,2.7631 c 1.8567,0.6652 2.78506,1.4254 2.78506,2.2807 0,0.5409 -0.24489,0.8114 -0.73464,0.8114 -0.28509,0 -0.49708,-0.1937 -0.63596,-0.5812 -0.26316,-0.8333 -0.81506,-1.546 -1.65569,-2.1381 z"
         style="fill:#ffffff"
         id="path3098" />
      <path
         d="m 182.90862,1137.1088 c 0.12425,-0.1462 0.38375,-0.4897 0.77851,-1.0307 1.02336,0.6506 1.53505,1.1111 1.53507,1.3816 -2e-5,0.1681 -0.18276,0.2522 -0.54824,0.2522 -0.022,0 -0.16084,-0.015 -0.41666,-0.044 -0.92107,0.8041 -2.04679,1.6118 -3.37717,2.4232 1.71781,1.1185 3.83036,1.8677 6.33767,2.2478 -0.46054,0.3728 -0.81873,0.8297 -1.07455,1.3706 -4.37864,-1.1038 -7.48534,-3.4539 -9.32011,-7.0503 l -3.58549,0 0,4.9561 c 2.09792,-0.2997 3.99118,-0.6287 5.67978,-0.9869 l 0.10964,0.5812 c -2.93127,0.9137 -5.81502,1.6045 -8.65124,2.0723 -0.10966,0.519 -0.25951,0.7785 -0.44956,0.7785 -0.29971,0 -0.64327,-0.6652 -1.03069,-1.9956 1.6301,-0.1462 2.64982,-0.2449 3.05918,-0.296 l 0,-10.9539 c -1.30847,0.8626 -2.70831,1.6192 -4.19953,2.2697 l -0.31798,-0.4715 c 4.27628,-2.171 7.48897,-5.1863 9.63809,-9.0459 1.25728,0.2851 1.88593,0.5665 1.88595,0.8442 -2e-5,0.1828 -0.32165,0.318 -0.96491,0.4057 2.58038,2.5366 5.78941,4.4225 9.62712,5.6579 -0.47517,0.4094 -0.81142,0.8443 -1.00877,1.3048 -3.58186,-1.5131 -6.58256,-3.6622 -9.00212,-6.4473 -1.09649,1.6447 -2.63887,3.2346 -4.62715,4.7697 l 0.47148,0.2412 3.2127,0 0,-2.7193 c 1.41079,0.066 2.1162,0.2596 2.11621,0.5812 -1e-5,0.1754 -0.29972,0.3655 -0.89912,0.5701 l 0,1.568 3.66225,0 0.63596,-0.5592 c 0.826,0.5117 1.23901,0.8553 1.23903,1.0307 -2e-5,0.08 -0.0548,0.1608 -0.16447,0.2412 l -0.35088,0.318 z m -0.20833,0.2412 -1.03069,0 0,-0.6907 -4.07892,0 c 0.6725,1.1549 1.5972,2.171 2.7741,3.0482 0.8187,-0.7018 1.5972,-1.4876 2.33551,-2.3575 z m -1.03069,-1.25 0,-2.4561 -8.43195,0 0,2.4561 z m 0,-3.0153 0,-2.182 -8.43195,0 0,2.182 z"
         style="fill:#ffffff"
         id="path3100" />
      <path
         d="m 198.73087,1128.6878 3.68418,0 0,-4.8903 c 1.54237,0.066 2.31356,0.2595 2.31358,0.5811 -2e-5,0.2121 -0.33627,0.4277 -1.00877,0.647 l 0,3.6622 3.74997,0 0.84429,-1.0526 c 0.92103,0.731 1.38155,1.2025 1.38157,1.4145 -2e-5,0.08 -0.0622,0.1681 -0.1864,0.2631 l -0.53728,0.3838 0,13.9034 -1.30481,0 0,-1.7325 -9.11177,0 0,1.7325 -1.30482,0 0,-15.7016 c 0.34356,0.1535 0.83698,0.4166 1.48026,0.7894 z m -0.17544,0.5592 0,5.4824 3.85962,0 0,-5.4824 z m 9.11177,12.0613 0,-6.0197 -3.94734,0 0,6.0197 z m 0,-6.5789 0,-5.4824 -3.94734,0 0,5.4824 z m -5.25215,0.5592 -3.85962,0 0,6.0197 3.85962,0 z m -11.9407,-6.3047 c 2.08332,0.5994 3.12497,1.4291 3.12498,2.489 -1e-5,0.5848 -0.24854,0.8772 -0.74561,0.8772 -0.35088,0 -0.58114,-0.1864 -0.69078,-0.5592 -0.2924,-0.9211 -0.93202,-1.7251 -1.91885,-2.4123 z m 1.67762,-4.8574 c 2.2222,0.5628 3.3333,1.3486 3.33331,2.3574 -10e-6,0.5994 -0.27047,0.8991 -0.8114,0.8991 -0.33626,0 -0.58114,-0.2412 -0.73464,-0.7237 -0.27047,-0.7821 -0.94664,-1.4765 -2.0285,-2.0833 z m 4.5833,4.5613 -2.74121,8.7609 c -0.29971,0.9869 -0.44956,1.7105 -0.44956,2.1711 0,0.1535 0.0366,0.4166 0.10965,0.7894 0.1535,0.7237 0.23026,1.3816 0.23026,1.9737 0,0.9868 -0.32164,1.4802 -0.9649,1.4802 -0.54094,0 -0.8114,-0.2302 -0.8114,-0.6907 0,-0.022 0.0365,-0.3619 0.10965,-1.0198 0.0877,-0.6505 0.13157,-1.1951 0.13158,-1.6337 -1e-5,-0.9503 -0.26682,-1.5936 -0.80043,-1.9298 -0.28509,-0.1828 -0.77851,-0.3326 -1.48026,-0.4496 l 0,-0.5811 c 0.44591,0.029 0.70906,0.044 0.78947,0.044 0.90642,0 1.52776,-0.2924 1.86402,-0.8772 1.11841,-1.9078 2.27702,-4.7221 3.47585,-8.4429 z"
         style="fill:#ffffff"
         id="path3102" />
      <path
         d="m 18.87483,1174.9923 -0.646925,0.3618 c -2.71197,-3.3406 -4.067953,-7.0467 -4.067951,-11.1183 -2e-6,-4.0716 1.355981,-7.7777 4.067951,-11.1183 l 0.646925,0.3837 c -2.127181,3.1579 -3.190768,6.7434 -3.190765,10.7565 -3e-6,3.9766 1.063584,7.5548 3.190765,10.7346 z"
         style="fill:#ffffff"
         id="path3104" />
      <path
         d="m 26.637926,1167.92 0,0.6469 -1.260955,0 0,-8.5526 c 0.467827,0.1462 0.939314,0.318 1.414463,0.5154 l 9.988956,0 0.833327,-0.7895 c 0.833308,0.5702 1.249971,0.9284 1.24999,1.0746 -1.9e-5,0.088 -0.0585,0.1791 -0.175437,0.2741 l -0.471488,0.3399 0,6.8969 -1.260955,0 0,-0.4057 z m 0,-5.1425 10.317901,0 0,-1.6886 -10.317901,0 z m 0,0.5592 0,1.6228 10.317901,0 0,-1.6228 z m 0,2.182 0,1.8421 10.317901,0 0,-1.8421 z m 7.806956,-11.1403 0,0.4496 c 0.248522,0.8626 0.826002,1.6118 1.732443,2.2478 1.293832,0.9064 3.059167,1.5497 5.29601,1.9298 -0.445923,0.4605 -0.752938,0.8881 -0.921045,1.2829 -3.523381,-1.0307 -5.61035,-2.5293 -6.260915,-4.4956 -0.621354,2.2076 -2.92762,3.6878 -6.918805,4.4407 l -0.31798,-0.5153 c 2.258745,-0.5556 3.958291,-1.4583 5.098644,-2.7083 0.687116,-0.7602 1.03068,-1.5461 1.030693,-2.3575 l 0,-0.2741 -2.598663,0 c -0.672519,0.7895 -1.443711,1.4912 -2.313579,2.1053 l -0.31798,-0.329 c 1.257291,-1.2573 2.163716,-2.7375 2.719277,-4.4407 1.228049,0.1973 1.842079,0.4349 1.842091,0.7127 -1.2e-5,0.1608 -0.307027,0.3107 -0.921046,0.4495 -0.138898,0.2778 -0.33261,0.5921 -0.581135,0.943 l 7.653448,0 0.855257,-1.0088 c 0.928335,0.8553 1.392512,1.3999 1.392532,1.6338 -2e-5,0.1243 -0.0987,0.2083 -0.29605,0.2522 l -0.624995,0.1535 c -0.57019,0.5702 -1.312142,1.1257 -2.22586,1.6667 l -0.383769,-0.34 c 0.577464,-0.6432 1.005091,-1.2426 1.282885,-1.7982 z m 6.162232,17.5986 c -0.182767,0 -0.482472,-0.1426 -0.899115,-0.4277 -1.301178,-0.8698 -3.475866,-1.7214 -6.524072,-2.5548 l 0.296051,-0.4715 c 5.168069,0.7822 7.75211,1.7032 7.752131,2.7632 -2.1e-5,0.4605 -0.208352,0.6908 -0.624995,0.6908 z m -18.508626,0.099 -0.31798,-0.5153 c 2.551146,-0.6433 4.820863,-1.663 6.809157,-3.0592 1.118403,0.5409 1.677609,0.932 1.677619,1.1732 -10e-6,0.1609 -0.215652,0.2413 -0.646925,0.2413 -0.211996,0 -0.383778,-0.01 -0.515347,-0.022 -2.229521,1.0307 -4.565027,1.7581 -7.006524,2.182 z m 2.620594,-17.0503 c -0.28509,10e-5 -0.500731,-0.1644 -0.646925,-0.4934 -0.285089,-0.6652 -0.855259,-1.2646 -1.710513,-1.7982 l 0.252191,-0.3728 c 1.871326,0.5629 2.806991,1.1952 2.806996,1.8969 -5e-6,0.5117 -0.233922,0.7676 -0.701749,0.7675 z m 3.662252,-1.5021 -3.278483,3.9034 c -0.175442,0.2193 -0.263161,0.4679 -0.263156,0.7456 -5e-6,0.1463 0.02923,0.34 0.08772,0.5812 0.05847,0.2412 0.08771,0.4971 0.08772,0.7675 -5e-6,0.2705 -0.102343,0.4861 -0.307015,0.6469 -0.168132,0.1243 -0.358188,0.1865 -0.570171,0.1864 -0.416667,10e-5 -0.624998,-0.1571 -0.624995,-0.4714 -3e-6,-0.2559 0.02924,-0.4898 0.08772,-0.7018 0.0804,-0.1974 0.120609,-0.4569 0.120613,-0.7785 -4e-6,-0.2193 -0.08041,-0.3911 -0.241227,-0.5153 -0.197369,-0.1535 -0.570173,-0.307 -1.118412,-0.4606 l 0.164473,-0.4057 c 0.518999,0.1097 0.840633,0.1645 0.964904,0.1645 0.299702,0 0.559203,-0.091 0.778503,-0.2741 0.482448,-0.3874 1.143992,-0.9868 1.984633,-1.7982 0.767531,-0.7383 1.363286,-1.3524 1.787267,-1.8421 z"
         style="fill:#ffffff"
         id="path3106" />
      <path
         d="m 60.990726,1163.3367 -2.445156,0 0,6.6885 c -1.6e-5,1.2281 -0.705419,1.8421 -2.116211,1.8421 -1.4e-5,-0.4386 -0.237585,-0.7602 -0.712714,-0.9649 -0.365507,-0.1462 -0.994156,-0.296 -1.88595,-0.4496 l 0,-0.603 c 1.11109,0.1462 1.99924,0.2193 2.664453,0.2193 0.511677,0 0.767523,-0.2376 0.767538,-0.7127 l 0,-6.0197 -2.379368,0 0,1.0965 -1.260955,0 0,-8.3881 0.274121,0.1315 c 0.387412,0.1682 0.760216,0.3546 1.118412,0.5592 l 1.502181,0 c 0.233903,-0.9137 0.40203,-1.8128 0.504382,-2.6973 l -5.076714,0 0,5.5921 c -9e-6,5.5336 -1.191519,9.66 -3.574533,12.3793 l -0.449558,-0.3838 c 1.812844,-2.8436 2.719269,-6.8348 2.719277,-11.9736 l 0,-6.864 c 0.482444,0.1755 0.99779,0.4057 1.54604,0.6908 l 9.407821,0 1.107447,-1.4364 c 0.0877,0.073 0.186382,0.1645 0.29605,0.2741 0.526291,0.5044 0.935644,0.9211 1.228061,1.25 l -0.241226,0.4715 -5.208293,0 c -0.431298,0.8918 -0.950299,1.7909 -1.557005,2.6973 l 3.574533,0 0.800433,-0.9649 c 0.935645,0.7018 1.403477,1.1587 1.403497,1.3706 -2e-5,0.1024 -0.06946,0.1974 -0.208331,0.2851 l -0.537277,0.3619 0,6.6008 -1.260955,0 z m 0,-0.5592 0,-2.5658 -6.107408,0 0,2.5658 z m 0,-3.125 0,-2.3574 -6.107408,0 0,2.3574 z m -16.929691,-2.5548 c 1.74706,0.6944 2.62059,1.5314 2.620594,2.5109 -4e-6,0.5702 -0.26316,0.8553 -0.789468,0.8553 -0.350877,0 -0.559208,-0.201 -0.624995,-0.6031 -0.175439,-0.9064 -0.683476,-1.7032 -1.524111,-2.3903 z m 1.56797,-4.8574 c 1.842086,0.5848 2.763131,1.3779 2.763136,2.3793 -5e-6,0.5848 -0.270471,0.8772 -0.811397,0.8772 -0.292399,0 -0.493421,-0.2302 -0.603065,-0.6908 -0.204681,-0.8113 -0.760231,-1.5167 -1.666654,-2.1162 z m 14.309098,12.9165 c 1.425409,0.8114 2.554785,1.7837 3.388131,2.9167 0.372783,0.5044 0.559185,0.9978 0.559206,1.4802 -2.1e-5,0.6287 -0.263176,0.943 -0.789467,0.943 -0.343585,0 -0.603085,-0.2997 -0.778503,-0.8991 -0.431302,-1.4254 -1.337727,-2.7705 -2.719277,-4.0351 z m -9.056946,5.4605 c 1.28653,-1.44 2.262399,-3.2236 2.927608,-5.3508 1.286528,0.4971 1.929797,0.8954 1.92981,1.1951 -1.3e-5,0.1974 -0.321648,0.3071 -0.964905,0.329 -0.833338,1.7324 -2.002918,3.1469 -3.508744,4.2434 z m -0.921045,-14.4407 -2.785066,9.8136 c -0.24854,0.921 -0.372808,1.5241 -0.372804,1.8092 -4e-6,0.1681 0.02923,0.3728 0.08772,0.614 0.204673,1.0453 0.307011,1.7763 0.307015,2.193 -4e-6,0.8844 -0.343568,1.3267 -1.030693,1.3267 -0.504385,0 -0.756576,-0.2632 -0.756573,-0.7895 -3e-6,-0.022 0.01827,-0.1608 0.05482,-0.4166 0.05117,-0.3655 0.09503,-0.6652 0.131578,-0.8991 0.08772,-0.5702 0.131575,-1.0746 0.131578,-1.5132 -3e-6,-1.1988 -0.577483,-1.9006 -1.732443,-2.1052 l 0,-0.5812 c 0.285084,0.044 0.522655,0.066 0.712714,0.066 0.701746,0 1.173233,-0.2558 1.414463,-0.7675 0.782153,-1.557 1.754367,-4.1813 2.916643,-7.8728 l 0.383769,-1.2609 z"
         style="fill:#ffffff"
         id="path3108" />
      <path
         d="m 77.613402,1162.3279 c 2.865459,1.1988 4.945119,2.4561 6.238986,3.7719 0.67249,0.6506 1.008744,1.2061 1.008764,1.6667 -2e-5,0.7163 -0.270485,1.0745 -0.811397,1.0745 -0.219315,0 -0.449576,-0.1864 -0.690784,-0.5592 -1.432754,-2.1052 -3.490484,-3.8962 -6.173197,-5.3728 -1.352339,1.5863 -2.80335,2.913 -4.353036,3.9803 -1.454673,1.0014 -3.13229,1.875 -5.032855,2.6206 l -0.252191,-0.625 c 3.187104,-1.674 5.741906,-3.5819 7.664413,-5.7237 1.7836,-1.9956 3.219991,-4.4005 4.309177,-7.2148 -2.755838,0.3655 -4.846463,0.6579 -6.271881,0.8772 -0.372811,0.066 -0.625002,0.1279 -0.756573,0.1864 -0.204683,0.073 -0.41667,0.1096 -0.635959,0.1096 -0.241233,0 -0.551903,-0.2375 -0.932011,-0.7127 -0.33626,-0.4166 -0.599415,-0.8662 -0.789467,-1.3487 l 0.537276,-0.3179 c 0.328939,0.3728 0.592095,0.6103 0.789468,0.7127 0.23391,0.1242 0.53727,0.1864 0.91008,0.1864 1.608166,0 3.779199,-0.1718 6.513107,-0.5154 0.34355,-0.044 0.650565,-0.1571 0.921045,-0.3399 0.226592,-0.1316 0.383754,-0.1973 0.471488,-0.1974 0.146182,10e-5 0.423958,0.2011 0.833327,0.6031 0.402027,0.4094 0.603048,0.7091 0.603065,0.8991 -1.7e-5,0.1682 -0.0987,0.2961 -0.29605,0.3838 -0.307031,0.1389 -0.573842,0.4386 -0.800433,0.8991 -0.921059,1.8714 -1.922513,3.5234 -3.004362,4.9561 z"
         style="fill:#ffffff"
         id="path3110" />
      <path
         d="m 100.31059,1160.4858 c -0.10966,2.6901 -0.566527,4.7843 -1.370602,6.2829 -0.986844,1.8786 -2.565778,3.326 -4.736805,4.342 l -0.383768,-0.5482 c 1.907871,-1.1988 3.252889,-2.7229 4.035055,-4.5723 0.58478,-1.4035 0.884485,-3.1944 0.899116,-5.3728 -2.200284,0.2266 -3.943689,0.4386 -5.230222,0.636 -0.270471,0.044 -0.478802,0.095 -0.624995,0.1535 -0.211991,0.059 -0.361844,0.088 -0.449558,0.088 -0.387428,0 -0.811401,-0.223 -1.271919,-0.6689 -0.387427,-0.3655 -0.720027,-0.8077 -0.9978,-1.3267 l 0.471488,-0.4057 c 0.497069,0.3947 0.877182,0.6469 1.140342,0.7566 0.270461,0.1096 0.61037,0.1644 1.019729,0.1644 1.081856,0 3.362538,-0.1498 6.842051,-0.4495 3.084758,-0.2705 4.784298,-0.4642 5.098648,-0.5812 0.43857,-0.1681 0.82234,-0.2521 1.1513,-0.2522 0.58477,1e-4 1.05626,0.1134 1.41447,0.34 0.32892,0.2046 0.49339,0.4678 0.49341,0.7894 -2e-5,0.329 -0.29972,0.4935 -0.89911,0.4934 l -2.22586,-0.055 c -0.89183,0 -2.35015,0.062 -4.37497,0.1864 z m -6.677577,-6.3705 c 0.679812,0.5775 1.330391,0.8662 1.951739,0.8662 1.28653,0 2.956837,-0.1206 5.010928,-0.3619 0.58477,-0.073 1.07088,-0.201 1.45832,-0.3837 0.27045,-0.1316 0.48609,-0.1974 0.64692,-0.1974 0.44589,0 0.85159,0.095 1.2171,0.2851 0.34355,0.1828 0.51533,0.402 0.51535,0.6579 -2e-5,0.3436 -0.25587,0.5226 -0.76754,0.5373 -2.69005,0.1096 -5.263129,0.2997 -7.719239,0.5701 -0.102347,0.015 -0.21565,0.037 -0.33991,0.066 -0.175445,0.044 -0.347227,0.066 -0.515347,0.066 -0.577487,0 -1.220756,-0.5775 -1.929809,-1.7324 z"
         style="fill:#ffffff"
         id="path3112" />
      <path
         d="m 112.90918,1160.3981 c 0.69443,0.7456 1.44369,1.1184 2.24779,1.1184 1.3377,0 2.65348,-0.029 3.94733,-0.088 1.57893,-0.066 3.82671,-0.1937 6.74337,-0.3838 0.86255,-0.051 1.44734,-0.1279 1.75437,-0.2302 0.24121,-0.088 0.44954,-0.1316 0.625,-0.1316 0.40202,0 0.80772,0.106 1.21709,0.318 0.43127,0.2193 0.64691,0.4824 0.64693,0.7894 -2e-5,0.4459 -0.29242,0.6689 -0.87719,0.6689 -0.32896,0 -0.70177,-0.015 -1.11841,-0.044 -0.61405,-0.044 -1.29021,-0.066 -2.02849,-0.066 -1.82018,0 -5.14983,0.1645 -9.98896,0.4935 -0.32164,0.022 -0.60672,0.073 -0.85526,0.1535 -0.21199,0.059 -0.39108,0.088 -0.53727,0.088 -0.78216,0 -1.53143,-0.7675 -2.24779,-2.3026 z"
         style="fill:#ffffff"
         id="path3114" />
      <path
         d="m 139.09318,1153.8411 c 1.4108,0.2632 2.54749,0.7237 3.41006,1.3816 0.68712,0.5263 1.03068,1.0453 1.03069,1.557 -1e-5,0.2632 -0.0768,0.4825 -0.23026,0.6579 -0.15351,0.1754 -0.35454,0.2632 -0.60306,0.2632 -0.29241,0 -0.53729,-0.1791 -0.73465,-0.5373 -0.6652,-1.155 -1.70686,-2.0687 -3.12497,-2.7412 z m -2.92761,4.2654 c 1.52045,0.2997 2.69003,0.7712 3.50875,1.4144 0.65788,0.5263 0.98682,1.0782 0.98683,1.6557 -1e-5,0.5556 -0.27778,0.8333 -0.83333,0.8333 -0.25585,0 -0.51535,-0.201 -0.7785,-0.603 -0.79678,-1.2208 -1.83113,-2.1272 -3.10304,-2.7193 z m 1.46929,8.9582 c 0.5994,0.6579 1.05627,0.9869 1.3706,0.9868 0.38011,10e-5 1.05993,-0.2412 2.03946,-0.7236 0.8918,-0.4459 1.87132,-1.0198 2.93857,-1.7215 3.05552,-2.0248 5.90637,-4.8318 8.55257,-8.421 l 0.54824,0.4276 c -1.63744,2.7559 -3.52704,5.095 -5.66882,7.0175 -1.79093,1.6009 -3.95831,3.0994 -6.50214,4.4956 -0.54094,0.2997 -0.95395,0.5044 -1.23902,0.614 -0.19738,0.073 -0.36185,0.1097 -0.49342,0.1097 -0.32164,0 -0.68348,-0.2522 -1.08552,-0.7566 -0.35819,-0.4459 -0.66886,-1.0014 -0.93201,-1.6666 z"
         style="fill:#ffffff"
         id="path3116" />
      <path
         d="m 169.44382,1167.8871 c 0.12425,-1.8348 0.20101,-3.1798 0.23026,-4.0351 -2.22953,0.2266 -3.91445,0.4203 -5.05479,0.5812 -0.46053,0.073 -0.74561,0.1352 -0.85525,0.1864 -0.16814,0.073 -0.31068,0.1096 -0.42763,0.1096 -0.53363,0 -1.15497,-0.4897 -1.86402,-1.4693 l 0.42763,-0.3947 c 0.54092,0.402 1.14033,0.6031 1.79823,0.6031 0.47513,0 1.02337,-0.029 1.64472,-0.088 0.69443,-0.058 2.15275,-0.2083 4.37497,-0.4495 l 0.17544,-3.2346 c -2.5731,0.2193 -4.53945,0.4203 -5.89908,0.603 -0.37281,0.044 -0.62135,0.084 -0.74561,0.1206 -0.2193,0.058 -0.39109,0.088 -0.51535,0.088 -0.40936,10e-5 -0.97222,-0.5043 -1.68858,-1.5131 l 0.4057,-0.4057 c 0.43128,0.307 0.77484,0.4971 1.03069,0.5702 0.21929,0.058 0.56651,0.088 1.04166,0.088 0.73829,0 1.89691,-0.058 3.47585,-0.1754 0.8187,-0.059 1.56065,-0.1353 2.22586,-0.2303 0.24852,-0.022 0.45685,-0.1023 0.625,-0.2412 0.19004,-0.1681 0.33989,-0.2522 0.44955,-0.2522 0.21198,0 0.53361,0.2156 0.96491,0.6469 0.29969,0.2997 0.44954,0.5483 0.44956,0.7456 -2e-5,0.1535 -0.0987,0.3253 -0.29605,0.5154 -0.2047,0.2339 -0.31434,0.5263 -0.32895,0.8771 -0.1389,1.8275 -0.31068,3.9766 -0.51535,6.4474 0.20467,0.066 0.39107,0.19 0.55921,0.3728 0.1608,0.1754 0.24121,0.3435 0.24123,0.5043 -2e-5,0.1828 -0.0695,0.2998 -0.20833,0.3509 -0.12429,0.044 -0.38379,0.066 -0.77851,0.066 -1.78362,0 -4.0643,0.1754 -6.84205,0.5263 -0.24854,0.037 -0.43129,0.08 -0.54824,0.1316 -0.1389,0.059 -0.26316,0.088 -0.3728,0.088 -0.50439,0 -1.08187,-0.5702 -1.73245,-1.7105 l 0.42763,-0.3289 c 0.64326,0.5043 1.18054,0.7565 1.61183,0.7565 0.47514,0 1.20247,-0.037 2.182,-0.1096 1.29384,-0.08 2.73754,-0.1937 4.33111,-0.3399 z"
         style="fill:#ffffff"
         id="path3118" />
      <path
         d="m 182.18495,1154.7622 c 1.76167,0.519 3.04821,1.1696 3.85961,1.9517 0.65788,0.6141 0.98683,1.1989 0.98684,1.7544 -1e-5,0.7602 -0.2851,1.1403 -0.85526,1.1403 -0.24854,0 -0.54825,-0.2924 -0.89911,-0.8772 -0.84065,-1.4181 -1.97002,-2.5621 -3.38814,-3.4319 z m 0.32894,12.1709 c 0.40204,0.5995 0.81505,0.8992 1.23903,0.8992 0.49706,0 1.21708,-0.2486 2.16007,-0.7457 4.75872,-2.4853 8.53792,-5.815 11.33763,-9.9889 l 0.51534,0.4495 c -1.44006,2.522 -3.0592,4.6272 -4.85742,6.3158 -1.71052,1.6155 -3.87059,3.1469 -6.48021,4.5942 -0.86988,0.4752 -1.39619,0.7895 -1.57893,0.943 -0.27047,0.2412 -0.61404,0.3619 -1.0307,0.3619 -0.22661,0 -0.53728,-0.2522 -0.93201,-0.7566 -0.38011,-0.4971 -0.67616,-1.0709 -0.88815,-1.7215 z"
         style="fill:#ffffff"
         id="path3120" />
      <path
         d="m 202.09707,1153.1175 c 2.71196,3.3333 4.06794,7.0394 4.06795,11.1183 -1e-5,4.0716 -1.35599,7.7777 -4.06795,11.1183 l -0.64693,-0.3618 c 2.12718,-3.1798 3.19076,-6.758 3.19077,-10.7346 -1e-5,-3.9912 -1.06359,-7.5767 -3.19077,-10.7565 z"
         style="fill:#ffffff"
         id="path3122" />
    </g>
  </g>
</svg>
