<?xml version="1.0" encoding="UTF-8" standalone="no"?>
<!-- Created with Inkscape (http://www.inkscape.org/) -->

<svg
   xmlns:dc="http://purl.org/dc/elements/1.1/"
   xmlns:cc="http://creativecommons.org/ns#"
   xmlns:rdf="http://www.w3.org/1999/02/22-rdf-syntax-ns#"
   xmlns:svg="http://www.w3.org/2000/svg"
   xmlns="http://www.w3.org/2000/svg"
   xmlns:sodipodi="http://sodipodi.sourceforge.net/DTD/sodipodi-0.dtd"
   xmlns:inkscape="http://www.inkscape.org/namespaces/inkscape"
   width="297"
   height="47"
   id="svg3296"
   version="1.1"
   inkscape:version="0.48.4 r9939"
   sodipodi:docname="新規ドキュメント 6">
  <defs
     id="defs3298" />
  <sodipodi:namedview
     id="base"
     pagecolor="#ffffff"
     bordercolor="#666666"
     borderopacity="1.0"
     inkscape:pageopacity="0.0"
     inkscape:pageshadow="2"
     inkscape:zoom="5.6568543"
     inkscape:cx="144.69768"
     inkscape:cy="19.738556"
     inkscape:document-units="px"
     inkscape:current-layer="layer1"
     showgrid="false"
     inkscape:window-width="1920"
     inkscape:window-height="1017"
     inkscape:window-x="892"
     inkscape:window-y="250"
     inkscape:window-maximized="1" />
  <metadata
     id="metadata3301">
    <rdf:RDF>
      <cc:Work
         rdf:about="">
        <dc:format>image/svg+xml</dc:format>
        <dc:type
           rdf:resource="http://purl.org/dc/dcmitype/StillImage" />
        <dc:title></dc:title>
      </cc:Work>
    </rdf:RDF>
  </metadata>
  <g
     inkscape:label="レイヤー 1"
     inkscape:groupmode="layer"
     id="layer1"
     transform="translate(0,-1005.3622)">
    <g
       transform="scale(1.0472803,0.95485418)"
       style="font-size:23.8906002px;font-style:normal;font-variant:normal;font-weight:normal;font-stretch:normal;text-align:center;line-height:100%;letter-spacing:0px;word-spacing:0px;writing-mode:lr-tb;text-anchor:middle;fill:#000000;fill-opacity:1;stroke:none;font-family:IPAmjMincho;-inkscape-font-specification:IPAmjMincho"
       id="text3304">
      <path
         d="m 3.9248863,1072.2286 5.3543875,0 0,-8.2474 -9.04063241,0 -0.23330664,-0.5949 9.27393905,0 0,-5.4244 -4.2111849,0 c -0.8943482,1.7965 -2.049215,3.3674 -3.4646036,4.7128 l -0.454948,-0.3849 c 1.7809025,-2.3798 3.0407571,-5.3194 3.7795676,-8.819 1.5631461,0.3111 2.3447226,0.6532 2.3447318,1.0265 -9.2e-6,0.21 -0.3499688,0.385 -1.0498799,0.525 -0.2022071,0.6299 -0.4977285,1.4115 -0.8865653,2.3447 l 10.0321855,0 1.259856,-1.6215 c 0.668793,0.5755 1.259836,1.1549 1.773131,1.7381 l -0.314964,0.4783 -7.37249,0 0,5.4244 6.369271,0 1.341513,-1.6448 c 0.567692,0.4666 1.077078,0.9604 1.528159,1.4815 l 0.209976,0.2333 -0.279968,0.5249 -9.168951,0 0,8.2474 5.342722,0 0,-6.4742 c 1.62535,0.07 2.438034,0.2916 2.438054,0.6649 -2e-5,0.2177 -0.34998,0.4472 -1.04988,0.6882 l 0,7.3842 -1.388174,0 0,-1.6682 -12.1319457,0 0,1.6682 -1.4115051,0 0,-8.7373 c 1.6409173,0.093 2.4613781,0.3149 2.461385,0.6649 -6.9e-6,0.1866 -0.3499665,0.4005 -1.0498799,0.6416 z"
         style=""
         id="path3313" />
      <path
         d="m 33.90479,1062.1148 c 0.466601,0 0.882664,0.1827 1.24819,0.5482 0.318839,0.3189 0.478265,0.7077 0.478279,1.1666 -1.4e-5,0.3111 -0.08556,0.6144 -0.256637,0.9099 -0.35775,0.5444 -0.847694,0.8166 -1.469832,0.8165 -0.412187,10e-5 -0.7777,-0.136 -1.096541,-0.4082 -0.412186,-0.3655 -0.618273,-0.8049 -0.618263,-1.3182 -10e-6,-0.5833 0.244962,-1.0499 0.734916,-1.3999 0.303287,-0.2099 0.629916,-0.3149 0.979888,-0.3149 z"
         style=""
         id="path3315" />
      <path
         d="m 58.366991,1054.4273 c 2.900764,3.3285 6.404249,5.9571 10.510465,7.8858 -0.48219,0.4355 -0.839926,0.9216 -1.073211,1.4581 -4.06733,-2.3563 -7.33362,-5.2804 -9.798879,-8.7723 -2.535275,4.2618 -6.054313,7.5125 -10.557125,9.7522 l -0.384956,-0.5016 c 4.316167,-2.5274 7.741883,-6.2565 10.277157,-11.187 1.399827,0.3344 2.099746,0.6533 2.09976,0.9565 -1.4e-5,0.2022 -0.35775,0.3383 -1.073211,0.4083 z m 0.04666,7.5242 0,3.6279 5.587694,0 1.178198,-1.5282 c 0.661016,0.5755 1.217063,1.1238 1.668143,1.6448 l -0.268303,0.4783 -8.165732,0 0,6.9642 6.310944,0 1.306518,-1.6565 0.431617,0.4317 c 0.443261,0.4432 0.843771,0.8982 1.201529,1.3648 l -0.291633,0.4549 -19.189472,0 -0.279968,-0.5949 9.09896,0 0,-6.9642 -7.862434,0 -0.256638,-0.5949 8.119072,0 0,-3.6279 -3.896221,0 -0.233307,-0.595 7.524139,0 1.096541,-1.3182 c 0.458821,0.3889 0.98376,0.8905 1.57482,1.5049 l -0.233306,0.4083 z m -7.314164,5.156 c 2.099753,1.3143 3.149632,2.6131 3.14964,3.8963 -8e-6,0.6843 -0.287753,1.0265 -0.863234,1.0265 -0.419959,0 -0.688262,-0.3344 -0.804908,-1.0032 -0.186652,-1.0888 -0.801026,-2.2592 -1.843123,-3.5113 z m 9.658895,5.0395 c 0.847666,-1.3999 1.6098,-3.1108 2.286406,-5.1328 1.368713,0.5755 2.053079,1.0305 2.053098,1.3649 -1.9e-5,0.1944 -0.326648,0.3071 -0.979888,0.3383 -0.855475,1.3609 -1.819808,2.6091 -2.893002,3.7445 z"
         style=""
         id="path3317" />
      <path
         d="m 83.902402,1062.4064 4.012874,0 0.839904,-0.9332 c 0.902099,0.6455 1.353158,1.0771 1.353178,1.2948 -2e-5,0.086 -0.05446,0.1634 -0.163314,0.2333 l -0.571602,0.385 0,2.823 -1.294852,0 0,-0.5833 -4.176188,0 0,1.8198 5.902658,0 0.828238,-0.9565 c 0.940982,0.6766 1.411483,1.1237 1.411505,1.3415 -2.2e-5,0.1089 -0.07001,0.21 -0.209976,0.3033 l -0.478278,0.3383 0,4.1295 c -2.2e-5,1.2521 -0.773821,1.8665 -2.321401,1.8431 -0.02335,-0.3888 -0.260545,-0.6688 -0.711586,-0.8399 -0.311093,-0.1166 -1.022678,-0.2605 -2.134755,-0.4316 l 0,-0.5949 c 1.22873,0.1322 2.259167,0.1983 3.091313,0.1983 0.47437,0 0.711565,-0.2333 0.711585,-0.6999 l 0,-4.0362 -6.089303,0 0,2.438 c 0.933211,-0.07 1.893656,-0.1672 2.881337,-0.2916 -0.256655,-0.4277 -0.629945,-0.871 -1.119872,-1.3299 l 0.338294,-0.4083 c 1.850882,0.9799 2.77633,1.9482 2.776349,2.9047 -1.9e-5,0.5133 -0.256656,0.7699 -0.769912,0.7699 -0.342201,0 -0.571619,-0.2372 -0.688254,-0.7116 -0.05446,-0.2177 -0.128336,-0.4316 -0.221641,-0.6416 -2.426404,0.5367 -4.813907,0.9099 -7.162514,1.1199 -0.139994,0.5288 -0.295532,0.7933 -0.466614,0.7933 -0.287754,0 -0.575499,-0.6572 -0.863234,-1.9715 1.664243,-0.023 2.982424,-0.07 3.954547,-0.14 l 0,-2.5313 -5.552698,0 0,6.5909 -1.341513,0 0,-7.8975 c 0.412169,0.1478 0.929331,0.385 1.551489,0.7116 l 5.342722,0 0,-1.8198 -3.977878,0 0,0.7933 -1.318182,0 0,-4.6312 c 0.0311,0.01 0.540485,0.2139 1.528158,0.6183 l 3.767902,0 0,-1.7148 -1.026549,0.07 c -1.213205,0.07 -2.834685,0.14 -4.864443,0.21 l -0.233307,-0.595 c 4.774998,-0.2177 8.577892,-0.7038 11.408695,-1.4581 1.003199,0.5755 1.504808,0.9915 1.504828,1.2482 -2e-5,0.14 -0.143892,0.21 -0.431618,0.2099 -0.217771,10e-5 -0.528847,-0.047 -0.933226,-0.1399 -1.469849,0.1711 -2.830803,0.2955 -4.082866,0.3732 z m 0,0.5949 0,2.0298 4.176188,0 0,-2.0298 z m -1.341514,0 -3.977878,0 0,2.0298 3.977878,0 z m -7.442482,-8.4573 14.02173,0 0.851569,-1.0266 c 0.940982,0.7466 1.411483,1.2171 1.411505,1.4115 -2.2e-5,0.1167 -0.07779,0.2178 -0.233307,0.3033 l -0.501609,0.315 0,3.6512 -1.318182,0 0,-0.9798 -14.523339,0 0,3.5345 c -5e-6,5.8327 -1.193756,10.1333 -3.581257,12.9019 l -0.52494,-0.4083 c 1.812012,-2.963 2.718019,-7.1275 2.718023,-12.4936 l 0,-7.9207 c 0.427724,0.1322 0.98766,0.3694 1.679807,0.7116 z m -0.291633,0.5949 0,2.4847 14.523339,0 0,-2.4847 z"
         style=""
         id="path3319" />
      <path
         d="m 107.69968,1058.6735 1.41151,0 c 0.25662,-1.011 0.43937,-2.0142 0.54827,-3.0097 l -4.30451,0 -0.25664,-0.5949 8.749,0 1.18986,-1.5048 c 0.5988,0.4666 1.13152,1.0227 1.59816,1.6681 l -0.23331,0.4316 -4.87611,0 c -0.45108,1.0033 -1.02657,2.0065 -1.72647,3.0097 l 3.59292,0 0.86324,-1.1199 c 0.94098,0.7933 1.41148,1.2793 1.4115,1.4582 -2e-5,0.1089 -0.0661,0.2022 -0.19831,0.28 l -0.5716,0.3849 0,10.7555 -1.34151,0 0,-0.9799 -6.04264,0 0,0.9799 -1.36485,0 0,-12.5986 c 0.52882,0.2566 0.94488,0.4744 1.24819,0.6533 z m -0.18664,0.5949 0,2.5664 6.04264,0 0,-2.5664 z m 6.04264,9.5889 0,-3.033 -6.04264,0 0,3.033 z m 0,-3.6279 0,-2.7997 -6.04264,0 0,2.7997 z m -14.045062,-6.5326 0,-4.9227 c 1.438712,0.023 2.158082,0.1905 2.158082,0.5016 0,0.1789 -0.28775,0.3849 -0.86323,0.6182 l 0,3.8029 2.43805,0 0.9099,-1.3182 0.25664,0.2684 c 0.43549,0.4588 0.7699,0.8476 1.00322,1.1665 l -0.27997,0.4783 -4.32784,0 0,0.8632 c 2.76856,0.7933 4.15285,1.6798 4.15286,2.6597 -1e-5,0.5288 -0.24499,0.7932 -0.73492,0.7932 -0.25665,0 -0.52884,-0.206 -0.81657,-0.6182 -0.52884,-0.7777 -1.39596,-1.501 -2.60137,-2.1698 l 0,2.9513 -1.294852,0 0,-2.823 c -1.174315,1.3377 -2.694695,2.5159 -4.561145,3.5346 l -0.384956,-0.5249 c 1.913112,-1.2443 3.464599,-2.7997 4.654468,-4.6661 l -3.942883,0 -0.256637,-0.595 z m 1.061542,9.7989 c 2.7219,1.0732 4.08286,2.1581 4.08287,3.2546 -1e-5,0.5366 -0.25665,0.8049 -0.76991,0.8049 -0.2411,0 -0.49384,-0.2294 -0.75825,-0.6882 -0.63771,-1.0577 -1.54761,-1.9714 -2.72969,-2.7414 -0.661039,2.2476 -2.47694,3.8846 -5.447707,4.9111 l -0.314964,-0.5482 c 3.048536,-1.4621 4.619466,-3.5152 4.712794,-6.1593 l -4.059535,0 -0.268303,-0.595 4.327838,0 0,-2.3447 c 1.485377,0.07 2.228067,0.2683 2.228077,0.5949 -10e-6,0.1789 -0.28775,0.3656 -0.86323,0.56 l 0,1.1898 2.34473,0 1.02655,-1.3648 c 0.47438,0.4277 0.91766,0.9293 1.32985,1.5048 l -0.3033,0.455 -4.39783,0 c -0.0233,0.4433 -0.07,0.8321 -0.13999,1.1665 z m -4.432823,-14.0451 c 1.594258,1.0266 2.391388,2.0221 2.391393,2.9864 -5e-6,0.5755 -0.279973,0.8632 -0.839904,0.8632 -0.349964,0 -0.548274,-0.2216 -0.594932,-0.6649 -0.09333,-0.9799 -0.524943,-1.9131 -1.294852,-2.7997 z m 5.471043,3.628 c 0.48216,-0.941 0.92155,-2.1737 1.31818,-3.6979 1.22096,0.381 1.83145,0.731 1.83146,1.0498 -1e-5,0.1945 -0.28387,0.3072 -0.85157,0.3383 -0.59883,1.0033 -1.22098,1.8626 -1.86646,2.5781 z m 9.77555,12.3536 c 3.46847,0.8632 5.20271,1.8353 5.20273,2.9163 -2e-5,0.5755 -0.25666,0.8632 -0.76991,0.8632 -0.21777,0 -0.50941,-0.2061 -0.8749,-0.6182 -0.77771,-0.9255 -2.05312,-1.8121 -3.82623,-2.6597 z m -8.67901,3.6279 c 2.27084,-0.9333 4.04008,-2.1503 5.30772,-3.6513 1.14319,0.5522 1.71479,0.976 1.71481,1.2715 -2e-5,0.1711 -0.19055,0.2567 -0.5716,0.2567 -0.0622,0 -0.23721,-0.016 -0.52494,-0.047 -1.36097,1.0966 -3.22353,2.0026 -5.5877,2.718 z"
         style=""
         id="path3321" />
      <path
         d="m 129.46719,1062.1148 c 0.4666,0 0.88267,0.1827 1.24819,0.5482 0.31884,0.3189 0.47827,0.7077 0.47828,1.1666 -1e-5,0.3111 -0.0856,0.6144 -0.25664,0.9099 -0.35775,0.5444 -0.84769,0.8166 -1.46983,0.8165 -0.41218,10e-5 -0.7777,-0.136 -1.09654,-0.4082 -0.41218,-0.3655 -0.61827,-0.8049 -0.61826,-1.3182 -1e-5,-0.5833 0.24496,-1.0499 0.73491,-1.3999 0.30329,-0.2099 0.62992,-0.3149 0.97989,-0.3149 z"
         style=""
         id="path3323" />
      <path
         d="m 147.66511,1064.7278 4.8761,0 0,-5.576 -9.41392,0 -0.23331,-0.595 9.64723,0 0,-5.086 c 1.68758,0.07 2.53137,0.2761 2.53138,0.6182 -1e-5,0.2256 -0.35775,0.4822 -1.07321,0.7699 l 0,3.6979 6.59091,0 1.34152,-1.7731 c 0.61435,0.5677 1.19373,1.1977 1.73813,1.8898 l -0.25664,0.4783 -9.41392,0 0,5.576 4.80612,0 0.97989,-1.2015 c 1.00319,0.8399 1.5048,1.3609 1.50482,1.5631 -2e-5,0.093 -0.0739,0.1867 -0.22164,0.28 l -0.61826,0.4083 0,8.504 -1.41151,0 0,-1.5281 -11.58367,0 0,1.5281 -1.41151,0 0,-10.3471 c 0.5366,0.2333 1.0771,0.4977 1.62149,0.7932 z m -0.20998,0.5949 0,6.8359 11.58367,0 0,-6.8359 z"
         style=""
         id="path3325" />
      <path
         d="m 169.05933,1063.1413 c 1.88978,-2.4497 3.4296,-4.8605 4.61948,-7.2325 1.26762,0.5289 1.90143,0.9605 1.90144,1.2949 -1e-5,0.21 -0.33441,0.3266 -1.00321,0.3499 -1.64871,2.2398 -3.17687,4.0868 -4.58448,5.5411 1.48538,-0.093 2.84633,-0.21 4.08287,-0.35 -0.0156,-0.054 -0.0389,-0.105 -0.07,-0.1516 -0.29553,-0.56 -0.69215,-1.1238 -1.18986,-1.6915 l 0.38496,-0.385 c 1.95976,1.361 2.93965,2.6831 2.93966,3.9662 -1e-5,0.5911 -0.24887,0.8866 -0.74658,0.8866 -0.40441,0 -0.6416,-0.2216 -0.71159,-0.6649 -0.0778,-0.4977 -0.18276,-0.9294 -0.31496,-1.2949 -0.19443,0.031 -0.33053,0.054 -0.40829,0.07 -0.23331,0.062 -0.92545,0.1983 -2.07643,0.4083 l 0,10.7438 -1.36484,0 0,-10.5105 c -0.46662,0.078 -1.4154,0.2139 -2.84634,0.4083 -0.14776,0.5133 -0.29941,0.7699 -0.45495,0.7699 -0.3033,0 -0.59493,-0.6766 -0.8749,-2.0298 1.04988,-0.023 1.95589,-0.066 2.71802,-0.1283 z m 9.19229,8.7257 c 0.0622,-0.016 0.17496,-0.039 0.33829,-0.07 1.0032,-0.2178 2.38749,-0.591 4.15286,-1.1199 l 0.0467,0.6416 c -2.08422,0.8788 -4.35507,1.6759 -6.81255,2.3914 -0.11667,0.5755 -0.26832,0.8632 -0.45495,0.8632 -0.29553,0 -0.63772,-0.6882 -1.02655,-2.0647 1.12764,-0.1556 1.91699,-0.28 2.36806,-0.3733 l 0,-16.9031 c 0.51326,0.1945 1.0382,0.4161 1.57482,0.665 2.87743,-0.5989 5.19106,-1.3921 6.94087,-2.3798 0.97209,0.7077 1.45815,1.2093 1.45817,1.5049 -2e-5,0.14 -0.11279,0.2099 -0.33829,0.2099 -0.21,0 -0.48219,-0.054 -0.81658,-0.1633 -0.87881,0.2644 -1.76148,0.4939 -2.64803,0.6883 l 0,0.9799 c 0.0233,2.3952 0.10108,4.3628 0.23331,5.9026 l 2.36806,0 1.04988,-1.6215 c 0.38105,0.4278 0.82044,1.0266 1.31818,1.7965 l -0.20997,0.4199 -4.46783,0 c 0.30329,3.033 0.95265,5.44 1.94812,7.2209 0.47437,0.8321 0.80099,1.2482 0.97988,1.2482 0.34217,0 0.72712,-1.466 1.15487,-4.3979 l 0.59493,0.28 c -0.27221,2.1931 -0.40831,3.6435 -0.40828,4.3512 -3e-5,0.871 0.20606,1.4543 0.61826,1.7498 -0.21778,0.4588 -0.55996,0.6882 -1.02655,0.6882 -0.77771,0 -1.68372,-0.8515 -2.71802,-2.5547 -1.33765,-2.2553 -2.18533,-5.0744 -2.54304,-8.4573 l -3.67458,0 z m 0,-9.099 3.62791,0 c -0.0933,-1.7109 -0.15555,-3.6979 -0.18664,-5.961 l 0,-0.7815 -0.36163,0.07 c -0.83992,0.1555 -1.86646,0.3149 -3.07964,0.4782 z m -9.21562,-5.4243 c 0.76991,-1.3999 1.39595,-2.8814 1.87812,-4.4445 1.30651,0.4977 1.95977,0.8943 1.95978,1.1898 -1e-5,0.1945 -0.31886,0.315 -0.95656,0.3616 -0.84769,1.361 -1.63315,2.4498 -2.3564,3.2663 0.82435,0.7389 1.23652,1.4077 1.23653,2.0065 -1e-5,0.5599 -0.27997,0.8399 -0.83991,0.8399 -0.3033,0 -0.54827,-0.2877 -0.73491,-0.8633 -0.36552,-1.0187 -1.17043,-1.9947 -2.41473,-2.9279 l 0.3383,-0.455 c 0.72325,0.3033 1.35317,0.6455 1.88978,1.0266 z m 4.24618,8.2357 c 1.59426,1.4076 2.39139,2.8113 2.3914,4.2112 -10e-6,0.6843 -0.28776,1.0265 -0.86324,1.0265 -0.41996,0 -0.6416,-0.28 -0.66492,-0.8399 -0.0233,-1.291 -0.47051,-2.6597 -1.34151,-4.1062 z m -7.02253,7.1742 c 0.7077,-1.8432 1.14709,-4.0596 1.31819,-6.6493 1.46205,0.3111 2.19307,0.6222 2.19308,0.9332 -1e-5,0.1711 -0.2722,0.315 -0.81657,0.4317 -0.49773,2.2319 -1.2132,4.0789 -2.14643,5.541 z"
         style=""
         id="path3327" />
      <path
         d="m 203.26208,1058.6735 1.41151,0 c 0.25662,-1.011 0.43938,-2.0142 0.54827,-3.0097 l -4.30451,0 -0.25664,-0.5949 8.749,0 1.18987,-1.5048 c 0.59879,0.4666 1.13151,1.0227 1.59815,1.6681 l -0.23331,0.4316 -4.87611,0 c -0.45108,1.0033 -1.02657,2.0065 -1.72647,3.0097 l 3.59292,0 0.86324,-1.1199 c 0.94098,0.7933 1.41148,1.2793 1.4115,1.4582 -2e-5,0.1089 -0.0661,0.2022 -0.19831,0.28 l -0.5716,0.3849 0,10.7555 -1.34151,0 0,-0.9799 -6.04264,0 0,0.9799 -1.36485,0 0,-12.5986 c 0.52882,0.2566 0.94488,0.4744 1.24819,0.6533 z m -0.18664,0.5949 0,2.5664 6.04264,0 0,-2.5664 z m 6.04264,9.5889 0,-3.033 -6.04264,0 0,3.033 z m 0,-3.6279 0,-2.7997 -6.04264,0 0,2.7997 z m -14.04506,-6.5326 0,-4.9227 c 1.43872,0.023 2.15808,0.1905 2.15809,0.5016 -1e-5,0.1789 -0.28776,0.3849 -0.86324,0.6182 l 0,3.8029 2.43805,0 0.9099,-1.3182 0.25664,0.2684 c 0.43549,0.4588 0.7699,0.8476 1.00322,1.1665 l -0.27997,0.4783 -4.32784,0 0,0.8632 c 2.76856,0.7933 4.15285,1.6798 4.15286,2.6597 -10e-6,0.5288 -0.24498,0.7932 -0.73492,0.7932 -0.25664,0 -0.52884,-0.206 -0.81657,-0.6182 -0.52884,-0.7777 -1.39596,-1.501 -2.60137,-2.1698 l 0,2.9513 -1.29485,0 0,-2.823 c -1.17432,1.3377 -2.6947,2.5159 -4.56115,3.5346 l -0.38495,-0.5249 c 1.91311,-1.2443 3.4646,-2.7997 4.65447,-4.6661 l -3.94289,0 -0.25663,-0.595 z m 1.06154,9.7989 c 2.72191,1.0732 4.08286,2.1581 4.08287,3.2546 -1e-5,0.5366 -0.25665,0.8049 -0.76991,0.8049 -0.2411,0 -0.49384,-0.2294 -0.75825,-0.6882 -0.63771,-1.0577 -1.54761,-1.9714 -2.72969,-2.7414 -0.66104,2.2476 -2.47694,3.8846 -5.44771,4.9111 l -0.31496,-0.5482 c 3.04854,-1.4621 4.61947,-3.5152 4.71279,-6.1593 l -4.05953,0 -0.2683,-0.595 4.32783,0 0,-2.3447 c 1.48538,0.07 2.22807,0.2683 2.22808,0.5949 -1e-5,0.1789 -0.28775,0.3656 -0.86323,0.56 l 0,1.1898 2.34473,0 1.02655,-1.3648 c 0.47438,0.4277 0.91766,0.9293 1.32985,1.5048 l -0.3033,0.455 -4.39783,0 c -0.0233,0.4433 -0.07,0.8321 -0.13999,1.1665 z m -4.43282,-14.0451 c 1.59426,1.0266 2.39139,2.0221 2.39139,2.9864 0,0.5755 -0.27997,0.8632 -0.8399,0.8632 -0.34997,0 -0.54828,-0.2216 -0.59494,-0.6649 -0.0933,-0.9799 -0.52494,-1.9131 -1.29485,-2.7997 z m 5.47104,3.628 c 0.48216,-0.941 0.92155,-2.1737 1.31818,-3.6979 1.22096,0.381 1.83145,0.731 1.83146,1.0498 -1e-5,0.1945 -0.28387,0.3072 -0.85157,0.3383 -0.59883,1.0033 -1.22098,1.8626 -1.86645,2.5781 z m 9.77555,12.3536 c 3.46847,0.8632 5.20271,1.8353 5.20273,2.9163 -2e-5,0.5755 -0.25666,0.8632 -0.76991,0.8632 -0.21777,0 -0.5094,-0.2061 -0.8749,-0.6182 -0.77771,-0.9255 -2.05311,-1.8121 -3.82623,-2.6597 z m -8.67901,3.6279 c 2.27084,-0.9333 4.04008,-2.1503 5.30773,-3.6513 1.14318,0.5522 1.71478,0.976 1.7148,1.2715 -2e-5,0.1711 -0.19055,0.2567 -0.5716,0.2567 -0.0622,0 -0.23721,-0.016 -0.52494,-0.047 -1.36097,1.0966 -3.22353,2.0026 -5.5877,2.718 z"
         style=""
         id="path3329" />
      <path
         d="m 225.02959,1062.1148 c 0.4666,0 0.88266,0.1827 1.24819,0.5482 0.31884,0.3189 0.47826,0.7077 0.47827,1.1666 -10e-6,0.3111 -0.0855,0.6144 -0.25663,0.9099 -0.35775,0.5444 -0.8477,0.8166 -1.46983,0.8165 -0.41219,10e-5 -0.7777,-0.136 -1.09655,-0.4082 -0.41218,-0.3655 -0.61827,-0.8049 -0.61826,-1.3182 -1e-5,-0.5833 0.24496,-1.0499 0.73492,-1.3999 0.30329,-0.2099 0.62991,-0.3149 0.97989,-0.3149 z"
         style=""
         id="path3331" />
      <path
         d="m 243.22751,1064.7278 4.87611,0 0,-5.576 -9.41392,0 -0.23331,-0.595 9.64723,0 0,-5.086 c 1.68757,0.07 2.53137,0.2761 2.53138,0.6182 -1e-5,0.2256 -0.35775,0.4822 -1.07321,0.7699 l 0,3.6979 6.59091,0 1.34151,-1.7731 c 0.61436,0.5677 1.19374,1.1977 1.73814,1.8898 l -0.25664,0.4783 -9.41392,0 0,5.576 4.80612,0 0.97988,-1.2015 c 1.0032,0.8399 1.50481,1.3609 1.50483,1.5631 -2e-5,0.093 -0.0739,0.1867 -0.22164,0.28 l -0.61826,0.4083 0,8.504 -1.41151,0 0,-1.5281 -11.58367,0 0,1.5281 -1.41151,0 0,-10.3471 c 0.5366,0.2333 1.0771,0.4977 1.62148,0.7932 z m -0.20997,0.5949 0,6.8359 11.58367,0 0,-6.8359 z"
         style=""
         id="path3333" />
      <path
         d="m 268.21465,1063.5496 0,8.9823 -1.38818,0 0,-7.8624 c -1.46983,1.7576 -3.10298,3.3129 -4.89943,4.6661 l -0.43162,-0.4783 c 3.49959,-3.1185 6.11263,-6.6492 7.8391,-10.5921 l -6.78922,0 -0.18665,-0.5949 7.23251,0 c 0.5677,-1.291 1.1082,-2.788 1.62148,-4.4912 1.54759,0.4044 2.32139,0.7777 2.3214,1.1199 -1e-5,0.2333 -0.40441,0.385 -1.21319,0.4549 -0.3422,0.9411 -0.73493,1.9132 -1.1782,2.9164 l 9.36726,0 1.34151,-1.7731 c 0.61436,0.5521 1.19373,1.1665 1.73814,1.8431 l -0.27997,0.5249 -12.44691,0 c -0.75437,1.5476 -1.62149,3.0563 -2.60137,4.5262 0.0933,0.062 0.16331,0.1166 0.20998,0.1633 l 4.44449,0 0,-3.8729 c 1.6098,0.07 2.41471,0.2761 2.41472,0.6182 -10e-6,0.1945 -0.32664,0.4278 -0.97989,0.7 l 0,2.5547 4.86445,0 0.90989,-1.0966 c 1.02653,0.7311 1.53981,1.2171 1.53983,1.4582 -2e-5,0.1089 -0.0739,0.21 -0.22164,0.3033 l -0.59494,0.385 0,6.1359 c -2e-5,1.3843 -0.80492,2.0765 -2.41472,2.0765 -2e-5,-0.5289 -0.26443,-0.9022 -0.79324,-1.1199 -0.36553,-0.1244 -1.06545,-0.2683 -2.09976,-0.4316 l 0,-0.6416 c 1.34538,0.1244 2.36415,0.1866 3.05631,0.1866 0.57548,0 0.86322,-0.2683 0.86324,-0.8049 l 0,-5.856 -5.10942,0 0,11.0821 -1.43483,0 0,-11.0821 z"
         style=""
         id="path3335" />
      <path
         d="m 22.414438,1082.4941 c 0.4666,2.4575 1.368718,4.7439 2.706357,6.8592 1.633129,-1.7342 2.970753,-3.5423 4.012874,-5.4244 1.337604,0.7855 2.006416,1.3571 2.006437,1.7148 -2.1e-5,0.1945 -0.213885,0.2917 -0.641593,0.2917 -0.03113,0 -0.217773,-0.016 -0.559936,-0.047 -1.065453,1.221 -2.546948,2.5664 -4.444492,4.0362 1.742006,2.4109 4.043962,4.4562 6.905877,6.136 -0.458859,0.3033 -0.917694,0.7816 -1.376509,1.4348 -5.443838,-3.8418 -8.535148,-8.7879 -9.273939,-14.8383 -0.75437,1.4232 -1.808137,2.8192 -3.161305,4.1879 l -0.186645,0.21 0,7.979 c 2.200848,-0.451 4.358932,-1.0071 6.474259,-1.6681 l 0.17498,0.6416 c -3.616265,1.3843 -7.131415,2.4769 -10.54546,3.2779 -0.116658,0.6844 -0.283861,1.0266 -0.50161,1.0266 -0.35774,0 -0.762138,-0.766 -1.213194,-2.2981 1.749795,-0.2333 3.149633,-0.4627 4.199519,-0.6882 l 0,-6.9992 c -1.796466,1.4465 -3.740686,2.6247 -5.832666,3.5346 l -0.326629,-0.525 c 4.308391,-2.3019 7.388035,-5.2494 9.238943,-8.8423 l -8.480696,0 -0.303299,-0.5949 9.600568,0 0,-4.5145 c 1.703126,0.023 2.554694,0.2217 2.554708,0.5949 -1.4e-5,0.2256 -0.381081,0.4589 -1.143203,0.6999 l 0,3.2197 6.742562,0 1.283187,-1.6915 c 0.723229,0.6299 1.322049,1.2404 1.796461,1.8315 l -0.268303,0.4549 z"
         style=""
         id="path3337" />
      <path
         d="m 47.716543,1082.5641 1.411505,0 c 0.256622,-1.011 0.439379,-2.0142 0.548271,-3.0097 l -4.304508,0 -0.256637,-0.5949 8.748999,0 1.189864,-1.5048 c 0.598798,0.4666 1.131515,1.0227 1.598151,1.6681 l -0.233307,0.4316 -4.876109,0 c -0.451077,1.0033 -1.026566,2.0065 -1.726469,3.0097 l 3.592922,0 0.863235,-1.1199 c 0.940982,0.7933 1.411483,1.2793 1.411505,1.4582 -2.2e-5,0.1089 -0.06613,0.2022 -0.198311,0.28 l -0.571601,0.3849 0,10.7555 -1.341513,0 0,-0.9799 -6.042642,0 0,0.9799 -1.364844,0 0,-12.5986 c 0.528815,0.2566 0.944878,0.4744 1.248191,0.6533 z m -0.186645,0.5949 0,2.5664 6.042642,0 0,-2.5664 z m 6.042642,9.5889 0,-3.033 -6.042642,0 0,3.033 z m 0,-3.6279 0,-2.7997 -6.042642,0 0,2.7997 z m -14.04506,-6.5326 0,-4.9227 c 1.438717,0.023 2.158078,0.1905 2.158086,0.5016 -8e-6,0.1789 -0.287752,0.3849 -0.863234,0.6182 l 0,3.8029 2.438054,0 0.909896,-1.3182 0.256638,0.2684 c 0.435494,0.4588 0.7699,0.8476 1.003218,1.1665 l -0.279968,0.4783 -4.327838,0 0,0.8632 c 2.768562,0.7933 4.152847,1.6798 4.152858,2.6597 -1.1e-5,0.5288 -0.244983,0.7932 -0.734916,0.7932 -0.256647,0 -0.528838,-0.206 -0.816573,-0.6182 -0.528838,-0.7777 -1.39596,-1.501 -2.601369,-2.1698 l 0,2.9513 -1.294852,0 0,-2.823 c -1.174315,1.3377 -2.694695,2.5159 -4.561145,3.5346 l -0.384956,-0.5249 c 1.913112,-1.2443 3.464599,-2.7997 4.654468,-4.6661 l -3.942883,0 -0.256637,-0.595 z m 1.061545,9.7989 c 2.721901,1.0732 4.082855,2.1581 4.082866,3.2546 -1.1e-5,0.5366 -0.256648,0.8049 -0.769911,0.8049 -0.241094,0 -0.493843,-0.2294 -0.758247,-0.6882 -0.637714,-1.0577 -1.547609,-1.9714 -2.729688,-2.7414 -0.661041,2.2476 -2.476943,3.8846 -5.44771,4.9111 l -0.314964,-0.5482 c 3.048536,-1.4621 4.619466,-3.5152 4.712794,-6.1593 l -4.059535,0 -0.268303,-0.595 4.327838,0 0,-2.3447 c 1.485379,0.07 2.228071,0.2683 2.228079,0.5949 -8e-6,0.1789 -0.287753,0.3656 -0.863235,0.56 l 0,1.1898 2.344732,0 1.026549,-1.3648 c 0.474379,0.4277 0.917662,0.9293 1.329848,1.5048 l -0.303299,0.455 -4.39783,0 c -0.02334,0.4433 -0.07,0.8321 -0.139984,1.1665 z m -4.432826,-14.0451 c 1.594258,1.0266 2.391388,2.0221 2.391393,2.9864 -5e-6,0.5755 -0.279972,0.8632 -0.839904,0.8632 -0.349963,0 -0.548274,-0.2216 -0.594932,-0.6649 -0.09333,-0.9799 -0.524943,-1.9131 -1.294852,-2.7997 z m 5.471041,3.628 c 0.482158,-0.941 0.921552,-2.1737 1.318182,-3.6979 1.220961,0.381 1.831446,0.731 1.831457,1.0498 -1.1e-5,0.1945 -0.283867,0.3072 -0.851569,0.3383 -0.59883,1.0033 -1.22098,1.8626 -1.866453,2.5781 z m 9.775548,12.3536 c 3.468471,0.8632 5.202715,1.8353 5.202738,2.9163 -2.3e-5,0.5755 -0.25666,0.8632 -0.769912,0.8632 -0.217775,0 -0.509408,-0.2061 -0.8749,-0.6182 -0.777709,-0.9255 -2.053117,-1.8121 -3.826229,-2.6597 z m -8.679007,3.6279 c 2.27084,-0.9333 4.04008,-2.1503 5.307726,-3.6513 1.143187,0.5522 1.714788,0.976 1.714804,1.2715 -1.6e-5,0.1711 -0.19055,0.2567 -0.571601,0.2567 -0.06223,0 -0.237211,-0.016 -0.52494,-0.047 -1.360969,1.0966 -3.223532,2.0026 -5.587694,2.718 z"
         style=""
         id="path3339" />
      <path
         d="m 71.653804,1101.7302 -0.688254,0.385 c -2.885229,-3.554 -4.327841,-7.4969 -4.327839,-11.8287 -2e-6,-4.3317 1.44261,-8.2745 4.327839,-11.8286 l 0.688254,0.4083 c -2.263079,3.3596 -3.394615,7.1742 -3.394611,11.4437 -4e-6,4.2306 1.131532,8.0374 3.394611,11.4203 z"
         style=""
         id="path3341" />
      <path
         d="m 79.912861,1094.2061 0,0.6883 -1.341513,0 0,-9.099 c 0.497715,0.1555 0.999323,0.3383 1.504828,0.5483 l 10.627117,0 0.886565,-0.8399 c 0.886546,0.6066 1.329828,0.9876 1.329848,1.1432 -2e-5,0.093 -0.06224,0.1905 -0.186645,0.2916 l -0.501609,0.3616 0,7.3375 -1.341514,0 0,-0.4316 z m 0,-5.471 10.977077,0 0,-1.7965 -10.977077,0 z m 0,0.5949 0,1.7265 10.977077,0 0,-1.7265 z m 0,2.3214 0,1.9598 10.977077,0 0,-1.9598 z m 8.305716,-11.852 0,0.4783 c 0.264399,0.9177 0.878773,1.7148 1.843123,2.3914 1.376491,0.9643 3.254607,1.6487 5.634355,2.0531 -0.474412,0.4899 -0.801041,0.9449 -0.979888,1.3648 -3.748477,-1.0965 -5.968777,-2.6908 -6.660904,-4.7828 -0.66105,2.3487 -3.114656,3.9235 -7.360825,4.7245 l -0.338295,-0.5483 c 2.403049,-0.591 4.211174,-1.5514 5.42438,-2.8813 0.731014,-0.8088 1.096527,-1.6448 1.096541,-2.5081 l 0,-0.2916 -2.764684,0 c -0.715483,0.8399 -1.535944,1.5865 -2.461385,2.2398 l -0.338294,-0.35 c 1.337615,-1.3376 2.301948,-2.9124 2.893002,-4.7245 1.306505,0.21 1.959763,0.4628 1.959776,0.7583 -1.3e-5,0.1711 -0.326642,0.3305 -0.979888,0.4783 -0.147773,0.2955 -0.35386,0.6299 -0.618263,1.0032 l 8.142402,0 0.909896,-1.0732 c 0.987644,0.9099 1.481475,1.4893 1.481497,1.7381 -2.2e-5,0.1322 -0.105009,0.2217 -0.314964,0.2683 l -0.664924,0.1633 c -0.606617,0.6066 -1.395971,1.1977 -2.368062,1.7732 l -0.408287,-0.3617 c 0.614356,-0.6843 1.069303,-1.322 1.364844,-1.9131 z m 6.555917,18.7229 c -0.194444,0 -0.513296,-0.1517 -0.956557,-0.455 -1.384306,-0.9254 -3.697927,-1.8314 -6.940873,-2.718 l 0.314964,-0.5016 c 5.498241,0.8321 8.247368,1.812 8.24739,2.9397 -2.2e-5,0.4899 -0.221663,0.7349 -0.664924,0.7349 z m -19.691081,0.105 -0.338294,-0.5483 c 2.714129,-0.6844 5.128851,-1.7693 7.244171,-3.2546 1.189854,0.5755 1.784785,0.9915 1.784796,1.2482 -1.1e-5,0.171 -0.229429,0.2566 -0.688255,0.2566 -0.225539,0 -0.408296,-0.01 -0.54827,-0.023 -2.371958,1.0965 -4.856671,1.8703 -7.454148,2.3214 z m 2.788015,-18.1396 c -0.303303,0 -0.532721,-0.175 -0.688255,-0.525 -0.303302,-0.7076 -0.909899,-1.3454 -1.819792,-1.9131 l 0.268303,-0.3966 c 1.990879,0.5988 2.98632,1.2715 2.986325,2.0181 -5e-6,0.5444 -0.248866,0.8166 -0.746581,0.8166 z m 3.896221,-1.5982 -3.487935,4.1529 c -0.18665,0.2333 -0.279972,0.4977 -0.279968,0.7932 -4e-6,0.1556 0.0311,0.3617 0.09332,0.6183 0.06221,0.2566 0.09332,0.5288 0.09332,0.8166 -5e-6,0.2877 -0.108882,0.5171 -0.32663,0.6882 -0.178872,0.1322 -0.381071,0.1983 -0.606597,0.1983 -0.443286,0 -0.664927,-0.1672 -0.664924,-0.5016 -3e-6,-0.2722 0.0311,-0.521 0.09332,-0.7466 0.08554,-0.2099 0.128315,-0.486 0.128319,-0.8282 -4e-6,-0.2333 -0.08555,-0.4161 -0.256638,-0.5483 -0.209979,-0.1633 -0.6066,-0.3266 -1.189864,-0.4899 l 0.17498,-0.4316 c 0.552156,0.1166 0.894339,0.175 1.02655,0.1749 0.318848,1e-4 0.594928,-0.097 0.828238,-0.2916 0.51327,-0.4122 1.217078,-1.0499 2.111425,-1.9131 0.816566,-0.7855 1.450382,-1.4387 1.901449,-1.9598 z"
         style=""
         id="path3343" />
      <path
         d="m 116.46034,1089.33 -2.60136,0 0,7.1158 c -2e-5,1.3066 -0.75049,1.9598 -2.25141,1.9598 -2e-5,-0.4666 -0.25277,-0.8088 -0.75825,-1.0265 -0.38886,-0.1556 -1.05767,-0.315 -2.00644,-0.4783 l 0,-0.6416 c 1.18208,0.1555 2.12697,0.2333 2.83468,0.2333 0.54437,0 0.81656,-0.2527 0.81657,-0.7582 l 0,-6.4043 -2.53138,0 0,1.1665 -1.34151,0 0,-8.924 0.29163,0.14 c 0.41217,0.1789 0.80879,0.3772 1.18987,0.595 l 1.59815,0 c 0.24884,-0.9721 0.42771,-1.9287 0.5366,-2.8697 l -5.40104,0 0,5.9493 c -1e-5,5.8871 -1.26765,10.2772 -3.8029,13.1702 l -0.47828,-0.4083 c 1.92866,-3.0252 2.89299,-7.2714 2.893,-12.7386 l 0,-7.3025 c 0.51327,0.1867 1.06154,0.4317 1.64481,0.735 l 10.00886,0 1.1782,-1.5282 c 0.0933,0.078 0.19829,0.175 0.31496,0.2916 0.55991,0.5367 0.99542,0.9799 1.30652,1.3299 l -0.25664,0.5016 -5.54103,0 c -0.45886,0.9488 -1.01101,1.9053 -1.65648,2.8697 l 3.8029,0 0.85157,-1.0266 c 0.99542,0.7466 1.49314,1.2327 1.49316,1.4582 -2e-5,0.1089 -0.0739,0.21 -0.22164,0.3033 l -0.5716,0.3849 0,7.0226 -1.34152,0 z m 0,-0.5949 0,-2.7297 -6.49759,0 0,2.7297 z m 0,-3.3247 0,-2.508 -6.49759,0 0,2.508 z m -18.011268,-2.718 c 1.858668,0.7388 2.788008,1.6293 2.788018,2.6714 -10e-6,0.6066 -0.27998,0.9099 -0.83991,0.9099 -0.37329,0 -0.594932,-0.2139 -0.664922,-0.6416 -0.186648,-0.9643 -0.727141,-1.812 -1.621481,-2.5431 z m 1.668138,-5.1677 c 1.95978,0.6221 2.93966,1.4659 2.93967,2.5314 -1e-5,0.6221 -0.28775,0.9332 -0.86324,0.9332 -0.31108,0 -0.52494,-0.245 -0.64159,-0.7349 -0.21776,-0.8633 -0.8088,-1.6137 -1.77313,-2.2514 z m 15.22326,13.7417 c 1.51648,0.8633 2.718,1.8976 3.60459,3.103 0.3966,0.5366 0.59491,1.0616 0.59493,1.5748 -2e-5,0.6688 -0.27999,1.0033 -0.8399,1.0033 -0.36554,0 -0.64162,-0.3189 -0.82824,-0.9566 -0.45886,-1.5165 -1.42319,-2.9474 -2.893,-4.2928 z m -9.63556,5.8094 c 1.36872,-1.5321 2.40693,-3.4296 3.11464,-5.6927 1.36872,0.5288 2.05309,0.9527 2.0531,1.2715 -10e-6,0.21 -0.3422,0.3266 -1.02655,0.35 -0.88658,1.8431 -2.13088,3.3479 -3.73291,4.5145 z m -0.97989,-15.3633 -2.96299,10.4405 c -0.26442,0.9799 -0.39663,1.6215 -0.39663,1.9248 0,0.1789 0.0311,0.3966 0.0933,0.6532 0.21775,1.1121 0.32662,1.8898 0.32663,2.3331 -1e-5,0.941 -0.36552,1.4115 -1.09654,1.4115 -0.53661,0 -0.804915,-0.28 -0.804912,-0.8399 -3e-6,-0.023 0.01944,-0.1711 0.05833,-0.4433 0.05444,-0.3888 0.101096,-0.7077 0.139986,-0.9565 0.0933,-0.6066 0.13998,-1.1432 0.13998,-1.6098 0,-1.2755 -0.614374,-2.022 -1.84312,-2.2398 l 0,-0.6183 c 0.303297,0.047 0.556045,0.07 0.758246,0.07 0.746579,0 1.248184,-0.2721 1.504824,-0.8165 0.83213,-1.6565 1.86645,-4.4484 3.10298,-8.3757 l 0.40829,-1.3416 z"
         style=""
         id="path3345" />
      <path
         d="m 134.14499,1088.2568 c 3.04852,1.2754 5.26105,2.613 6.63757,4.0129 0.71546,0.6921 1.07319,1.2831 1.07321,1.7731 -2e-5,0.7621 -0.28776,1.1432 -0.86323,1.1432 -0.23333,0 -0.4783,-0.1983 -0.73492,-0.5949 -1.52428,-2.2398 -3.71348,-4.1451 -6.56758,-5.7161 -1.43873,1.6876 -2.98244,3.0991 -4.63113,4.2346 -1.54761,1.0654 -3.33241,1.9947 -5.35439,2.788 l -0.2683,-0.6649 c 3.39071,-1.781 6.10873,-3.8107 8.15406,-6.0894 1.89755,-2.123 3.42571,-4.6816 4.58448,-7.6757 -2.9319,0.3888 -5.15609,0.6999 -6.67257,0.9332 -0.39663,0.07 -0.66493,0.1361 -0.80491,0.1983 -0.21776,0.078 -0.44329,0.1167 -0.67659,0.1166 -0.25664,10e-5 -0.58716,-0.2527 -0.99155,-0.7582 -0.35775,-0.4433 -0.63771,-0.9215 -0.83991,-1.4348 l 0.5716,-0.3383 c 0.34996,0.3966 0.62993,0.6494 0.83991,0.7582 0.24885,0.1322 0.57159,0.1983 0.96822,0.1983 1.71091,0 4.02064,-0.1827 6.92921,-0.5482 0.3655,-0.047 0.69213,-0.1672 0.97989,-0.3617 0.24106,-0.1399 0.40827,-0.2099 0.50161,-0.2099 0.15552,0 0.45104,0.2138 0.88656,0.6416 0.42771,0.4355 0.64158,0.7543 0.64159,0.9565 -1e-5,0.1789 -0.105,0.315 -0.31496,0.4083 -0.32665,0.1478 -0.6105,0.4666 -0.85157,0.9566 -0.9799,1.9908 -2.04533,3.7484 -3.1963,5.2727 z"
         style=""
         id="path3347" />
      <path
         d="m 158.29223,1086.297 c -0.11667,2.8619 -0.60272,5.09 -1.45817,6.6842 -1.04989,1.9987 -2.72969,3.5385 -5.03942,4.6195 l -0.40829,-0.5833 c 2.02976,-1.2754 3.46071,-2.8968 4.29284,-4.8644 0.62214,-1.4932 0.941,-3.3985 0.95656,-5.716 -2.34085,0.2411 -4.19564,0.4666 -5.56436,0.6766 -0.28775,0.047 -0.50939,0.1011 -0.66493,0.1633 -0.22553,0.062 -0.38496,0.093 -0.47827,0.093 -0.41218,0 -0.86324,-0.2372 -1.35318,-0.7116 -0.41218,-0.3888 -0.76603,-0.8593 -1.06155,-1.4115 l 0.50161,-0.4316 c 0.52883,0.42 0.93322,0.6883 1.2132,0.8049 0.28774,0.1167 0.64936,0.175 1.08487,0.175 1.15098,0 3.57736,-0.1594 7.27917,-0.4783 3.28183,-0.2877 5.08995,-0.4938 5.42438,-0.6182 0.46659,-0.1789 0.87488,-0.2683 1.22486,-0.2683 0.62213,0 1.12374,0.1205 1.50483,0.3616 0.34994,0.2177 0.52492,0.4977 0.52494,0.8399 -2e-5,0.35 -0.31888,0.5249 -0.95656,0.5249 l -2.36806,-0.058 c -0.9488,0 -2.50029,0.066 -4.65447,0.1983 z m -7.10419,-6.7776 c 0.72325,0.6144 1.41539,0.9216 2.07643,0.9216 1.36872,0 3.14574,-0.1283 5.33106,-0.3849 0.62213,-0.078 1.1393,-0.2139 1.55149,-0.4083 0.28773,-0.14 0.51714,-0.21 0.68825,-0.21 0.47438,0 0.90599,0.1011 1.29485,0.3033 0.3655,0.1944 0.54826,0.4277 0.54827,0.6999 -1e-5,0.3655 -0.2722,0.5561 -0.81657,0.5716 -2.86191,0.1167 -5.59937,0.3189 -8.21239,0.6066 -0.10889,0.016 -0.22943,0.039 -0.36163,0.07 -0.18665,0.047 -0.36941,0.07 -0.54827,0.07 -0.61438,0 -1.29875,-0.6144 -2.0531,-1.8431 z"
         style=""
         id="path3349" />
      <path
         d="m 171.69569,1086.2037 c 0.7388,0.7932 1.53593,1.1899 2.39139,1.1898 1.42317,1e-4 2.82301,-0.031 4.19952,-0.093 1.6798,-0.07 4.07119,-0.2061 7.17418,-0.4083 0.91766,-0.054 1.53981,-0.136 1.86646,-0.2449 0.25661,-0.093 0.47825,-0.14 0.66492,-0.14 0.42771,0 0.85933,0.1128 1.29485,0.3383 0.45882,0.2333 0.68823,0.5133 0.68826,0.8399 -3e-5,0.4744 -0.3111,0.7116 -0.93323,0.7116 -0.34998,0 -0.7466,-0.016 -1.18986,-0.047 -0.65328,-0.047 -1.37264,-0.07 -2.15809,-0.07 -1.93646,0 -5.47883,0.175 -10.62712,0.525 -0.34219,0.023 -0.64549,0.078 -0.90989,0.1633 -0.22554,0.062 -0.41607,0.093 -0.57161,0.093 -0.83213,0 -1.62926,-0.8166 -2.39139,-2.4497 z"
         style=""
         id="path3351" />
      <path
         d="m 199.55251,1079.2278 c 1.50093,0.28 2.71024,0.7699 3.62792,1.4698 0.73102,0.56 1.09653,1.1122 1.09654,1.6565 -1e-5,0.28 -0.0817,0.5133 -0.24497,0.6999 -0.16333,0.1867 -0.37719,0.28 -0.64159,0.28 -0.31109,0 -0.57161,-0.1905 -0.78158,-0.5716 -0.70771,-1.2287 -1.81591,-2.2008 -3.32462,-2.9163 z m -3.11464,4.5378 c 1.61759,0.3189 2.86189,0.8205 3.73291,1.5049 0.69991,0.5599 1.04987,1.1471 1.04988,1.7614 -1e-5,0.5911 -0.29553,0.8866 -0.88657,0.8866 -0.2722,0 -0.54828,-0.2139 -0.82824,-0.6416 -0.84769,-1.2987 -1.94811,-2.2631 -3.30129,-2.893 z m 1.56315,9.5306 c 0.6377,0.6999 1.12376,1.0499 1.45817,1.0499 0.40439,0 1.12764,-0.2566 2.16975,-0.7699 0.94877,-0.4744 1.99087,-1.0849 3.12631,-1.8315 3.25072,-2.1542 6.28371,-5.1405 9.09896,-8.959 l 0.58327,0.455 c -1.74205,2.9319 -3.75237,5.4205 -6.03098,7.4658 -1.90535,1.7031 -4.2112,3.2974 -6.91754,4.7828 -0.5755,0.3188 -1.01489,0.5366 -1.31818,0.6532 -0.20999,0.078 -0.38497,0.1167 -0.52494,0.1167 -0.34219,0 -0.72715,-0.2683 -1.15487,-0.8049 -0.38108,-0.4744 -0.71159,-1.0654 -0.99156,-1.7731 z"
         style=""
         id="path3353" />
      <path
         d="m 231.84215,1094.1711 c 0.13219,-1.952 0.21385,-3.3829 0.24497,-4.2928 -2.37197,0.2411 -4.16454,0.4471 -5.37772,0.6182 -0.48995,0.078 -0.79325,0.1439 -0.9099,0.1983 -0.17887,0.078 -0.33052,0.1167 -0.45494,0.1167 -0.56772,0 -1.22876,-0.5211 -1.98311,-1.5632 l 0.45495,-0.4199 c 0.57548,0.4277 1.21318,0.6416 1.91311,0.6416 0.50549,0 1.08876,-0.031 1.7498,-0.093 0.7388,-0.062 2.29028,-0.2217 4.65447,-0.4783 l 0.18665,-3.4413 c -2.73748,0.2333 -4.82946,0.4472 -6.27595,0.6416 -0.39663,0.047 -0.66105,0.089 -0.79325,0.1283 -0.23331,0.062 -0.41607,0.093 -0.54827,0.093 -0.43551,0 -1.03433,-0.5366 -1.79646,-1.6098 l 0.43162,-0.4316 c 0.45883,0.3266 0.82434,0.5288 1.09654,0.6066 0.2333,0.062 0.6027,0.093 1.10821,0.093 0.78545,0 2.01809,-0.062 3.69791,-0.1866 0.871,-0.062 1.66035,-0.1439 2.36806,-0.245 0.2644,-0.023 0.48604,-0.1089 0.66492,-0.2566 0.20219,-0.1789 0.36161,-0.2683 0.47828,-0.2683 0.22552,0 0.5677,0.2294 1.02655,0.6882 0.31884,0.3189 0.47826,0.5833 0.47828,0.7933 -2e-5,0.1633 -0.10501,0.346 -0.31496,0.5482 -0.21777,0.2489 -0.33443,0.56 -0.34996,0.9333 -0.14778,1.9442 -0.33054,4.2306 -0.54827,6.8592 0.21773,0.07 0.41604,0.2022 0.59493,0.3966 0.17107,0.1866 0.25662,0.3655 0.25663,0.5366 -1e-5,0.1944 -0.0739,0.3189 -0.22164,0.3733 -0.13222,0.047 -0.4083,0.07 -0.82823,0.07 -1.89758,0 -4.32397,0.1866 -7.27917,0.5599 -0.26443,0.039 -0.45885,0.086 -0.58327,0.14 -0.14777,0.062 -0.27997,0.093 -0.39662,0.093 -0.53661,0 -1.15099,-0.6066 -1.84312,-1.8198 l 0.45495,-0.3499 c 0.68435,0.5366 1.25595,0.8049 1.7148,0.8049 0.50549,0 1.27929,-0.039 2.3214,-0.1167 1.3765,-0.085 2.91243,-0.2061 4.60781,-0.3616 z"
         style=""
         id="path3355" />
      <path
         d="m 245.39726,1080.2077 c 1.87422,0.5522 3.24295,1.2443 4.10619,2.0764 0.69991,0.6533 1.04987,1.2755 1.04988,1.8665 -10e-6,0.8088 -0.3033,1.2132 -0.90989,1.2132 -0.26443,0 -0.58328,-0.3111 -0.95656,-0.9332 -0.89435,-1.5087 -2.09588,-2.7258 -3.60459,-3.6513 z m 0.34996,12.9485 c 0.42772,0.6377 0.86711,0.9566 1.31818,0.9566 0.52882,0 1.29484,-0.2644 2.29807,-0.7933 5.06274,-2.6441 9.08339,-6.1865 12.06195,-10.6271 l 0.54827,0.4783 c -1.53206,2.683 -3.25464,4.9228 -5.16774,6.7192 -1.8198,1.7187 -4.11787,3.348 -6.89421,4.8878 -0.92546,0.5055 -1.48539,0.8399 -1.67981,1.0032 -0.28775,0.2567 -0.65326,0.385 -1.09654,0.385 -0.24109,0 -0.57161,-0.2683 -0.99155,-0.8049 -0.40441,-0.5289 -0.71937,-1.1393 -0.94489,-1.8315 z"
         style=""
         id="path3357" />
      <path
         d="m 266.58151,1078.4579 c 2.88522,3.5463 4.32783,7.4892 4.32784,11.8286 -1e-5,4.3318 -1.44262,8.2747 -4.32784,11.8287 l -0.68826,-0.385 c 2.26308,-3.3829 3.39461,-7.1897 3.39462,-11.4203 -10e-6,-4.2462 -1.13154,-8.0607 -3.39462,-11.4437 z"
         style=""
         id="path3359" />
    </g>
  </g>
</svg>
