<?xml version="1.0" encoding="UTF-8" standalone="no"?>
<!-- Created with Inkscape (http://www.inkscape.org/) -->

<svg
   xmlns:dc="http://purl.org/dc/elements/1.1/"
   xmlns:cc="http://creativecommons.org/ns#"
   xmlns:rdf="http://www.w3.org/1999/02/22-rdf-syntax-ns#"
   xmlns:svg="http://www.w3.org/2000/svg"
   xmlns="http://www.w3.org/2000/svg"
   xmlns:sodipodi="http://sodipodi.sourceforge.net/DTD/sodipodi-0.dtd"
   xmlns:inkscape="http://www.inkscape.org/namespaces/inkscape"
   width="297"
   height="22"
   id="svg3436"
   version="1.1"
   inkscape:version="0.48.4 r9939"
   sodipodi:docname="kusaki.svg">
  <defs
     id="defs3438" />
  <sodipodi:namedview
     id="base"
     pagecolor="#ffffff"
     bordercolor="#666666"
     borderopacity="1.0"
     inkscape:pageopacity="0.0"
     inkscape:pageshadow="2"
     inkscape:zoom="5.6568543"
     inkscape:cx="153.1504"
     inkscape:cy="-0.58874928"
     inkscape:document-units="px"
     inkscape:current-layer="layer1"
     showgrid="false"
     inkscape:window-width="1920"
     inkscape:window-height="1017"
     inkscape:window-x="892"
     inkscape:window-y="250"
     inkscape:window-maximized="1" />
  <metadata
     id="metadata3441">
    <rdf:RDF>
      <cc:Work
         rdf:about="">
        <dc:format>image/svg+xml</dc:format>
        <dc:type
           rdf:resource="http://purl.org/dc/dcmitype/StillImage" />
        <dc:title />
      </cc:Work>
    </rdf:RDF>
  </metadata>
  <g
     inkscape:label="レイヤー 1"
     inkscape:groupmode="layer"
     id="layer1"
     transform="translate(0,-1030.3622)">
    <g
       transform="scale(1.1078908,0.90261602)"
       style="font-size:23.12799263000000100px;font-style:normal;font-variant:normal;font-weight:normal;font-stretch:normal;text-align:center;line-height:100%;letter-spacing:0px;word-spacing:0px;writing-mode:lr-tb;text-anchor:middle;fill:#ffffff;fill-opacity:1;stroke:none;font-family:IPAmjMincho;-inkscape-font-specification:IPAmjMincho"
       id="text3444">
      <path
         d="m 5.0488306,1147.9404 10.6266804,0 0.880851,-0.9938 c 0.903419,0.7002 1.355137,1.1482 1.355156,1.3439 -1.9e-5,0.098 -0.08283,0.2183 -0.248445,0.3614 l -0.463012,0.3726 0,6.5951 -1.321277,0 0,-0.9712 -4.855975,0 0,2.7781 6.798365,0 1.298691,-1.5923 c 0.692614,0.6174 1.272319,1.1933 1.739117,1.7278 l -0.282324,0.4405 -9.553849,0 0,4.4155 -1.3664487,0 0,-4.4155 -9.41833289,0 -0.22585931,-0.576 9.6441922,0 0,-2.7781 -4.833389,0 0,1.118 -1.321277,0 0,-8.5374 c 0.8582599,0.3839 1.3739714,0.6211 1.5471363,0.7114 z m 10.8299534,3.5912 -11.0558127,0 0,2.5409 11.0558127,0 z m 0,-0.576 0,-2.4392 -11.0558127,0 0,2.4392 z m -9.3166961,-5.9062 -6.04173636,0 -0.22585931,-0.5759 6.26759567,0 0,-2.7329 c 1.4831336,0.068 2.2247042,0.2522 2.2247141,0.5533 -9.9e-6,0.1883 -0.308684,0.3991 -0.9260231,0.6324 l 0,1.5472 4.8898541,0 0,-2.7103 c 1.46807,0.075 2.202112,0.2597 2.202128,0.5533 -1.6e-5,0.1958 -0.301162,0.3991 -0.903437,0.6098 l 0,1.5472 3.749264,0 1.197055,-1.502 c 0.617328,0.5722 1.151861,1.118 1.603601,1.6375 l -0.237153,0.4404 -6.312767,0 0,2.044 -1.298691,0 0,-2.044 -4.8898541,0 0,2.044 -1.298691,0 z"
         style="fill:#ffffff"
         id="path3451" />
      <path
         d="m 34.150802,1149.4085 0,13.0095 -1.389035,0 0,-11.9028 c -2.198372,3.9676 -5.191005,7.1711 -8.977907,9.6103 l -0.406547,-0.4856 c 3.990176,-3.1093 6.911286,-6.7833 8.763341,-11.0219 l -8.142228,0 -0.19198,-0.5759 8.955321,0 0,-5.9176 c 1.618646,0.023 2.427974,0.2222 2.427988,0.5986 -1.4e-5,0.2183 -0.346331,0.4404 -1.038953,0.6663 l 0,4.6527 6.154666,0 1.343863,-1.7843 c 0.722729,0.7528 1.268555,1.3928 1.63748,1.9198 l -0.259739,0.4404 -8.548774,0 c 2.19082,3.802 5.405548,6.9301 9.644192,9.3845 -0.444212,0.3237 -0.862051,0.8093 -1.253519,1.4567 -3.794454,-2.7328 -6.700507,-6.0831 -8.718169,-10.0507 z"
         style="fill:#ffffff"
         id="path3453" />
      <path
         d="m 58.735587,1146.9692 1.366449,0 c 0.24843,-0.9787 0.425353,-1.9499 0.530769,-2.9136 l -4.167104,0 -0.248445,-0.5759 8.469724,0 1.151882,-1.4568 c 0.579684,0.4517 1.095396,0.99 1.547136,1.6149 l -0.225859,0.4178 -4.72046,0 c -0.436678,0.9712 -0.993797,1.9424 -1.671358,2.9136 l 3.478233,0 0.835679,-1.0841 c 0.910945,0.7679 1.366428,1.2385 1.366449,1.4116 -2.1e-5,0.1054 -0.06402,0.1958 -0.19198,0.2711 l -0.553356,0.3726 0,10.4121 -1.298691,0 0,-0.9486 -5.849756,0 0,0.9486 -1.321276,0 0,-12.1964 c 0.511935,0.2485 0.914717,0.4593 1.208347,0.6324 z m -0.180688,0.576 0,2.4844 5.849756,0 0,-2.4844 z m 5.849756,9.2828 0,-2.9362 -5.849756,0 0,2.9362 z m 0,-3.5121 0,-2.7103 -5.849756,0 0,2.7103 z m -13.59673,-6.3241 0,-4.7656 c 1.392792,0.023 2.089191,0.1844 2.089199,0.4856 -8e-6,0.1732 -0.278567,0.3727 -0.83568,0.5985 l 0,3.6815 2.36023,0 0.880851,-1.2761 0.248446,0.2597 c 0.421593,0.4442 0.745324,0.8207 0.971195,1.1293 l -0.271031,0.4631 -4.189691,0 0,0.8356 c 2.680188,0.768 4.020285,1.6262 4.020296,2.5748 -1.1e-5,0.512 -0.237163,0.768 -0.711457,0.7679 -0.248455,10e-5 -0.511957,-0.1995 -0.790507,-0.5985 -0.511957,-0.7528 -1.3514,-1.453 -2.518332,-2.1005 l 0,2.8571 -1.253519,0 0,-2.7328 c -1.136829,1.2949 -2.608678,2.4355 -4.415549,3.4217 l -0.372668,-0.5082 c 1.852044,-1.2045 3.354007,-2.7103 4.505893,-4.5171 l -3.817022,0 -0.248445,-0.576 z m 1.02766,9.4861 c 2.635016,1.039 3.952527,2.0892 3.952538,3.1507 -1.1e-5,0.5195 -0.248456,0.7793 -0.745336,0.7793 -0.233397,0 -0.478078,-0.2221 -0.734042,-0.6663 -0.617358,-1.0239 -1.498208,-1.9085 -2.642554,-2.6539 -0.639941,2.1758 -2.397877,3.7606 -5.273815,4.7544 l -0.30491,-0.5308 c 2.951224,-1.4154 4.472009,-3.403 4.562358,-5.9627 l -3.929952,0 -0.259738,-0.5759 4.18969,0 0,-2.2699 c 1.437964,0.068 2.156948,0.2597 2.156956,0.5759 -8e-6,0.1732 -0.278567,0.3539 -0.835679,0.5421 l 0,1.1519 2.269886,0 0.993781,-1.3213 c 0.459236,0.4141 0.888369,0.8997 1.287398,1.4568 l -0.293617,0.4404 -4.257448,0 c -0.02259,0.4291 -0.06776,0.8056 -0.135516,1.1293 z m -4.291327,-13.5967 c 1.543368,0.9938 2.315054,1.9574 2.315058,2.891 -4e-6,0.5571 -0.271035,0.8357 -0.813093,0.8356 -0.338793,10e-5 -0.530773,-0.2145 -0.575941,-0.6436 -0.09035,-0.9486 -0.508187,-1.8521 -1.25352,-2.7104 z m 5.296401,3.5121 c 0.466768,-0.911 0.892136,-2.1043 1.276105,-3.5799 1.181987,0.3689 1.772985,0.7077 1.772996,1.0164 -1.1e-5,0.1882 -0.274806,0.2974 -0.824387,0.3275 -0.579715,0.9712 -1.182006,1.8031 -1.806874,2.4957 z m 9.463505,11.9592 c 3.357754,0.8357 5.03664,1.7768 5.036662,2.8233 -2.2e-5,0.5571 -0.248467,0.8357 -0.745335,0.8357 -0.210824,0 -0.493147,-0.1996 -0.846973,-0.5986 -0.752884,-0.8959 -1.98758,-1.7541 -3.704092,-2.5748 z m -8.401966,3.5121 c 2.198353,-0.9034 3.911117,-2.0816 5.138299,-3.5347 1.106696,0.5346 1.66005,0.9449 1.660066,1.231 -1.6e-5,0.1656 -0.184467,0.2484 -0.553355,0.2484 -0.06025,0 -0.229639,-0.015 -0.508184,-0.045 -1.317526,1.0615 -3.120634,1.9386 -5.40933,2.6312 z"
         style="fill:#ffffff"
         id="path3455" />
      <path
         d="m 75.178146,1165.5236 -0.666285,0.3726 c -2.79313,-3.4406 -4.189692,-7.2576 -4.18969,-11.451 -2e-6,-4.1935 1.39656,-8.0105 4.18969,-11.4511 l 0.666285,0.3953 c -2.19084,3.2523 -3.286256,6.9451 -3.286253,11.0784 -3e-6,4.0955 1.095413,7.7808 3.286253,11.0558 z"
         style="fill:#ffffff"
         id="path3457" />
      <path
         d="m 83.173563,1158.2396 0,0.6663 -1.298691,0 0,-8.8085 c 0.481828,0.1506 0.967425,0.3275 1.456793,0.5307 l 10.287891,0 0.858265,-0.813 c 0.858247,0.5872 1.287379,0.9561 1.287399,1.1067 -2e-5,0.09 -0.06025,0.1844 -0.180688,0.2823 l -0.485597,0.3501 0,7.1032 -1.298691,0 0,-0.4178 z m 0,-5.2964 10.626681,0 0,-1.7391 -10.626681,0 z m 0,0.5759 0,1.6714 10.626681,0 0,-1.6714 z m 0,2.2473 0,1.8973 10.626681,0 0,-1.8973 z m 8.040592,-11.4736 0,0.463 c 0.255959,0.8884 0.850721,1.6601 1.784288,2.3151 1.332552,0.9335 3.150718,1.596 5.454502,1.9875 -0.459268,0.4743 -0.775471,0.9148 -0.948609,1.3213 -3.628823,-1.0615 -5.778249,-2.6049 -6.448283,-4.6301 -0.639948,2.2736 -3.015233,3.7982 -7.125861,4.5736 l -0.327496,-0.5307 c 2.326342,-0.5722 4.076749,-1.502 5.251229,-2.7894 0.707679,-0.783 1.061525,-1.5923 1.061539,-2.428 l 0,-0.2823 -2.676433,0 c -0.692645,0.8131 -1.486916,1.5358 -2.382816,2.1682 l -0.327496,-0.3387 c 1.294918,-1.295 2.228469,-2.8195 2.800656,-4.5737 1.2648,0.2033 1.897205,0.448 1.897218,0.734 -1.3e-5,0.1657 -0.316216,0.32 -0.948609,0.4631 -0.143056,0.2861 -0.342565,0.6098 -0.598528,0.9712 l 7.88249,0 0.880851,-1.039 c 0.956117,0.8809 1.434186,1.4417 1.434207,1.6826 -2.1e-5,0.1281 -0.101658,0.2146 -0.30491,0.2598 l -0.643699,0.1581 c -0.587254,0.5872 -1.35141,1.1594 -2.292472,1.7165 l -0.395254,-0.3501 c 0.594745,-0.6625 1.03517,-1.2798 1.321277,-1.852 z m 6.346646,18.1252 c -0.188237,0 -0.496911,-0.1468 -0.926023,-0.4404 -1.340117,-0.8959 -3.579886,-1.773 -6.719314,-2.6313 l 0.30491,-0.4856 c 5.322732,0.8056 7.984104,1.7542 7.984126,2.8458 -2.2e-5,0.4743 -0.214588,0.7115 -0.643699,0.7115 z m -19.062525,0.1016 -0.327496,-0.5307 c 2.627492,-0.6626 4.965134,-1.7128 7.012931,-3.1508 1.151873,0.5572 1.727814,0.9599 1.727824,1.2084 -1e-5,0.1656 -0.222105,0.2484 -0.666285,0.2484 -0.21834,0 -0.395263,-0.01 -0.530769,-0.023 -2.296243,1.0616 -4.701643,1.8107 -7.216205,2.2473 z m 2.699018,-17.5605 c -0.293621,0 -0.515716,-0.1694 -0.666284,-0.5082 -0.293621,-0.6851 -0.880855,-1.3024 -1.761703,-1.8521 l 0.259738,-0.3839 c 1.927329,0.5797 2.890994,1.2309 2.890999,1.9537 -5e-6,0.527 -0.240921,0.7905 -0.72275,0.7905 z m 3.771851,-1.5472 -3.376597,4.0203 c -0.180692,0.2259 -0.271036,0.4819 -0.271031,0.768 -5e-6,0.1505 0.03011,0.3501 0.09034,0.5985 0.06022,0.2484 0.09034,0.5119 0.09034,0.7905 -5e-6,0.2786 -0.105406,0.5007 -0.316203,0.6663 -0.173164,0.128 -0.368908,0.192 -0.587235,0.192 -0.429136,0 -0.643702,-0.1619 -0.643699,-0.4856 -3e-6,-0.2635 0.03011,-0.5044 0.09034,-0.7228 0.08281,-0.2033 0.124219,-0.4705 0.124223,-0.8018 -4e-6,-0.2258 -0.08282,-0.4028 -0.248446,-0.5308 -0.203276,-0.158 -0.587236,-0.3161 -1.151882,-0.4743 l 0.169394,-0.4178 c 0.534531,0.1129 0.865791,0.1694 0.993781,0.1694 0.308671,0 0.575938,-0.094 0.801801,-0.2823 0.496886,-0.399 1.178227,-1.0164 2.044027,-1.8521 0.7905,-0.7604 1.404084,-1.3928 1.840753,-1.8972 z"
         style="fill:#ffffff"
         id="path3459" />
      <path
         d="m 118.55442,1153.5191 -2.51833,0 0,6.8888 c -2e-5,1.2648 -0.72653,1.8972 -2.17954,1.8972 -2e-5,-0.4517 -0.2447,-0.783 -0.73404,-0.9938 -0.37645,-0.1506 -1.02391,-0.3049 -1.94239,-0.463 l 0,-0.6211 c 1.14434,0.1505 2.05907,0.2258 2.74419,0.2258 0.52699,0 0.79049,-0.2447 0.7905,-0.734 l 0,-6.1999 -2.45057,0 0,1.1293 -1.29869,0 0,-8.6391 0.28232,0.1355 c 0.39901,0.1732 0.78297,0.3652 1.15189,0.576 l 1.54713,0 c 0.2409,-0.9411 0.41406,-1.8671 0.51948,-2.7781 l -5.22864,0 0,5.7594 c -1e-5,5.6992 -1.22718,9.9491 -3.68151,12.7498 l -0.46301,-0.3953 c 1.86709,-2.9286 2.80064,-7.0393 2.80065,-12.3319 l 0,-7.0694 c 0.49688,0.1807 1.02765,0.4179 1.59231,0.7115 l 9.68936,0 1.14059,-1.4794 c 0.0903,0.075 0.19196,0.1694 0.30491,0.2823 0.54204,0.5195 0.96365,0.9486 1.26482,1.2874 l -0.24845,0.4856 -5.36416,0 c -0.4442,0.9185 -0.97874,1.8445 -1.6036,2.7781 l 3.68151,0 0.82438,-0.9938 c 0.96365,0.7228 1.44548,1.1933 1.4455,1.4116 -2e-5,0.1054 -0.0715,0.2033 -0.21456,0.2936 l -0.55336,0.3727 0,6.7984 -1.29869,0 z m 0,-0.5759 0,-2.6426 -6.29018,0 0,2.6426 z m 0,-3.2185 0,-2.428 -6.29018,0 0,2.428 z m -17.43634,-2.6313 c 1.79935,0.7153 2.69902,1.5773 2.69902,2.5861 0,0.5873 -0.27103,0.8809 -0.81309,0.8809 -0.36138,0 -0.57595,-0.207 -0.6437,-0.6211 -0.18069,-0.9336 -0.70393,-1.7542 -1.56972,-2.4619 z m 1.6149,-5.0027 c 1.89721,0.6023 2.84582,1.4191 2.84582,2.4505 0,0.6023 -0.27856,0.9035 -0.83568,0.9035 -0.30115,0 -0.50818,-0.2372 -0.62111,-0.7115 -0.2108,-0.8356 -0.78298,-1.5622 -1.71653,-2.1795 z m 14.73732,13.3031 c 1.46806,0.8357 2.63124,1.837 3.48952,3.0039 0.38394,0.5195 0.57592,1.0277 0.57594,1.5246 -2e-5,0.6474 -0.27105,0.9712 -0.81309,0.9712 -0.35387,0 -0.62113,-0.3087 -0.8018,-0.9261 -0.44421,-1.4681 -1.37776,-2.8533 -2.80066,-4.1558 z m -9.32799,5.6239 c 1.32503,-1.4832 2.3301,-3.3202 3.01522,-5.511 1.32503,0.512 1.98755,0.9223 1.98756,1.2309 -1e-5,0.2033 -0.33127,0.3162 -0.99378,0.3388 -0.85828,1.7843 -2.06286,3.2411 -3.61375,4.3704 z m -0.94861,-14.8729 -2.86841,10.1072 c -0.25598,0.9487 -0.38397,1.5698 -0.38397,1.8634 0,0.1731 0.0301,0.3839 0.0904,0.6324 0.2108,1.0766 0.3162,1.8294 0.3162,2.2586 0,0.9109 -0.35385,1.3664 -1.06154,1.3664 -0.51948,0 -0.77921,-0.271 -0.77921,-0.8131 0,-0.023 0.0188,-0.1656 0.0565,-0.4291 0.0527,-0.3764 0.0979,-0.6851 0.13552,-0.926 0.0903,-0.5873 0.13551,-1.1067 0.13551,-1.5584 0,-1.2347 -0.59476,-1.9575 -1.78428,-2.1683 l 0,-0.5985 c 0.29361,0.045 0.53829,0.068 0.73404,0.068 0.72275,0 1.20834,-0.2635 1.45679,-0.7905 0.80556,-1.6036 1.80687,-4.3064 3.00393,-8.1083 l 0.39525,-1.2987 z"
         style="fill:#ffffff"
         id="path3461" />
      <path
         d="m 135.67455,1152.4802 c 2.95122,1.2347 5.09311,2.5296 6.4257,3.8848 0.69262,0.67 1.03893,1.2422 1.03895,1.7165 -2e-5,0.7378 -0.27858,1.1067 -0.83567,1.1067 -0.22588,0 -0.46304,-0.192 -0.71146,-0.5759 -1.47563,-2.1683 -3.59494,-4.0128 -6.35794,-5.5336 -1.39281,1.6337 -2.88725,3.0002 -4.48331,4.0994 -1.4982,1.0314 -3.22603,1.9311 -5.18347,2.699 l -0.25974,-0.6437 c 3.28249,-1.7241 5.91374,-3.689 7.89379,-5.8949 1.83697,-2.0554 3.31635,-4.5323 4.43813,-7.4308 -2.83831,0.3764 -4.9915,0.6776 -6.45958,0.9034 -0.38396,0.068 -0.6437,0.1318 -0.77921,0.192 -0.21081,0.075 -0.42914,0.1129 -0.65499,0.1129 -0.24845,0 -0.56842,-0.2446 -0.9599,-0.734 -0.34633,-0.4291 -0.61736,-0.8921 -0.8131,-1.389 l 0.55336,-0.3275 c 0.33878,0.3839 0.60981,0.6286 0.81309,0.734 0.24091,0.128 0.55335,0.192 0.93732,0.192 1.65629,0 3.89229,-0.1769 6.70802,-0.5308 0.35383,-0.045 0.67003,-0.1618 0.94861,-0.3501 0.23337,-0.1355 0.39524,-0.2032 0.4856,-0.2032 0.15055,0 0.43664,0.207 0.85826,0.6211 0.41406,0.4216 0.6211,0.7303 0.62111,0.926 -1e-5,0.1732 -0.10165,0.3049 -0.30491,0.3952 -0.31622,0.1431 -0.59101,0.4518 -0.82438,0.9261 -0.94863,1.9273 -1.98005,3.6288 -3.09428,5.1044 z"
         style="fill:#ffffff"
         id="path3463" />
      <path
         d="m 159.05099,1150.583 c -0.11294,2.7705 -0.58348,4.9275 -1.41162,6.4708 -1.01638,1.9349 -2.64256,3.4256 -4.87856,4.4721 l -0.39525,-0.5647 c 1.96496,-1.2347 3.35023,-2.8044 4.15581,-4.7092 0.60228,-1.4455 0.91095,-3.29 0.92602,-5.5335 -2.26613,0.2334 -4.06171,0.4517 -5.38674,0.655 -0.27857,0.045 -0.49314,0.098 -0.6437,0.1581 -0.21834,0.06 -0.37268,0.09 -0.46302,0.09 -0.39902,0 -0.83568,-0.2296 -1.30998,-0.6888 -0.39902,-0.3765 -0.74157,-0.8319 -1.02766,-1.3665 l 0.4856,-0.4178 c 0.51194,0.4065 0.90343,0.6663 1.17447,0.7792 0.27855,0.1129 0.62863,0.1694 1.05024,0.1694 1.11424,0 3.46317,-0.1544 7.04681,-0.463 3.17707,-0.2786 4.92748,-0.4781 5.25123,-0.5986 0.4517,-0.1731 0.84696,-0.2597 1.18576,-0.2597 0.60227,0 1.08787,0.1167 1.4568,0.3501 0.33876,0.2108 0.50816,0.4818 0.50818,0.8131 -2e-5,0.3388 -0.3087,0.5082 -0.92602,0.5082 l -2.29248,-0.056 c -0.91851,0 -2.42047,0.064 -4.50589,0.192 z m -6.87742,-6.5612 c 0.70016,0.5947 1.37021,0.8921 2.01015,0.8921 1.32503,0 3.04533,-0.1242 5.16089,-0.3727 0.60228,-0.075 1.10293,-0.207 1.50196,-0.3952 0.27855,-0.1355 0.50064,-0.2033 0.66629,-0.2033 0.45923,0 0.87707,0.098 1.25352,0.2936 0.35383,0.1883 0.53075,0.4141 0.53077,0.6776 -2e-5,0.3539 -0.26352,0.5383 -0.79051,0.5534 -2.77056,0.1129 -5.42064,0.3086 -7.95025,0.5872 -0.10541,0.015 -0.2221,0.038 -0.35008,0.068 -0.1807,0.045 -0.35762,0.068 -0.53077,0.068 -0.59477,0 -1.25729,-0.5947 -1.98756,-1.7843 z"
         style="fill:#ffffff"
         id="path3465" />
      <path
         d="m 172.02661,1150.4926 c 0.71521,0.768 1.4869,1.1519 2.31505,1.1519 1.37774,0 2.73289,-0.03 4.06547,-0.09 1.62618,-0.068 3.94123,-0.1995 6.94517,-0.3953 0.88837,-0.053 1.49066,-0.1317 1.80688,-0.2371 0.24843,-0.09 0.46299,-0.1355 0.6437,-0.1356 0.41405,10e-5 0.83189,0.1092 1.25352,0.3275 0.44417,0.2259 0.66626,0.4969 0.66628,0.8131 -2e-5,0.4593 -0.30116,0.6889 -0.90344,0.6889 -0.3388,0 -0.72276,-0.015 -1.15188,-0.045 -0.63242,-0.045 -1.32882,-0.068 -2.0892,-0.068 -1.87464,0 -5.30394,0.1694 -10.28789,0.5082 -0.33126,0.023 -0.62488,0.075 -0.88085,0.1581 -0.21833,0.06 -0.40279,0.09 -0.55335,0.09 -0.80557,0 -1.57726,-0.7905 -2.31506,-2.3715 z"
         style="fill:#ffffff"
         id="path3467" />
      <path
         d="m 198.99422,1143.7394 c 1.45302,0.2711 2.62372,0.7454 3.51211,1.4229 0.70768,0.5421 1.06153,1.0767 1.06154,1.6037 -1e-5,0.271 -0.0791,0.4969 -0.23715,0.6775 -0.15811,0.1807 -0.36515,0.2711 -0.62111,0.2711 -0.30116,0 -0.55337,-0.1845 -0.75663,-0.5534 -0.68512,-1.1895 -1.75795,-2.1306 -3.2185,-2.8232 z m -3.01522,4.393 c 1.56595,0.3087 2.77053,0.7943 3.61375,1.4568 0.67757,0.5421 1.01636,1.1105 1.01636,1.7052 0,0.5722 -0.28609,0.8583 -0.85826,0.8583 -0.26351,0 -0.53078,-0.207 -0.8018,-0.6211 -0.82063,-1.2573 -1.88593,-2.1908 -3.19591,-2.8007 z m 1.51326,9.2264 c 0.61734,0.6775 1.08788,1.0163 1.41162,1.0163 0.39148,0 1.09164,-0.2484 2.10049,-0.7453 0.91848,-0.4593 1.92732,-1.0503 3.02651,-1.773 3.14696,-2.0854 6.08313,-4.9764 8.80851,-8.673 l 0.56465,0.4404 c -1.68643,2.8383 -3.63258,5.2475 -5.83846,7.2275 -1.84453,1.6488 -4.07677,3.1922 -6.69673,4.6301 -0.55713,0.3087 -0.98249,0.5195 -1.2761,0.6324 -0.20328,0.075 -0.37268,0.113 -0.50819,0.113 -0.33126,0 -0.70393,-0.2598 -1.118,-0.7792 -0.36891,-0.4593 -0.68888,-1.0315 -0.9599,-1.7166 z"
         style="fill:#ffffff"
         id="path3469" />
      <path
         d="m 230.25315,1158.2057 c 0.12797,-1.8897 0.20702,-3.2749 0.23715,-4.1558 -2.29625,0.2334 -4.0316,0.4329 -5.20606,0.5985 -0.47431,0.075 -0.76793,0.1393 -0.88085,0.192 -0.17317,0.075 -0.31998,0.113 -0.44043,0.113 -0.5496,0 -1.18953,-0.5045 -1.9198,-1.5133 l 0.44043,-0.4066 c 0.55711,0.4141 1.17446,0.6212 1.85204,0.6212 0.48935,0 1.054,-0.03 1.69395,-0.09 0.71521,-0.06 2.21717,-0.2145 4.50589,-0.463 l 0.18069,-3.3314 c -2.6501,0.2258 -4.6753,0.4329 -6.07562,0.6211 -0.38397,0.045 -0.63994,0.087 -0.76792,0.1242 -0.22587,0.06 -0.40279,0.09 -0.53077,0.09 -0.42161,0 -1.00132,-0.5195 -1.73912,-1.5585 l 0.41784,-0.4178 c 0.44419,0.3162 0.79803,0.5119 1.06154,0.5872 0.22585,0.06 0.58346,0.09 1.07283,0.09 0.76039,0 1.95368,-0.06 3.57987,-0.1807 0.8432,-0.06 1.60736,-0.1393 2.29248,-0.2372 0.25596,-0.022 0.47052,-0.1054 0.6437,-0.2484 0.19572,-0.1732 0.35006,-0.2597 0.46301,-0.2598 0.21831,1e-4 0.54957,0.2222 0.99378,0.6663 0.30865,0.3087 0.46299,0.5647 0.46301,0.768 -2e-5,0.1581 -0.10165,0.335 -0.30491,0.5307 -0.21082,0.2409 -0.32375,0.5421 -0.33879,0.9035 -0.14306,1.8821 -0.31998,4.0955 -0.53077,6.6402 0.21079,0.068 0.40277,0.1958 0.57594,0.384 0.16562,0.1807 0.24843,0.3538 0.24845,0.5195 -2e-5,0.1882 -0.0715,0.3086 -0.21457,0.3613 -0.128,0.045 -0.39527,0.068 -0.8018,0.068 -1.837,0 -4.18594,0.1807 -7.04681,0.5421 -0.25598,0.038 -0.4442,0.083 -0.56465,0.1355 -0.14305,0.06 -0.27104,0.09 -0.38396,0.09 -0.51948,0 -1.11424,-0.5872 -1.78429,-1.7617 l 0.44043,-0.3388 c 0.66251,0.5195 1.21587,0.7792 1.66006,0.7792 0.48936,0 1.23846,-0.038 2.2473,-0.1129 1.33256,-0.083 2.81947,-0.1995 4.46073,-0.3501 z"
         style="fill:#ffffff"
         id="path3471" />
      <path
         d="m 243.37557,1144.688 c 1.8144,0.5346 3.13944,1.2046 3.97512,2.0102 0.67757,0.6324 1.01636,1.2347 1.01637,1.8069 -1e-5,0.783 -0.29363,1.1744 -0.88085,1.1744 -0.25598,0 -0.56466,-0.3011 -0.92602,-0.9034 -0.86581,-1.4605 -2.02898,-2.6388 -3.48953,-3.5347 z m 0.33879,12.5352 c 0.41407,0.6174 0.83944,0.9261 1.2761,0.9261 0.51194,0 1.25351,-0.256 2.22472,-0.768 4.90113,-2.5597 8.79344,-5.989 11.67692,-10.2879 l 0.53077,0.4631 c -1.48316,2.5974 -3.15075,4.7656 -5.00278,6.5047 -1.76172,1.6638 -3.98643,3.2411 -6.67414,4.7318 -0.89592,0.4893 -1.43798,0.8131 -1.62619,0.9712 -0.27857,0.2484 -0.63241,0.3726 -1.06154,0.3726 -0.23339,0 -0.55336,-0.2597 -0.9599,-0.7792 -0.3915,-0.5119 -0.69641,-1.1029 -0.91473,-1.773 z"
         style="fill:#ffffff"
         id="path3473" />
      <path
         d="m 263.88358,1142.9941 c 2.79312,3.4331 4.18968,7.2501 4.18969,11.4511 -10e-6,4.1934 -1.39657,8.0104 -4.18969,11.451 l -0.66629,-0.3726 c 2.19083,-3.275 3.28625,-6.9603 3.28625,-11.0558 0,-4.1107 -1.09542,-7.8035 -3.28625,-11.0784 z"
         style="fill:#ffffff"
         id="path3475" />
    </g>
  </g>
</svg>
