<?xml version="1.0" encoding="UTF-8" standalone="no"?>
<!-- Created with Inkscape (http://www.inkscape.org/) -->

<svg
   xmlns:dc="http://purl.org/dc/elements/1.1/"
   xmlns:cc="http://creativecommons.org/ns#"
   xmlns:rdf="http://www.w3.org/1999/02/22-rdf-syntax-ns#"
   xmlns:svg="http://www.w3.org/2000/svg"
   xmlns="http://www.w3.org/2000/svg"
   xmlns:sodipodi="http://sodipodi.sourceforge.net/DTD/sodipodi-0.dtd"
   xmlns:inkscape="http://www.inkscape.org/namespaces/inkscape"
   width="122"
   height="47"
   id="svg3220"
   version="1.1"
   inkscape:version="0.48.4 r9939"
   sodipodi:docname="moyasugomi.svg">
  <defs
     id="defs3222" />
  <sodipodi:namedview
     id="base"
     pagecolor="#ffffff"
     bordercolor="#666666"
     borderopacity="1.0"
     inkscape:pageopacity="0.0"
     inkscape:pageshadow="2"
     inkscape:zoom="11.313709"
     inkscape:cx="57.326423"
     inkscape:cy="23.204927"
     inkscape:document-units="px"
     inkscape:current-layer="layer1"
     showgrid="false"
     inkscape:window-width="1920"
     inkscape:window-height="1017"
     inkscape:window-x="892"
     inkscape:window-y="250"
     inkscape:window-maximized="1" />
  <metadata
     id="metadata3225">
    <rdf:RDF>
      <cc:Work
         rdf:about="">
        <dc:format>image/svg+xml</dc:format>
        <dc:type
           rdf:resource="http://purl.org/dc/dcmitype/StillImage" />
        <dc:title />
      </cc:Work>
    </rdf:RDF>
  </metadata>
  <g
     inkscape:label="レイヤー 1"
     inkscape:groupmode="layer"
     id="layer1"
     transform="translate(0,-1005.3622)">
    <g
       transform="scale(1.0477923,0.95438767)"
       style="font-size:23.73811721999999900px;font-style:normal;font-variant:normal;font-weight:normal;font-stretch:normal;text-align:center;line-height:100%;letter-spacing:0px;word-spacing:0px;writing-mode:lr-tb;text-anchor:middle;fill:#ffffff;fill-opacity:1;stroke:none;font-family:IPAmjMincho;-inkscape-font-specification:IPAmjMincho"
       id="text3228">
      <path
         d="m 15.170461,1059.8938 c 0.04635,-0.5486 0.06953,-1.132 0.06955,-1.7502 l 0,-4.08 c 1.491341,0.023 2.237021,0.2048 2.237039,0.5448 -1.8e-5,0.1623 -0.309108,0.3516 -0.92727,0.568 l 0,3.0368 c -1.8e-5,0.6027 -0.0232,1.1629 -0.06955,1.6806 l 2.538403,0 0.92727,-1.0895 c 0.479068,0.3632 0.923385,0.7805 1.332951,1.2518 l -0.26659,0.4289 -4.369761,0 c 0.90407,2.8977 2.607927,5.2159 5.111577,6.9545 -0.463658,0.3014 -0.846156,0.7148 -1.147497,1.2402 -2.271831,-1.9627 -3.705235,-4.4084 -4.300216,-7.337 -0.494561,3.3459 -2.291145,5.8766 -5.389758,7.592 l -0.347726,-0.4752 c 2.704524,-1.9936 4.222927,-4.6518 4.555215,-7.9745 l -2.399312,0 c -0.981373,3.3382 -2.7779577,6.0929 -5.389758,8.2643 l -0.3824989,-0.4289 c 1.1590787,-1.2132 2.148166,-2.55 2.9672646,-4.0104 -0.3091005,-0.023 -0.5215997,-0.2396 -0.6374982,-0.6491 -0.216373,-0.6105 -0.6993258,-1.1475 -1.4488597,-1.6112 -0.5177341,0.8269 -1.1900043,1.6807 -2.0168127,2.5616 l -0.4288625,-0.3245 c 1.970441,-2.7354 3.1797546,-6.1586 3.6279447,-10.2695 1.4140757,0.1391 2.1211187,0.367 2.1211307,0.6838 -1.2e-5,0.1778 -0.301375,0.3516 -0.904089,0.5216 -0.154556,0.765 -0.2588734,1.2634 -0.3129533,1.4952 l 2.1906763,0 0.753407,-1.02 c 0.85771,0.711 1.286572,1.1785 1.286587,1.4025 -1.5e-5,0.093 -0.0657,0.1778 -0.197045,0.255 l -0.544771,0.2898 c -0.255013,1.1591 -0.428876,1.9087 -0.52159,2.2486 z m -5.4129395,-2.5847 c -0.1545556,0.5873 -0.3052368,1.1089 -0.4520443,1.5647 1.0818038,0.2628 1.8352098,0.6723 2.2602208,1.2287 0.254987,-0.9273 0.459759,-1.8584 0.614317,-2.7934 z m 0.6838615,5.9577 0.06954,-0.1739 c 0.216352,-0.4868 0.440442,-1.0625 0.672271,-1.727 -0.324556,-0.023 -0.548646,-0.1893 -0.672271,-0.4984 -0.200919,-0.5177 -0.6645539,-1.0084 -1.3909048,-1.4721 -0.2859181,0.7419 -0.6259168,1.4682 -1.0199972,2.1791 1.2595317,0.3632 2.039983,0.9273 2.341357,1.6923 z m -6.0620287,-1.9705 c 0.6413559,-1.2827 1.1783994,-2.6929 1.611132,-4.2306 1.0277165,0.7418 1.5415782,1.2673 1.5415867,1.5763 -8.5e-6,0.1391 -0.1197807,0.2087 -0.3593172,0.2087 -0.1390985,0 -0.2550072,-0.01 -0.3477264,-0.023 -0.7418231,1.2595 -1.5570473,2.407 -2.4456751,3.4425 l 0,2.2602 c -5.3e-6,0.9736 -0.030914,1.7232 -0.092727,2.2486 1.9781692,1.4528 2.9672565,2.7741 2.9672646,3.9641 -8.1e-6,0.6027 -0.2550072,0.9041 -0.7649979,0.9041 -0.3477334,0 -0.606596,-0.3245 -0.7765888,-0.9736 -0.2395512,-1.0664 -0.7379584,-2.1096 -1.4952232,-3.1296 -0.4095491,3.1373 -1.6613626,5.7066 -3.75544434,7.708 l -0.45204422,-0.4057 c 2.05544596,-2.4805 3.08316946,-5.9384 3.08317346,-10.3739 l 0,-10.2695 c 1.522263,0.023 2.2833966,0.2048 2.2834028,0.5448 -6.2e-6,0.1855 -0.3322777,0.398 -0.9968154,0.6375 z M 17.79,1055.2227 c 1.614975,0.6646 2.422472,1.4219 2.422493,2.2718 -2.1e-5,0.5255 -0.262747,0.7882 -0.78818,0.7882 -0.370928,0 -0.591154,-0.2202 -0.66068,-0.6607 -0.146837,-0.7572 -0.552517,-1.4295 -1.217042,-2.0168 z m -6.525664,14.1177 c 1.05862,1.4836 1.587936,2.8436 1.58795,4.08 -1.4e-5,0.9041 -0.309104,1.3561 -0.92727,1.3561 -0.455921,0 -0.683874,-0.2434 -0.683862,-0.7302 -1.2e-5,-0.031 0.0039,-0.1043 0.01159,-0.2202 0.01544,-0.1391 0.02703,-0.2589 0.03477,-0.3593 0.0309,-0.3169 0.04635,-0.5912 0.04636,-0.823 -1.2e-5,-0.8732 -0.181603,-1.8932 -0.544771,-3.06 z m 3.036809,-0.2086 c 1.75407,1.5377 2.631112,3.0097 2.63113,4.4161 -1.8e-5,0.7264 -0.285926,1.0895 -0.857725,1.0895 -0.463652,0 -0.70706,-0.2936 -0.730226,-0.8809 -0.06956,-1.4063 -0.552514,-2.8436 -1.448859,-4.3118 z m -13.1092821,-10.0145 0.6027257,0.07 c 0.2472691,1.2596 0.370905,2.3646 0.3709081,3.315 -3.1e-6,0.8036 -0.069548,1.4759 -0.2086358,2.0168 -0.2395474,0.935 -0.6143188,1.4025 -1.12431516,1.4025 -0.45590912,0 -0.68386281,-0.2357 -0.68386177,-0.707 -1.04e-6,-0.1546 0.0965895,-0.4096 0.28977194,-0.765 0.51772401,-0.9968 0.77658669,-2.4689 0.77658879,-4.4162 -2.1e-6,-0.309 -0.00773,-0.6143 -0.023182,-0.9156 z M 17.79,1068.7493 c 2.611789,1.8313 3.917694,3.4541 3.917716,4.8681 -2.2e-5,0.7264 -0.293658,1.0896 -0.880906,1.0896 -0.409566,0 -0.683883,-0.34 -0.822953,-1.02 -0.340019,-1.5455 -1.197744,-3.0639 -2.573175,-4.5552 z m -9.4697474,0.6375 0.5911348,0.2202 c -0.023192,1.9859 -0.386372,3.5429 -1.0895425,4.6711 -0.4559161,0.7109 -0.9543233,1.0664 -1.4952232,1.0664 -0.5254598,0 -0.7881861,-0.2512 -0.7881797,-0.7534 -6.4e-6,-0.2396 0.22022,-0.5332 0.66068,-0.8809 1.0972616,-0.8423 1.8043044,-2.2834 2.1211306,-4.3234 z"
         style="fill:#ffffff"
         id="path3237" />
      <path
         d="m 30.389283,1062.0613 c -0.718641,-1.8313 -1.193866,-2.9865 -1.425677,-3.4656 -0.231824,-0.4637 -0.475232,-0.7534 -0.730226,-0.8693 -0.177732,-0.077 -0.525458,-0.1275 -1.043179,-0.1507 l 0,-0.6723 c 0.533176,-0.1082 1.132037,-0.1623 1.796586,-0.1623 0.602719,0 1.000672,0.3246 1.193861,0.9737 0.479081,1.5686 0.90408,2.8591 1.274996,3.8713 3.577706,-1.7386 6.309286,-2.6079 8.194751,-2.6079 1.429523,0 2.596337,0.3825 3.500445,1.1475 0.834522,0.7032 1.251793,1.6111 1.251814,2.7238 -2.1e-5,1.3909 -0.540928,2.4805 -1.622722,3.2686 -0.850017,0.6182 -1.854559,0.9273 -3.013629,0.9273 -1.421829,0 -2.812733,-0.3168 -4.172715,-0.9504 l 0.254999,-0.6607 c 1.004529,0.3168 2.082479,0.4752 3.233855,0.4752 1.104979,0 2.016794,-0.3013 2.735447,-0.9041 0.695433,-0.595 1.043159,-1.3793 1.043179,-2.3529 -2e-5,-0.935 -0.370928,-1.6421 -1.112725,-2.1212 -0.602743,-0.3863 -1.387059,-0.5795 -2.352948,-0.5795 -1.730919,0 -4.242273,0.8925 -7.53407,2.6775 l 1.541587,3.8713 c 0.973622,2.295 1.75021,4.1844 2.329766,5.668 0.208623,0.4636 0.312941,0.9466 0.312954,1.4488 -1.3e-5,0.6646 -0.278194,0.9969 -0.834543,0.9969 -0.309103,0 -0.618192,-0.5062 -0.927271,-1.5184 -1.043189,-3.2996 -2.190685,-6.6068 -3.44249,-9.9218 -1.267276,0.7341 -2.287272,1.36 -3.059992,1.8777 -0.425003,0.3014 -0.757275,0.452 -0.996815,0.452 -0.29364,0 -0.629775,-0.1661 -1.008407,-0.4984 -0.355456,-0.3091 -0.683864,-0.707 -0.985224,-1.1938 l 0.40568,-0.4984 c 0.47136,0.3863 0.880904,0.5795 1.228633,0.5795 0.200905,0 0.502268,-0.097 0.904089,-0.2898 0.363176,-0.1854 1.383172,-0.6993 3.059991,-1.5416 z m 2.492039,-7.1515 c 1.491348,0.1159 2.727707,0.4559 3.709081,1.02 0.63362,0.3786 0.950437,0.8307 0.950452,1.3561 -1.5e-5,0.2859 -0.08115,0.5216 -0.243408,0.707 -0.146833,0.1778 -0.33615,0.2666 -0.567953,0.2666 -0.262741,0 -0.556376,-0.2047 -0.880907,-0.6143 -0.819101,-1.0045 -1.877733,-1.6961 -3.175901,-2.0748 z"
         style="fill:#ffffff"
         id="path3239" />
      <path
         d="m 58.926024,1058.9202 c 0.01544,-0.2859 0.02317,-0.7843 0.02318,-1.4952 0.01544,-0.7264 -0.0116,-1.2286 -0.08114,-1.5068 -0.04638,-0.2241 -0.14683,-0.4173 -0.301363,-0.5796 -0.170012,-0.1468 -0.556374,-0.2511 -1.159088,-0.3129 l 0.02318,-0.6607 c 0.548623,-0.046 0.981349,-0.07 1.298178,-0.07 1.205438,0 1.808163,0.3477 1.808177,1.0431 -1.4e-5,0.1314 -0.01547,0.2744 -0.04636,0.4289 -0.108195,0.8964 -0.193195,1.9009 -0.254999,3.0136 0.40953,-0.039 1.711571,-0.1584 3.906126,-0.3593 1.166796,-0.1082 2.028384,-0.1623 2.584766,-0.1623 1.220884,0 1.831336,0.3323 1.831358,0.9968 -2.2e-5,0.4405 -0.212521,0.6607 -0.637498,0.6607 -0.06957,0 -0.258884,-0.023 -0.567953,-0.069 -1.267289,-0.1546 -2.685238,-0.2318 -4.253852,-0.2318 -1.205467,0 -2.186827,0.031 -2.944083,0.093 -0.03092,1.1359 -0.06956,2.5114 -0.115909,4.1263 0.540894,1.0123 0.811347,2.2139 0.811362,3.6048 -1.5e-5,3.6009 -2.271824,6.1432 -6.815436,7.6268 l -0.336136,-0.6375 c 2.248621,-1.0432 3.821115,-2.1829 4.717487,-3.4193 0.656804,-0.9195 1.031576,-2.0361 1.124316,-3.3498 -0.355467,1.1669 -1.2016,1.7503 -2.538403,1.7503 -0.811371,0 -1.483641,-0.3478 -2.016812,-1.0432 -0.486825,-0.6182 -0.730233,-1.3755 -0.730226,-2.2718 -7e-6,-1.0973 0.35931,-1.9782 1.077952,-2.6428 0.594989,-0.564 1.309759,-0.8461 2.144312,-0.8461 0.463624,0 0.946577,0.1159 1.44886,0.3477 l 0,-3.1759 c -2.302731,0.2241 -4.906812,0.6685 -7.812251,1.333 -0.417276,0.077 -0.710911,0.1159 -0.880907,0.1159 -0.363184,0 -0.714774,-0.2627 -1.05477,-0.7882 -0.301365,-0.4482 -0.533182,-1.0161 -0.695453,-1.7038 l 0.567953,-0.2898 c 0.509996,0.8268 1.070221,1.2402 1.680678,1.2402 0.339994,0 1.274991,-0.081 2.804992,-0.2434 1.645896,-0.1468 3.44248,-0.3207 5.389758,-0.5216 z m 0.139091,6.9082 c -1.3e-5,-0.8346 -0.200921,-1.4721 -0.602726,-1.9125 -0.293647,-0.3323 -0.63751,-0.4984 -1.031588,-0.4984 -0.664554,0 -1.182279,0.2743 -1.553178,0.8229 -0.309099,0.4714 -0.463644,1.0818 -0.463635,1.8314 -9e-6,0.7418 0.193172,1.3329 0.579544,1.7734 0.339989,0.3786 0.761124,0.5679 1.263406,0.5679 0.571805,0 1.027712,-0.2704 1.367723,-0.8113 0.293623,-0.4714 0.440441,-1.0625 0.440454,-1.7734 z"
         style="fill:#ffffff"
         id="path3241" />
      <path
         d="m 78.815974,1061.4818 c 1.506804,-1.0818 2.839753,-1.9975 3.998852,-2.747 -0.710918,0.093 -1.367734,0.1391 -1.970449,0.139 -1.839094,10e-5 -3.218407,-0.537 -4.137943,-1.6111 l 0.428862,-0.5216 c 0.927263,0.6337 1.993623,0.9505 3.199083,0.9505 1.089531,0 2.395435,-0.1121 3.917716,-0.3362 0.834529,-0.1081 1.371572,-0.1622 1.611132,-0.1622 0.43271,0 0.757255,0.089 0.973634,0.2666 0.254982,0.1932 0.382482,0.452 0.382499,0.7765 -1.7e-5,0.3478 -0.270471,0.5217 -0.811362,0.5216 -0.965921,10e-5 -1.738645,0.1276 -2.318175,0.3825 -0.834556,0.3787 -2.441823,1.3407 -4.821805,2.8862 z m -3.512036,5.6332 c 0.370903,1.5841 1.132036,2.6968 2.283403,3.3381 0.98908,0.5409 2.484301,0.8114 4.485669,0.8114 2.217708,0 4.052928,-0.2357 5.505667,-0.707 0.309073,-0.077 0.556344,-0.116 0.741816,-0.116 0.486799,0 0.834525,0.1198 1.043179,0.3594 0.123617,0.1622 0.185435,0.3361 0.185454,0.5215 -1.9e-5,0.4019 -0.2357,0.6607 -0.707043,0.7766 -1.48365,0.3941 -3.550687,0.5912 -6.20112,0.5912 -2.658184,0 -4.628631,-0.4521 -5.911347,-1.3562 -1.213184,-0.8654 -1.916363,-2.2099 -2.10954,-4.0336 z m 12.471784,-12.0661 c 1.019979,0.3554 1.819749,0.8036 2.399312,1.3445 0.502251,0.4559 0.753386,0.9118 0.753407,1.3677 -2.1e-5,0.5564 -0.235702,0.8346 -0.707044,0.8346 -0.332291,0 -0.595017,-0.2473 -0.788179,-0.7419 -0.370927,-0.8886 -1.043198,-1.6652 -2.016813,-2.3297 z m 2.179085,-1.6344 c 1.004522,0.3014 1.819746,0.7303 2.445675,1.2866 0.525431,0.4714 0.788157,0.9273 0.78818,1.3678 -2.3e-5,0.5563 -0.227977,0.8345 -0.683862,0.8345 -0.309112,0 -0.579565,-0.2588 -0.811361,-0.7766 -0.355475,-0.7804 -1.054791,-1.5261 -2.097949,-2.237 z"
         style="fill:#ffffff"
         id="path3243" />
      <path
         d="m 104.19999,1064.9591 c -1.445,2.6118 -2.58091,4.389 -3.40772,5.3318 -0.85,0.9659 -1.676815,1.4488 -2.480444,1.4488 -0.664547,0 -1.182273,-0.2511 -1.553178,-0.7534 -0.309092,-0.4095 -0.463637,-0.9157 -0.463635,-1.5184 -2e-6,-0.9659 0.251133,-1.8507 0.753407,-2.6543 0.463632,-0.7418 1.097266,-1.3445 1.900904,-1.8082 1.259536,-0.7109 2.723846,-1.0663 4.392946,-1.0663 0.81135,-1.6923 1.69225,-3.9255 2.64272,-6.6996 -1.08183,0.2937 -2.17523,0.5719 -3.28022,0.8346 -0.3941,0.093 -0.75728,0.1893 -1.08954,0.2897 -0.26274,0.077 -0.45978,0.116 -0.59114,0.116 -0.85,0 -1.360001,-0.738 -1.529995,-2.2139 l 0.649085,-0.1623 c 0.27045,0.6955 0.68,1.0432 1.22864,1.0432 0.77271,0 1.97816,-0.197 3.61635,-0.5911 0.5409,-0.1082 0.91181,-0.228 1.11273,-0.3593 0.21635,-0.1391 0.38248,-0.2087 0.4984,-0.2087 0.19317,0 0.44044,0.1507 0.74182,0.4521 0.40953,0.3554 0.6143,0.6877 0.61432,0.9968 -2e-5,0.1468 -0.0811,0.2743 -0.24341,0.3825 -0.23956,0.1391 -0.45979,0.4289 -0.66068,0.8693 -0.76501,1.7618 -1.58024,3.5507 -2.44568,5.3666 2.10953,0.3091 4.3002,1.0045 6.57203,2.0863 0.22407,-1.0818 0.33612,-2.0631 0.33614,-2.9441 -2e-5,-0.4404 -0.0889,-0.7765 -0.26659,-1.0084 -0.18548,-0.2395 -0.49457,-0.4172 -0.92727,-0.5331 l 0.19704,-0.6839 c 0.70316,0.031 1.3368,0.2048 1.9009,0.5216 0.37862,0.2241 0.56794,0.6491 0.56796,1.275 -2e-5,1.1977 -0.18934,2.5268 -0.56796,3.9872 1.39862,0.7496 2.49975,1.4335 3.3034,2.0516 0.47134,0.4173 0.70703,0.85 0.70705,1.2982 -2e-5,0.5255 -0.2473,0.7882 -0.74182,0.7882 -0.17002,0 -0.49456,-0.2125 -0.97363,-0.6375 -0.76502,-0.6955 -1.6807,-1.4025 -2.74704,-2.1211 -1.2132,3.1218 -3.52364,5.2274 -6.93135,6.317 l -0.28977,-0.6143 c 3.01362,-1.3059 5.0227,-3.4271 6.02726,-6.3634 -2.11728,-1.3136 -4.30796,-2.1521 -6.57203,-2.5152 z m -1.30977,-0.07 c -1.34455,0 -2.46886,0.2821 -3.372943,0.8461 -1.375455,0.9196 -2.063179,2.0825 -2.063176,3.4889 -3e-6,0.8732 0.35545,1.3098 1.066361,1.3098 0.942719,0 2.399308,-1.8816 4.369758,-5.6448 z"
         style="fill:#ffffff"
         id="path3245" />
      <path
         d="m 33.159503,1102.2701 -0.683862,0.3825 c -2.866813,-3.5314 -4.300217,-7.4491 -4.300215,-11.7532 -2e-6,-4.304 1.433402,-8.2217 4.300215,-11.7531 l 0.683862,0.4057 c -2.248635,3.3382 -3.372949,7.1284 -3.372945,11.3706 -4e-6,4.2037 1.12431,7.9861 3.372945,11.3475 z"
         style="fill:#ffffff"
         id="path3247" />
      <path
         d="m 41.076072,1084.2811 11.208379,0 0.869316,-1.1128 c 1.035432,0.8114 1.553157,1.333 1.553177,1.5648 -2e-5,0.093 -0.05797,0.17 -0.173863,0.2318 l -0.683862,0.4289 0,6.8618 -1.379314,0 0,-1.7155 -11.648832,0 c -0.355459,3.6937 -1.835226,6.5218 -4.439306,8.4845 l -0.405681,-0.452 c 2.325899,-2.3027 3.48885,-5.637 3.488854,-10.0029 l 0,-5.0421 c 0.571812,0.2473 1.108855,0.4985 1.611132,0.7535 z m -0.162272,0.5911 0,3.6743 c -6e-6,0.3323 -0.01546,0.7998 -0.04636,1.4025 l 11.602468,0 0,-5.0768 z m 12.437012,-4.7291 1.263405,-1.6343 c 0.540888,0.4559 1.10884,1.0316 1.703859,1.727 l -0.254999,0.4984 -18.997448,0 -0.185454,-0.5911 z"
         style="fill:#ffffff"
         id="path3249" />
      <path
         d="m 65.718277,1085.6024 0,0.2434 c -7e-6,1.1437 -0.06955,2.2487 -0.208636,3.315 l 3.349764,0 0.857725,-1.0432 c 0.911803,0.7496 1.367711,1.2171 1.367723,1.4025 -1.2e-5,0.077 -0.06183,0.1546 -0.185454,0.2318 l -0.567953,0.3825 c -0.06956,3.6705 -0.347737,6.035 -0.834543,7.0937 -0.471373,1.0122 -1.33296,1.5184 -2.584765,1.5184 -9e-6,-0.4791 -0.239554,-0.8269 -0.718635,-1.0432 -0.355461,-0.1546 -1.012277,-0.313 -1.970449,-0.4752 l 0,-0.6375 c 1.174535,0.17 2.109532,0.255 2.804992,0.255 0.795898,0 1.286578,-0.3632 1.472042,-1.0896 0.339988,-1.2904 0.521579,-3.2918 0.544771,-6.0041 l -3.604763,0 c -0.718641,4.2114 -2.611815,7.3062 -5.67953,9.2843 l -0.405681,-0.4752 c 3.30726,-2.7818 4.96089,-7.0047 4.960896,-12.6688 l 0,-0.2898 -1.518405,0 0,1.4025 -1.356133,0 0,-8.4961 c 0.347723,0.1236 0.861585,0.3516 1.541587,0.6839 l 5.378167,0 0.857725,-1.0664 c 0.95044,0.7109 1.425666,1.1707 1.425678,1.3793 -1.2e-5,0.1082 -0.06569,0.2009 -0.197045,0.2782 l -0.591135,0.4057 0,6.6068 -1.332951,0 0,-1.1939 z m -2.920901,-5.8186 0,5.2275 5.725893,0 0,-5.2275 z m 10.246336,14.1525 0,-13.4571 c 1.506798,0.07 2.260204,0.2744 2.260221,0.6144 -1.7e-5,0.17 -0.309107,0.3593 -0.92727,0.5679 l 0,12.2748 z m 0.915679,2.8281 c 1.421797,0.1237 2.461112,0.1855 3.117946,0.1855 0.602707,0 0.904069,-0.2434 0.904089,-0.7302 l 0,-18.1398 c 1.522247,0.07 2.283381,0.2821 2.283402,0.6375 -2.1e-5,0.1778 -0.301384,0.3748 -0.904088,0.5912 l 0,17.5717 c -2.1e-5,1.3678 -0.799791,2.04 -2.399312,2.0168 -1.8e-5,-0.5022 -0.251154,-0.85 -0.753407,-1.0431 -0.409561,-0.1468 -1.159104,-0.2898 -2.24863,-0.4289 z"
         style="fill:#ffffff"
         id="path3251" />
      <path
         d="m 84.414363,1079.1463 c 2.866805,3.5236 4.300209,7.4413 4.300215,11.7531 -6e-6,4.3041 -1.43341,8.2218 -4.300215,11.7532 l -0.683862,-0.3825 c 2.248626,-3.3614 3.37294,-7.1438 3.372945,-11.3475 -5e-6,-4.219 -1.124319,-8.0093 -3.372945,-11.3706 z"
         style="fill:#ffffff"
         id="path3253" />
    </g>
  </g>
</svg>
