<?xml version="1.0" encoding="UTF-8" standalone="no"?>
<!-- Created with Inkscape (http://www.inkscape.org/) -->

<svg
   xmlns:dc="http://purl.org/dc/elements/1.1/"
   xmlns:cc="http://creativecommons.org/ns#"
   xmlns:rdf="http://www.w3.org/1999/02/22-rdf-syntax-ns#"
   xmlns:svg="http://www.w3.org/2000/svg"
   xmlns="http://www.w3.org/2000/svg"
   xmlns:sodipodi="http://sodipodi.sourceforge.net/DTD/sodipodi-0.dtd"
   xmlns:inkscape="http://www.inkscape.org/namespaces/inkscape"
   width="197"
   height="47"
   id="svg3255"
   version="1.1"
   inkscape:version="0.48.4 r9939"
   sodipodi:docname="新規ドキュメント 5">
  <defs
     id="defs3257" />
  <sodipodi:namedview
     id="base"
     pagecolor="#ffffff"
     bordercolor="#666666"
     borderopacity="1.0"
     inkscape:pageopacity="0.0"
     inkscape:pageshadow="2"
     inkscape:zoom="8"
     inkscape:cx="94.918385"
     inkscape:cy="20.708964"
     inkscape:document-units="px"
     inkscape:current-layer="layer1"
     showgrid="false"
     inkscape:window-width="1920"
     inkscape:window-height="1017"
     inkscape:window-x="892"
     inkscape:window-y="250"
     inkscape:window-maximized="1" />
  <metadata
     id="metadata3260">
    <rdf:RDF>
      <cc:Work
         rdf:about="">
        <dc:format>image/svg+xml</dc:format>
        <dc:type
           rdf:resource="http://purl.org/dc/dcmitype/StillImage" />
        <dc:title></dc:title>
      </cc:Work>
    </rdf:RDF>
  </metadata>
  <g
     inkscape:label="レイヤー 1"
     inkscape:groupmode="layer"
     id="layer1"
     transform="translate(0,-1005.3622)">
    <g
       transform="scale(1.0571407,0.94594788)"
       style="font-size:23.94768143px;font-style:normal;font-variant:normal;font-weight:normal;font-stretch:normal;text-align:center;line-height:100%;letter-spacing:0px;word-spacing:0px;writing-mode:lr-tb;text-anchor:middle;fill:#000000;fill-opacity:1;stroke:none;font-family:IPAmjMincho;-inkscape-font-specification:IPAmjMincho"
       id="text3263">
      <path
         d="m 0.52935298,1067.3399 c 0.49110972,0.4521 0.90816692,0.7522 1.25117282,0.9003 0.3118128,0.1404 0.685995,0.2105 1.1225476,0.2105 0.5924483,0 1.9176767,-0.074 3.9756893,-0.2221 2.2450821,-0.1559 4.1900493,-0.3391 5.8349083,-0.5496 0.444325,-0.055 0.81461,-0.1988 1.110855,-0.4327 0.155891,-0.1091 0.304005,-0.1637 0.444341,-0.1637 0.226051,0 0.596335,0.2534 1.110855,0.7601 0.444322,0.4521 0.666493,0.799 0.666512,1.0407 -1.9e-5,0.1481 -0.159826,0.3391 -0.479421,0.5729 -0.210497,0.1482 -0.432667,0.5301 -0.666513,1.146 -1.262883,3.2351 -2.708941,5.718 -4.338178,7.4485 -2.0969937,2.2529 -4.7864279,4.0459 -8.0683108,5.3789 l -0.3858757,-0.5963 c 3.4533834,-1.715 6.1584086,-3.9173 8.1150835,-6.6067 1.543487,-2.0814 2.693318,-4.611 3.449495,-7.5889 -3.071429,0.2885 -6.1038637,0.6237 -9.0973125,1.0056 -0.686009,0.094 -1.1888163,0.2222 -1.5084233,0.3859 -0.187098,0.094 -0.432655,0.1403 -0.7366718,0.1403 -0.350802,0 -0.756166,-0.2533 -1.2160932,-0.76 -0.40536899,-0.4444 -0.77565341,-0.9978 -1.11085439,-1.6605 z m 17.00191802,-4.4084 c 0.678184,0 1.251151,0.2573 1.718901,0.7718 0.405341,0.4443 0.608023,0.9627 0.608047,1.5552 -2.4e-5,0.6938 -0.257274,1.2746 -0.771752,1.7423 -0.444364,0.4053 -0.962762,0.608 -1.555196,0.608 -0.693817,0 -1.274579,-0.2572 -1.742287,-0.7717 -0.405384,-0.4522 -0.608066,-0.9784 -0.608047,-1.5786 -1.9e-5,-0.686 0.257232,-1.259 0.771752,-1.7189 0.452117,-0.4054 0.97831,-0.6081 1.578582,-0.6081 z m 0,0.7718 c -0.459953,0 -0.849726,0.1754 -1.16932,0.5262 -0.272861,0.2962 -0.409282,0.6392 -0.409262,1.029 -2e-5,0.4599 0.175378,0.8497 0.526194,1.1693 0.304003,0.2729 0.654798,0.4093 1.052388,0.4093 0.452116,0 0.834093,-0.1754 1.145934,-0.5262 0.272819,-0.304 0.40924,-0.6548 0.409262,-1.0524 -2.2e-5,-0.4521 -0.17542,-0.8341 -0.526194,-1.146 -0.29625,-0.2728 -0.63925,-0.4092 -1.029002,-0.4092 z"
         style=""
         id="path3272" />
      <path
         d="m 26.955994,1065.504 c 0.670402,0.5068 1.508415,0.7601 2.514038,0.7601 0.615833,0 1.294038,-0.023 2.034618,-0.07 0.912057,-0.054 1.648729,-0.1169 2.210015,-0.1871 0.631419,-0.086 1.067965,-0.1987 1.309639,-0.3391 0.233849,-0.1403 0.475508,-0.2104 0.724979,-0.2104 0.452121,0 0.853587,0.1169 1.2044,0.3508 0.296211,0.1871 0.444324,0.3897 0.444342,0.608 -1.8e-5,0.4444 -0.237779,0.6665 -0.713286,0.6665 -0.335221,0 -0.853619,0.016 -1.555196,0.047 -1.325243,0.055 -3.184461,0.1832 -5.577658,0.3859 l -0.502808,0.047 -0.58466,0.07 c -0.61585,0 -1.278464,-0.5574 -1.987845,-1.6721 z m -2.174936,4.993 c 0.436541,0.3898 0.826314,0.6471 1.16932,0.7718 0.296222,0.1091 0.666506,0.1637 1.110854,0.1637 0.685994,0 1.761768,-0.055 3.227325,-0.1637 2.533514,-0.1949 4.552539,-0.3547 6.057079,-0.4794 0.561257,-0.047 0.98611,-0.1676 1.27456,-0.3625 0.179278,-0.1247 0.331289,-0.1871 0.456034,-0.1871 0.233846,0 0.55346,0.2144 0.958843,0.6431 0.381959,0.4054 0.572948,0.7406 0.572967,1.0056 -1.9e-5,0.1949 -0.144235,0.3625 -0.432648,0.5028 -0.210497,0.117 -0.409281,0.4054 -0.596354,0.8653 -1.231701,2.8142 -2.751816,5.0476 -4.560349,6.7002 -1.70722,1.5669 -3.858768,2.8064 -6.454649,3.7185 l -0.339103,-0.6198 c 5.168384,-2.3386 8.520433,-6.0999 10.056156,-11.2839 -2.510156,0.1793 -5.281443,0.4404 -8.313868,0.7834 -0.779555,0.078 -1.360317,0.191 -1.742288,0.3391 -0.288439,0.094 -0.518405,0.1404 -0.689899,0.1404 -0.374188,0 -0.799041,-0.2378 -1.274559,-0.7133 -0.428755,-0.4132 -0.76396,-0.8926 -1.005615,-1.4383 z"
         style=""
         id="path3274" />
      <path
         d="m 57.218005,1074.6481 c 3.055808,1.2785 5.273617,2.6193 6.653433,4.0225 0.717163,0.6938 1.075754,1.2862 1.075775,1.7773 -2.1e-5,0.764 -0.288453,1.146 -0.865297,1.146 -0.233884,0 -0.479441,-0.1988 -0.736672,-0.5964 -1.52793,-2.2451 -3.722352,-4.1549 -6.583274,-5.7296 -1.442173,1.6916 -2.989572,3.1065 -4.642202,4.2446 -1.551305,1.068 -3.340363,1.9995 -5.36718,2.7947 l -0.268944,-0.6665 c 3.398819,-1.7852 6.123333,-3.8198 8.173549,-6.1039 1.902082,-2.1281 3.433891,-4.6929 4.59543,-7.6941 -2.938905,0.3898 -5.168407,0.7016 -6.688513,0.9354 -0.397577,0.07 -0.66652,0.1365 -0.806831,0.1988 -0.218281,0.078 -0.444349,0.117 -0.678206,0.1169 -0.257257,10e-5 -0.588564,-0.2533 -0.993922,-0.76 -0.358597,-0.4443 -0.639234,-0.9238 -0.841911,-1.4383 l 0.572967,-0.3391 c 0.35079,0.3976 0.631427,0.651 0.841911,0.7601 0.249448,0.1325 0.57296,0.1988 0.970536,0.1988 1.714994,0 4.030246,-0.1832 6.945763,-0.5496 0.366372,-0.047 0.693781,-0.1676 0.982229,-0.3625 0.241644,-0.1403 0.409246,-0.2105 0.502808,-0.2105 0.155893,0 0.45212,0.2144 0.888683,0.6431 0.428734,0.4366 0.643109,0.7562 0.643126,0.9589 -1.7e-5,0.1793 -0.105256,0.3157 -0.315716,0.4092 -0.327427,0.1482 -0.611961,0.4678 -0.853604,0.9589 -0.982245,1.9956 -2.050223,3.7574 -3.203938,5.2853 z"
         style=""
         id="path3276" />
      <path
         d="m 81.422941,1067.983 c -1.4e-5,1.5591 -0.03899,3.0441 -0.116932,4.4551 1.130328,-0.07 2.428273,-0.1598 3.893837,-0.2689 0.631415,-0.039 1.169302,-0.1676 1.613662,-0.3859 0.249436,-0.1247 0.510584,-0.1871 0.783444,-0.1871 0.389754,0 0.837993,0.1442 1.344719,0.4326 0.366366,0.1949 0.549559,0.4678 0.54958,0.8186 -2.1e-5,0.3352 -0.311839,0.5028 -0.935456,0.5028 -0.272862,0 -0.526214,-0.01 -0.760058,-0.023 -0.366407,-0.016 -0.997839,-0.023 -1.894299,-0.023 -1.13036,0 -2.689452,0.055 -4.677282,0.1637 -0.163718,2.705 -0.865309,4.8449 -2.104776,6.4196 -1.122558,1.5123 -2.935003,2.7908 -5.43734,3.8353 l -0.350796,-0.6314 c 2.627065,-1.3408 4.427817,-2.9856 5.40226,-4.9345 0.530081,-1.0524 0.884774,-2.5842 1.064082,-4.5954 -2.377628,0.2182 -4.310902,0.4521 -5.79983,0.7015 l -0.748365,0.1637 c -0.272846,0.062 -0.479426,0.094 -0.619739,0.094 -0.600256,0 -1.301847,-0.647 -2.104777,-1.9411 l 0.456035,-0.456 c 0.498906,0.3898 0.912066,0.6431 1.239479,0.76 0.288428,0.1014 0.643122,0.1521 1.064082,0.1521 0.717177,0 1.418769,-0.031 2.104777,-0.094 1.060175,-0.093 2.54521,-0.2144 4.45511,-0.3625 0.04676,-0.8731 0.07015,-2.3074 0.07016,-4.3031 -2.892129,0.5613 -5.312619,0.9277 -7.26148,1.0992 l -0.09355,-0.725 c 4.54475,-0.686 7.955264,-1.4889 10.231554,-2.4088 0.670395,-0.2806 1.005599,-0.5145 1.005615,-0.7016 -1.6e-5,-0.2104 -0.218289,-0.4638 -0.654819,-0.76 l 0.596353,-0.3158 c 1.325213,0.7172 1.987827,1.3331 1.987845,1.8476 -1.8e-5,0.2572 -0.28845,0.4794 -0.865297,0.6665 -0.826336,0.2962 -1.972269,0.6314 -3.437802,1.0056 z"
         style=""
         id="path3278" />
      <path
         d="m 96.846273,1071.5494 0.526194,-0.4092 c 1.902087,1.2784 2.853133,2.5023 2.853143,3.6716 -1e-5,0.7172 -0.296237,1.0758 -0.888685,1.0758 -0.257257,0 -0.444348,-0.09 -0.561274,-0.2689 -0.09355,-0.1482 -0.187097,-0.4405 -0.280636,-0.877 -0.202689,-1.068 -0.752269,-2.1321 -1.648742,-3.1923 z m 4.338177,-1.1459 0.5262,-0.3976 c 1.0056,0.8186 1.70329,1.5279 2.09308,2.1282 0.35858,0.5457 0.53787,1.0953 0.53789,1.6487 -2e-5,0.764 -0.31963,1.146 -0.95885,1.146 -0.22608,0 -0.38978,-0.094 -0.49111,-0.2807 -0.0936,-0.1715 -0.18321,-0.4911 -0.26894,-0.9588 -0.2027,-1.1226 -0.68212,-2.2178 -1.43827,-3.2858 z m -1.555195,13.6109 -0.362489,-0.5847 c 2.681634,-1.6136 4.759124,-3.2936 6.232474,-5.0398 1.44215,-1.7072 2.48284,-3.656 3.12209,-5.8466 0.16369,-0.5534 0.24554,-0.9549 0.24556,-1.2044 -2e-5,-0.2962 -0.31963,-0.5924 -0.95885,-0.8886 l 0.22217,-0.5496 c 0.8419,0.1715 1.50841,0.4209 1.99954,0.7483 0.45212,0.2963 0.67819,0.6081 0.67821,0.9355 -2e-5,0.2105 -0.0624,0.3937 -0.18709,0.5496 -0.17932,0.2339 -0.33912,0.5535 -0.47942,0.9588 -1.28627,3.0091 -2.75962,5.3243 -4.42004,6.9458 -1.47335,1.4344 -3.50407,2.7596 -6.092155,3.9757 z"
         style=""
         id="path3280" />
      <path
         d="m 127.49416,1068.6378 c 1.40317,-0.1169 3.03242,-0.2962 4.88776,-0.5379 0.45212,-0.062 0.80291,-0.1871 1.05238,-0.3742 0.19487,-0.1636 0.37807,-0.2455 0.54958,-0.2455 0.1559,0 0.45602,0.2222 0.90038,0.6665 0.49889,0.4989 0.74835,0.8692 0.74837,1.1109 -2e-5,0.1793 -0.12085,0.3469 -0.36249,0.5028 -0.31184,0.1871 -0.62366,0.5924 -0.93546,1.2161 -1.66825,3.391 -3.60932,6.0609 -5.82322,8.0098 -2.10478,1.8553 -4.72016,3.3209 -7.84613,4.3966 l -0.30403,-0.6197 c 3.46118,-1.6059 6.20908,-3.508 8.24371,-5.7063 1.92547,-2.0814 3.55862,-4.7513 4.89945,-8.0098 l -6.7002,0.6197 c -0.99004,1.3642 -1.99175,2.5102 -3.00516,3.4378 -1.10696,1.0212 -2.38931,1.9489 -3.84706,2.783 l -0.40926,-0.5964 c 2.58809,-1.9332 4.73574,-4.19 6.44295,-6.7703 0.70158,-1.068 1.05238,-1.8124 1.05239,-2.2334 -1e-5,-0.3586 -0.3586,-0.6782 -1.07577,-0.9589 l 0.21047,-0.6431 c 0.90427,0.1248 1.62925,0.3391 2.17494,0.6431 0.46772,0.2651 0.70158,0.5379 0.70159,0.8186 -1e-5,0.1637 -0.0702,0.3625 -0.21048,0.5963 -0.48333,0.6704 -0.93157,1.3019 -1.34471,1.8943 z"
         style=""
         id="path3282" />
      <path
         d="m 148.40162,1070.9531 c 1.5201,-1.0914 2.86482,-2.0151 4.03415,-2.7713 -0.71719,0.093 -1.37981,0.1403 -1.98784,0.1403 -1.85533,0 -3.24682,-0.5418 -4.17448,-1.6254 l 0.43265,-0.5262 c 0.93545,0.6393 2.01122,0.9589 3.22733,0.9589 1.09915,0 2.41658,-0.113 3.9523,-0.3391 0.84189,-0.1091 1.38368,-0.1637 1.62535,-0.1637 0.43653,0 0.76394,0.09 0.98223,0.2689 0.25724,0.1949 0.38586,0.4561 0.38588,0.7835 -2e-5,0.3508 -0.27286,0.5262 -0.81853,0.5262 -0.97444,0 -1.75399,0.1286 -2.33864,0.3858 -0.84192,0.382 -2.46338,1.3526 -4.86437,2.9116 z m -3.54304,5.6829 c 0.37417,1.598 1.14203,2.7206 2.30356,3.3676 0.99781,0.5457 2.50623,0.8185 4.52527,0.8185 2.23728,0 4.0887,-0.2377 5.55427,-0.7133 0.3118,-0.078 0.56125,-0.1169 0.74836,-0.1169 0.4911,0 0.84189,0.1208 1.05239,0.3625 0.12471,0.1637 0.18707,0.3391 0.18709,0.5262 -2e-5,0.4054 -0.23778,0.6665 -0.71328,0.7834 -1.49675,0.3976 -3.58204,0.5964 -6.25587,0.5964 -2.68165,0 -4.66949,-0.456 -5.96353,-1.3681 -1.22389,-0.8731 -1.93328,-2.2295 -2.12816,-4.0692 z m 12.58188,-12.1727 c 1.02899,0.3586 1.83582,0.8108 2.4205,1.3565 0.50668,0.4599 0.76003,0.9198 0.76005,1.3797 -2e-5,0.5613 -0.23778,0.842 -0.71328,0.842 -0.33523,0 -0.60027,-0.2495 -0.79514,-0.7484 -0.3742,-0.8965 -1.05241,-1.6799 -2.03462,-2.3503 z m 2.19833,-1.6487 c 1.01339,0.304 1.83581,0.7367 2.46726,1.2979 0.53007,0.4756 0.79512,0.9355 0.79514,1.3798 -2e-5,0.5613 -0.22999,0.842 -0.6899,0.842 -0.31184,0 -0.58468,-0.2612 -0.81852,-0.7835 -0.35862,-0.7873 -1.06411,-1.5396 -2.11647,-2.2568 z"
         style=""
         id="path3284" />
      <path
         d="m 174.00973,1074.461 c -1.45776,2.6349 -2.6037,4.4279 -3.4378,5.3789 -0.85751,0.9744 -1.69163,1.4617 -2.50235,1.4617 -0.67041,0 -1.19271,-0.2534 -1.56689,-0.7601 -0.31182,-0.4132 -0.46773,-0.9238 -0.46773,-1.5318 0,-0.9744 0.25335,-1.867 0.76006,-2.6778 0.46773,-0.7483 1.10695,-1.3564 1.91769,-1.8241 1.27065,-0.7172 2.74789,-1.0758 4.43172,-1.0758 0.81852,-1.7072 1.7072,-3.9601 2.66605,-6.7586 -1.09137,0.2962 -2.19443,0.5768 -3.30917,0.8419 -0.39758,0.093 -0.76397,0.191 -1.09917,0.2923 -0.26505,0.078 -0.46383,0.1169 -0.59635,0.1169 -0.85751,0 -1.37201,-0.7444 -1.5435,-2.2334 l 0.65482,-0.1637 c 0.27283,0.7016 0.68599,1.0524 1.23948,1.0524 0.77954,0 1.99563,-0.1988 3.64828,-0.5963 0.54567,-0.1092 0.91985,-0.23 1.12254,-0.3625 0.21826,-0.1403 0.38587,-0.2105 0.50281,-0.2105 0.19488,0 0.44433,0.152 0.74837,0.456 0.41314,0.3586 0.61972,0.6938 0.61974,1.0056 -2e-5,0.1482 -0.0819,0.2768 -0.24556,0.3859 -0.24167,0.1403 -0.46384,0.4327 -0.66651,0.877 -0.77177,1.7774 -1.59419,3.582 -2.46727,5.414 2.12815,0.3118 4.33816,1.0134 6.63005,2.1047 0.22605,-1.0913 0.33908,-2.0813 0.3391,-2.97 -2e-5,-0.4444 -0.0897,-0.7835 -0.26894,-1.0173 -0.18711,-0.2417 -0.49893,-0.421 -0.93546,-0.5379 l 0.19878,-0.6899 c 0.70938,0.031 1.3486,0.2066 1.91769,0.5262 0.38196,0.226 0.57295,0.6548 0.57297,1.2862 -2e-5,1.2083 -0.19101,2.5491 -0.57297,4.0225 1.41096,0.7561 2.52181,1.446 3.33256,2.0697 0.4755,0.4209 0.71327,0.8575 0.71329,1.3096 -2e-5,0.5301 -0.24948,0.7952 -0.74837,0.7951 -0.17152,1e-4 -0.49893,-0.2143 -0.98223,-0.6431 -0.77177,-0.7016 -1.69553,-1.4149 -2.77128,-2.1398 -1.22391,3.1493 -3.55475,5.2736 -6.99254,6.3728 l -0.29233,-0.6198 c 3.04022,-1.3174 5.06704,-3.4573 6.08047,-6.4195 -2.13598,-1.3253 -4.34599,-2.1711 -6.63005,-2.5375 z m -1.32133,-0.07 c -1.35642,0 -2.49066,0.2845 -3.40273,0.8536 -1.38759,0.9276 -2.08139,2.1009 -2.08139,3.5196 0,0.8809 0.35859,1.3214 1.07578,1.3214 0.95104,0 2.42049,-1.8982 4.40834,-5.6946 z"
         style=""
         id="path3286" />
      <path
         d="m 66.420557,1112.1015 -0.6899,0.3858 c -2.892122,-3.5625 -4.33818,-7.5148 -4.338178,-11.8569 -2e-6,-4.342 1.446056,-8.2943 4.338178,-11.8569 l 0.6899,0.4093 c -2.268487,3.3676 -3.402727,7.1913 -3.402723,11.471 -4e-6,4.2407 1.134236,8.0566 3.402723,11.4477 z"
         style=""
         id="path3288" />
      <path
         d="m 74.407014,1093.9536 11.307329,0 0.87699,-1.1225 c 1.044573,0.8185 1.566869,1.3447 1.566889,1.5785 -2e-5,0.094 -0.05849,0.1715 -0.175398,0.2339 l -0.689899,0.4326 0,6.9224 -1.391491,0 0,-1.7306 -11.75167,0 c -0.358597,3.7263 -1.851428,6.5794 -4.478497,8.5595 l -0.409262,-0.4561 c 2.346432,-2.323 3.519649,-5.6868 3.519654,-10.0912 l 0,-5.0866 c 0.57686,0.2495 1.118644,0.5029 1.625355,0.7601 z m -0.163704,0.5964 0,3.7067 c -7e-6,0.3352 -0.0156,0.8068 -0.04677,1.4149 l 11.704897,0 0,-5.1216 z m 12.546807,-4.7709 1.27456,-1.6487 c 0.545662,0.4599 1.118628,1.0407 1.718901,1.7423 l -0.257251,0.5028 -19.165161,0 -0.187091,-0.5964 z"
         style=""
         id="path3290" />
      <path
         d="m 99.266767,1095.2866 0,0.2456 c -8e-6,1.1537 -0.07017,2.2685 -0.210478,3.3442 l 3.379341,0 0.86529,-1.0524 c 0.91986,0.7562 1.37979,1.2278 1.3798,1.4149 -10e-6,0.078 -0.0624,0.1559 -0.18709,0.2339 l -0.57297,0.3859 c -0.0702,3.7028 -0.35081,6.0882 -0.84191,7.1562 -0.47553,1.0212 -1.34473,1.5318 -2.60758,1.5318 -1e-5,-0.4833 -0.24167,-0.8341 -0.724982,-1.0524 -0.358599,-0.1559 -1.021213,-0.3157 -1.987845,-0.4794 l 0,-0.6431 c 1.184905,0.1715 2.128156,0.2572 2.829757,0.2572 0.80292,0 1.29793,-0.3664 1.48504,-1.0991 0.34299,-1.3019 0.52618,-3.3209 0.54958,-6.0571 l -3.63659,0 c -0.724985,4.2485 -2.634873,7.3706 -5.72967,9.3662 l -0.409262,-0.4794 c 3.336456,-2.8063 5.004685,-7.0666 5.004691,-12.7806 l 0,-0.2924 -1.53181,0 0,1.4149 -1.368104,0 0,-8.5711 c 0.350792,0.1247 0.86919,0.3547 1.555196,0.6899 l 5.425649,0 0.86529,-1.0758 c 0.95884,0.7172 1.43826,1.181 1.43827,1.3915 -1e-5,0.1092 -0.0663,0.2027 -0.19879,0.2806 l -0.59635,0.4093 0,6.6651 -1.34472,0 0,-1.2044 z m -2.946688,-5.87 0,5.2737 5.776441,0 0,-5.2737 z m 10.336791,14.2774 0,-13.5758 c 1.5201,0.07 2.28016,0.2768 2.28018,0.6198 -2e-5,0.1715 -0.31184,0.3625 -0.93546,0.5729 l 0,12.3831 z m 0.92376,2.8532 c 1.43435,0.1247 2.48284,0.1871 3.14548,0.1871 0.60802,0 0.91205,-0.2456 0.91207,-0.7367 l 0,-18.2999 c 1.53568,0.07 2.30354,0.2846 2.30356,0.6432 -2e-5,0.1793 -0.30405,0.3781 -0.91207,0.5963 l 0,17.7269 c -2e-5,1.3798 -0.80685,2.058 -2.4205,2.0346 -1e-5,-0.5067 -0.25337,-0.8575 -0.76005,-1.0524 -0.41318,-0.1481 -1.16934,-0.2923 -2.26849,-0.4326 z"
         style=""
         id="path3292" />
      <path
         d="m 118.1279,1088.7735 c 2.89212,3.5548 4.33818,7.5071 4.33818,11.8569 0,4.3421 -1.44606,8.2944 -4.33818,11.8569 l -0.68989,-0.3858 c 2.26847,-3.3911 3.40271,-7.207 3.40272,-11.4477 -10e-6,-4.2563 -1.13425,-8.08 -3.40272,-11.471 z"
         style=""
         id="path3294" />
    </g>
  </g>
</svg>
