<?xml version="1.0" encoding="UTF-8" standalone="no"?>
<!-- Created with Inkscape (http://www.inkscape.org/) -->

<svg
   xmlns:dc="http://purl.org/dc/elements/1.1/"
   xmlns:cc="http://creativecommons.org/ns#"
   xmlns:rdf="http://www.w3.org/1999/02/22-rdf-syntax-ns#"
   xmlns:svg="http://www.w3.org/2000/svg"
   xmlns="http://www.w3.org/2000/svg"
   xmlns:sodipodi="http://sodipodi.sourceforge.net/DTD/sodipodi-0.dtd"
   xmlns:inkscape="http://www.inkscape.org/namespaces/inkscape"
   width="472"
   height="47"
   id="svg3127"
   version="1.1"
   inkscape:version="0.48.4 r9939"
   sodipodi:docname="新規ドキュメント 3">
  <defs
     id="defs3129" />
  <sodipodi:namedview
     id="base"
     pagecolor="#ffffff"
     bordercolor="#666666"
     borderopacity="1.0"
     inkscape:pageopacity="0.0"
     inkscape:pageshadow="2"
     inkscape:zoom="2.8284271"
     inkscape:cx="245.68342"
     inkscape:cy="6.4871859"
     inkscape:document-units="px"
     inkscape:current-layer="layer1"
     showgrid="false"
     inkscape:window-width="1920"
     inkscape:window-height="1017"
     inkscape:window-x="892"
     inkscape:window-y="250"
     inkscape:window-maximized="1" />
  <metadata
     id="metadata3132">
    <rdf:RDF>
      <cc:Work
         rdf:about="">
        <dc:format>image/svg+xml</dc:format>
        <dc:type
           rdf:resource="http://purl.org/dc/dcmitype/StillImage" />
        <dc:title></dc:title>
      </cc:Work>
    </rdf:RDF>
  </metadata>
  <g
     inkscape:label="レイヤー 1"
     inkscape:groupmode="layer"
     id="layer1"
     transform="translate(0,-1005.3622)">
    <g
       transform="scale(1.0588006,0.94446491)"
       style="font-size:23.98731232px;font-style:normal;font-variant:normal;font-weight:normal;font-stretch:normal;text-align:center;line-height:100%;letter-spacing:0px;word-spacing:0px;writing-mode:lr-tb;text-anchor:middle;fill:#000000;fill-opacity:1;stroke:none;font-family:IPAmjMincho;-inkscape-font-specification:IPAmjMincho"
       id="text3135">
      <path
         d="m 19.164067,1066.7206 7.823986,0 0.843304,-1.0542 c 0.991642,0.7965 1.487473,1.308 1.487495,1.5344 -2.2e-5,0.094 -0.05859,0.1718 -0.175689,0.2342 l -0.64419,0.41 0,9.8034 -1.346944,0 0,-1.1947 -3.525479,0 0,4.0291 3.185815,0 1.159543,-1.4875 c 0.429439,0.3904 0.948695,0.9409 1.55777,1.6515 l -0.234251,0.4334 -5.668877,0 0,4.1111 4.122819,0 1.229819,-1.5344 c 0.624647,0.5544 1.167328,1.1049 1.628045,1.6515 l -0.257676,0.4802 -15.284884,0 -0.210826,-0.5973 7.355484,0 0,-4.1111 -5.200374,0 -0.222539,-0.5974 5.422913,0 0,-4.0291 -3.30294,0 0,1.3001 -1.346944,0 0,-11.8531 c 0.421641,0.1874 0.956514,0.4607 1.60462,0.8199 z m 7.987962,5.0832 -3.525479,0 0,4.0526 3.525479,0 z m 0,-0.5973 0,-3.8886 -3.525479,0 0,3.8886 z m -4.942698,-3.8886 -3.30294,0 0,3.8886 3.30294,0 z m -3.30294,8.5385 3.30294,0 0,-4.0526 -3.30294,0 z m -5.586889,-3.4552 0,7.7654 0.234251,-0.07 c 0.929189,-0.3201 2.010647,-0.7418 3.244378,-1.265 l 0.117125,0.6208 c -2.225393,1.2884 -4.521051,2.4089 -6.886982,3.3615 -0.070278,0.6091 -0.2147326,0.9136 -0.4333646,0.9136 -0.3435701,0 -0.7105631,-0.7145 -1.1009801,-2.1434 0.8901522,-0.203 1.9716107,-0.4958 3.2443777,-0.8784 l 0.210826,-0.082 0,-8.2222 -3.2326652,0 -0.2693888,-0.5974 3.502054,0 0,-6.4302 c 1.631943,0.07 2.447917,0.2616 2.447924,0.5739 -7e-6,0.2031 -0.359192,0.4373 -1.077555,0.7028 l 0,5.1535 1.030705,0 1.05413,-1.5812 c 0.429452,0.4998 0.886241,1.0737 1.370369,1.7218 l -0.245964,0.4568 z"
         style=""
         id="path3144" />
      <path
         d="m 42.612602,1070.4803 0,-4.9427 c 1.71002,0.07 2.565035,0.2928 2.565049,0.6676 -1.4e-5,0.2499 -0.382623,0.4841 -1.14783,0.7028 l 0,3.5723 6.020253,0 1.276668,-1.7218 c 0.569991,0.4998 1.151714,1.1206 1.745171,1.8623 l -0.257676,0.4568 -18.669813,0 -0.234251,-0.5973 z m 2.061409,14.0316 c 0.09369,-0.2576 0.163962,-0.4568 0.210826,-0.5973 1.179049,-3.2795 2.244891,-7.1915 3.197528,-11.736 1.647547,0.5778 2.47133,1.0503 2.471349,1.4172 -1.9e-5,0.2187 -0.363108,0.3631 -1.089268,0.4334 -1.140039,3.6777 -2.416706,7.0861 -3.830005,10.2251 l -0.128838,0.2576 5.071536,0 1.382081,-1.8974 c 0.593415,0.5232 1.132192,1.0854 1.616333,1.6866 l 0.257676,0.328 -0.339664,0.4802 -19.923056,0 -0.269389,-0.5974 z m -7.460897,-11.8062 c 1.73345,2.3269 2.939842,4.5445 3.619179,6.6527 0.366984,1.1478 0.55048,2.0419 0.55049,2.6822 -1e-5,0.9136 -0.304536,1.3704 -0.913579,1.3704 -0.429469,0 -0.691049,-0.5037 -0.784741,-1.511 -0.218643,-2.7251 -1.218113,-5.6688 -2.998414,-8.8312 z"
         style=""
         id="path3146" />
      <path
         d="m 63.976302,1072.6354 c 1.522622,-1.0932 2.869564,-2.0184 4.040831,-2.7759 -0.718382,0.094 -1.382093,0.1406 -1.991134,0.1406 -1.858401,0 -3.252194,-0.5427 -4.181382,-1.6281 l 0.433364,-0.527 c 0.936997,0.6403 2.014551,0.9604 3.232665,0.9604 1.100969,0 2.420582,-0.1132 3.958844,-0.3397 0.843289,-0.1093 1.38597,-0.1639 1.628045,-0.1639 0.437252,0 0.765204,0.09 0.983854,0.2693 0.25766,0.1953 0.386498,0.4569 0.386515,0.7848 -1.7e-5,0.3514 -0.27331,0.5271 -0.819879,0.5271 -0.976062,0 -1.756898,0.1288 -2.342511,0.3865 -0.843317,0.3826 -2.467456,1.3547 -4.872423,2.9164 z m -3.548905,5.6923 c 0.374797,1.6007 1.14392,2.7251 2.307374,3.3732 0.999463,0.5466 2.510381,0.8199 4.532758,0.8199 2.240988,0 4.095474,-0.2382 5.563464,-0.7145 0.312317,-0.078 0.562185,-0.1171 0.749604,-0.1171 0.491908,0 0.843284,0.121 1.054129,0.3631 0.124915,0.164 0.187382,0.3397 0.187401,0.5271 -1.9e-5,0.406 -0.238174,0.6676 -0.714466,0.7847 -1.499224,0.3982 -3.587961,0.5973 -6.266216,0.5973 -2.686089,0 -4.677222,-0.4567 -5.973403,-1.3703 -1.22592,-0.8746 -1.936481,-2.2332 -2.131685,-4.076 z m 12.602709,-12.1928 c 1.030687,0.3592 1.838852,0.8121 2.424499,1.3587 0.507524,0.4607 0.761296,0.9214 0.761316,1.3821 -2e-5,0.5622 -0.238176,0.8433 -0.714465,0.8433 -0.33578,0 -0.601264,-0.2499 -0.796454,-0.7496 -0.374821,-0.898 -1.054148,-1.6827 -2.037985,-2.3542 z m 2.201961,-1.6514 c 1.015067,0.3045 1.838849,0.7379 2.471349,1.3001 0.530946,0.4763 0.79643,0.937 0.796454,1.382 -2.4e-5,0.5623 -0.23037,0.8434 -0.691041,0.8433 -0.312357,10e-5 -0.58565,-0.2615 -0.819879,-0.7847 -0.359206,-0.7886 -1.065863,-1.5421 -2.119972,-2.2605 z"
         style=""
         id="path3148" />
      <path
         d="m 89.626797,1076.1492 c -1.460174,2.6392 -2.608004,4.4351 -3.443491,5.3877 -0.858927,0.9761 -1.694422,1.4641 -2.506487,1.4641 -0.671524,0 -1.194684,-0.2538 -1.569483,-0.7613 -0.312337,-0.4138 -0.468504,-0.9253 -0.468502,-1.5343 -2e-6,-0.9761 0.25377,-1.8701 0.761316,-2.6822 0.468499,-0.7496 1.108785,-1.3587 1.920859,-1.8272 1.272758,-0.7183 2.752443,-1.0775 4.439059,-1.0775 0.819868,-1.7101 1.710022,-3.9667 2.670462,-6.7699 -1.093183,0.2967 -2.198066,0.5778 -3.314653,0.8433 -0.398235,0.094 -0.765228,0.1913 -1.10098,0.2928 -0.265492,0.078 -0.464605,0.1172 -0.59734,0.1172 -0.858927,0 -1.374279,-0.7457 -1.546058,-2.2371 l 0.655903,-0.164 c 0.273287,0.7027 0.68713,1.0541 1.241531,1.0541 0.780829,0 1.998934,-0.1991 3.654317,-0.5973 0.546575,-0.1093 0.921376,-0.2304 1.124406,-0.3631 0.218622,-0.1406 0.386501,-0.2108 0.503639,-0.2108 0.195197,0 0.445064,0.1522 0.749604,0.4567 0.41383,0.3592 0.620751,0.695 0.620765,1.0073 -1.4e-5,0.1484 -0.082,0.2772 -0.245963,0.3865 -0.242073,0.1406 -0.464612,0.4334 -0.667616,0.8785 -0.773041,1.7803 -1.596823,3.5879 -2.471349,5.4229 2.131672,0.3123 4.345343,1.0151 6.641019,2.1083 0.226425,-1.0932 0.339646,-2.0849 0.339664,-2.975 -1.8e-5,-0.4451 -0.08981,-0.7848 -0.269389,-1.019 -0.187418,-0.2421 -0.499753,-0.4217 -0.937004,-0.5388 l 0.199113,-0.691 c 0.710544,0.031 1.35083,0.2069 1.920859,0.527 0.382591,0.2265 0.573896,0.6559 0.573915,1.2884 -1.9e-5,1.2103 -0.191324,2.5533 -0.573915,4.0291 1.413295,0.7574 2.525982,1.4485 3.338082,2.0731 0.47628,0.4217 0.71444,0.859 0.71446,1.3118 -2e-5,0.531 -0.24989,0.7965 -0.7496,0.7965 -0.17181,0 -0.49976,-0.2147 -0.98386,-0.6442 -0.773045,-0.7027 -1.698336,-1.4172 -2.775872,-2.1434 -1.225931,3.1546 -3.560631,5.2824 -7.004107,6.3834 l -0.292814,-0.6208 c 3.04525,-1.3196 5.075424,-3.463 6.090528,-6.4302 -2.139508,-1.3274 -4.353179,-2.1746 -6.641018,-2.5416 z m -1.323519,-0.07 c -1.358664,0 -2.494781,0.285 -3.408354,0.855 -1.389893,0.9292 -2.084838,2.1044 -2.084834,3.5255 -4e-6,0.8823 0.359181,1.3235 1.077555,1.3235 0.952615,0 2.424492,-1.9013 4.415633,-5.704 z"
         style=""
         id="path3150" />
      <path
         d="m 115.35928,1074.076 c 0.46849,10e-5 0.88624,0.1836 1.25324,0.5505 0.32013,0.3202 0.4802,0.7106 0.48022,1.1713 -2e-5,0.3123 -0.0859,0.6169 -0.25768,0.9136 -0.3592,0.5466 -0.85112,0.8199 -1.47578,0.8199 -0.41386,0 -0.78085,-0.1367 -1.10098,-0.41 -0.41385,-0.367 -0.62078,-0.8081 -0.62077,-1.3235 -1e-5,-0.5856 0.24596,-1.0541 0.7379,-1.4055 0.30451,-0.2108 0.63246,-0.3162 0.98385,-0.3163 z"
         style=""
         id="path3152" />
      <path
         d="m 128.74673,1082.2631 c 2.08483,-3.0452 3.57232,-6.8362 4.46248,-11.3729 1.63195,0.4295 2.44792,0.8277 2.44793,1.1947 -1e-5,0.2265 -0.3592,0.3865 -1.07756,0.4802 -1.15564,4.0916 -2.93985,7.4492 -5.35264,10.0728 z m 14.3713,-11.7594 c 2.42058,2.1942 4.28288,4.5055 5.58689,6.9339 0.6715,1.2961 1.00726,2.3386 1.00728,3.1272 -2e-5,0.7808 -0.29674,1.1713 -0.89015,1.1713 -0.39825,0 -0.71839,-0.4724 -0.96043,-1.4173 -0.68716,-2.8188 -2.42061,-5.946 -5.20038,-9.3817 z m -9.2412,13.4577 c 1.58509,0.1796 2.88128,0.2694 3.88857,0.2694 0.56219,0 0.84329,-0.2498 0.8433,-0.7496 l 0,-17.6508 c 1.6944,0.047 2.54161,0.2538 2.54163,0.6208 -2e-5,0.2264 -0.3592,0.4568 -1.07756,0.691 l 0,17.1355 c -1e-5,1.3586 -0.89797,2.038 -2.69389,2.038 -1e-5,-0.4763 -0.32015,-0.8433 -0.96043,-1.101 -0.43727,-0.164 -1.28448,-0.3592 -2.54162,-0.5856 z"
         style=""
         id="path3154" />
      <path
         d="m 157.47763,1072.612 c -0.0703,3.342 -1.28058,5.7977 -3.6309,7.3672 l -0.39822,-0.5037 c 1.71784,-1.5538 2.61189,-3.8417 2.68217,-6.8635 l -3.13896,0 -0.19912,-0.5974 3.33808,0 0,-4.5093 -2.37765,0 -0.21082,-0.5973 8.10509,0 1.0307,-1.347 c 0.49973,0.4764 0.96432,0.9878 1.3938,1.5344 l -0.23426,0.4099 -2.37764,0 0,4.5093 0.937,0 1.0307,-1.3938 c 0.61685,0.6169 1.08145,1.1362 1.3938,1.5578 l -0.26939,0.4334 -3.09211,0 0,6.4067 -1.32352,0 0,-6.4067 z m 0,-0.5974 2.65875,0 0,-4.5093 -2.65875,0 z m 5.08325,13.2235 0,-3.7949 -7.3672,0 -0.25768,-0.5973 7.62488,0 0,-2.9984 c 1.61632,0.07 2.42448,0.2694 2.42449,0.5973 -1e-5,0.2031 -0.33577,0.41 -1.00728,0.6208 l 0,1.7803 5.37607,0 1.17125,-1.3235 c 0.5778,0.4607 1.09706,0.9565 1.55777,1.4875 l -0.25767,0.4333 -7.84742,0 0,3.7949 7.23836,0 1.3001,-1.4406 c 0.62465,0.4763 1.19075,1.0033 1.69832,1.5812 l -0.30453,0.4568 -21.09431,0 -0.30453,-0.5974 z m 3.18581,-10.0845 0,-8.1519 c 1.53823,0.07 2.30736,0.2616 2.30737,0.5739 -1e-5,0.1952 -0.32016,0.4099 -0.96043,0.6442 l 0,6.9338 z m 1.27667,1.6866 c 0.96041,0.094 1.8857,0.1406 2.77587,0.1406 0.59342,0 0.89014,-0.2148 0.89016,-0.6442 l 0,-10.5062 c 1.53823,0.07 2.30735,0.2772 2.30737,0.6208 -2e-5,0.1952 -0.31235,0.4099 -0.937,0.6442 l 0,10.1079 c -2e-5,1.1244 -0.7223,1.6749 -2.16683,1.6515 -0.0234,-0.4607 -0.25379,-0.7731 -0.69104,-0.937 -0.3592,-0.1562 -1.08538,-0.3085 -2.17853,-0.4568 z"
         style=""
         id="path3156" />
      <path
         d="m 181.05501,1076.1375 12.47387,0 0.937,-0.9605 c 0.92137,0.6637 1.38206,1.1127 1.38208,1.347 -2e-5,0.086 -0.0703,0.1874 -0.21082,0.3045 l -0.52707,0.3865 0,6.1023 -1.34694,0 0,-0.8199 -5.84457,0 0,1.5109 c -1e-5,0.4295 0.12102,0.7027 0.36309,0.8199 0.33575,0.1327 1.47577,0.1991 3.42007,0.1991 1.99892,0 3.21312,-0.062 3.6426,-0.1874 0.56999,-0.1718 1.03459,-1.2142 1.3938,-3.1273 l 0.62076,0.164 c -0.0937,0.8355 -0.14057,1.425 -0.14055,1.7686 -2e-5,0.6637 0.28889,1.0112 0.86673,1.0424 -0.0234,0.7574 -0.38263,1.222 -1.07755,1.3938 -0.64031,0.125 -2.24102,0.1874 -4.80215,0.1874 -2.91254,0 -4.59914,-0.121 -5.05982,-0.3631 -0.39824,-0.2108 -0.59736,-0.6988 -0.59734,-1.464 l 0,-1.9443 -5.72744,0 0,1.464 -1.34695,0 0,-8.4916 c 0.58563,0.2109 1.11269,0.4334 1.5812,0.6677 z m 6.86355,3.4317 0,2.3308 5.84457,0 0,-2.3308 z m -1.37036,0 -5.72744,0 0,2.3308 5.72744,0 z m -5.72744,-0.5973 5.72744,0 0,-2.2371 -5.72744,0 z m 7.0978,0 5.84457,0 0,-2.2371 -5.84457,0 z m -8.71414,-9.862 7.32035,0 0,-1.9677 -6.88698,0 -0.25768,-0.5973 13.02436,0 1.21811,-1.4407 c 0.55437,0.4607 1.10096,0.98 1.63976,1.5578 l -0.29282,0.4802 -7.07438,0 0,1.9677 7.6483,0 0.937,-1.1478 c 1.10096,1.0307 1.65145,1.6944 1.65147,1.9911 -2e-5,0.1328 -0.0859,0.2109 -0.25767,0.2343 l -0.79646,0.164 c -0.23427,0.2733 -0.76133,0.7964 -1.58119,1.5694 l -0.48022,-0.3162 c 0.35136,-0.7652 0.5778,-1.3977 0.67933,-1.8974 l -7.80056,0 0,5.376 -1.37037,0 0,-5.376 -7.29692,0 c -1e-5,1.0619 -0.20693,1.9989 -0.62077,2.811 -0.40603,0.7184 -0.83549,1.0775 -1.28838,1.0775 -0.54658,0 -0.81988,-0.2811 -0.81988,-0.8433 0,-0.2342 0.13665,-0.4724 0.40994,-0.7144 0.99166,-0.8746 1.53434,-2.1161 1.62805,-3.7246 l 0.59734,0.1054 c 0.0312,0.3045 0.0546,0.5349 0.0703,0.691 z m 4.18139,4.7319 0.89015,-1.019 c 0.4763,0.3904 0.89795,0.7926 1.26496,1.2064 l -0.25768,0.4099 -5.35264,0 -0.31624,-0.5973 z m 9.22949,0 0.89015,-1.1127 c 0.54657,0.4841 0.97993,0.9097 1.3001,1.2767 l -0.26939,0.4333 -5.39949,0 -0.2811,-0.5973 z m -9.15922,-2.284 0.91358,-1.1009 c 0.60904,0.609 0.99946,1.0307 1.17126,1.2649 l -0.23426,0.4334 -5.21208,0 -0.2811,-0.5974 z m 8.94839,0 0.91358,-1.0541 c 0.45287,0.3358 0.86671,0.7262 1.24153,1.1713 l -0.23425,0.4802 -5.16523,0 -0.30453,-0.5974 z"
         style=""
         id="path3158" />
      <path
         d="m 209.29397,1079.8152 c 1.00727,-1.1322 1.89352,-2.3815 2.65875,-3.748 1.26494,0.6012 1.89742,1.0502 1.89743,1.3469 -1e-5,0.2109 -0.37481,0.3163 -1.1244,0.3163 -0.67934,0.8901 -1.46408,1.8232 -2.35423,2.7993 2.49086,1.749 3.73629,2.9984 3.73631,3.748 -2e-5,0.4919 -0.22255,0.7379 -0.66762,0.7379 -0.24207,0 -0.46851,-0.1289 -0.67932,-0.3865 -0.89798,-1.0542 -1.98334,-2.1005 -3.25609,-3.139 -2.06923,1.9209 -4.61085,3.463 -7.62488,4.6265 l -0.36309,-0.5037 c 2.8032,-1.3508 5.12229,-3.0062 6.95726,-4.9661 -1.53826,-1.1791 -3.13507,-2.2332 -4.79043,-3.1624 l 0.32795,-0.5036 c 1.92085,0.8979 3.68164,1.8427 5.28236,2.8344 z m -2.90471,-10.8927 c -1.42894,2.4441 -3.12336,4.4196 -5.08325,5.9266 l -0.43337,-0.4568 c 2.45183,-2.4284 4.34535,-5.5791 5.68059,-9.452 1.49139,0.3123 2.23709,0.6403 2.2371,0.9838 -1e-5,0.203 -0.38262,0.3631 -1.14783,0.4802 -0.21083,0.4998 -0.51536,1.1401 -0.91358,1.9209 l 10.67014,0 1.19468,-1.5578 c 0.63246,0.5779 1.17904,1.144 1.63976,1.6983 l -0.29282,0.4568 z m 9.7097,2.3542 1.15955,-1.3703 c 0.63246,0.57 1.1439,1.0736 1.53434,1.5109 l -0.29281,0.4568 -12.32161,0 -0.26939,-0.5974 z m -0.50364,3.0922 0.98386,-1.1362 c 0.97603,0.7419 1.46405,1.2338 1.46407,1.4758 -2e-5,0.094 -0.0859,0.2031 -0.25768,0.328 l -0.55049,0.3396 c 0.0234,3.0375 0.69493,5.5635 2.01456,7.5781 0.35136,0.5466 0.5817,0.8198 0.69104,0.8198 0.35917,0 0.69493,-1.4874 1.00728,-4.4624 l 0.62077,0.3045 c -0.14058,1.7569 -0.21085,2.9828 -0.21083,3.6777 -2e-5,1.0776 0.24594,1.7218 0.73789,1.9326 -0.11715,0.7262 -0.47633,1.0893 -1.07755,1.0893 -0.76524,0 -1.59683,-0.5935 -2.49478,-1.7803 -1.74128,-2.3347 -2.63534,-5.5245 -2.68217,-9.5692 l -12.591,0 -0.24596,-0.5973 z"
         style=""
         id="path3160" />
      <path
         d="m 235.68235,1078.9953 c -0.85893,0.7028 -2.05752,1.4368 -3.59576,2.202 l 0,3.2444 c 2.26442,-0.2968 4.27117,-0.5935 6.02026,-0.8902 l 0.12883,0.5973 c -3.03746,0.7887 -6.42239,1.4758 -10.15478,2.0615 -0.14836,0.5153 -0.30063,0.773 -0.45679,0.773 -0.30453,0 -0.62467,-0.6793 -0.96043,-2.038 1.7803,-0.1171 3.13115,-0.2382 4.05254,-0.3631 l 0,-2.7993 c -1.75688,0.7106 -3.80268,1.3001 -6.13737,1.7686 l -0.29282,-0.5505 c 4.00569,-0.976 7.08609,-2.3113 9.24121,-4.0057 l -8.73757,0 -0.29281,-0.5973 10.08451,0 0,-1.6983 c 1.47577,0.094 2.21366,0.285 2.21367,0.5739 -1e-5,0.1483 -0.29673,0.3084 -0.89015,0.4802 l 0,0.6442 7.46089,0 1.17126,-1.4407 c 0.4919,0.4451 1.00335,0.9722 1.53434,1.5812 l -0.2811,0.4568 -9.35833,0 c 0.7574,1.265 1.75687,2.3425 2.99842,3.2327 0.0312,-0.016 0.10149,-0.078 0.21082,-0.1874 1.06973,-0.9448 1.95988,-1.9209 2.67046,-2.9282 1.17905,0.531 1.76858,0.9449 1.7686,1.2416 -2e-5,0.1952 -0.22256,0.2928 -0.66762,0.2928 -0.11714,0 -0.22255,-0.01 -0.31623,-0.023 -0.8199,0.6481 -1.85061,1.3118 -3.09212,1.9911 1.76467,1.0932 3.88464,1.8701 6.35992,2.3308 -0.49195,0.4217 -0.86675,0.9019 -1.12441,1.4406 -4.81778,-1.3196 -8.00359,-3.7831 -9.55744,-7.3906 z m -7.71858,-11.3963 2.34252,0 0,-2.4948 c 1.49139,0.07 2.23708,0.2538 2.23709,0.5505 -1e-5,0.1796 -0.29672,0.3631 -0.89015,0.5505 l 0,1.3938 2.54162,0 0.98386,-1.2767 c 0.52315,0.4686 0.96432,0.9332 1.32352,1.3938 l -0.29282,0.4802 -4.55618,0 0,1.8741 3.11554,0 1.06584,-1.2767 c 0.55438,0.4451 1.0424,0.9175 1.46407,1.4172 l -0.29281,0.4568 -5.35264,0 0,1.5695 2.85786,0 0.78474,-0.8668 c 0.88234,0.6403 1.32351,1.0425 1.32352,1.2064 -1e-5,0.055 -0.0625,0.1328 -0.1874,0.2343 l -0.48021,0.3397 0,1.9677 c -2e-5,0.8979 -0.62468,1.3586 -1.87401,1.382 -1e-5,-0.6168 -0.55441,-0.9604 -1.66318,-1.0307 l 0,-0.5739 c 0.45287,0.047 0.95651,0.07 1.51091,0.07 0.48411,0 0.72617,-0.1757 0.72618,-0.5271 l 0,-1.6046 -2.99841,0 0,4.4859 -1.34694,0 0,-4.4859 -2.75246,0 0,4.0057 -1.30009,0 0,-5.2355 c 0.5622,0.1952 1.08146,0.406 1.55777,0.6325 l 2.49478,0 0,-1.5695 -5.28237,0 -0.1874,-0.5973 5.46977,0 0,-1.8741 -2.75246,0 c -0.48412,0.6169 -1.02289,1.1635 -1.61633,1.6398 l -0.40994,-0.3162 c 0.86673,-1.14 1.46016,-2.5416 1.78031,-4.2048 1.28057,0.2889 1.92085,0.5622 1.92086,0.8198 -1e-5,0.164 -0.26549,0.3085 -0.79645,0.4334 -0.11713,0.3124 -0.2733,0.6559 -0.46851,1.0307 z m 10.20164,6.5473 0,-8.1753 c 1.47577,0.07 2.21366,0.2616 2.21367,0.5739 -10e-6,0.1874 -0.30454,0.3787 -0.91358,0.5739 l 0,7.0275 z m 1.42893,1.183 c 0.7574,0.094 1.54604,0.1406 2.36594,0.1405 0.49971,10e-5 0.74958,-0.2459 0.7496,-0.7378 l 0,-9.5575 c 1.507,0.055 2.2605,0.2577 2.26052,0.6091 -2e-5,0.1952 -0.30454,0.4021 -0.91358,0.6207 l 0,9.1592 c -2e-5,1.0932 -0.69886,1.6398 -2.09654,1.6398 -2e-5,-0.4295 -0.19913,-0.7262 -0.59734,-0.8902 -0.36701,-0.1249 -0.95655,-0.2459 -1.7686,-0.363 z"
         style=""
         id="path3162" />
      <path
         d="m 251.41232,1077.2033 4.73187,0 0.80817,-1.0073 c 0.97603,0.6872 1.46405,1.144 1.46406,1.3704 -1e-5,0.1093 -0.0703,0.2108 -0.21082,0.3045 l -0.50364,0.3631 0,7.9294 -1.37037,0 0,-1.5578 -5.17695,0 0,1.8272 -1.34694,0 0,-9.9205 c 0.60905,0.203 1.14392,0.4333 1.60462,0.691 z m -0.25768,0.5973 0,6.2077 5.17695,0 0,-6.2077 z m 10.90439,-0.5973 5.04811,0 0.91358,-1.0776 c 0.92137,0.734 1.38206,1.2143 1.38208,1.4407 -2e-5,0.086 -0.0625,0.1796 -0.1874,0.2811 l -0.52706,0.3865 0,8.1988 -1.37037,0 0,-1.8272 -5.46977,0 0,1.8272 -1.37037,0 0,-10.0025 c 0.57,0.242 1.09707,0.4997 1.5812,0.773 z m -0.21083,0.5973 0,6.2077 5.46977,0 0,-6.2077 z m -6.57074,-10.5998 7.98796,0 0.87844,-1.0776 c 0.99165,0.7262 1.48748,1.1986 1.4875,1.4172 -2e-5,0.1016 -0.0547,0.1875 -0.16398,0.2577 l -0.57391,0.3865 0,7.051 -1.41722,0 0,-1.5226 -8.45647,0 0,1.6866 -1.41722,0 0,-8.9953 c 0.32795,0.1328 0.82378,0.367 1.4875,0.7028 z m -0.25768,0.5973 0,5.3175 8.45647,0 0,-5.3175 z"
         style=""
         id="path3164" />
      <path
         d="m 283.27047,1074.076 c 0.46849,10e-5 0.88624,0.1836 1.25325,0.5505 0.32013,0.3202 0.4802,0.7106 0.48021,1.1713 -1e-5,0.3123 -0.0859,0.6169 -0.25767,0.9136 -0.3592,0.5466 -0.85113,0.8199 -1.47579,0.8199 -0.41385,0 -0.78084,-0.1367 -1.10098,-0.41 -0.41385,-0.367 -0.62077,-0.8081 -0.62076,-1.3235 -10e-6,-0.5856 0.24595,-1.0541 0.73789,-1.4055 0.30451,-0.2108 0.63247,-0.3162 0.98385,-0.3163 z"
         style=""
         id="path3166" />
      <path
         d="m 309.93995,1070.3163 c 1.02288,-1.6553 1.83105,-3.4317 2.4245,-5.3292 1.55385,0.531 2.33078,0.9722 2.3308,1.3235 -2e-5,0.2343 -0.3592,0.3866 -1.07755,0.4568 -0.78867,1.1401 -1.7491,2.323 -2.88129,3.5489 l 4.55618,0 0.93701,-1.1947 c 1.1478,1.1245 1.72172,1.8428 1.72174,2.1551 -2e-5,0.1484 -0.10934,0.2343 -0.32795,0.2577 l -0.7496,0.1172 c -0.64812,0.7261 -1.40553,1.425 -2.27224,2.0965 l -0.45679,-0.3631 c 0.55438,-0.8823 0.97603,-1.7061 1.26496,-2.4713 l -15.87052,0 0,0.363 c 0,1.1401 -0.21863,2.081 -0.6559,2.8228 -0.35138,0.6403 -0.75741,0.9604 -1.2181,0.9604 -0.20302,0 -0.39433,-0.078 -0.57392,-0.2342 -0.21083,-0.164 -0.31624,-0.3748 -0.31624,-0.6325 0,-0.2421 0.1913,-0.5427 0.57392,-0.9019 0.80426,-0.7808 1.27666,-2.0614 1.41722,-3.8417 l 0.57391,0.047 c 0.039,0.164 0.0781,0.4373 0.11713,0.8199 z m -8.09337,4.3922 4.61474,0 0,-3.2678 c 1.64756,0.078 2.47134,0.2889 2.47135,0.6325 -10e-6,0.2108 -0.35919,0.4256 -1.07755,0.6442 l 0,1.9911 4.89585,0 0.8433,-0.9838 c 0.93699,0.7496 1.40549,1.2142 1.40551,1.3938 -2e-5,0.1093 -0.0703,0.2108 -0.21083,0.3045 l -0.52706,0.3397 0,5.1066 -1.34695,0 0,-1.2766 -5.05982,0 0,4.1813 0.8433,-0.023 c 0.0859,-0.01 0.24595,-0.016 0.48022,-0.023 0.49972,-0.023 0.91356,-0.047 1.24153,-0.07 1.45234,-0.094 2.5338,-0.1679 3.24438,-0.2225 -0.85113,-0.7184 -1.78033,-1.3548 -2.78759,-1.9092 l 0.31624,-0.5153 c 3.99786,1.4601 5.9968,2.9476 5.99682,4.4625 -2e-5,0.6559 -0.28112,0.9838 -0.8433,0.9838 -0.32797,0 -0.59736,-0.2381 -0.80817,-0.7144 -0.21865,-0.4607 -0.65201,-1.0347 -1.30009,-1.7218 l -0.26939,0.023 c -4.72408,0.6716 -9.63944,1.1596 -14.7461,1.4641 -0.17179,0.6481 -0.35529,0.9721 -0.55049,0.9721 -0.37481,0 -0.71838,-0.7886 -1.03071,-2.3659 2.50648,-0.023 4.93488,-0.09 7.28521,-0.1991 l 1.53434,-0.07 0,-4.2516 -4.90756,0 0,1.6631 -1.37036,0 0,-7.2149 c 0.82768,0.3202 1.38207,0.5427 1.66318,0.6676 z m -0.29282,0.5974 0,3.6894 4.90756,0 0,-3.6894 z m 11.36118,3.6894 0,-3.6894 -5.05982,0 0,3.6894 z m -8.12851,-13.9848 c 2.27222,1.1479 3.40834,2.2996 3.40835,3.4552 -10e-6,0.6091 -0.28111,0.9136 -0.8433,0.9136 -0.38262,0 -0.6442,-0.2655 -0.78474,-0.7964 -0.27331,-1.0932 -0.98777,-2.1473 -2.1434,-3.1624 z m -5.08325,0.3397 c 2.5221,0.9839 3.78315,2.077 3.78316,3.2795 -10e-6,0.6247 -0.29673,0.937 -0.89016,0.937 -0.34357,0 -0.59735,-0.2381 -0.76131,-0.7145 -0.38262,-1.1321 -1.19859,-2.1394 -2.44793,-3.0218 z"
         style=""
         id="path3168" />
      <path
         d="m 330.48377,1075.0833 0,-9.4286 c 1.60851,0.07 2.41277,0.2694 2.41278,0.5974 -10e-6,0.203 -0.33967,0.4372 -1.01899,0.7027 l 0,8.1285 6.75814,0 1.28839,-1.6749 c 0.61684,0.5388 1.18685,1.144 1.71003,1.8155 l -0.29281,0.4568 -7.09781,0 0,8.1168 c -2e-5,0.4372 0.13663,0.7066 0.40994,0.8081 0.31232,0.078 1.06973,0.1172 2.27223,0.1172 1.2259,0 2.01064,-0.039 2.35423,-0.1172 0.64026,-0.1874 1.03068,-1.6827 1.17125,-4.4859 l 0.6559,0.2694 0,0.6208 c -2e-5,1.4914 0.0703,2.444 0.21083,2.8578 0.12491,0.3905 0.38259,0.574 0.77303,0.5505 -0.0235,0.8043 -0.4412,1.2923 -1.25324,1.4641 -0.79648,0.1249 -2.09267,0.1874 -3.88857,0.1874 -2.10828,0 -3.3459,-0.1601 -3.71288,-0.4802 -0.27331,-0.2733 -0.40996,-0.7691 -0.40994,-1.4875 l 0,-8.4213 -3.49034,0 c -0.14837,3.4669 -0.9253,6.0124 -2.3308,7.6366 -1.28058,1.4679 -3.31856,2.5611 -6.11396,3.2795 l -0.33966,-0.5505 c 3.20924,-1.1244 5.32921,-2.8852 6.35992,-5.2824 0.58562,-1.343 0.90576,-3.0374 0.96043,-5.0832 l -6.79328,0 -0.23426,-0.5974 z m -7.2735,-7.6951 c 2.68607,2.1395 4.02911,3.9393 4.02912,5.3995 -1e-5,0.6559 -0.28111,0.9838 -0.8433,0.9838 -0.3592,0 -0.6442,-0.367 -0.85502,-1.101 -0.4607,-1.6475 -1.36647,-3.2638 -2.71731,-4.849 z m 11.03323,6.1842 c 1.2337,-1.8349 2.3542,-4.0642 3.3615,-6.6879 1.40549,0.6872 2.10824,1.1908 2.10826,1.511 -2e-5,0.2264 -0.35921,0.3396 -1.07756,0.3396 -0.99168,1.7257 -2.28786,3.4591 -3.88856,5.2004 z"
         style=""
         id="path3170" />
      <path
         d="m 354.48281,1072.1083 0,-2.565 c 0.0625,0.01 0.17178,0.016 0.32796,0.023 0.10149,0.01 0.17567,0.016 0.22253,0.023 1.08536,-1.3664 1.80763,-2.9242 2.16683,-4.6733 1.38987,0.289 2.08482,0.5857 2.08483,0.8902 -1e-5,0.1718 -0.32797,0.3084 -0.98385,0.4099 -0.17961,0.4529 -0.37091,0.8512 -0.57392,1.1947 l 5.42292,0 1.10098,-1.4406 c 0.49971,0.4841 0.99554,1.019 1.48749,1.6046 l -0.26939,0.4333 -6.20765,0 c 1.31179,0.6872 1.96769,1.4602 1.96771,2.3191 -2e-5,0.5779 -0.28112,0.8668 -0.84331,0.8668 -0.37482,0 -0.59735,-0.246 -0.66761,-0.7379 -0.11715,-0.8433 -0.53489,-1.6203 -1.25325,-2.3308 l -0.11712,-0.1172 -1.00728,0 c -0.46071,0.6716 -0.94873,1.2377 -1.46407,1.6984 0.54657,0.1171 0.81986,0.2694 0.81988,0.4568 -2e-5,0.1952 -0.29673,0.3865 -0.89016,0.5739 l 0,1.3703 7.50775,0 0.91358,-1.1478 c 1.14781,1.0776 1.72172,1.7803 1.72175,2.1083 -3e-5,0.1483 -0.0937,0.2342 -0.28111,0.2576 l -0.86672,0.1523 c -0.49195,0.4841 -1.16347,1.0502 -2.01456,1.6983 l -0.43337,-0.3631 c 0.42163,-0.6949 0.7652,-1.3976 1.03071,-2.1082 l -15.9525,0 c -0.0234,1.0932 -0.21474,1.9872 -0.57392,2.6822 -0.35919,0.6871 -0.75741,1.0307 -1.19468,1.0307 -0.57782,0 -0.86673,-0.2811 -0.86673,-0.8433 0,-0.2265 0.19131,-0.5193 0.57392,-0.8785 0.83549,-0.7886 1.28837,-1.9872 1.35865,-3.5957 l 0.58563,0.047 0.0937,0.9604 z m -5.49318,-4.6967 4.08768,0 1.07755,-1.4172 0.48022,0.5271 c 0.24205,0.2498 0.51924,0.6012 0.83159,1.0541 l -0.2811,0.4333 -4.98955,0 c 1.29618,0.7419 1.94427,1.5227 1.94428,2.3426 -1e-5,0.5778 -0.28111,0.8667 -0.8433,0.8667 -0.34358,0 -0.57392,-0.2733 -0.69104,-0.8199 -0.20303,-1.0073 -0.6442,-1.8037 -1.32352,-2.3894 l -0.62077,0 c -1.07755,1.835 -2.40498,3.3069 -3.98226,4.4157 l -0.38652,-0.3865 c 2.01456,-2.0146 3.37321,-4.4039 4.07597,-7.1681 1.46016,0.3123 2.19024,0.6169 2.19025,0.9136 -10e-6,0.1874 -0.34748,0.3318 -1.04242,0.4333 -0.24987,0.6169 -0.42556,1.0151 -0.52706,1.1947 z m 2.02627,7.3438 8.56188,0 0.85501,-1.0307 c 0.95261,0.7027 1.42892,1.1517 1.42893,1.3469 -10e-6,0.07 -0.0664,0.1562 -0.19911,0.2577 l -0.55049,0.3865 0,3.7832 -1.37037,0 0,-0.7965 -9.04209,0 0,2.1903 9.8854,0 0.86672,-1.0073 c 0.89014,0.7262 1.33522,1.1829 1.33524,1.3703 -2e-5,0.1016 -0.0547,0.1874 -0.16398,0.2577 l -0.55049,0.3865 0,4.7436 -1.34694,0 0,-1.3821 -10.02595,0 0,1.3821 -1.39379,0 0,-12.6027 c 0.62466,0.2343 1.19467,0.4724 1.71003,0.7145 z m -0.31624,0.5973 0,2.7525 9.04209,0 0,-2.7525 z m 0,6.1374 0,3.1741 10.02595,0 0,-3.1741 z"
         style=""
         id="path3172" />
      <path
         d="m 379.21972,1074.076 c 0.46849,10e-5 0.88624,0.1836 1.25325,0.5505 0.32013,0.3202 0.4802,0.7106 0.48021,1.1713 -10e-6,0.3123 -0.0859,0.6169 -0.25768,0.9136 -0.35919,0.5466 -0.85112,0.8199 -1.47578,0.8199 -0.41385,0 -0.78085,-0.1367 -1.10098,-0.41 -0.41385,-0.367 -0.62077,-0.8081 -0.62076,-1.3235 -10e-6,-0.5856 0.24595,-1.0541 0.73789,-1.4055 0.30451,-0.2108 0.63246,-0.3162 0.98385,-0.3163 z"
         style=""
         id="path3174" />
      <path
         d="m 396.94081,1076.1375 12.47387,0 0.93701,-0.9605 c 0.92136,0.6637 1.38206,1.1127 1.38208,1.347 -2e-5,0.086 -0.0703,0.1874 -0.21083,0.3045 l -0.52706,0.3865 0,6.1023 -1.34695,0 0,-0.8199 -5.84456,0 0,1.5109 c -1e-5,0.4295 0.12101,0.7027 0.36309,0.8199 0.33574,0.1327 1.47576,0.1991 3.42006,0.1991 1.99893,0 3.21313,-0.062 3.64261,-0.1874 0.56999,-0.1718 1.03459,-1.2142 1.39379,-3.1273 l 0.62077,0.164 c -0.0937,0.8355 -0.14058,1.425 -0.14055,1.7686 -3e-5,0.6637 0.28888,1.0112 0.86673,1.0424 -0.0234,0.7574 -0.38264,1.222 -1.07756,1.3938 -0.64031,0.125 -2.24102,0.1874 -4.80215,0.1874 -2.91253,0 -4.59914,-0.121 -5.05982,-0.3631 -0.39824,-0.2108 -0.59735,-0.6988 -0.59734,-1.464 l 0,-1.9443 -5.72744,0 0,1.464 -1.34694,0 0,-8.4916 c 0.58562,0.2109 1.11268,0.4334 1.58119,0.6677 z m 6.86356,3.4317 0,2.3308 5.84456,0 0,-2.3308 z m -1.37037,0 -5.72744,0 0,2.3308 5.72744,0 z m -5.72744,-0.5973 5.72744,0 0,-2.2371 -5.72744,0 z m 7.09781,0 5.84456,0 0,-2.2371 -5.84456,0 z m -8.71414,-9.862 7.32034,0 0,-1.9677 -6.88698,0 -0.25767,-0.5973 13.02436,0 1.2181,-1.4407 c 0.55438,0.4607 1.10096,0.98 1.63976,1.5578 l -0.29281,0.4802 -7.07439,0 0,1.9677 7.6483,0 0.93701,-1.1478 c 1.10095,1.0307 1.65144,1.6944 1.65147,1.9911 -3e-5,0.1328 -0.0859,0.2109 -0.25768,0.2343 l -0.79645,0.164 c -0.23428,0.2733 -0.76134,0.7964 -1.5812,1.5694 l -0.48021,-0.3162 c 0.35135,-0.7652 0.5778,-1.3977 0.67932,-1.8974 l -7.80056,0 0,5.376 -1.37037,0 0,-5.376 -7.29692,0 c 0,1.0619 -0.20692,1.9989 -0.62076,2.811 -0.40604,0.7184 -0.8355,1.0775 -1.28838,1.0775 -0.54659,0 -0.81988,-0.2811 -0.81988,-0.8433 0,-0.2342 0.13664,-0.4724 0.40994,-0.7144 0.99166,-0.8746 1.53434,-2.1161 1.62804,-3.7246 l 0.59734,0.1054 c 0.0312,0.3045 0.0547,0.5349 0.0703,0.691 z m 4.18138,4.7319 0.89015,-1.019 c 0.4763,0.3904 0.89796,0.7926 1.26496,1.2064 l -0.25768,0.4099 -5.35263,0 -0.31624,-0.5973 z m 9.22949,0 0.89016,-1.1127 c 0.54656,0.4841 0.97993,0.9097 1.30009,1.2767 l -0.26939,0.4333 -5.39949,0 -0.2811,-0.5973 z m -9.15922,-2.284 0.91358,-1.1009 c 0.60905,0.609 0.99946,1.0307 1.17126,1.2649 l -0.23425,0.4334 -5.21209,0 -0.2811,-0.5974 z m 8.9484,0 0.91358,-1.0541 c 0.45286,0.3358 0.86671,0.7262 1.24153,1.1713 l -0.23425,0.4802 -5.16524,0 -0.30453,-0.5974 z"
         style=""
         id="path3176" />
      <path
         d="m 430.64954,1070.738 c 0.42163,2.3113 1.10877,4.3258 2.06141,6.0436 1.14,-1.2102 2.18632,-2.6899 3.13896,-4.439 1.18685,0.7262 1.78029,1.2298 1.78031,1.5109 -2e-5,0.1796 -0.20304,0.2694 -0.60905,0.2694 -0.18743,0 -0.33969,-0.01 -0.45679,-0.023 -0.9995,1.1244 -2.17465,2.2058 -3.52548,3.2444 1.20247,1.8505 2.97106,3.5684 5.30578,5.1535 -0.52318,0.3826 -0.94873,0.8394 -1.27666,1.3703 -3.38886,-2.7719 -5.52835,-6.3403 -6.41848,-10.7052 l 0,11.5251 c -2e-5,1.2494 -0.85113,1.8857 -2.55334,1.9092 -0.0234,-0.4685 -0.26159,-0.8121 -0.71447,-1.0307 -0.32015,-0.1328 -1.06195,-0.3163 -2.22538,-0.5505 l 0,-0.6442 c 1.16343,0.1562 2.27222,0.2342 3.32636,0.2342 0.51534,0 0.77302,-0.2615 0.77303,-0.7847 l 0,-5.3761 c -1.31963,1.2962 -2.95157,2.6158 -4.89585,3.9589 0.0156,0.1093 0.0234,0.2225 0.0234,0.3396 -1e-5,0.4451 -0.0898,0.6677 -0.26939,0.6677 -0.30453,0 -0.78084,-0.6403 -1.42893,-1.9209 2.48305,-1.1556 4.6733,-2.444 6.57074,-3.8651 l 0,-6.9573 -6.33649,0 -0.25768,-0.5973 6.59417,0 0,-4.9896 c 1.58509,0.024 2.37763,0.2226 2.37765,0.5973 -2e-5,0.1797 -0.32797,0.3788 -0.98385,0.5974 l 0,3.7949 4.60303,0 1.12441,-1.4641 c 0.60122,0.4997 1.13609,1.0268 1.60462,1.5812 l -0.25768,0.4802 -7.07438,0 z m -9.85026,3.584 0,5.2824 c 1.2181,-0.4607 2.36593,-0.9644 3.44349,-1.5109 l 0.17569,0.6207 c -2.18635,1.3665 -4.38831,2.5495 -6.60588,3.5489 -0.0703,0.6715 -0.21474,1.0073 -0.43337,1.0073 -0.36699,0 -0.78084,-0.7106 -1.24153,-2.1317 1.07755,-0.2811 2.17463,-0.6246 3.29123,-1.0307 l 0,-5.786 -2.64704,0 -0.23425,-0.5973 2.88129,0 0,-5.5518 -2.85787,0 -0.24596,-0.5973 5.48148,0 1.1244,-1.4875 c 0.57,0.5232 1.08145,1.0737 1.53435,1.6515 l -0.26939,0.4333 -3.39664,0 0,5.5518 0.83159,0 1.00728,-1.5109 c 0.40603,0.406 0.88624,0.9643 1.44064,1.6748 l -0.23425,0.4334 z m 11.64228,-8.6673 c 2.03796,0.7184 3.05695,1.5656 3.05697,2.5416 -2e-5,0.5935 -0.28893,0.8902 -0.86673,0.8902 -0.39043,0 -0.65592,-0.2733 -0.79645,-0.8199 -0.21084,-0.7808 -0.76133,-1.507 -1.65147,-2.1785 z m -8.08167,6.5825 c 2.25661,1.2415 3.38492,2.487 3.38493,3.7363 -1e-5,0.6247 -0.2733,0.937 -0.81988,0.937 -0.40604,0 -0.67153,-0.2967 -0.79645,-0.8902 -0.2655,-1.1244 -0.96825,-2.2449 -2.10826,-3.3615 z"
         style=""
         id="path3178" />
      <path
         d="m 11.562619,1090.9656 c 0.359171,2.9359 1.19857,5.6142 2.518199,8.0348 1.475765,-1.3274 3.025725,-3.2444 4.649884,-5.7509 1.233701,0.8433 1.850562,1.4172 1.850584,1.7217 -2.2e-5,0.1797 -0.17571,0.2694 -0.527065,0.2694 -0.124955,0 -0.331877,-0.027 -0.620766,-0.082 -1.343059,1.4602 -3.00624,2.9477 -4.989548,4.4625 1.585082,2.5534 3.919782,4.8334 7.004108,6.8402 -0.468525,0.3201 -0.862847,0.7613 -1.182968,1.3235 -2.982816,-2.2644 -5.157445,-4.6889 -6.523893,-7.2735 -1.015102,-1.8974 -1.74128,-4.0174 -2.178535,-6.3599 l 0,13.9848 c -1.3e-5,1.3977 -0.847221,2.0965 -2.5416248,2.0965 -1.03e-5,-0.4451 -0.1991236,-0.773 -0.5973403,-0.9838 -0.3826195,-0.1796 -1.2961979,-0.4061 -2.7407378,-0.6794 l 0,-0.6442 c 1.4601567,0.1952 2.674357,0.2928 3.6426045,0.2928 0.5465747,0 0.8198674,-0.242 0.8198784,-0.7261 l 0,-17.7446 c 1.600703,0.047 2.40106,0.246 2.401074,0.5974 -1.4e-5,0.1952 -0.327965,0.4021 -0.983854,0.6208 z m -4.8958483,4.8255 0.9370044,-1.2181 c 1.0072697,0.859 1.5109091,1.4173 1.5109196,1.6749 -1.05e-5,0.1172 -0.078094,0.2109 -0.2342511,0.2811 l -0.6207654,0.3397 c -0.6481037,2.3347 -1.4640775,4.3102 -2.447924,5.9265 -1.2961953,2.0771 -3.1038311,3.8339 -5.4229129,5.2707 l -0.38651431,-0.5037 c 3.38882781,-2.6001 5.65325281,-6.3247 6.79328181,-11.1737 l -5.8094272,0 -0.21082599,-0.5974 z"
         style=""
         id="path3180" />
      <path
         d="m 29.365702,1095.9317 0,3.3849 1.780308,0 1.030705,-1.4406 c 0.554384,0.5856 0.991653,1.1127 1.311806,1.5812 l -0.257676,0.4567 -3.865143,0 0,7.1681 c 1.233714,-0.2889 2.623603,-0.6871 4.16967,-1.1947 l 0.04685,0.6442 c -2.420603,1.062 -5.10668,2.0068 -8.058238,2.8345 -0.0937,0.5778 -0.238158,0.8667 -0.433365,0.8667 -0.29672,0 -0.663713,-0.6637 -1.10098,-1.9911 1.194678,-0.203 2.483058,-0.4607 3.865143,-0.7731 l 0.163976,-0.047 0,-7.5078 -3.642604,0 -0.245964,-0.5973 3.888568,0 0,-3.3849 -2.131685,0 c -0.530972,0.6325 -1.171257,1.2649 -1.920859,1.8974 l -0.456789,-0.4568 c 2.123873,-2.3191 3.673833,-5.1105 4.649884,-8.3745 1.460158,0.2187 2.19024,0.4686 2.190248,0.7496 -8e-6,0.1797 -0.304534,0.3319 -0.91358,0.4568 0.07808,0.031 0.160065,0.07 0.245964,0.1172 1.670982,0.8277 2.900799,1.7959 3.689455,2.9047 0.320132,0.4685 0.480203,0.8511 0.480214,1.1478 -1.1e-5,0.5622 -0.249878,0.8433 -0.749603,0.8433 -0.281112,0 -0.542692,-0.2381 -0.784741,-0.7145 -0.632487,-1.2727 -1.670999,-2.522 -3.11554,-3.748 -0.804268,1.7179 -1.741271,3.2444 -2.811013,4.5796 l 3.619179,0 1.00728,-1.2181 c 0.398218,0.3514 0.839391,0.8043 1.323519,1.3587 l -0.269389,0.4568 z m 7.097808,-5.3995 5.493188,0 1.00728,-1.1478 c 0.976025,0.7808 1.464048,1.2845 1.46407,1.5109 -2.2e-5,0.07 -0.05078,0.1405 -0.152264,0.2108 l -0.714466,0.4568 0,8.8313 -1.346943,0 0,-0.9136 -3.16239,0 c 0.359168,1.8193 0.948699,3.3966 1.768596,4.7319 1.179044,-1.2494 2.139473,-2.4753 2.881288,-3.6778 1.077533,0.6715 1.61631,1.1596 1.616333,1.4641 -2.3e-5,0.1796 -0.167903,0.2694 -0.50364,0.2694 -0.04687,0 -0.218656,-0.016 -0.515353,-0.047 -0.788666,0.7887 -1.842795,1.6203 -3.162389,2.4948 1.061918,1.5382 2.631399,2.9203 4.708447,4.1462 -0.507567,0.4061 -0.901889,0.8785 -1.182968,1.4173 -2.740758,-1.999 -4.587435,-4.4391 -5.540039,-7.3204 -0.320159,-1.0151 -0.577835,-2.1746 -0.773028,-3.4786 l -2.131685,0 0,8.3276 0.163975,-0.047 c 1.03069,-0.2733 2.233178,-0.6677 3.607467,-1.183 l 0.163976,0.6325 c -2.303484,1.1009 -4.513251,1.9794 -6.629306,2.6353 -0.09371,0.5778 -0.226453,0.8667 -0.398227,0.8667 -0.281111,0 -0.659817,-0.6559 -1.136118,-1.9677 1.428921,-0.2889 2.381541,-0.4919 2.857864,-0.609 l 0,-18.3536 c 0.70274,0.3045 1.241517,0.5544 1.616332,0.7496 z m -0.245963,0.5973 0,3.4318 5.996828,0 0,-3.4318 z m 5.996828,7.7537 0,-3.7246 -5.996828,0 0,3.7246 z m -17.428282,2.3308 c 1.405503,1.4524 2.108256,2.8189 2.10826,4.0994 -4e-6,0.7965 -0.288914,1.1947 -0.866729,1.1947 -0.429463,0 -0.644193,-0.3748 -0.644191,-1.1244 -0.02343,-1.2649 -0.366995,-2.5533 -1.030704,-3.8651 z m 5.458051,4.6968 c 0.468494,-1.2962 0.917475,-3.0219 1.346943,-5.177 1.311796,0.3826 1.967699,0.734 1.96771,1.0542 -1.1e-5,0.1796 -0.273304,0.3084 -0.819879,0.3865 -0.577829,1.4523 -1.229827,2.7758 -1.955997,3.9705 z"
         style=""
         id="path3182" />
      <path
         d="m 61.434677,1095.3578 c 0.554379,3.9042 1.690496,7.1173 3.408354,9.6394 1.00726,1.4914 1.717821,2.2371 2.131685,2.2371 0.406014,0 0.788624,-1.507 1.14783,-4.5211 l 0.620765,0.3163 c -0.156189,1.5304 -0.234273,2.7056 -0.234251,3.5255 -2.2e-5,1.343 0.296696,2.1199 0.890154,2.3308 -0.171806,0.7183 -0.55832,1.0775 -1.159542,1.0775 -0.780858,0 -1.827179,-0.7262 -3.138965,-2.1785 -2.678287,-3.014 -4.388318,-7.1173 -5.130099,-12.3099 l -11.255765,0 -0.234252,-0.5974 11.408029,0 c -0.02344,-0.1873 -0.04686,-0.4177 -0.07028,-0.691 -0.09371,-0.9136 -0.140564,-1.9872 -0.140551,-3.2209 l 0,-1.6281 c 1.585084,0.1172 2.377633,0.3319 2.377649,0.6442 -1.6e-5,0.1874 -0.304542,0.4139 -0.91358,0.6793 l 0,0.5037 c -1.4e-5,1.1712 0.07417,2.3698 0.222539,3.5957 l 4.90756,0 1.159543,-1.6749 c 0.491906,0.4685 0.956504,0.9722 1.393794,1.5109 l 0.187401,0.2343 -0.269389,0.5271 z m -6.137379,5.2238 0,5.6571 c 1.936466,-0.3982 3.697251,-0.812 5.282363,-1.2415 l 0.117125,0.6208 c -3.365418,1.2259 -6.699589,2.2332 -10.002522,3.0218 -0.124938,0.6403 -0.285009,0.9604 -0.480214,0.9604 -0.335764,0 -0.706661,-0.7769 -1.112693,-2.3308 1.592903,-0.2108 3.193618,-0.4646 4.802147,-0.7613 l 0,-5.9265 -4.251657,0 -0.234251,-0.5974 7.636586,0 1.24153,-1.6749 c 0.577808,0.531 1.11268,1.1205 1.60462,1.7686 l -0.281101,0.5037 z m 7.812274,-10.881 c 2.131667,0.8589 3.197508,1.8389 3.197528,2.9398 -2e-5,0.5935 -0.281121,0.8902 -0.843304,0.8902 -0.437287,0 -0.718388,-0.2616 -0.843304,-0.7847 -0.210844,-0.9292 -0.808183,-1.8038 -1.792021,-2.6237 z"
         style=""
         id="path3184" />
      <path
         d="m 85.585965,1096.4353 0,8.5853 1.628045,0 1.05413,-1.4875 c 0.429443,0.3983 0.917465,0.9331 1.46407,1.6046 l -0.304527,0.4803 -3.841718,0 0,5.0129 -1.393794,0 0,-5.0129 -3.771442,0 -0.234252,-0.5974 4.005694,0 0,-7.578 c -1.717853,3.9432 -3.982278,7.1408 -6.793282,9.5926 l -0.480214,-0.4568 c 2.740728,-2.8579 4.942687,-6.559 6.605881,-11.1035 l -5.598602,0 -0.234251,-0.5974 6.500468,0 0,-5.786 c 1.600701,0.031 2.401058,0.2421 2.401074,0.6325 -1.6e-5,0.2109 -0.335776,0.4256 -1.00728,0.6442 l 0,4.5093 4.755297,0 1.264956,-1.7451 c 0.601223,0.57 1.151713,1.1908 1.651471,1.8623 l -0.281102,0.4802 -7.179796,0 c 1.998926,3.7714 4.67329,6.9846 8.0231,9.6394 -0.4451,0.2967 -0.84723,0.7223 -1.206393,1.2767 -3.138983,-2.8969 -5.481492,-6.2155 -7.027533,-9.9557 z m -9.534019,-0.2928 c 0.804255,0.1718 1.206386,0.3709 1.206393,0.5973 -7e-6,0.2031 -0.312341,0.4139 -0.937005,0.6325 l 0,13.2586 -1.370369,0 0,-12.3801 c -1.085366,1.8427 -2.131687,3.3693 -3.138964,4.5796 l -0.480215,-0.3748 c 2.483058,-3.6309 4.384395,-8.0778 5.704014,-13.3406 1.522624,0.3592 2.28394,0.7184 2.283948,1.0775 -8e-6,0.2265 -0.351385,0.3866 -1.05413,0.4802 -0.538784,1.6789 -1.202495,3.3577 -1.991134,5.0364 z"
         style=""
         id="path3186" />
      <path
         d="m 105.34505,1090.579 6.98068,0 0.89015,-1.0775 c 0.97603,0.734 1.46405,1.222 1.46407,1.4641 -2e-5,0.094 -0.082,0.1874 -0.24596,0.2811 l -0.57392,0.3396 0,8.0114 -1.37037,0 0,-1.0775 -7.26178,0 0,1.3 -1.37037,0 0,-10.0025 c 0.3826,0.1328 0.87843,0.3866 1.4875,0.7613 z m -0.11713,0.5974 0,2.975 7.26178,0 0,-2.975 z m 7.26178,6.7464 0,-3.1741 -7.26178,0 0,3.1741 z m 2.57677,11.1855 0.8433,0 0.96043,-1.628 c -2e-5,0.01 0.14443,0.2147 0.43336,0.6207 0.33574,0.5232 0.56609,0.898 0.69104,1.1244 l -0.29281,0.4802 -17.25259,0 -0.2811,-0.5973 2.56505,0 0,-8.597 c 0.41383,0.1718 0.97603,0.4529 1.6866,0.8433 l 9.03038,0 0.96043,-1.0776 c 0.98384,0.734 1.47576,1.2142 1.47578,1.4407 -2e-5,0.094 -0.0664,0.1796 -0.19911,0.2577 l -0.62076,0.3865 z m -5.11839,-7.1564 -2.27224,0 0,7.1564 2.27224,0 z m 1.34694,0 0,7.1564 2.4245,0 0,-7.1564 z m -7.19151,0 0,7.1564 2.24881,0 0,-7.1564 z m -8.128509,-7.2383 c 2.04579,0.6949 3.068685,1.589 3.06869,2.6821 -5e-6,0.6091 -0.265489,0.9136 -0.796454,0.9136 -0.406038,0 -0.667619,-0.2889 -0.784741,-0.8667 -0.218637,-0.8667 -0.812073,-1.6437 -1.780309,-2.3308 z m 1.628045,-5.1653 c 2.155105,0.6716 3.232664,1.55 3.232664,2.6354 0,0.609 -0.2733,0.9136 -0.81988,0.9135 -0.304529,10e-5 -0.542684,-0.2537 -0.714463,-0.7613 -0.265489,-0.8433 -0.9292,-1.628 -1.991134,-2.3542 z m 5.036404,4.158 -3.361508,10.5296 c -0.242064,0.7418 -0.363094,1.3391 -0.363089,1.792 -5e-6,0.2186 0.03123,0.4685 0.0937,0.7496 0.210821,1.101 0.316234,1.8896 0.316239,2.3659 -5e-6,0.9605 -0.343573,1.4407 -1.030705,1.4407 -0.53878,0 -0.808169,-0.2811 -0.808166,-0.8433 -3e-6,-0.055 0.04685,-0.5232 0.140551,-1.4055 0.06246,-0.4451 0.0937,-0.9253 0.0937,-1.4407 -3e-6,-0.9838 -0.23035,-1.6475 -0.691041,-1.9911 -0.242061,-0.1952 -0.628575,-0.3397 -1.159543,-0.4334 l 0,-0.6207 c 0.320142,0.062 0.609051,0.094 0.866729,0.094 0.655901,0 1.128307,-0.2811 1.41722,-0.8433 1.116592,-2.1551 2.404973,-5.4229 3.865143,-9.8034 z"
         style=""
         id="path3188" />
      <path
         d="m 123.04272,1103.088 4.1111,0 0.87844,-1.0775 c 0.94481,0.773 1.41721,1.2689 1.41722,1.4875 -1e-5,0.1093 -0.0781,0.2108 -0.23425,0.3045 l -0.50364,0.3163 0,6.5121 -1.37037,0 0,-1.5343 -4.53276,0 0,1.5343 -1.39379,0 0,-8.2807 c 0.58562,0.2108 1.12831,0.4568 1.62805,0.7378 z m -0.23426,0.5974 0,4.8138 4.53276,0 0,-4.8138 z m 13.23519,-5.1184 0,12.0639 -1.46407,0 0,-12.0639 -4.72016,0 -0.26939,-0.5973 4.98955,0 0,-8.2574 c 1.67878,0.078 2.51818,0.2889 2.5182,0.6325 -2e-5,0.1952 -0.35139,0.4256 -1.05413,0.691 l 0,6.9339 2.65875,0 1.22982,-1.6984 c 0.42163,0.4451 0.93308,1.0503 1.53434,1.8155 l -0.24596,0.4802 z m -9.68628,-7.6014 1.17125,-1.4641 c 0.52316,0.4997 1.02679,1.0424 1.51092,1.628 l -0.25767,0.4334 -6.91041,0 -0.1874,-0.5973 z m 0.31624,6.0202 1.14783,-1.4641 c 0.49972,0.4686 0.98775,1.019 1.46407,1.6515 l -0.26939,0.4099 -7.50775,0 -0.21083,-0.5973 z m 0,3.0218 1.14783,-1.5109 c 0.52315,0.4998 1.01117,1.0425 1.46407,1.6281 l -0.31624,0.4802 -7.43747,0 -0.23426,-0.5974 z m 1.39379,-6.0202 1.21811,-1.5109 c 0.62466,0.57 1.14391,1.1283 1.55777,1.6749 l -0.21083,0.4333 -10.58815,0 -0.23425,-0.5973 z"
         style=""
         id="path3190" />
      <path
         d="m 154.57291,1098.0634 c 0.46849,0 0.88624,0.1835 1.25325,0.5505 0.32013,0.3201 0.4802,0.7105 0.48021,1.1712 -10e-6,0.3124 -0.0859,0.6169 -0.25767,0.9136 -0.3592,0.5466 -0.85113,0.8199 -1.47579,0.8199 -0.41385,0 -0.78084,-0.1367 -1.10098,-0.41 -0.41385,-0.367 -0.62077,-0.8081 -0.62076,-1.3235 -1e-5,-0.5856 0.24595,-1.0541 0.73789,-1.4055 0.30451,-0.2108 0.63246,-0.3162 0.98385,-0.3162 z"
         style=""
         id="path3192" />
      <path
         d="m 177.30699,1090.579 6.98068,0 0.89016,-1.0775 c 0.97602,0.734 1.46405,1.222 1.46407,1.4641 -2e-5,0.094 -0.082,0.1874 -0.24597,0.2811 l -0.57391,0.3396 0,8.0114 -1.37037,0 0,-1.0775 -7.26179,0 0,1.3 -1.37036,0 0,-10.0025 c 0.3826,0.1328 0.87843,0.3866 1.48749,0.7613 z m -0.11713,0.5974 0,2.975 7.26179,0 0,-2.975 z m 7.26179,6.7464 0,-3.1741 -7.26179,0 0,3.1741 z m 2.57676,11.1855 0.8433,0 0.96043,-1.628 c -2e-5,0.01 0.14444,0.2147 0.43337,0.6207 0.33574,0.5232 0.56608,0.898 0.69104,1.1244 l -0.29281,0.4802 -17.2526,0 -0.2811,-0.5973 2.56505,0 0,-8.597 c 0.41384,0.1718 0.97604,0.4529 1.68661,0.8433 l 9.03038,0 0.96043,-1.0776 c 0.98383,0.734 1.47576,1.2142 1.47578,1.4407 -2e-5,0.094 -0.0664,0.1796 -0.19911,0.2577 l -0.62077,0.3865 z m -5.11839,-7.1564 -2.27223,0 0,7.1564 2.27223,0 z m 1.34695,0 0,7.1564 2.4245,0 0,-7.1564 z m -7.19151,0 0,7.1564 2.24881,0 0,-7.1564 z m -8.12851,-7.2383 c 2.04579,0.6949 3.06868,1.589 3.06869,2.6821 -1e-5,0.6091 -0.26549,0.9136 -0.79646,0.9136 -0.40604,0 -0.66762,-0.2889 -0.78474,-0.8667 -0.21864,-0.8667 -0.81207,-1.6437 -1.78031,-2.3308 z m 1.62804,-5.1653 c 2.15511,0.6716 3.23266,1.55 3.23267,2.6354 -1e-5,0.609 -0.2733,0.9136 -0.81988,0.9135 -0.30453,10e-5 -0.54269,-0.2537 -0.71447,-0.7613 -0.26549,-0.8433 -0.9292,-1.628 -1.99113,-2.3542 z m 5.0364,4.158 -3.3615,10.5296 c -0.24207,0.7418 -0.3631,1.3391 -0.36309,1.792 -1e-5,0.2186 0.0312,0.4685 0.0937,0.7496 0.21082,1.101 0.31623,1.8896 0.31624,2.3659 -1e-5,0.9605 -0.34358,1.4407 -1.03071,1.4407 -0.53878,0 -0.80817,-0.2811 -0.80816,-0.8433 -1e-5,-0.055 0.0468,-0.5232 0.14055,-1.4055 0.0625,-0.4451 0.0937,-0.9253 0.0937,-1.4407 -1e-5,-0.9838 -0.23035,-1.6475 -0.69104,-1.9911 -0.24207,-0.1952 -0.62858,-0.3397 -1.15955,-0.4334 l 0,-0.6207 c 0.32014,0.062 0.60905,0.094 0.86673,0.094 0.6559,0 1.12831,-0.2811 1.41722,-0.8433 1.11659,-2.1551 2.40497,-5.4229 3.86514,-9.8034 z"
         style=""
         id="path3194" />
      <path
         d="m 195.40288,1096.0722 4.50933,0 0,-2.4479 c 1.52262,0.07 2.28394,0.2694 2.28395,0.5973 -1e-5,0.2031 -0.30454,0.4139 -0.91358,0.6325 l 0,1.2181 4.76701,0 0,-2.4479 c 1.52262,0.07 2.28393,0.2616 2.28395,0.5739 -2e-5,0.2187 -0.31235,0.4373 -0.937,0.6559 l 0,1.2181 2.78758,0 1.17126,-1.5343 c 0.60903,0.5856 1.12829,1.1517 1.55777,1.6983 l -0.25768,0.4334 -5.25893,0 0,4.521 -1.34695,0 0,-1.0658 -4.76701,0 0,1.1595 -1.37037,0 0,-4.6147 -4.50933,0 0,1.2532 c -1e-5,5.6689 -1.12831,9.9323 -3.38493,12.7901 l -0.55049,-0.3631 c 1.66318,-2.9203 2.49477,-7.0626 2.49478,-12.427 l 0,-6.1842 c 0.62466,0.203 1.19467,0.4334 1.71003,0.691 l 6.57074,0 0,-3.3146 c 1.56947,0.023 2.35421,0.2186 2.35422,0.5856 -1e-5,0.1874 -0.32796,0.4021 -0.98385,0.6442 l 0,2.0848 6.39506,0 1.15954,-1.5577 c 0.71054,0.6324 1.26103,1.1986 1.65147,1.6983 l -0.29282,0.4568 -17.12375,0 z m 5.8797,3.4552 4.76701,0 0,-2.8578 -4.76701,0 z m -2.40107,3.5255 -2.03799,0 -0.29281,-0.5973 11.1035,0 0.89016,-1.0073 c 1.06972,0.8355 1.6046,1.3704 1.60462,1.6046 -2e-5,0.1015 -0.0937,0.1913 -0.28111,0.2694 l -0.67932,0.2342 c -1.07758,1.2025 -2.39329,2.3309 -3.94713,3.385 2.00673,0.8979 4.60301,1.5617 7.78884,1.9911 -0.50756,0.4295 -0.88236,0.9019 -1.1244,1.4172 -3.27173,-0.6793 -5.84849,-1.5538 -7.73029,-2.6236 -2.608,1.4836 -5.73135,2.4675 -9.37004,2.9516 l -0.33966,-0.5505 c 3.51375,-0.7418 6.3599,-1.7959 8.53845,-3.1624 -1.34305,-0.9058 -2.71732,-2.2098 -4.12282,-3.912 z m 0.937,0 c 1.33522,1.3352 2.73292,2.4245 4.1931,3.2678 1.51481,-1.0463 2.7212,-2.1356 3.61918,-3.2678 z"
         style=""
         id="path3196" />
      <path
         d="m 218.99196,1103.088 4.1111,0 0.87845,-1.0775 c 0.9448,0.773 1.4172,1.2689 1.41721,1.4875 -1e-5,0.1093 -0.0781,0.2108 -0.23425,0.3045 l -0.50364,0.3163 0,6.5121 -1.37037,0 0,-1.5343 -4.53275,0 0,1.5343 -1.3938,0 0,-8.2807 c 0.58563,0.2108 1.12831,0.4568 1.62805,0.7378 z m -0.23425,0.5974 0,4.8138 4.53275,0 0,-4.8138 z m 13.23518,-5.1184 0,12.0639 -1.46407,0 0,-12.0639 -4.72016,0 -0.26938,-0.5973 4.98954,0 0,-8.2574 c 1.67879,0.078 2.51818,0.2889 2.5182,0.6325 -2e-5,0.1952 -0.35139,0.4256 -1.05413,0.691 l 0,6.9339 2.65875,0 1.22982,-1.6984 c 0.42163,0.4451 0.93308,1.0503 1.53435,1.8155 l -0.24597,0.4802 z m -9.68628,-7.6014 1.17126,-1.4641 c 0.52315,0.4997 1.02679,1.0424 1.51092,1.628 l -0.25768,0.4334 -6.91041,0 -0.1874,-0.5973 z m 0.31624,6.0202 1.14783,-1.4641 c 0.49973,0.4686 0.98775,1.019 1.46407,1.6515 l -0.26939,0.4099 -7.50775,0 -0.21082,-0.5973 z m 0,3.0218 1.14783,-1.5109 c 0.52315,0.4998 1.01117,1.0425 1.46407,1.6281 l -0.31624,0.4802 -7.43747,0 -0.23425,-0.5974 z m 1.39379,-6.0202 1.21811,-1.5109 c 0.62466,0.57 1.14391,1.1283 1.55777,1.6749 l -0.21083,0.4333 -10.58815,0 -0.23425,-0.5973 z"
         style=""
         id="path3198" />
      <path
         d="m 245.72002,1113.8519 -0.69105,0.3865 c -2.8969,-3.5684 -4.34536,-7.5273 -4.34535,-11.8765 -1e-5,-4.3493 1.44845,-8.3081 4.34535,-11.8766 l 0.69105,0.41 c -2.27225,3.3732 -3.40836,7.2032 -3.40836,11.49 0,4.2477 1.13611,8.0699 3.40836,11.4666 z"
         style=""
         id="path3200" />
      <path
         d="m 254.0125,1106.2973 0,0.691 -1.34694,0 0,-9.1358 c 0.49973,0.1562 1.00336,0.3397 1.51091,0.5505 l 10.67014,0 0.89016,-0.8433 c 0.89013,0.6091 1.33521,0.9917 1.33523,1.1479 -2e-5,0.094 -0.0625,0.1913 -0.1874,0.2928 l -0.50364,0.3631 0,7.3672 -1.34695,0 0,-0.4334 z m 0,-5.4932 11.02151,0 0,-1.8037 -11.02151,0 z m 0,0.5973 0,1.7335 11.02151,0 0,-1.7335 z m 0,2.3308 0,1.9677 11.02151,0 0,-1.9677 z m 8.33934,-11.8999 0,0.4802 c 0.26547,0.9214 0.88233,1.7218 1.85058,2.4011 1.38207,0.9682 3.26778,1.6554 5.65717,2.0614 -0.47634,0.4919 -0.80429,0.9487 -0.98386,1.3703 -3.76365,-1.1009 -5.99294,-2.7016 -6.68787,-4.8021 -0.66372,2.3581 -3.12726,3.9393 -7.39062,4.7436 l -0.33966,-0.5505 c 2.41277,-0.5934 4.22822,-1.5578 5.44633,-2.893 0.73398,-0.8121 1.10097,-1.6515 1.10098,-2.5182 l 0,-0.2928 -2.77587,0 c -0.71838,0.8433 -1.54216,1.5929 -2.47135,2.2488 l -0.33966,-0.3514 c 1.34303,-1.343 2.31126,-2.9242 2.90471,-4.7436 1.31179,0.2109 1.9677,0.4646 1.96771,0.7613 -1e-5,0.1719 -0.32797,0.3319 -0.98386,0.4803 -0.14837,0.2967 -0.35529,0.6325 -0.62076,1.0072 l 8.17536,0 0.91358,-1.0775 c 0.99164,0.9136 1.48747,1.4953 1.4875,1.7452 -3e-5,0.1327 -0.10544,0.2225 -0.31624,0.2693 l -0.66762,0.164 c -0.60907,0.6091 -1.40162,1.2025 -2.37765,1.7803 l -0.40994,-0.3631 c 0.61685,-0.6871 1.07363,-1.3274 1.37037,-1.9208 z m 6.58245,18.7986 c -0.19523,0 -0.51537,-0.1522 -0.96043,-0.4568 -1.3899,-0.9292 -3.71289,-1.8388 -6.96897,-2.729 l 0.31624,-0.5036 c 5.5205,0.8355 8.28076,1.8193 8.28078,2.9515 -2e-5,0.492 -0.22256,0.7379 -0.66762,0.7379 z m -19.77079,0.1054 -0.33966,-0.5504 c 2.72511,-0.6872 5.14961,-1.7764 7.27349,-3.2678 1.19467,0.5778 1.79201,0.9955 1.79202,1.2532 -10e-6,0.1718 -0.23035,0.2577 -0.69104,0.2577 -0.22645,0 -0.40994,-0.01 -0.55049,-0.024 -2.38156,1.101 -4.87633,1.878 -7.48432,2.3308 z m 2.7993,-18.213 c -0.30453,0 -0.53488,-0.1756 -0.69104,-0.527 -0.30453,-0.7106 -0.91358,-1.3509 -1.82716,-1.9209 l 0.26939,-0.3982 c 1.99894,0.6012 2.99841,1.2767 2.99842,2.0262 -1e-5,0.5466 -0.24988,0.8199 -0.74961,0.8199 z m 3.912,-1.6046 -3.50206,4.1697 c -0.1874,0.2342 -0.2811,0.4997 -0.2811,0.7964 0,0.1562 0.0312,0.3631 0.0937,0.6208 0.0625,0.2577 0.0937,0.531 0.0937,0.8199 0,0.2889 -0.10932,0.5192 -0.32795,0.691 -0.1796,0.1328 -0.38261,0.1991 -0.60905,0.1991 -0.44508,0 -0.66762,-0.1678 -0.66762,-0.5036 0,-0.2733 0.0312,-0.5232 0.0937,-0.7496 0.0859,-0.2108 0.12884,-0.488 0.12884,-0.8316 0,-0.2342 -0.0859,-0.4177 -0.25768,-0.5505 -0.21083,-0.164 -0.60905,-0.3279 -1.19468,-0.4919 l 0.17569,-0.4334 c 0.55439,0.1171 0.89796,0.1757 1.03071,0.1757 0.32014,0 0.59733,-0.098 0.83159,-0.2928 0.51535,-0.4138 1.222,-1.0541 2.11997,-1.9209 0.81987,-0.7886 1.45625,-1.4445 1.90915,-1.9677 z"
         style=""
         id="path3202" />
      <path
         d="m 290.70794,1101.4014 -2.6119,0 0,7.1447 c -2e-5,1.3118 -0.75352,1.9677 -2.26052,1.9677 -2e-5,-0.4685 -0.25379,-0.8121 -0.76132,-1.0307 -0.39043,-0.1562 -1.06195,-0.3162 -2.01456,-0.4802 l 0,-0.6442 c 1.18686,0.1562 2.13558,0.2342 2.84615,0.2342 0.54657,0 0.81987,-0.2537 0.81988,-0.7613 l 0,-6.4302 -2.54162,0 0,1.1713 -1.34695,0 0,-8.9601 0.29282,0.1405 c 0.41383,0.1796 0.81206,0.3788 1.19468,0.5974 l 1.60462,0 c 0.24985,-0.976 0.42944,-1.9365 0.53878,-2.8813 l -5.42292,0 0,5.9734 c -10e-6,5.9109 -1.27277,10.3188 -3.81829,13.2235 l -0.48021,-0.41 c 1.93646,-3.0374 2.9047,-7.3008 2.90471,-12.7901 l 0,-7.332 c 0.51534,0.1874 1.06583,0.4333 1.65147,0.7379 l 10.04937,0 1.18297,-1.5344 c 0.0937,0.078 0.19909,0.1757 0.31624,0.2928 0.56218,0.5388 0.99945,0.9839 1.3118,1.3353 l -0.25767,0.5036 -5.56346,0 c -0.46072,0.9526 -1.01511,1.9131 -1.66319,2.8813 l 3.8183,0 0.85501,-1.0307 c 0.99945,0.7496 1.49919,1.2376 1.49921,1.464 -2e-5,0.1094 -0.0742,0.2109 -0.22254,0.3046 l -0.57392,0.3865 0,7.0509 -1.34694,0 z m 0,-0.5973 0,-2.7407 -6.52389,0 0,2.7407 z m 0,-3.3381 0,-2.5182 -6.52389,0 0,2.5182 z m -18.08418,-2.729 c 1.86619,0.7418 2.79929,1.6359 2.7993,2.6822 -1e-5,0.609 -0.28111,0.9136 -0.84331,0.9136 -0.3748,0 -0.59734,-0.2148 -0.66761,-0.6442 -0.18741,-0.9683 -0.73009,-1.8194 -1.62805,-2.5534 z m 1.67489,-5.1887 c 1.96771,0.6247 2.95156,1.4719 2.95157,2.5417 -1e-5,0.6246 -0.28892,0.937 -0.86673,0.937 -0.31234,0 -0.52707,-0.246 -0.64419,-0.7379 -0.21864,-0.8667 -0.81208,-1.6202 -1.78031,-2.2606 z m 15.28489,13.7974 c 1.52261,0.8668 2.729,1.9053 3.61918,3.1156 0.3982,0.5387 0.59731,1.0658 0.59734,1.5812 -3e-5,0.6715 -0.28113,1.0072 -0.84331,1.0072 -0.36701,0 -0.64421,-0.3201 -0.83159,-0.9604 -0.46071,-1.5226 -1.42895,-2.9594 -2.90471,-4.3102 z m -9.67457,5.8329 c 1.37426,-1.5383 2.41667,-3.4435 3.12725,-5.7158 1.37426,0.531 2.06139,0.9566 2.06141,1.2767 -2e-5,0.2108 -0.34358,0.328 -1.03071,0.3514 -0.89016,1.8506 -2.1395,3.3615 -3.74802,4.5328 z m -0.98386,-15.4255 -2.97499,10.4828 c -0.26549,0.9838 -0.39823,1.628 -0.39822,1.9325 -10e-6,0.1796 0.0312,0.3983 0.0937,0.656 0.21863,1.1166 0.32794,1.8974 0.32795,2.3425 -10e-6,0.9448 -0.367,1.4172 -1.10098,1.4172 -0.53878,0 -0.80817,-0.2811 -0.80817,-0.8433 0,-0.023 0.0195,-0.1718 0.0586,-0.4451 0.0547,-0.3904 0.10151,-0.7106 0.14055,-0.9604 0.0937,-0.6091 0.14055,-1.1479 0.14055,-1.6164 0,-1.2805 -0.61686,-2.0301 -1.85058,-2.2488 l 0,-0.6207 c 0.30453,0.047 0.5583,0.07 0.76132,0.07 0.7496,0 1.25324,-0.2732 1.51092,-0.8198 0.83549,-1.6632 1.874,-4.4664 3.11554,-8.4097 l 0.40994,-1.3469 z"
         style=""
         id="path3204" />
      <path
         d="m 308.46417,1100.3239 c 3.06086,1.2806 5.28234,2.6236 6.66444,4.0291 0.71835,0.695 1.07753,1.2884 1.07756,1.7803 -3e-5,0.7652 -0.28893,1.1478 -0.86673,1.1478 -0.23427,0 -0.48024,-0.1991 -0.73789,-0.5973 -1.53046,-2.2488 -3.72852,-4.1619 -6.59417,-5.7391 -1.44456,1.6944 -2.99452,3.1116 -4.64989,4.2516 -1.55387,1.0698 -3.34589,2.0029 -5.37606,2.7993 l -0.26939,-0.6676 c 3.40444,-1.7881 6.13347,-3.8261 8.18708,-6.114 1.90523,-2.1316 3.43957,-4.7006 4.60303,-7.7068 -2.94377,0.3904 -5.17696,0.7027 -6.69958,0.937 -0.39824,0.07 -0.66762,0.1366 -0.80817,0.1991 -0.21864,0.078 -0.44508,0.1171 -0.67932,0.1171 -0.25769,0 -0.58954,-0.2537 -0.99557,-0.7613 -0.35919,-0.4451 -0.64029,-0.9253 -0.84331,-1.4406 l 0.57392,-0.3397 c 0.35137,0.3982 0.63247,0.652 0.8433,0.7613 0.24986,0.1328 0.57391,0.1991 0.97215,0.1991 1.71783,0 4.03691,-0.1835 6.95725,-0.5505 0.36698,-0.047 0.69493,-0.1678 0.98386,-0.3631 0.24204,-0.1405 0.40992,-0.2108 0.50364,-0.2108 0.15615,0 0.45287,0.2148 0.89015,0.6442 0.42944,0.4373 0.64417,0.7574 0.64419,0.9604 -2e-5,0.1796 -0.10543,0.3163 -0.31624,0.41 -0.32797,0.1484 -0.61297,0.4685 -0.85501,0.9604 -0.98387,1.999 -2.05362,3.7637 -3.20924,5.2941 z"
         style=""
         id="path3206" />
      <path
         d="m 332.70915,1098.3562 c -0.11714,2.8735 -0.60516,5.1106 -1.46407,6.7113 -1.05414,2.0067 -2.74075,3.5528 -5.05983,4.6381 l -0.40993,-0.5856 c 2.03797,-1.2806 3.47471,-2.9086 4.31022,-4.8841 0.62465,-1.4992 0.9448,-3.4123 0.96042,-5.7392 -2.35032,0.2421 -4.21262,0.4685 -5.58688,0.6794 -0.28892,0.047 -0.51146,0.1015 -0.66762,0.1639 -0.22645,0.062 -0.38652,0.094 -0.48021,0.094 -0.41385,0 -0.86674,-0.2381 -1.35866,-0.7144 -0.41385,-0.3904 -0.76913,-0.8628 -1.06584,-1.4173 l 0.50364,-0.4333 c 0.53096,0.4216 0.937,0.691 1.2181,0.8081 0.28891,0.1172 0.652,0.1757 1.08927,0.1757 1.15563,0 3.59184,-0.16 7.30863,-0.4802 3.29512,-0.2889 5.11056,-0.4958 5.44634,-0.6207 0.46849,-0.1796 0.87842,-0.2694 1.22982,-0.2694 0.62465,0 1.12829,0.121 1.51092,0.3631 0.35136,0.2186 0.52704,0.4997 0.52707,0.8433 -3e-5,0.3513 -0.32017,0.527 -0.96043,0.527 l -2.37765,-0.059 c -0.95264,0 -2.51041,0.066 -4.67331,0.1991 z m -7.13295,-6.805 c 0.72617,0.6169 1.42112,0.9253 2.08484,0.9253 1.37426,0 3.15847,-0.1288 5.35263,-0.3865 0.62466,-0.078 1.14392,-0.2148 1.55777,-0.41 0.2889,-0.1405 0.51924,-0.2108 0.69104,-0.2108 0.4763,0 0.90966,0.1015 1.3001,0.3045 0.36697,0.1952 0.55047,0.4295 0.55049,0.7028 -2e-5,0.367 -0.27331,0.5583 -0.81988,0.5739 -2.87349,0.1171 -5.62204,0.3201 -8.24564,0.609 -0.10933,0.016 -0.23035,0.039 -0.36309,0.07 -0.18741,0.047 -0.3709,0.07 -0.55049,0.07 -0.61687,0 -1.304,-0.6169 -2.06141,-1.8506 z"
         style=""
         id="path3208" />
      <path
         d="m 346.1669,1098.2625 c 0.74179,0.7964 1.54214,1.1947 2.40107,1.1947 1.42892,0 2.83443,-0.031 4.21652,-0.094 1.6866,-0.07 4.08767,-0.207 7.20322,-0.41 0.92137,-0.055 1.54604,-0.1366 1.87401,-0.2459 0.25766,-0.094 0.4802,-0.1406 0.66762,-0.1406 0.42944,0 0.8628,0.1132 1.30009,0.3397 0.46067,0.2342 0.69102,0.5153 0.69104,0.8433 -2e-5,0.4763 -0.31236,0.7144 -0.93701,0.7144 -0.35139,0 -0.74962,-0.016 -1.19468,-0.047 -0.65592,-0.047 -1.37819,-0.07 -2.16682,-0.07 -1.9443,0 -5.50101,0.1757 -10.67014,0.5271 -0.34357,0.023 -0.6481,0.078 -0.91358,0.164 -0.22644,0.062 -0.41775,0.094 -0.57391,0.094 -0.8355,0 -1.63586,-0.8199 -2.40107,-2.4597 z"
         style=""
         id="path3210" />
      <path
         d="m 374.13647,1091.2584 c 1.50701,0.2811 2.72121,0.773 3.6426,1.4757 0.73398,0.5623 1.10097,1.1167 1.10098,1.6632 -10e-6,0.2811 -0.082,0.5154 -0.24596,0.7028 -0.16399,0.1874 -0.37872,0.2811 -0.64419,0.2811 -0.31235,0 -0.57393,-0.1913 -0.78474,-0.5739 -0.71057,-1.2337 -1.82326,-2.2098 -3.33808,-2.9282 z m -3.12725,4.5562 c 1.62413,0.3201 2.87347,0.8237 3.74801,1.5109 0.70275,0.5622 1.05413,1.1517 1.05413,1.7686 0,0.5934 -0.29672,0.8901 -0.89015,0.8901 -0.2733,0 -0.5505,-0.2147 -0.83159,-0.6442 -0.85112,-1.304 -1.956,-2.2722 -3.31465,-2.9047 z m 1.56948,9.5691 c 0.64028,0.7028 1.1283,1.0541 1.46407,1.0541 0.40603,0 1.1322,-0.2576 2.17853,-0.773 0.95262,-0.4763 1.99894,-1.0893 3.13897,-1.8389 3.26388,-2.1629 6.30914,-5.1613 9.13579,-8.9952 l 0.58563,0.4568 c -1.7491,2.9438 -3.76756,5.4424 -6.05539,7.496 -1.91307,1.7101 -4.22825,3.3108 -6.94555,4.8022 -0.57782,0.3201 -1.019,0.5387 -1.32352,0.6559 -0.21083,0.078 -0.38652,0.1171 -0.52706,0.1171 -0.34358,0 -0.73009,-0.2694 -1.15954,-0.8082 -0.38262,-0.4763 -0.71447,-1.0697 -0.99557,-1.7803 z"
         style=""
         id="path3212" />
      <path
         d="m 406.55681,1106.2621 c 0.13273,-1.9598 0.21472,-3.3966 0.24597,-4.3102 -2.38157,0.2421 -4.1814,0.449 -5.39949,0.6208 -0.49194,0.078 -0.79646,0.1445 -0.91358,0.1991 -0.1796,0.078 -0.33186,0.1171 -0.45679,0.1171 -0.57002,0 -1.23373,-0.5231 -1.99113,-1.5694 l 0.45679,-0.4217 c 0.57781,0.4295 1.21809,0.6442 1.92085,0.6442 0.50754,0 1.09317,-0.031 1.75689,-0.094 0.74178,-0.062 2.29955,-0.2225 4.67331,-0.4802 l 0.1874,-3.4552 c -2.74856,0.2342 -4.84901,0.449 -6.30136,0.6442 -0.39823,0.047 -0.66372,0.09 -0.79645,0.1288 -0.23426,0.062 -0.41776,0.094 -0.55049,0.094 -0.43728,0 -1.03852,-0.5388 -1.80373,-1.6163 l 0.43336,-0.4334 c 0.46069,0.328 0.82768,0.531 1.10098,0.6091 0.23424,0.062 0.60514,0.094 1.11269,0.094 0.78864,0 2.02626,-0.062 3.71288,-0.1874 0.87453,-0.062 1.66708,-0.1445 2.37765,-0.246 0.26547,-0.023 0.48801,-0.1093 0.66762,-0.2577 0.203,-0.1796 0.36307,-0.2694 0.48021,-0.2694 0.22643,0 0.57,0.2304 1.03071,0.6911 0.32012,0.3201 0.48019,0.5856 0.48021,0.7964 -2e-5,0.164 -0.10543,0.3475 -0.31624,0.5505 -0.21865,0.2499 -0.33577,0.5622 -0.35137,0.937 -0.14838,1.9521 -0.33188,4.2478 -0.55049,6.887 0.21861,0.07 0.41773,0.203 0.59734,0.3982 0.17176,0.1874 0.25766,0.367 0.25767,0.5388 -1e-5,0.1952 -0.0742,0.3201 -0.22254,0.3748 -0.13275,0.047 -0.40995,0.07 -0.83159,0.07 -1.90525,0 -4.34146,0.1874 -7.30863,0.5622 -0.26549,0.039 -0.4607,0.086 -0.58563,0.1405 -0.14837,0.062 -0.28111,0.094 -0.39823,0.094 -0.53878,0 -1.15564,-0.609 -1.85058,-1.8271 l 0.45679,-0.3514 c 0.68713,0.5388 1.26104,0.8082 1.72175,0.8082 0.50753,0 1.28446,-0.039 2.33079,-0.1172 1.38207,-0.086 2.92423,-0.2069 4.62646,-0.3631 z"
         style=""
         id="path3214" />
      <path
         d="m 420.16679,1092.2422 c 1.88181,0.5544 3.25609,1.2494 4.12282,2.0849 0.70275,0.6559 1.05412,1.2805 1.05413,1.874 -1e-5,0.812 -0.30453,1.2181 -0.91358,1.2181 -0.26549,0 -0.58563,-0.3124 -0.96043,-0.937 -0.89796,-1.5148 -2.10436,-2.7369 -3.61917,-3.6661 z m 0.35138,13.001 c 0.42946,0.6402 0.87063,0.9604 1.32352,0.9604 0.53096,0 1.30009,-0.2655 2.30737,-0.7965 5.08324,-2.6548 9.12016,-6.2115 12.11078,-10.6701 l 0.55049,0.4802 c -1.53826,2.6939 -3.26782,4.9427 -5.18866,6.7464 -1.82717,1.7257 -4.13454,3.3615 -6.92212,4.9076 -0.9292,0.5075 -1.4914,0.8433 -1.6866,1.0073 -0.28892,0.2577 -0.65591,0.3865 -1.10098,0.3865 -0.24207,0 -0.57393,-0.2694 -0.99557,-0.8082 -0.40604,-0.5309 -0.72228,-1.1439 -0.94872,-1.8388 z"
         style=""
         id="path3216" />
      <path
         d="m 441.43682,1090.4853 c 2.8969,3.5607 4.34535,7.5195 4.34535,11.8766 0,4.3492 -1.44845,8.3081 -4.34535,11.8765 l -0.69104,-0.3865 c 2.27223,-3.3967 3.40834,-7.2189 3.40835,-11.4666 -1e-5,-4.2634 -1.13612,-8.0934 -3.40835,-11.49 z"
         style=""
         id="path3218" />
    </g>
  </g>
</svg>
