<?xml version="1.0" encoding="UTF-8" standalone="no"?>
<!-- Created with Inkscape (http://www.inkscape.org/) -->

<svg
   xmlns:dc="http://purl.org/dc/elements/1.1/"
   xmlns:cc="http://creativecommons.org/ns#"
   xmlns:rdf="http://www.w3.org/1999/02/22-rdf-syntax-ns#"
   xmlns:svg="http://www.w3.org/2000/svg"
   xmlns="http://www.w3.org/2000/svg"
   xmlns:sodipodi="http://sodipodi.sourceforge.net/DTD/sodipodi-0.dtd"
   xmlns:inkscape="http://www.inkscape.org/namespaces/inkscape"
   width="322"
   height="72"
   id="svg3127"
   version="1.1"
   inkscape:version="0.48.4 r9939"
   sodipodi:docname="umetate.svg">
  <defs
     id="defs3129" />
  <sodipodi:namedview
     id="base"
     pagecolor="#ffffff"
     bordercolor="#666666"
     borderopacity="1.0"
     inkscape:pageopacity="0.0"
     inkscape:pageshadow="2"
     inkscape:zoom="4"
     inkscape:cx="168.42665"
     inkscape:cy="35.908082"
     inkscape:document-units="px"
     inkscape:current-layer="layer1"
     showgrid="false"
     inkscape:window-width="1920"
     inkscape:window-height="1017"
     inkscape:window-x="892"
     inkscape:window-y="250"
     inkscape:window-maximized="1" />
  <metadata
     id="metadata3132">
    <rdf:RDF>
      <cc:Work
         rdf:about="">
        <dc:format>image/svg+xml</dc:format>
        <dc:type
           rdf:resource="http://purl.org/dc/dcmitype/StillImage" />
        <dc:title />
      </cc:Work>
    </rdf:RDF>
  </metadata>
  <g
     inkscape:label="レイヤー 1"
     inkscape:groupmode="layer"
     id="layer1"
     transform="translate(0,-980.3622)">
    <g
       transform="scale(1.1127288,0.89869158)"
       style="font-size:22.41230773999999900px;font-style:normal;font-variant:normal;font-weight:normal;font-stretch:normal;text-align:center;line-height:125%;letter-spacing:0px;word-spacing:0px;writing-mode:lr-tb;text-anchor:middle;fill:#ffffff;fill-opacity:1;stroke:none;font-family:IPAmjMincho;-inkscape-font-specification:IPAmjMincho"
       id="text3073">
      <path
         d="m 32.113006,1092.9714 7.310264,0 0.787933,-0.9849 c 0.92653,0.7442 1.389805,1.2221 1.389825,1.4336 -2e-5,0.088 -0.05474,0.1606 -0.164152,0.2189 l -0.601893,0.383 0,9.1597 -1.258504,0 0,-1.1162 -3.293996,0 0,3.7646 2.976634,0 1.083408,-1.3899 c 0.401242,0.3648 0.886404,0.8792 1.455487,1.5431 l -0.218871,0.4049 -5.296658,0 0,3.8412 3.852115,0 1.149069,-1.4336 c 0.583633,0.518 1.090681,1.0323 1.521147,1.543 l -0.240757,0.4487 -14.28128,0 -0.196983,-0.5581 6.872524,0 0,-3.8412 -4.858918,0 -0.207927,-0.5581 5.066845,0 0,-3.7646 -3.08607,0 0,1.2147 -1.258503,0 0,-11.0748 c 0.393956,0.1751 0.893709,0.4305 1.499261,0.766 z m 7.463473,4.7495 -3.293996,0 0,3.7865 3.293996,0 z m 0,-0.5581 0,-3.6332 -3.293996,0 0,3.6332 z m -4.618161,-3.6332 -3.08607,0 0,3.6332 3.08607,0 z m -3.08607,7.9778 3.08607,0 0,-3.7865 -3.08607,0 z m -5.220054,-3.2284 0,7.2556 0.21887,-0.066 c 0.868179,-0.2991 1.878629,-0.693 3.031353,-1.1819 l 0.109435,0.58 c -2.079274,1.2038 -4.2242,2.2508 -6.434784,3.1408 -0.06566,0.5691 -0.200633,0.8536 -0.40491,0.8536 -0.321011,0 -0.663907,-0.6675 -1.02869,-2.0026 0.831705,-0.1897 1.842155,-0.4633 3.031352,-0.8208 l 0.196984,-0.077 0,-7.6824 -3.020409,0 -0.251701,-0.5581 3.27211,0 0,-6.008 c 1.524789,0.066 2.287187,0.2445 2.287193,0.5363 -6e-6,0.1897 -0.335607,0.4086 -1.006803,0.6566 l 0,4.8151 0.963029,0 0.984916,-1.4773 c 0.401254,0.4669 0.828051,1.0031 1.280391,1.6087 l -0.229814,0.4267 z"
         style="fill:#ffffff"
         id="path3161" />
      <path
         d="m 54.021912,1096.4843 0,-4.6181 c 1.59774,0.066 2.396616,0.2736 2.396628,0.6237 -1.2e-5,0.2335 -0.3575,0.4524 -1.072464,0.6566 l 0,3.3378 5.624964,0 1.192843,-1.6087 c 0.532565,0.467 1.076092,1.047 1.630583,1.74 l -0.240757,0.4268 -17.443955,0 -0.21887,-0.5581 z m 1.926058,13.1103 c 0.08754,-0.2407 0.153196,-0.4268 0.196983,-0.5581 1.101633,-3.0642 2.097491,-6.7193 2.987578,-10.9654 1.53937,0.5399 2.309062,0.9813 2.30908,1.3242 -1.8e-5,0.2043 -0.339266,0.3392 -1.017746,0.4049 -1.065184,3.4363 -2.258025,6.6208 -3.578528,9.5537 l -0.120378,0.2407 4.738539,0 1.291334,-1.7728 c 0.554452,0.4888 1.057853,1.0141 1.510205,1.5759 l 0.240757,0.3064 -0.317362,0.4487 -18.61491,0 -0.2517,-0.5582 z m -6.971016,-11.031 c 1.619632,2.1741 2.746813,4.2461 3.381544,6.2159 0.342888,1.0725 0.514336,1.9078 0.514345,2.5061 -9e-6,0.8536 -0.28454,1.2803 -0.853593,1.2803 -0.401271,0 -0.645675,-0.4705 -0.733216,-1.4117 -0.204286,-2.5461 -1.138131,-5.2966 -2.801538,-8.2514 z"
         style="fill:#ffffff"
         id="path3163" />
      <path
         d="m 73.982873,1098.4979 c 1.422647,-1.0214 2.68115,-1.8859 3.775511,-2.5936 -0.671213,0.088 -1.291344,0.1313 -1.860396,0.1313 -1.736379,0 -3.038655,-0.507 -3.906833,-1.5211 l 0.404909,-0.4925 c 0.875474,0.5983 1.882276,0.8974 3.020409,0.8974 1.02868,0 2.261647,-0.1058 3.698906,-0.3174 0.787919,-0.1021 1.294968,-0.1532 1.521148,-0.1532 0.408543,0 0.714961,0.084 0.919255,0.2517 0.240741,0.1824 0.36112,0.4268 0.361136,0.7332 -1.6e-5,0.3284 -0.255364,0.4925 -0.766046,0.4925 -0.911973,0 -1.64154,0.1204 -2.188702,0.3611 -0.787945,0.3575 -2.305443,1.2658 -4.5525,2.725 z m -3.315883,5.3186 c 0.350187,1.4956 1.06881,2.5462 2.155871,3.1517 0.933839,0.5107 2.34555,0.766 4.235139,0.766 2.093845,0 3.826565,-0.2225 5.198167,-0.6675 0.29181,-0.073 0.525271,-0.1094 0.700384,-0.1094 0.45961,0 0.787915,0.113 0.984916,0.3392 0.116713,0.1532 0.175078,0.3174 0.175096,0.4925 -1.8e-5,0.3793 -0.222536,0.6237 -0.667554,0.7332 -1.400785,0.3721 -3.352376,0.5581 -5.854777,0.5581 -2.509721,0 -4.370116,-0.4268 -5.58119,-1.2804 -1.145426,-0.8171 -1.809332,-2.0866 -1.991719,-3.8083 z m 11.775216,-11.3922 c 0.963012,0.3356 1.718113,0.7587 2.265307,1.2694 0.474199,0.4305 0.711309,0.8609 0.711328,1.2914 -1.9e-5,0.5253 -0.222537,0.7879 -0.667554,0.7879 -0.313733,0 -0.561785,-0.2335 -0.744159,-0.7004 -0.35021,-0.839 -0.984933,-1.5722 -1.90417,-2.1996 z m 2.05738,-1.5431 c 0.948418,0.2846 1.718111,0.6895 2.309081,1.2148 0.496084,0.445 0.744137,0.8755 0.744158,1.2913 -2.1e-5,0.5253 -0.215243,0.7879 -0.645667,0.7879 -0.291847,0 -0.547196,-0.2444 -0.766045,-0.7332 -0.335621,-0.7368 -0.995879,-1.4409 -1.980776,-2.1121 z"
         style="fill:#ffffff"
         id="path3165" />
      <path
         d="m 97.949159,1101.781 c -1.364299,2.4659 -2.436761,4.1439 -3.217391,5.034 -0.80253,0.9119 -1.583166,1.3679 -2.341911,1.3679 -0.627432,0 -1.116241,-0.2371 -1.466431,-0.7113 -0.291829,-0.3867 -0.437742,-0.8645 -0.43774,-1.4336 -2e-6,-0.912 0.237107,-1.7473 0.711328,-2.5061 0.437737,-0.7003 1.035982,-1.2694 1.794736,-1.7072 1.189189,-0.6711 2.571717,-1.0067 4.14759,-1.0068 0.766036,-1.5977 1.597742,-3.7061 2.49512,-6.3253 -1.021404,0.2772 -2.053741,0.5399 -3.097013,0.7879 -0.372087,0.088 -0.714984,0.1788 -1.02869,0.2736 -0.24806,0.073 -0.434099,0.1095 -0.558119,0.1095 -0.80253,0 -1.284044,-0.6968 -1.444543,-2.0903 l 0.612836,-0.1532 c 0.255343,0.6567 0.642013,0.985 1.160012,0.9849 0.72956,10e-5 1.867684,-0.186 3.414375,-0.5581 0.510686,-0.1021 0.860878,-0.2152 1.050577,-0.3392 0.204267,-0.1313 0.361125,-0.197 0.470575,-0.197 0.18238,0 0.41584,0.1423 0.70038,0.4268 0.38666,0.3356 0.57999,0.6493 0.58001,0.9411 -2e-5,0.1387 -0.0766,0.259 -0.22982,0.3612 -0.22618,0.1313 -0.4341,0.4049 -0.62378,0.8207 -0.72228,1.6635 -1.491973,3.3524 -2.309078,5.0669 1.991708,0.2918 4.060028,0.9484 6.204968,1.9698 0.21156,-1.0214 0.31735,-1.9479 0.31736,-2.7796 -1e-5,-0.4159 -0.0839,-0.7332 -0.2517,-0.9521 -0.17511,-0.2262 -0.46694,-0.394 -0.87548,-0.5034 l 0.18604,-0.6457 c 0.66389,0.029 1.26214,0.1934 1.79474,0.4925 0.35747,0.2115 0.53621,0.6128 0.53623,1.2037 -2e-5,1.1309 -0.17876,2.3857 -0.53623,3.7646 1.3205,0.7077 2.36013,1.3534 3.1189,1.937 0.44501,0.394 0.66753,0.8025 0.66755,1.2257 -2e-5,0.4961 -0.23348,0.7442 -0.70038,0.7441 -0.16053,10e-5 -0.46695,-0.2006 -0.91926,-0.6018 -0.72229,-0.6567 -1.58682,-1.3242 -2.59361,-2.0027 -1.14544,2.9474 -3.32684,4.9355 -6.544218,5.9642 l -0.273588,-0.58 c 2.845296,-1.233 4.742176,-3.2356 5.690626,-6.008 -1.99903,-1.2402 -4.06735,-2.0318 -6.204971,-2.3747 z m -1.236616,-0.066 c -1.269454,0 -2.330974,0.2663 -3.184561,0.7989 -1.298634,0.8682 -1.947948,1.9662 -1.947945,3.294 -3e-6,0.8244 0.335597,1.2366 1.006803,1.2366 0.890067,0 2.2653,-1.7765 4.125703,-5.3295 z"
         style="fill:#ffffff"
         id="path3167" />
      <path
         d="m 121.99205,1099.844 c 0.43773,0 0.82805,0.1714 1.17096,0.5143 0.29911,0.2991 0.44867,0.6639 0.44868,1.0944 -10e-6,0.2918 -0.0803,0.5763 -0.24076,0.8536 -0.33561,0.5107 -0.79524,0.766 -1.37888,0.766 -0.38668,0 -0.72958,-0.1277 -1.02869,-0.383 -0.38668,-0.3429 -0.58002,-0.7551 -0.58001,-1.2366 -10e-6,-0.5472 0.22981,-0.9849 0.68945,-1.3133 0.28452,-0.1969 0.59093,-0.2954 0.91925,-0.2954 z"
         style="fill:#ffffff"
         id="path3169" />
      <path
         d="m 134.50048,1107.4935 c 1.94794,-2.8453 3.33777,-6.3874 4.16948,-10.6262 1.52479,0.4013 2.28718,0.7734 2.28719,1.1163 -1e-5,0.2116 -0.33561,0.3611 -1.0068,0.4487 -1.07977,3.8229 -2.74683,6.96 -5.00118,9.4114 z m 13.42769,-10.9873 c 2.26164,2.0501 4.00166,4.2096 5.22005,6.4786 0.62741,1.211 0.94112,2.185 0.94114,2.9219 -2e-5,0.7295 -0.27725,1.0943 -0.8317,1.0943 -0.3721,0 -0.67122,-0.4414 -0.89737,-1.3241 -0.64204,-2.6338 -2.26168,-5.5557 -4.85892,-8.7658 z m -8.63443,12.5741 c 1.48101,0.1678 2.69209,0.2517 3.63324,0.2517 0.52528,0 0.78793,-0.2335 0.78794,-0.7004 l 0,-16.4919 c 1.58315,0.044 2.37473,0.2372 2.37474,0.58 -1e-5,0.2116 -0.33562,0.4269 -1.0068,0.6457 l 0,16.0104 c -2e-5,1.2694 -0.83902,1.9041 -2.51701,1.9041 -1e-5,-0.445 -0.29913,-0.7879 -0.89737,-1.0287 -0.40857,-0.1532 -1.20014,-0.3356 -2.37474,-0.5471 z"
         style="fill:#ffffff"
         id="path3171" />
      <path
         d="m 161.34491,1098.476 c -0.0657,3.1226 -1.19649,5.4171 -3.39249,6.8835 l -0.37208,-0.4706 c 1.60505,-1.4518 2.4404,-3.5894 2.50607,-6.4129 l -2.93286,0 -0.18604,-0.5581 3.1189,0 0,-4.2132 -2.22154,0 -0.19698,-0.5582 7.57291,0 0.96303,-1.2585 c 0.46691,0.4451 0.901,0.923 1.30228,1.4336 l -0.21887,0.3831 -2.22154,0 0,4.2132 0.87548,0 0.96303,-1.3023 c 0.57635,0.5764 1.01044,1.0616 1.30228,1.4555 l -0.2517,0.4049 -2.88909,0 0,5.9861 -1.23661,0 0,-5.9861 z m 0,-0.5581 2.48418,0 0,-4.2132 -2.48418,0 z m 4.74948,12.3552 0,-3.5457 -6.88346,0 -0.24076,-0.5581 7.12422,0 0,-2.8015 c 1.5102,0.066 2.2653,0.2517 2.26531,0.5581 -1e-5,0.1897 -0.31373,0.383 -0.94114,0.58 l 0,1.6634 5.02307,0 1.09435,-1.2366 c 0.53986,0.4305 1.02502,0.8937 1.45549,1.3898 l -0.24076,0.4049 -7.33215,0 0,3.5457 6.76309,0 1.21473,-1.346 c 0.58363,0.445 1.11257,0.9375 1.58681,1.4774 l -0.28454,0.4268 -19.70926,0 -0.28453,-0.5582 z m 2.97664,-9.4223 0,-7.6167 c 1.43723,0.066 2.15585,0.2444 2.15587,0.5362 -2e-5,0.1824 -0.29914,0.3831 -0.89737,0.6019 l 0,6.4786 z m 1.19284,1.5758 c 0.89735,0.088 1.76189,0.1314 2.59361,0.1314 0.55446,0 0.83169,-0.2007 0.83171,-0.6019 l 0,-9.8164 c 1.43723,0.066 2.15585,0.2591 2.15587,0.58 -2e-5,0.1825 -0.29185,0.3831 -0.87548,0.6019 l 0,9.4443 c -2e-5,1.0506 -0.67487,1.5649 -2.02455,1.543 -0.0219,-0.4304 -0.23713,-0.7222 -0.64567,-0.8755 -0.33561,-0.1459 -1.01411,-0.2881 -2.03549,-0.4268 z"
         style="fill:#ffffff"
         id="path3173" />
      <path
         d="m 183.3742,1101.77 11.65483,0 0.87548,-0.8973 c 0.86087,0.6201 1.29132,1.0396 1.29134,1.2585 -2e-5,0.08 -0.0657,0.1751 -0.19698,0.2845 l -0.49246,0.3611 0,5.7016 -1.25851,0 0,-0.766 -5.46081,0 0,1.4117 c -1e-5,0.4012 0.11307,0.6566 0.33925,0.766 0.3137,0.124 1.37887,0.1861 3.19551,0.1861 1.86767,0 3.00215,-0.058 3.40343,-0.1751 0.53256,-0.1605 0.96665,-1.1345 1.30228,-2.922 l 0.58,0.1532 c -0.0876,0.7807 -0.13134,1.3315 -0.13132,1.6525 -2e-5,0.6202 0.26992,0.9448 0.80982,0.974 -0.0219,0.7077 -0.35751,1.1418 -1.0068,1.3023 -0.59827,0.1167 -2.09388,0.1751 -4.48684,0.1751 -2.7213,0 -4.29717,-0.1131 -4.7276,-0.3393 -0.37209,-0.197 -0.55813,-0.6529 -0.55812,-1.3679 l 0,-1.8166 -5.35137,0 0,1.3679 -1.25851,0 0,-7.9341 c 0.54717,0.197 1.03963,0.405 1.47738,0.6238 z m 6.41289,3.2065 0,2.1777 5.46081,0 0,-2.1777 z m -1.28039,0 -5.35137,0 0,2.1777 5.35137,0 z m -5.35137,-0.5581 5.35137,0 0,-2.0903 -5.35137,0 z m 6.63176,0 5.46081,0 0,-2.0903 -5.46081,0 z m -8.14197,-9.2145 6.83969,0 0,-1.8385 -6.43478,0 -0.24076,-0.5581 12.16919,0 1.13812,-1.3461 c 0.51798,0.4305 1.02867,0.9157 1.53209,1.4555 l -0.27358,0.4487 -6.60988,0 0,1.8385 7.14611,0 0.87548,-1.0724 c 1.02867,0.963 1.54301,1.5831 1.54303,1.8604 -2e-5,0.124 -0.0803,0.197 -0.24075,0.2188 l -0.74416,0.1532 c -0.21889,0.2554 -0.71135,0.7442 -1.47738,1.4665 l -0.44868,-0.2955 c 0.32829,-0.715 0.53986,-1.3059 0.63472,-1.7729 l -7.28837,0 0,5.0231 -1.2804,0 0,-5.0231 -6.8178,0 c -1e-5,0.9923 -0.19334,1.8677 -0.58001,2.6265 -0.37938,0.6712 -0.78064,1.0068 -1.20378,1.0068 -0.5107,0 -0.76605,-0.2626 -0.76605,-0.7879 0,-0.2189 0.12767,-0.4414 0.38302,-0.6676 0.92655,-0.8171 1.4336,-1.9771 1.52115,-3.48 l 0.55812,0.098 c 0.0292,0.2845 0.0511,0.4997 0.0657,0.6456 z m 3.90683,4.4212 0.83171,-0.9521 c 0.44503,0.3648 0.83899,0.7405 1.1819,1.1272 l -0.24076,0.383 -5.00118,0 -0.29548,-0.5581 z m 8.62349,0 0.83171,-1.0396 c 0.51068,0.4523 0.91559,0.8499 1.21473,1.1928 l -0.2517,0.4049 -5.04496,0 -0.26265,-0.5581 z m -8.55782,-2.134 0.85359,-1.0287 c 0.56905,0.5691 0.93384,0.9631 1.09435,1.1819 l -0.21887,0.4049 -4.86986,0 -0.26265,-0.5581 z m 8.36084,0 0.85359,-0.9849 c 0.42313,0.3137 0.8098,0.6785 1.16001,1.0944 l -0.21887,0.4486 -4.82609,0 -0.28453,-0.5581 z"
         style="fill:#ffffff"
         id="path3175" />
      <path
         d="m 209.759,1105.2063 c 0.94113,-1.0579 1.76919,-2.2252 2.48417,-3.5019 1.18189,0.5617 1.77284,0.9812 1.77285,1.2585 -1e-5,0.197 -0.3502,0.2955 -1.05057,0.2954 -0.63474,0.8318 -1.36795,1.7036 -2.19965,2.6155 2.32731,1.6343 3.49097,2.8016 3.49098,3.502 -1e-5,0.4596 -0.20794,0.6894 -0.62378,0.6894 -0.22618,0 -0.43775,-0.1204 -0.63472,-0.3611 -0.83902,-0.9849 -1.85312,-1.9626 -3.0423,-2.9329 -1.93336,1.7947 -4.3081,3.2356 -7.12422,4.3227 l -0.33925,-0.4706 c 2.61914,-1.2621 4.78595,-2.8088 6.50044,-4.64 -1.43725,-1.1017 -2.92922,-2.0866 -4.47589,-2.9548 l 0.30641,-0.4705 c 1.79473,0.839 3.43991,1.7217 4.93553,2.6483 z m -2.71399,-10.1775 c -1.33512,2.2836 -2.91828,4.1294 -4.74949,5.5374 l -0.40491,-0.4268 c 2.29084,-2.2689 4.06004,-5.2127 5.30761,-8.8314 1.39346,0.2919 2.0902,0.5983 2.09021,0.9193 -1e-5,0.1897 -0.3575,0.3393 -1.07247,0.4487 -0.19699,0.4669 -0.48152,1.0652 -0.85359,1.7947 l 9.96954,0 1.11623,-1.4555 c 0.59094,0.5399 1.10163,1.0689 1.5321,1.5868 l -0.27359,0.4268 z m 9.07217,2.1997 1.0834,-1.2804 c 0.59094,0.5326 1.0688,1.0031 1.4336,1.4117 l -0.27358,0.4268 -11.51258,0 -0.2517,-0.5581 z m -0.47057,2.8891 0.91925,-1.0616 c 0.91194,0.6931 1.36792,1.1528 1.36794,1.3789 -2e-5,0.088 -0.0803,0.1897 -0.24076,0.3064 l -0.51434,0.3174 c 0.0219,2.838 0.64929,5.1982 1.88228,7.0805 0.32829,0.5106 0.54351,0.766 0.64567,0.766 0.33558,0 0.64929,-1.3898 0.94114,-4.1695 l 0.58001,0.2846 c -0.13135,1.6415 -0.19701,2.7869 -0.19699,3.4362 -2e-5,1.0068 0.2298,1.6087 0.68944,1.8057 -0.10945,0.6785 -0.44505,1.0177 -1.0068,1.0177 -0.71499,0 -1.49198,-0.5544 -2.33097,-1.6634 -1.62695,-2.1814 -2.4623,-5.1617 -2.50606,-8.9408 l -11.76427,0 -0.22982,-0.5581 z"
         style="fill:#ffffff"
         id="path3177" />
      <path
         d="m 234.41472,1104.4402 c -0.80253,0.6567 -1.92241,1.3425 -3.35965,2.0574 l 0,3.0314 c 2.11573,-0.2773 3.99072,-0.5545 5.62496,-0.8317 l 0.12038,0.5581 c -2.83803,0.7369 -6.0007,1.3789 -9.48802,1.926 -0.13863,0.4816 -0.28089,0.7223 -0.4268,0.7223 -0.28453,0 -0.58366,-0.6347 -0.89737,-1.9042 1.66341,-0.1094 2.92556,-0.2225 3.78646,-0.3392 l 0,-2.6155 c -1.64154,0.6639 -3.553,1.2147 -5.7344,1.6525 l -0.27359,-0.5144 c 3.74268,-0.9119 6.62082,-2.1595 8.63443,-3.7427 l -8.16386,0 -0.27359,-0.5581 9.42236,0 0,-1.5868 c 1.37888,0.088 2.06832,0.2663 2.06833,0.5362 -1e-5,0.1387 -0.27725,0.2882 -0.83171,0.4487 l 0,0.6019 6.97102,0 1.09435,-1.346 c 0.45961,0.4158 0.93747,0.9083 1.4336,1.4773 l -0.26265,0.4268 -8.74386,0 c 0.70767,1.1819 1.64151,2.1888 2.80154,3.0205 0.0292,-0.015 0.0948,-0.073 0.19698,-0.1751 0.99949,-0.8828 1.8312,-1.7948 2.49512,-2.7359 1.10163,0.4961 1.65245,0.8828 1.65247,1.16 -2e-5,0.1824 -0.20794,0.2736 -0.62378,0.2736 -0.10945,0 -0.20794,-0.01 -0.29547,-0.022 -0.76607,0.6055 -1.7291,1.2257 -2.88909,1.8604 1.6488,1.0214 3.62958,1.7473 5.94233,2.1777 -0.45965,0.394 -0.80984,0.8427 -1.05058,1.3461 -4.50145,-1.233 -7.47808,-3.5348 -8.92991,-6.9054 z m -7.21177,-10.648 2.1887,0 0,-2.331 c 1.39347,0.066 2.09021,0.2372 2.09021,0.5144 0,0.1678 -0.27724,0.3393 -0.8317,0.5143 l 0,1.3023 2.37474,0 0.91925,-1.1928 c 0.4888,0.4377 0.90101,0.8718 1.23662,1.3022 l -0.27359,0.4487 -4.25702,0 0,1.751 2.91097,0 0.99586,-1.1929 c 0.51798,0.4159 0.97396,0.8573 1.36794,1.3242 l -0.27359,0.4268 -5.00118,0 0,1.4664 2.67021,0 0.73322,-0.8098 c 0.8244,0.5983 1.2366,0.974 1.23662,1.1272 -2e-5,0.051 -0.0584,0.124 -0.1751,0.2189 l -0.44868,0.3173 0,1.8385 c -2e-5,0.8391 -0.58367,1.2695 -1.75097,1.2914 -1e-5,-0.5764 -0.518,-0.8974 -1.55397,-0.9631 l 0,-0.5362 c 0.42314,0.044 0.89371,0.066 1.41171,0.066 0.45232,0 0.67849,-0.1642 0.6785,-0.4925 l 0,-1.4992 -2.80154,0 0,4.1913 -1.25851,0 0,-4.1913 -2.57172,0 0,3.7426 -1.21473,0 0,-4.8917 c 0.52528,0.1824 1.01045,0.3794 1.45549,0.5909 l 2.33096,0 0,-1.4664 -4.93552,0 -0.1751,-0.5581 5.11062,0 0,-1.751 -2.57172,0 c -0.45234,0.5764 -0.95574,1.0871 -1.51021,1.5321 l -0.38302,-0.2955 c 0.80982,-1.0651 1.36429,-2.3747 1.66342,-3.9287 1.19648,0.27 1.79473,0.5253 1.79473,0.7661 0,0.1532 -0.24806,0.2882 -0.74416,0.4049 -0.10944,0.2918 -0.25535,0.6128 -0.43774,0.963 z m 9.5318,6.1174 0,-7.6385 c 1.37887,0.066 2.06831,0.2444 2.06832,0.5362 -1e-5,0.1751 -0.28454,0.3539 -0.85359,0.5362 l 0,6.5661 z m 1.33511,1.1053 c 0.70766,0.088 1.44452,0.1314 2.21059,0.1313 0.4669,1e-4 0.70036,-0.2298 0.70038,-0.6894 l 0,-8.9299 c 1.40805,0.051 2.11208,0.2408 2.1121,0.5691 -2e-5,0.1824 -0.28455,0.3757 -0.8536,0.58 l 0,8.5578 c -2e-5,1.0214 -0.65298,1.5321 -1.95888,1.5321 -2e-5,-0.4013 -0.18606,-0.6785 -0.55812,-0.8317 -0.34292,-0.1167 -0.89374,-0.2298 -1.65247,-0.3393 z"
         style="fill:#ffffff"
         id="path3179" />
      <path
         d="m 249.11186,1102.7659 4.42118,0 0.7551,-0.9412 c 0.91195,0.6421 1.36793,1.0689 1.36794,1.2804 -1e-5,0.1022 -0.0657,0.197 -0.19699,0.2846 l -0.47057,0.3392 0,7.4088 -1.28039,0 0,-1.4555 -4.83703,0 0,1.7072 -1.2585,0 0,-9.2692 c 0.56906,0.1897 1.06881,0.4049 1.49926,0.6457 z m -0.24076,0.5581 0,5.8001 4.83703,0 0,-5.8001 z m 10.18841,-0.5581 4.71665,0 0.85359,-1.0068 c 0.86087,0.6858 1.29132,1.1345 1.29134,1.346 -2e-5,0.08 -0.0584,0.1678 -0.1751,0.2627 l -0.49246,0.3611 0,7.6605 -1.28039,0 0,-1.7072 -5.11061,0 0,1.7072 -1.2804,0 0,-9.3458 c 0.53258,0.2262 1.02503,0.4669 1.47738,0.7223 z m -0.19698,0.5581 0,5.8001 5.11061,0 0,-5.8001 z m -6.13931,-9.9039 7.46347,0 0.82076,-1.0068 c 0.92654,0.6785 1.38981,1.1199 1.38983,1.3242 -2e-5,0.095 -0.0511,0.1751 -0.15321,0.2408 l -0.53623,0.3611 0,6.588 -1.32417,0 0,-1.4227 -7.90121,0 0,1.5759 -1.32417,0 0,-8.4046 c 0.30642,0.124 0.76969,0.3429 1.38983,0.6566 z m -0.24076,0.5582 0,4.9683 7.90121,0 0,-4.9683 z"
         style="fill:#ffffff"
         id="path3181" />
      <path
         d="m 12.436575,1124.3465 c 0.955719,-1.5467 1.71082,-3.2064 2.265307,-4.9793 1.451821,0.4961 2.17774,0.9083 2.177758,1.2366 -1.8e-5,0.2189 -0.335619,0.3612 -1.006803,0.4268 -0.736879,1.0652 -1.634246,2.1705 -2.692103,3.3159 l 4.257025,0 0.875481,-1.1162 c 1.072443,1.0505 1.608675,1.7217 1.608696,2.0136 -2.1e-5,0.1386 -0.102161,0.2188 -0.306418,0.2407 l -0.700385,0.1094 c -0.605561,0.6786 -1.31324,1.3315 -2.123041,1.9589 l -0.426797,-0.3392 c 0.517975,-0.8244 0.911941,-1.5941 1.181899,-2.3091 l -14.8284554,0 0,0.3393 c -4e-6,1.0651 -0.2042826,1.9443 -0.6128365,2.6373 -0.3283084,0.5983 -0.707683,0.8974 -1.13812502,0.8974 -0.18968955,0 -0.36843337,-0.073 -0.53623197,-0.2189 -0.19698469,-0.1532 -0.29547617,-0.3501 -0.29547476,-0.5909 -1.41e-6,-0.2262 0.1787424,-0.507 0.53623197,-0.8427 0.75145158,-0.7295 1.19283938,-1.926 1.32416468,-3.5894 l 0.536232,0.044 c 0.036475,0.1533 0.072953,0.4086 0.1094351,0.7661 z m -7.561965,4.1038 4.3117428,0 0,-3.0532 c 1.5393752,0.073 2.3090682,0.2699 2.3090802,0.5909 -1.2e-5,0.197 -0.335613,0.3976 -1.006803,0.6019 l 0,1.8604 4.574387,0 0.787933,-0.9192 c 0.875463,0.7003 1.313203,1.1344 1.313221,1.3022 -1.8e-5,0.1022 -0.06568,0.197 -0.196983,0.2846 l -0.492458,0.3173 0,4.7714 -1.258503,0 0,-1.1929 -4.727597,0 0,3.9069 0.787933,-0.022 c 0.08024,-0.01 0.229801,-0.015 0.448684,-0.022 0.46691,-0.022 0.85358,-0.044 1.160012,-0.066 1.35698,-0.087 2.367429,-0.1568 3.031352,-0.2079 -0.795245,-0.6712 -1.663429,-1.2658 -2.604555,-1.7838 l 0.295475,-0.4815 c 3.735366,1.3643 5.603056,2.7541 5.603077,4.1695 -2.1e-5,0.6128 -0.262665,0.9192 -0.787933,0.9192 -0.306438,0 -0.558138,-0.2225 -0.755102,-0.6675 -0.204298,-0.4305 -0.609207,-0.9667 -1.21473,-1.6087 l -0.251701,0.022 c -4.413895,0.6274 -9.0065164,1.0834 -13.7778781,1.3679 -0.1605084,0.6056 -0.3319565,0.9083 -0.514345,0.9083 -0.3501951,0 -0.6712044,-0.7368 -0.96302884,-2.2106 2.34190654,-0.022 4.61085854,-0.084 6.80686304,-0.186 l 1.4335997,-0.066 0,-3.9725 -4.5853305,0 0,1.554 -1.2803906,0 0,-6.7412 c 0.7733359,0.2992 1.2913282,0.5071 1.5539783,0.6238 z m -0.2735877,0.5581 0,3.4472 4.5853305,0 0,-3.4472 z m 10.6152047,3.4472 0,-3.4472 -4.727597,0 0,3.4472 z m -7.5947961,-13.0665 c 2.1230299,1.0725 3.1845491,2.1486 3.1845611,3.2283 -1.2e-5,0.5691 -0.262656,0.8536 -0.787932,0.8536 -0.3574994,0 -0.6019042,-0.248 -0.7332156,-0.7442 -0.2553589,-1.0213 -0.9229123,-2.0062 -2.0026623,-2.9547 z m -4.7494831,0.3173 c 2.3564959,0.9193 3.5347459,1.9407 3.5347536,3.0642 -7.7e-6,0.5837 -0.277243,0.8755 -0.8317068,0.8755 -0.3210161,0 -0.5581252,-0.2225 -0.7113281,-0.6675 -0.3574938,-1.0579 -1.1198908,-1.999 -2.2871935,-2.8235 z"
         style="fill:#ffffff"
         id="path3183" />
      <path
         d="m 31.631491,1128.8005 0,-8.8095 c 1.502897,0.066 2.25435,0.2517 2.254363,0.5581 -1.3e-5,0.1897 -0.317374,0.4086 -0.952085,0.6566 l 0,7.5948 6.314405,0 1.203786,-1.5649 c 0.576338,0.5034 1.108922,1.0688 1.597752,1.6962 l -0.273587,0.4268 -6.631767,0 0,7.5839 c -1.4e-5,0.4085 0.12766,0.6602 0.383023,0.7551 0.291812,0.073 0.999491,0.1094 2.12304,0.1094 1.145403,0 1.878618,-0.036 2.199646,-0.1094 0.598226,-0.1751 0.963009,-1.5722 1.094351,-4.1914 l 0.612836,0.2517 0,0.58 c -2e-5,1.3935 0.06564,2.2836 0.196984,2.6702 0.11671,0.3648 0.357467,0.5363 0.722271,0.5144 -0.02191,0.7514 -0.412226,1.2074 -1.170955,1.3679 -0.744178,0.1167 -1.955259,0.1751 -3.633246,0.1751 -1.969846,0 -3.126209,-0.1496 -3.469092,-0.4487 -0.255362,-0.2553 -0.383036,-0.7186 -0.383023,-1.3898 l 0,-7.8684 -3.261166,0 c -0.138627,3.2393 -0.864546,5.6177 -2.177758,7.1352 -1.196497,1.3716 -3.100665,2.393 -5.712512,3.0642 l -0.317362,-0.5144 c 2.998517,-1.0506 4.979291,-2.6957 5.942326,-4.9355 0.547167,-1.2549 0.84629,-2.838 0.897367,-4.7495 l -6.347235,0 -0.21887,-0.5581 z m -6.795919,-7.1899 c 2.509705,1.999 3.764559,3.6807 3.764567,5.045 -8e-6,0.6128 -0.262652,0.9192 -0.787933,0.9192 -0.335607,0 -0.601899,-0.3429 -0.798876,-1.0287 -0.43045,-1.5393 -1.276747,-3.0495 -2.538894,-4.5306 z m 10.308786,5.7782 c 1.152701,-1.7145 2.199629,-3.7974 3.140787,-6.2488 1.313203,0.6421 1.969813,1.1126 1.969832,1.4118 -1.9e-5,0.2115 -0.33562,0.3173 -1.006803,0.3173 -0.926568,1.6124 -2.137648,3.232 -3.633245,4.8589 z"
         style="fill:#ffffff"
         id="path3185" />
      <path
         d="m 54.054742,1126.0208 0,-2.3966 c 0.05836,0.01 0.160494,0.015 0.306419,0.022 0.09483,0.01 0.164141,0.015 0.207926,0.022 1.014087,-1.2767 1.688936,-2.7322 2.02455,-4.3665 1.298615,0.27 1.947929,0.5472 1.947944,0.8317 -1.5e-5,0.1606 -0.306433,0.2882 -0.919255,0.3831 -0.167814,0.4231 -0.346558,0.7952 -0.536231,1.1162 l 5.066844,0 1.02869,-1.3461 c 0.466903,0.4524 0.930178,0.9521 1.389826,1.4993 l -0.251701,0.4049 -5.80006,0 c 1.225657,0.6421 1.838493,1.3643 1.83851,2.1668 -1.7e-5,0.5399 -0.262661,0.8099 -0.787933,0.8099 -0.350208,0 -0.558134,-0.2298 -0.62378,-0.6895 -0.10945,-0.7879 -0.499768,-1.5138 -1.170955,-2.1777 l -0.109435,-0.1095 -0.941142,0 c -0.430458,0.6275 -0.886437,1.1564 -1.367939,1.5868 0.510685,0.1095 0.766033,0.2517 0.766046,0.4268 -1.3e-5,0.1824 -0.277248,0.3612 -0.831707,0.5363 l 0,1.2803 7.01479,0 0.853593,-1.0724 c 1.072444,1.0068 1.608675,1.6634 1.608696,1.9698 -2.1e-5,0.1386 -0.08757,0.2189 -0.262644,0.2408 l -0.80982,0.1422 c -0.459647,0.4524 -1.087074,0.9813 -1.882283,1.5868 l -0.40491,-0.3392 c 0.393948,-0.6493 0.714957,-1.3059 0.963029,-1.9698 l -14.90506,0 c -0.02189,1.0214 -0.200635,1.8567 -0.536232,2.506 -0.335604,0.6421 -0.707683,0.9631 -1.116238,0.9631 -0.539882,0 -0.809822,-0.2627 -0.80982,-0.788 -2e-6,-0.2115 0.178742,-0.4851 0.536232,-0.8207 0.780634,-0.7369 1.203783,-1.8568 1.269447,-3.3597 l 0.547175,0.044 0.08755,0.8973 z m -5.132506,-4.3883 3.819285,0 1.006803,-1.3242 0.448684,0.4925 c 0.226155,0.2335 0.485151,0.5618 0.776989,0.9849 l -0.262644,0.4049 -4.661935,0 c 1.211074,0.6931 1.816614,1.4227 1.816622,2.1887 -8e-6,0.5399 -0.262652,0.8099 -0.787932,0.8098 -0.321017,10e-5 -0.536239,-0.2553 -0.645667,-0.766 -0.189695,-0.9411 -0.6019,-1.6853 -1.236617,-2.2325 l -0.580006,0 c -1.006807,1.7145 -2.24707,3.0897 -3.720793,4.1257 l -0.361136,-0.3611 c 1.882281,-1.8823 3.151727,-4.1148 3.808341,-6.6974 1.364285,0.2918 2.04643,0.5763 2.046437,0.8536 -7e-6,0.1751 -0.324664,0.31 -0.973973,0.4049 -0.233467,0.5763 -0.397619,0.9484 -0.492458,1.1162 z m 1.893227,6.8616 7.999706,0 0.798876,-0.963 c 0.890055,0.6566 1.335091,1.0761 1.335108,1.2585 -1.7e-5,0.066 -0.06203,0.1459 -0.186039,0.2407 l -0.514345,0.3611 0,3.5348 -1.280391,0 0,-0.7442 -8.448389,0 0,2.0465 9.236322,0 0.80982,-0.9412 c 0.831688,0.6785 1.247541,1.1053 1.24756,1.2804 -1.9e-5,0.095 -0.05109,0.1751 -0.153209,0.2408 l -0.514345,0.3611 0,4.4321 -1.258504,0 0,-1.2913 -9.367644,0 0,1.2913 -1.302278,0 0,-11.7752 c 0.583648,0.2189 1.116231,0.4414 1.597752,0.6676 z m -0.295474,0.5581 0,2.5717 8.448389,0 0,-2.5717 z m 0,5.7344 0,2.9657 9.367644,0 0,-2.9657 z"
         style="fill:#ffffff"
         id="path3187" />
      <path
         d="m 77.167435,1127.8594 c 0.437728,0 0.828047,0.1714 1.170955,0.5143 0.29911,0.2991 0.448671,0.6639 0.448684,1.0944 -1.3e-5,0.2918 -0.08026,0.5763 -0.240757,0.8535 -0.335613,0.5107 -0.79524,0.7661 -1.378882,0.7661 -0.386682,0 -0.729578,-0.1277 -1.02869,-0.383 -0.386681,-0.3429 -0.580016,-0.7551 -0.580006,-1.2366 -1e-5,-0.5472 0.229804,-0.985 0.689441,-1.3133 0.284521,-0.1969 0.590939,-0.2954 0.919255,-0.2954 z"
         style="fill:#ffffff"
         id="path3189" />
      <path
         d="m 93.724965,1129.7854 11.654835,0 0.87548,-0.8974 c 0.86087,0.6202 1.29132,1.0397 1.29134,1.2585 -2e-5,0.08 -0.0657,0.1752 -0.19699,0.2846 l -0.49245,0.3611 0,5.7016 -1.25851,0 0,-0.7661 -5.46081,0 0,1.4118 c -1e-5,0.4012 0.11307,0.6566 0.33925,0.766 0.3137,0.124 1.37887,0.186 3.19551,0.186 1.86767,0 3.00215,-0.058 3.40343,-0.1751 0.53256,-0.1605 0.96665,-1.1344 1.30227,-2.9219 l 0.58001,0.1532 c -0.0876,0.7807 -0.13134,1.3315 -0.13132,1.6525 -2e-5,0.6201 0.26992,0.9448 0.80982,0.974 -0.0219,0.7077 -0.35751,1.1417 -1.00681,1.3023 -0.59826,0.1167 -2.09387,0.175 -4.48683,0.175 -2.7213,0 -4.297167,-0.113 -4.7276,-0.3392 -0.37209,-0.197 -0.55813,-0.653 -0.558119,-1.3679 l 0,-1.8167 -5.351376,0 0,1.368 -1.258504,0 0,-7.9341 c 0.547171,0.197 1.039628,0.405 1.477374,0.6238 z m 6.412895,3.2065 0,2.1777 5.46081,0 0,-2.1777 z m -1.280389,0 -5.351376,0 0,2.1777 5.351376,0 z m -5.351376,-0.5582 5.351376,0 0,-2.0902 -5.351376,0 z m 6.631765,0 5.46081,0 0,-2.0902 -5.46081,0 z m -8.14197,-9.2144 6.839694,0 0,-1.8385 -6.434784,0 -0.240757,-0.5581 12.169187,0 1.13812,-1.3461 c 0.51798,0.4305 1.02867,0.9157 1.53209,1.4555 l -0.27359,0.4487 -6.60988,0 0,1.8385 7.14612,0 0.87548,-1.0725 c 1.02867,0.9631 1.54301,1.5832 1.54303,1.8604 -2e-5,0.1241 -0.0803,0.197 -0.24076,0.2189 l -0.74415,0.1532 c -0.21889,0.2554 -0.71135,0.7442 -1.47738,1.4665 l -0.44868,-0.2955 c 0.32828,-0.715 0.53986,-1.3059 0.63472,-1.7729 l -7.28838,0 0,5.0231 -1.280386,0 0,-5.0231 -6.817807,0 c -3e-6,0.9923 -0.193339,1.8677 -0.580006,2.6265 -0.379377,0.6712 -0.780639,1.0068 -1.203786,1.0068 -0.510698,0 -0.766047,-0.2627 -0.766045,-0.788 -2e-6,-0.2188 0.127673,-0.4413 0.383022,-0.6675 0.926548,-0.8171 1.433597,-1.9771 1.521148,-3.4801 l 0.558119,0.098 c 0.02918,0.2846 0.05107,0.4998 0.06566,0.6457 z m 3.906833,4.4212 0.831707,-0.9521 c 0.445027,0.3648 0.838993,0.7405 1.181899,1.1272 l -0.240757,0.383 -5.001184,0 -0.295475,-0.5581 z m 8.623487,0 0.83171,-1.0396 c 0.51068,0.4523 0.91558,0.8499 1.21473,1.1928 l -0.25171,0.4049 -5.04495,0 -0.26265,-0.5581 z m -8.557826,-2.134 0.853594,-1.0287 c 0.569053,0.5691 0.933837,0.9631 1.094351,1.1819 l -0.21887,0.4049 -4.869862,0 -0.262644,-0.5581 z m 8.360846,0 0.85359,-0.9849 c 0.42313,0.3137 0.8098,0.6785 1.16001,1.0943 l -0.21887,0.4487 -4.82609,0 -0.28453,-0.5581 z"
         style="fill:#ffffff"
         id="path3191" />
      <path
         d="m 125.22039,1124.7405 c 0.39395,2.1595 1.03597,4.0418 1.92605,5.6468 1.06515,-1.1308 2.04277,-2.5133 2.93286,-4.1476 1.10893,0.6785 1.6634,1.1491 1.66342,1.4117 -2e-5,0.1678 -0.18971,0.2517 -0.56907,0.2517 -0.17511,0 -0.31738,-0.01 -0.42679,-0.022 -0.93387,1.0506 -2.03187,2.0611 -3.294,3.0314 1.12352,1.7291 2.77599,3.3341 4.95741,4.8151 -0.48883,0.3575 -0.88644,0.7843 -1.19284,1.2804 -3.16634,-2.5899 -5.16535,-5.924 -5.99704,-10.0023 l 0,10.7684 c -2e-5,1.1673 -0.79525,1.7619 -2.38569,1.7838 -0.0219,-0.4378 -0.24442,-0.7588 -0.66755,-0.9631 -0.29914,-0.124 -0.99223,-0.2954 -2.07927,-0.5143 l 0,-0.6019 c 1.08704,0.1459 2.12303,0.2189 3.10796,0.2189 0.4815,0 0.72225,-0.2444 0.72227,-0.7332 l 0,-5.0231 c -1.23298,1.2111 -2.75778,2.444 -4.57439,3.6989 0.0146,0.1021 0.0219,0.2079 0.0219,0.3174 -1e-5,0.4158 -0.0839,0.6237 -0.2517,0.6237 -0.28454,0 -0.72958,-0.5982 -1.33511,-1.7947 2.32001,-1.0798 4.36645,-2.2835 6.13931,-3.6114 l 0,-6.5004 -5.92044,0 -0.24076,-0.5581 6.1612,0 0,-4.662 c 1.481,0.022 2.22151,0.208 2.22153,0.5582 -2e-5,0.1678 -0.30643,0.3538 -0.91925,0.5581 l 0,3.5457 4.30079,0 1.05058,-1.368 c 0.56175,0.467 1.0615,0.9594 1.49926,1.4774 l -0.24075,0.4487 -6.60988,0 z m -9.2035,3.3487 0,4.9355 c 1.13812,-0.4304 2.21059,-0.901 3.2174,-1.4117 l 0.16415,0.58 c -2.0428,1.2767 -4.10017,2.382 -6.17214,3.3159 -0.0657,0.6274 -0.20063,0.9411 -0.40491,0.9411 -0.3429,0 -0.72957,-0.6639 -1.16001,-1.9917 1.0068,-0.2626 2.03184,-0.5837 3.07512,-0.963 l 0,-5.4061 -2.47323,0 -0.21887,-0.5581 2.6921,0 0,-5.1873 -2.67021,0 -0.22982,-0.5581 5.12157,0 1.05057,-1.3898 c 0.53258,0.4888 1.01045,1.0032 1.4336,1.543 l -0.2517,0.4049 -3.17362,0 0,5.1873 0.77699,0 0.94114,-1.4118 c 0.37937,0.3794 0.82806,0.9011 1.34606,1.565 l -0.21887,0.4049 z m 10.87785,-8.0982 c 1.90416,0.6712 2.85624,1.4628 2.85626,2.3747 -2e-5,0.5545 -0.26996,0.8317 -0.80982,0.8317 -0.3648,0 -0.61286,-0.2553 -0.74416,-0.766 -0.197,-0.7296 -0.71134,-1.4081 -1.54303,-2.0355 z m -7.55102,6.1502 c 2.10844,1.16 3.16266,2.3237 3.16268,3.491 -2e-5,0.5837 -0.25536,0.8755 -0.76605,0.8755 -0.37939,0 -0.62744,-0.2772 -0.74416,-0.8317 -0.24806,-1.0506 -0.90467,-2.0975 -1.96983,-3.1408 z"
         style="fill:#ffffff"
         id="path3193" />
      <path
         d="m 144.40436,1127.8594 c 0.43773,0 0.82804,0.1714 1.17095,0.5143 0.29911,0.2991 0.44867,0.6639 0.44869,1.0944 -2e-5,0.2918 -0.0803,0.5763 -0.24076,0.8535 -0.33561,0.5107 -0.79524,0.7661 -1.37888,0.7661 -0.38668,0 -0.72958,-0.1277 -1.02869,-0.383 -0.38668,-0.3429 -0.58002,-0.7551 -0.58001,-1.2366 -1e-5,-0.5472 0.22981,-0.985 0.68944,-1.3133 0.28452,-0.1969 0.59094,-0.2954 0.91926,-0.2954 z"
         style="fill:#ffffff"
         id="path3195" />
      <path
         d="m 167.67026,1121.2276 c 0.33559,2.7432 1.11987,5.2456 2.35285,7.5072 1.37887,-1.2402 2.82706,-3.0313 4.34458,-5.3732 1.15269,0.7879 1.72905,1.3242 1.72907,1.6087 -2e-5,0.1678 -0.16417,0.2517 -0.49246,0.2517 -0.11675,0 -0.31008,-0.026 -0.58,-0.077 -1.25488,1.3643 -2.80885,2.7541 -4.66194,4.1694 1.48101,2.3857 3.66241,4.5161 6.54422,6.3911 -0.43776,0.2991 -0.80619,0.7113 -1.10529,1.2366 -2.78697,-2.1158 -4.81881,-4.3811 -6.09554,-6.796 -0.94845,-1.7728 -1.62695,-3.7536 -2.03549,-5.9423 l 0,13.0666 c -1e-5,1.3059 -0.79159,1.9589 -2.37474,1.9589 -1e-5,-0.4159 -0.18605,-0.7223 -0.55812,-0.9193 -0.3575,-0.1678 -1.21109,-0.3794 -2.56078,-0.6347 l 0,-0.6019 c 1.36428,0.1824 2.49876,0.2736 3.40343,0.2736 0.51069,0 0.76603,-0.2262 0.76604,-0.6785 l 0,-16.5794 c 1.49561,0.044 2.24341,0.2298 2.24342,0.5581 -1e-5,0.1824 -0.30643,0.3757 -0.91925,0.58 z m -4.57439,4.5087 0.87548,-1.1381 c 0.94114,0.8025 1.41171,1.3242 1.41172,1.5649 -1e-5,0.1095 -0.073,0.197 -0.21887,0.2627 l -0.58001,0.3173 c -0.60555,2.1814 -1.36795,4.0272 -2.28719,5.5374 -1.21109,1.9407 -2.90004,3.5822 -5.06685,4.9246 l -0.36113,-0.4706 c 3.16631,-2.4294 5.28206,-5.9094 6.34723,-10.4401 l -5.42798,0 -0.19698,-0.5581 z"
         style="font-size:22.41230773999999900px;font-style:normal;font-variant:normal;font-weight:normal;font-stretch:normal;text-align:center;line-height:125%;writing-mode:lr-tb;text-anchor:middle;font-family:IPAmjMincho;-inkscape-font-specification:IPAmjMincho;fill:#ffffff"
         id="path3197" />
      <path
         d="m 184.30439,1125.8676 0,3.1627 1.66342,0 0.96303,-1.346 c 0.51798,0.5471 0.92654,1.0396 1.22567,1.4773 l -0.24076,0.4268 -3.61136,0 0,6.6975 c 1.15271,-0.27 2.45134,-0.6421 3.89589,-1.1163 l 0.0438,0.6019 c -2.26167,0.9922 -4.77138,1.875 -7.52914,2.6483 -0.0875,0.5399 -0.22252,0.8099 -0.40491,0.8099 -0.27723,0 -0.62013,-0.6202 -1.02869,-1.8604 1.11624,-0.1897 2.32002,-0.4305 3.61136,-0.7223 l 0.15321,-0.044 0,-7.0148 -3.40343,0 -0.22981,-0.5581 3.63324,0 0,-3.1627 -1.99172,0 c -0.49611,0.591 -1.09435,1.1819 -1.79473,1.7729 l -0.4268,-0.4268 c 1.98442,-2.1668 3.43261,-4.775 4.34457,-7.8246 1.36429,0.2043 2.04643,0.4377 2.04644,0.7004 -1e-5,0.1678 -0.28454,0.31 -0.85359,0.4268 0.0729,0.029 0.14955,0.066 0.22981,0.1094 1.56126,0.7734 2.71033,1.678 3.4472,2.714 0.29912,0.4377 0.44868,0.7952 0.44869,1.0725 -1e-5,0.5253 -0.23347,0.7879 -0.70039,0.7879 -0.26265,0 -0.50705,-0.2225 -0.73321,-0.6676 -0.59096,-1.1892 -1.56128,-2.3565 -2.91098,-3.5019 -0.75145,1.6051 -1.62693,3.0314 -2.62644,4.2789 l 3.38155,0 0.94114,-1.1381 c 0.37207,0.3283 0.78428,0.7515 1.23662,1.2694 l -0.25171,0.4268 z m 6.63177,-5.0449 5.13251,0 0.94114,-1.0725 c 0.91194,0.7296 1.36792,1.2002 1.36794,1.4117 -2e-5,0.066 -0.0474,0.1314 -0.14227,0.197 l -0.66755,0.4268 0,8.2514 -1.25851,0 0,-0.8536 -2.95474,0 c 0.33558,1.6999 0.8864,3.1736 1.65247,4.4212 1.10163,-1.1673 1.99899,-2.3127 2.6921,-3.4363 1.00678,0.6275 1.51018,1.0835 1.5102,1.368 -2e-5,0.1678 -0.15687,0.2517 -0.47057,0.2517 -0.0438,0 -0.2043,-0.015 -0.48151,-0.044 -0.73688,0.7369 -1.7218,1.5139 -2.95475,2.331 0.99219,1.4372 2.45862,2.7286 4.39929,3.874 -0.47424,0.3793 -0.84267,0.8207 -1.10529,1.3241 -2.5608,-1.8677 -4.28623,-4.1476 -5.17628,-6.8397 -0.29914,-0.9484 -0.5399,-2.0318 -0.72227,-3.2502 l -1.99172,0 0,7.7809 0.15321,-0.044 c 0.96301,-0.2554 2.08654,-0.6238 3.3706,-1.1053 l 0.15321,0.5909 c -2.15224,1.0287 -4.21691,1.8495 -6.19403,2.4623 -0.0876,0.5399 -0.21158,0.8098 -0.37208,0.8098 -0.26265,0 -0.61649,-0.6128 -1.06152,-1.8385 1.3351,-0.2699 2.22517,-0.4596 2.67022,-0.569 l 0,-17.1485 c 0.6566,0.2845 1.16,0.518 1.5102,0.7004 z m -0.22981,0.5581 0,3.2064 5.60307,0 0,-3.2064 z m 5.60307,7.2446 0,-3.48 -5.60307,0 0,3.48 z m -16.28394,2.1778 c 1.31322,1.357 1.96983,2.6337 1.96983,3.8302 0,0.7441 -0.26994,1.1162 -0.80982,1.1162 -0.40126,0 -0.60189,-0.3502 -0.60189,-1.0506 -0.0219,-1.1818 -0.3429,-2.3856 -0.96303,-3.6113 z m 5.09968,4.3883 c 0.43773,-1.2111 0.85723,-2.8234 1.2585,-4.837 1.22566,0.3575 1.8385,0.6858 1.83851,0.9849 -1e-5,0.1678 -0.25536,0.2882 -0.76605,0.3611 -0.53988,1.357 -1.14907,2.5936 -1.82756,3.7099 z"
         style="font-size:22.41230773999999900px;font-style:normal;font-variant:normal;font-weight:normal;font-stretch:normal;text-align:center;line-height:125%;writing-mode:lr-tb;text-anchor:middle;font-family:IPAmjMincho;-inkscape-font-specification:IPAmjMincho;fill:#ffffff"
         id="path3199" />
      <path
         d="m 214.26772,1125.3314 c 0.51798,3.6479 1.5795,6.65 3.18456,9.0065 0.94113,1.3935 1.60503,2.0902 1.99172,2.0902 0.37936,0 0.73685,-1.408 1.07247,-4.2242 l 0.58,0.2955 c -0.14593,1.43 -0.21889,2.528 -0.21887,3.294 -2e-5,1.2549 0.27722,1.9808 0.83171,2.1778 -0.16053,0.6712 -0.52166,1.0068 -1.08341,1.0068 -0.72958,0 -1.7072,-0.6785 -2.93286,-2.0355 -2.50243,-2.8162 -4.10018,-6.65 -4.79326,-11.5017 l -10.51671,0 -0.21887,-0.5581 10.65898,0 c -0.0219,-0.1751 -0.0438,-0.3903 -0.0657,-0.6456 -0.0876,-0.8536 -0.13134,-1.8568 -0.13132,-3.0095 l 0,-1.5212 c 1.481,0.1095 2.22152,0.3101 2.22153,0.6019 -1e-5,0.1751 -0.28455,0.3867 -0.85359,0.6348 l 0,0.4705 c -2e-5,1.0944 0.0693,2.2143 0.20792,3.3597 l 4.58533,0 1.08341,-1.5649 c 0.45961,0.4377 0.8937,0.9083 1.30228,1.4117 l 0.17509,0.2188 -0.2517,0.4925 z m -5.7344,4.8808 0,5.2857 c 1.80932,-0.3721 3.45449,-0.7587 4.93553,-1.16 l 0.10943,0.58 c -3.14444,1.1454 -6.25969,2.0866 -9.34575,2.8234 -0.11674,0.5983 -0.2663,0.8974 -0.44869,0.8974 -0.31372,0 -0.66026,-0.7259 -1.03963,-2.1777 1.48831,-0.197 2.98392,-0.4341 4.48684,-0.7114 l 0,-5.5374 -3.9725,0 -0.21887,-0.5581 7.13517,0 1.16001,-1.5649 c 0.53987,0.4961 1.03962,1.0469 1.49926,1.6524 l -0.26264,0.4706 z m 7.29933,-10.1665 c 1.9917,0.8025 2.98756,1.7181 2.98757,2.7468 -1e-5,0.5545 -0.26266,0.8317 -0.78793,0.8317 -0.40857,0 -0.67122,-0.2444 -0.78793,-0.7332 -0.197,-0.8682 -0.75512,-1.6853 -1.67436,-2.4513 z"
         style="font-size:22.41230773999999900px;font-style:normal;font-variant:normal;font-weight:normal;font-stretch:normal;text-align:center;line-height:125%;writing-mode:lr-tb;text-anchor:middle;font-family:IPAmjMincho;-inkscape-font-specification:IPAmjMincho;fill:#ffffff"
         id="path3201" />
      <path
         d="m 236.83324,1126.3382 0,8.0216 1.52115,0 0.98491,-1.3898 c 0.40125,0.3721 0.85723,0.8718 1.36794,1.4992 l -0.28453,0.4487 -3.58947,0 0,4.6838 -1.30228,0 0,-4.6838 -3.52381,0 -0.21887,-0.5581 3.74268,0 0,-7.0805 c -1.60506,3.6844 -3.7208,6.6719 -6.34723,8.9628 l -0.44869,-0.4268 c 2.56078,-2.6702 4.61815,-6.1284 6.17214,-10.3745 l -5.23099,0 -0.21888,-0.5581 6.07365,0 0,-5.4061 c 1.4956,0.029 2.24341,0.2262 2.24342,0.591 -1e-5,0.197 -0.31373,0.3976 -0.94114,0.6019 l 0,4.2132 4.44307,0 1.18189,-1.6306 c 0.56175,0.5326 1.0761,1.1126 1.54304,1.7401 l -0.26265,0.4486 -6.70837,0 c 1.86768,3.5239 4.36645,6.526 7.49631,9.0065 -0.41588,0.2773 -0.7916,0.6749 -1.12718,1.1929 -2.93288,-2.7067 -5.12158,-5.8074 -6.56611,-9.302 z m -8.90802,-0.2736 c 0.75145,0.1605 1.12718,0.3466 1.12718,0.5581 0,0.1897 -0.29183,0.3867 -0.87548,0.591 l 0,12.388 -1.28039,0 0,-11.5672 c -1.0141,1.7217 -1.99172,3.148 -2.93286,4.2789 l -0.44868,-0.3502 c 2.32002,-3.3925 4.09651,-7.5474 5.32949,-12.4647 1.42265,0.3356 2.13397,0.6712 2.13398,1.0068 -1e-5,0.2116 -0.32831,0.3612 -0.98491,0.4487 -0.50341,1.5686 -1.12354,3.1372 -1.8604,4.7057 z"
         style="font-size:22.41230773999999900px;font-style:normal;font-variant:normal;font-weight:normal;font-stretch:normal;text-align:center;line-height:125%;writing-mode:lr-tb;text-anchor:middle;font-family:IPAmjMincho;-inkscape-font-specification:IPAmjMincho;fill:#ffffff"
         id="path3203" />
      <path
         d="m 255.29494,1120.8665 6.52233,0 0.83171,-1.0068 c 0.91194,0.6858 1.36792,1.1417 1.36794,1.3679 -2e-5,0.088 -0.0766,0.1751 -0.22982,0.2626 l -0.53623,0.3174 0,7.4854 -1.28039,0 0,-1.0068 -6.78497,0 0,1.2147 -1.28039,0 0,-9.3458 c 0.35747,0.1241 0.82075,0.3612 1.38982,0.7114 z m -0.10943,0.5581 0,2.7796 6.78497,0 0,-2.7796 z m 6.78497,6.3034 0,-2.9657 -6.78497,0 0,2.9657 z m 2.40757,10.4511 0.78794,0 0.89736,-1.5212 c -2e-5,0.01 0.13495,0.2007 0.40491,0.58 0.3137,0.4889 0.52892,0.839 0.64567,1.0506 l -0.27359,0.4487 -16.11979,0 -0.26264,-0.5581 2.39663,0 0,-8.0326 c 0.38666,0.1606 0.91195,0.4232 1.57586,0.788 l 8.43745,0 0.89737,-1.0068 c 0.91923,0.6858 1.37886,1.1345 1.37888,1.346 -2e-5,0.088 -0.062,0.1678 -0.18604,0.2408 l -0.58001,0.3611 z m -4.78231,-6.6865 -2.12304,0 0,6.6865 2.12304,0 z m 1.2585,0 0,6.6865 2.26531,0 0,-6.6865 z m -6.71931,0 0,6.6865 2.10115,0 0,-6.6865 z m -7.5948,-6.7631 c 1.91147,0.6493 2.8672,1.4847 2.8672,2.5061 0,0.569 -0.24805,0.8536 -0.74416,0.8536 -0.37937,0 -0.62378,-0.27 -0.73321,-0.8099 -0.20428,-0.8098 -0.75875,-1.5357 -1.66341,-2.1777 z m 1.52115,-4.8261 c 2.0136,0.6275 3.0204,1.4482 3.02041,2.4623 -1e-5,0.5691 -0.25535,0.8536 -0.76605,0.8536 -0.28453,0 -0.50705,-0.2371 -0.66755,-0.7113 -0.24806,-0.7879 -0.86819,-1.5212 -1.8604,-2.1997 z m 4.70571,3.885 -3.14079,9.8382 c -0.22617,0.6931 -0.33925,1.2512 -0.33925,1.6743 0,0.2043 0.0292,0.4378 0.0876,0.7004 0.19698,1.0287 0.29547,1.7656 0.29548,2.2106 -1e-5,0.8974 -0.32102,1.3461 -0.96303,1.3461 -0.50341,0 -0.75511,-0.2627 -0.7551,-0.788 -1e-5,-0.051 0.0438,-0.4888 0.13132,-1.3132 0.0584,-0.4158 0.0875,-0.8645 0.0875,-1.346 -10e-6,-0.9193 -0.21523,-1.5394 -0.64567,-1.8604 -0.22617,-0.1824 -0.5873,-0.3174 -1.08341,-0.4049 l 0,-0.5801 c 0.29912,0.058 0.56906,0.088 0.80982,0.088 0.61284,0 1.05422,-0.2626 1.32417,-0.7879 1.04327,-2.0136 2.24706,-5.0669 3.61135,-9.1598 z"
         style="font-size:22.41230773999999900px;font-style:normal;font-variant:normal;font-weight:normal;font-stretch:normal;text-align:center;line-height:125%;writing-mode:lr-tb;text-anchor:middle;font-family:IPAmjMincho;-inkscape-font-specification:IPAmjMincho;fill:#ffffff"
         id="path3205" />
      <path
         d="m 271.83058,1132.5541 3.84118,0 0.82076,-1.0068 c 0.88277,0.7223 1.32415,1.1856 1.32416,1.3898 -1e-5,0.1022 -0.073,0.197 -0.21887,0.2846 l -0.47057,0.2955 0,6.0845 -1.28039,0 0,-1.4336 -4.23514,0 0,1.4336 -1.30227,0 0,-7.737 c 0.54717,0.197 1.05422,0.4268 1.52114,0.6894 z m -0.21887,0.5581 0,4.4978 4.23514,0 0,-4.4978 z m 12.36617,-4.7823 0,11.2718 -1.36794,0 0,-11.2718 -4.41023,0 -0.2517,-0.5581 4.66193,0 0,-7.7152 c 1.56855,0.073 2.35284,0.27 2.35286,0.591 -2e-5,0.1824 -0.32833,0.3976 -0.98492,0.6457 l 0,6.4785 2.48418,0 1.14907,-1.5868 c 0.39394,0.4159 0.87181,0.9813 1.43359,1.6962 l -0.22981,0.4487 z m -9.05028,-7.1023 1.09435,-1.3679 c 0.4888,0.4669 0.95937,0.9739 1.41171,1.5211 l -0.24076,0.4049 -6.45667,0 -0.17509,-0.5581 z m 0.29547,5.625 1.07247,-1.368 c 0.46691,0.4378 0.92289,0.9521 1.36793,1.543 l -0.2517,0.3831 -7.01479,0 -0.19698,-0.5581 z m 0,2.8234 1.07247,-1.4117 c 0.4888,0.4669 0.94478,0.9739 1.36793,1.5211 l -0.29547,0.4487 -6.94913,0 -0.21887,-0.5581 z m 1.30228,-5.625 1.13812,-1.4117 c 0.58365,0.5326 1.06881,1.0542 1.45549,1.5649 l -0.19698,0.4049 -9.89293,0 -0.21887,-0.5581 z"
         style="font-size:22.41230773999999900px;font-style:normal;font-variant:normal;font-weight:normal;font-stretch:normal;text-align:center;line-height:125%;writing-mode:lr-tb;text-anchor:middle;font-family:IPAmjMincho;-inkscape-font-specification:IPAmjMincho;fill:#ffffff"
         id="path3207" />
      <path
         d="m 19.724953,1148.8818 6.522331,0 0.831707,-1.0068 c 0.911941,0.6858 1.36792,1.1418 1.367939,1.368 -1.9e-5,0.088 -0.07662,0.1751 -0.229814,0.2626 l -0.536232,0.3174 0,7.4853 -1.280391,0 0,-1.0068 -6.784975,0 0,1.2148 -1.280391,0 0,-9.3458 c 0.357479,0.1241 0.820754,0.3612 1.389826,0.7113 z m -0.109435,0.5582 0,2.7796 6.784975,0 0,-2.7796 z m 6.784975,6.3034 0,-2.9657 -6.784975,0 0,2.9657 z m 2.407573,10.4511 0.787932,0 0.897368,-1.5212 c -2.1e-5,0.01 0.134949,0.2007 0.40491,0.58 0.313692,0.4888 0.528915,0.839 0.645667,1.0506 l -0.273588,0.4487 -16.119789,0 -0.262645,-0.5581 2.396629,0 0,-8.0326 c 0.386663,0.1605 0.911951,0.4232 1.575865,0.788 l 8.437446,0 0.897368,-1.0068 c 0.919235,0.6858 1.378862,1.1344 1.378882,1.346 -2e-5,0.088 -0.06203,0.1678 -0.186039,0.2408 l -0.580006,0.3611 z m -4.782314,-6.6865 -2.123041,0 0,6.6865 2.123041,0 z m 1.258503,0 0,6.6865 2.265307,0 0,-6.6865 z m -6.719314,0 0,6.6865 2.101153,0 0,-6.6865 z m -7.594796,-6.7631 c 1.911463,0.6493 2.867195,1.4847 2.867199,2.5061 -4e-6,0.569 -0.248056,0.8536 -0.744158,0.8536 -0.379378,0 -0.623783,-0.27 -0.733215,-0.8099 -0.204282,-0.8098 -0.758752,-1.5357 -1.663414,-2.1777 z m 1.521148,-4.8261 c 2.013601,0.6275 3.020403,1.4482 3.020408,2.4623 -5e-6,0.5691 -0.255354,0.8536 -0.766045,0.8536 -0.284536,0 -0.507054,-0.2371 -0.667554,-0.7113 -0.248057,-0.788 -0.868189,-1.5212 -1.860397,-2.1997 z m 4.705709,3.885 -3.140787,9.8382 c -0.22617,0.6931 -0.339253,1.2512 -0.339249,1.6743 -4e-6,0.2043 0.02918,0.4378 0.08755,0.7004 0.196979,1.0287 0.29547,1.7656 0.295475,2.2106 -5e-6,0.8974 -0.321014,1.3461 -0.963029,1.3461 -0.503405,0 -0.755105,-0.2627 -0.755102,-0.788 -3e-6,-0.051 0.04377,-0.4888 0.131322,-1.3132 0.05836,-0.4159 0.08755,-0.8645 0.08755,-1.3461 -3e-6,-0.9192 -0.215225,-1.5393 -0.645667,-1.8603 -0.226168,-0.1824 -0.587304,-0.3174 -1.083408,-0.405 l 0,-0.58 c 0.299121,0.058 0.569061,0.088 0.80982,0.088 0.612834,0 1.054222,-0.2627 1.324165,-0.788 1.043277,-2.0135 2.247061,-5.0668 3.611358,-9.1597 z"
         style="fill:#ffffff"
         id="path3209" />
      <path
         d="m 36.632675,1154.0143 4.213251,0 0,-2.2871 c 1.422646,0.066 2.133974,0.2517 2.133985,0.5581 -1.1e-5,0.1897 -0.284542,0.3867 -0.853594,0.5909 l 0,1.1381 4.454008,0 0,-2.2871 c 1.422641,0.066 2.133968,0.2444 2.133985,0.5362 -1.7e-5,0.2043 -0.291844,0.4086 -0.875481,0.6128 l 0,1.1381 2.604555,0 1.094351,-1.4336 c 0.569043,0.5472 1.054204,1.0762 1.455487,1.5869 l -0.240757,0.4049 -4.913636,0 0,4.2242 -1.258504,0 0,-0.9959 -4.454008,0 0,1.0834 -1.280391,0 0,-4.3117 -4.213251,0 0,1.1709 c -5e-6,5.2967 -1.054228,9.2801 -3.162674,11.9503 l -0.514345,-0.3392 c 1.553976,-2.7286 2.330964,-6.5989 2.330967,-11.6111 l 0,-5.7782 c 0.58365,0.1897 1.116234,0.405 1.597753,0.6457 l 6.139309,0 0,-3.097 c 1.466418,0.022 2.199632,0.2043 2.199645,0.5472 -1.3e-5,0.1751 -0.306431,0.3757 -0.919255,0.6019 l 0,1.9479 5.975157,0 1.083407,-1.4555 c 0.663886,0.591 1.178231,1.1199 1.543035,1.5868 l -0.273588,0.4268 -15.999411,0 z m 5.493642,3.2284 4.454008,0 0,-2.6702 -4.454008,0 z m -2.24342,3.294 -1.90417,0 -0.273588,-0.5581 10.374447,0 0.831707,-0.9412 c 0.999489,0.7807 1.499242,1.2804 1.499261,1.4993 -1.9e-5,0.095 -0.08757,0.1787 -0.262645,0.2517 l -0.634723,0.2188 c -1.006819,1.1236 -2.236139,2.1778 -3.687963,3.1627 1.874972,0.839 4.300781,1.4592 7.277434,1.8604 -0.474239,0.4013 -0.824431,0.8427 -1.050577,1.3242 -3.056904,-0.6347 -5.464474,-1.4519 -7.222716,-2.4514 -2.436765,1.3862 -5.355032,2.3055 -8.754808,2.7578 l -0.317362,-0.5143 c 3.283046,-0.6931 5.942316,-1.678 7.977819,-2.9548 -1.254866,-0.8463 -2.538904,-2.0647 -3.852116,-3.6551 z m 0.875481,0 c 1.24755,1.2475 2.553474,2.2653 3.917777,3.0532 1.415346,-0.9776 2.542527,-1.9953 3.381544,-3.0532 z"
         style="fill:#ffffff"
         id="path3211" />
      <path
         d="m 58.672903,1160.5695 3.841172,0 0.820764,-1.0068 c 0.882766,0.7223 1.324154,1.1856 1.324164,1.3898 -1e-5,0.1022 -0.07297,0.197 -0.21887,0.2846 l -0.470571,0.2954 0,6.0846 -1.280391,0 0,-1.4336 -4.235138,0 0,1.4336 -1.302277,0 0,-7.737 c 0.547172,0.197 1.054221,0.4268 1.521147,0.6894 z m -0.21887,0.5581 0,4.4978 4.235138,0 0,-4.4978 z m 12.366166,-4.7823 0,11.2718 -1.367939,0 0,-11.2718 -4.410234,0 -0.251701,-0.5581 4.661935,0 0,-7.7152 c 1.568554,0.073 2.352838,0.27 2.352855,0.591 -1.7e-5,0.1824 -0.328322,0.3976 -0.984916,0.6456 l 0,6.4786 2.484177,0 1.149068,-1.5868 c 0.393946,0.4158 0.871812,0.9813 1.4336,1.6962 l -0.229814,0.4487 z m -9.050282,-7.1023 1.094351,-1.368 c 0.488801,0.467 0.959371,0.974 1.411712,1.5212 l -0.240757,0.4049 -6.456671,0 -0.175096,-0.5581 z m 0.295474,5.6249 1.072464,-1.3679 c 0.466914,0.4378 0.922893,0.9521 1.367939,1.543 l -0.251701,0.3831 -7.014789,0 -0.196984,-0.5582 z m 0,2.8235 1.072464,-1.4117 c 0.488801,0.4669 0.94478,0.9739 1.367939,1.5211 l -0.295475,0.4487 -6.949128,0 -0.218871,-0.5581 z m 1.302278,-5.625 1.138125,-1.4117 c 0.583643,0.5326 1.068805,1.0542 1.455487,1.5649 l -0.196983,0.4049 -9.892933,0 -0.21887,-0.5581 z"
         style="fill:#ffffff"
         id="path3213" />
      <path
         d="m 90.168324,1170.6266 -0.645667,0.3611 c -2.706699,-3.3341 -4.060045,-7.033 -4.060043,-11.0967 -2e-6,-4.0637 1.353344,-7.7626 4.060043,-11.0967 l 0.645667,0.383 c -2.123046,3.1518 -3.184565,6.7303 -3.184562,10.7356 -3e-6,3.9688 1.061516,7.5401 3.184562,10.7137 z"
         style="fill:#ffffff"
         id="path3215" />
      <path
         d="m 97.916328,1163.568 0,0.6457 -1.258503,0 0,-8.5359 c 0.466917,0.1459 0.937488,0.3173 1.411713,0.5143 l 9.969532,0 0.83171,-0.7879 c 0.83169,0.569 1.24754,0.9265 1.24756,1.0724 -2e-5,0.088 -0.0584,0.1788 -0.17509,0.2736 l -0.47058,0.3393 0,6.8834 -1.2585,0 0,-0.4049 z m 0,-5.1325 10.297842,0 0,-1.6853 -10.297842,0 z m 0,0.5581 0,1.6197 10.297842,0 0,-1.6197 z m 0,2.1778 0,1.8385 10.297842,0 0,-1.8385 z m 7.791782,-11.1186 0,0.4487 c 0.24804,0.8609 0.82439,1.6087 1.72907,2.2434 1.29132,0.9047 3.05322,1.5467 5.28572,1.9261 -0.44506,0.4596 -0.75148,0.8864 -0.91926,1.2803 -3.51653,-1.0286 -5.59944,-2.5242 -6.24874,-4.4868 -0.62015,2.2033 -2.92193,3.6807 -6.905356,4.4321 l -0.317362,-0.5143 c 2.254358,-0.5545 3.950598,-1.4555 5.088728,-2.7031 0.68578,-0.7587 1.02868,-1.543 1.02869,-2.3528 l 0,-0.2736 -2.59361,0 c -0.67121,0.7879 -1.4409,1.4883 -2.309079,2.1011 l -0.317361,-0.3283 c 1.25485,-1.2548 2.15951,-2.7322 2.71399,-4.4321 1.22566,0.197 1.8385,0.4341 1.83851,0.7113 -1e-5,0.1606 -0.30643,0.3101 -0.91926,0.4487 -0.13862,0.2773 -0.33196,0.591 -0.58,0.9412 l 7.63857,0 0.85359,-1.0068 c 0.92653,0.8536 1.38981,1.3971 1.38983,1.6306 -2e-5,0.124 -0.0985,0.2079 -0.29548,0.2517 l -0.62378,0.1532 c -0.56908,0.569 -1.30959,1.1235 -2.22153,1.6634 l -0.38302,-0.3393 c 0.57634,-0.642 1.00313,-1.2402 1.28039,-1.7947 z m 6.15025,17.5643 c -0.18241,0 -0.48153,-0.1422 -0.89737,-0.4268 -1.29865,-0.8682 -3.46911,-1.7181 -6.51139,-2.5498 l 0.29548,-0.4706 c 5.15802,0.7807 7.73704,1.6999 7.73706,2.7578 -2e-5,0.4596 -0.20795,0.6894 -0.62378,0.6894 z m -18.472645,0.099 -0.317361,-0.5143 c 2.546186,-0.642 4.81149,-1.6598 6.795919,-3.0533 1.116227,0.5399 1.674347,0.9302 1.674357,1.171 -1e-5,0.1605 -0.21523,0.2407 -0.64567,0.2407 -0.21158,0 -0.38303,-0.01 -0.51434,-0.022 -2.225189,1.0286 -4.556154,1.7546 -6.992905,2.1777 z m 2.615499,-17.0171 c -0.284535,0 -0.499757,-0.1642 -0.645667,-0.4925 -0.284534,-0.6639 -0.853596,-1.2621 -1.707187,-1.7947 l 0.2517,-0.3721 c 1.867689,0.5618 2.801534,1.1928 2.801539,1.8932 -5e-6,0.5107 -0.233466,0.7661 -0.700385,0.7661 z m 3.655133,-1.4993 -3.27211,3.8959 c -0.175101,0.2189 -0.262649,0.4669 -0.262644,0.7441 -5e-6,0.146 0.02918,0.3393 0.08755,0.5801 0.05836,0.2407 0.08754,0.4961 0.08755,0.766 -5e-6,0.2699 -0.102144,0.4852 -0.306418,0.6457 -0.167805,0.124 -0.357492,0.186 -0.569063,0.186 -0.415856,0 -0.623783,-0.1568 -0.62378,-0.4706 -3e-6,-0.2553 0.02918,-0.4888 0.08755,-0.7003 0.08025,-0.197 0.120376,-0.456 0.120379,-0.777 -3e-6,-0.2189 -0.08026,-0.3903 -0.240757,-0.5144 -0.196986,-0.1532 -0.569065,-0.3064 -1.116238,-0.4596 l 0.164152,-0.4049 c 0.51799,0.1094 0.839,0.1641 0.963029,0.1641 0.299119,0 0.558116,-0.091 0.776989,-0.2736 0.48151,-0.3866 1.141768,-0.9849 1.980776,-1.7947 0.766039,-0.7368 1.360635,-1.3497 1.783792,-1.8385 z"
         style="fill:#ffffff"
         id="path3217" />
      <path
         d="m 132.20234,1158.9936 -2.4404,0 0,6.6756 c -1e-5,1.2257 -0.70405,1.8385 -2.1121,1.8385 -1e-5,-0.4378 -0.23712,-0.7588 -0.71132,-0.963 -0.3648,-0.146 -0.99223,-0.2955 -1.88229,-0.4487 l 0,-0.6019 c 1.10893,0.1459 1.99536,0.2189 2.65928,0.2189 0.51068,0 0.76603,-0.2372 0.76604,-0.7114 l 0,-6.008 -2.37474,0 0,1.0944 -1.2585,0 0,-8.3718 0.27358,0.1313 c 0.38666,0.1678 0.75874,0.3539 1.11624,0.5581 l 1.49926,0 c 0.23345,-0.9119 0.40125,-1.8093 0.5034,-2.6921 l -5.06684,0 0,5.5812 c -1e-5,5.5229 -1.1892,9.6413 -3.56759,12.3553 l -0.44868,-0.3831 c 1.80932,-2.838 2.71398,-6.8214 2.71399,-11.9503 l 0,-6.8506 c 0.48151,0.1751 0.99585,0.4049 1.54304,0.6894 l 9.38953,0 1.10529,-1.4336 c 0.0875,0.073 0.18602,0.1642 0.29548,0.2736 0.52526,0.5034 0.93382,0.9193 1.22567,1.2476 l -0.24076,0.4705 -5.19816,0 c -0.43046,0.8901 -0.94846,1.7875 -1.55398,2.6921 l 3.56758,0 0.79888,-0.963 c 0.93382,0.7004 1.40075,1.1564 1.40077,1.368 -2e-5,0.1021 -0.0693,0.197 -0.20793,0.2845 l -0.53623,0.3611 0,6.588 -1.25851,0 z m 0,-0.5581 0,-2.5608 -6.09553,0 0,2.5608 z m 0,-3.1189 0,-2.3528 -6.09553,0 0,2.3528 z m -16.89677,-2.5498 c 1.74366,0.6931 2.61549,1.5284 2.61549,2.506 0,0.5691 -0.26264,0.8537 -0.78793,0.8536 -0.35019,10e-5 -0.55812,-0.2006 -0.62378,-0.6019 -0.1751,-0.9046 -0.68215,-1.6998 -1.52115,-2.3856 z m 1.56492,-4.848 c 1.8385,0.5837 2.75776,1.3753 2.75776,2.3748 0,0.5836 -0.26994,0.8754 -0.80982,0.8754 -0.29183,0 -0.49246,-0.2298 -0.60189,-0.6894 -0.20428,-0.8098 -0.75875,-1.5138 -1.66341,-2.1121 z m 14.28128,12.8915 c 1.42263,0.8098 2.54982,1.7801 3.38154,2.9109 0.37206,0.5034 0.5581,0.9959 0.55812,1.4774 -2e-5,0.6274 -0.26266,0.9412 -0.78793,0.9412 -0.34292,0 -0.60191,-0.2992 -0.77699,-0.8974 -0.43046,-1.4227 -1.33513,-2.7651 -2.71399,-4.0272 z m -9.03934,5.4498 c 1.28403,-1.4372 2.258,-3.2174 2.92192,-5.3404 1.28402,0.4961 1.92604,0.8937 1.92605,1.1928 -1e-5,0.197 -0.32102,0.3065 -0.96303,0.3283 -0.83171,1.7291 -1.99902,3.1408 -3.50192,4.2352 z m -0.91926,-14.4126 -2.77965,9.7945 c -0.24805,0.9192 -0.37208,1.5211 -0.37208,1.8056 0,0.1679 0.0292,0.3721 0.0876,0.6129 0.20428,1.0433 0.30641,1.7728 0.30642,2.1887 -1e-5,0.8828 -0.3429,1.3242 -1.02869,1.3242 -0.50341,0 -0.75511,-0.2627 -0.7551,-0.788 -10e-6,-0.022 0.0182,-0.1605 0.0547,-0.4158 0.0511,-0.3648 0.0949,-0.6639 0.13133,-0.8974 0.0875,-0.5691 0.13132,-1.0725 0.13132,-1.5102 0,-1.1965 -0.57636,-1.8969 -1.72908,-2.1012 l 0,-0.58 c 0.28453,0.044 0.52164,0.066 0.71133,0.066 0.70038,0 1.17095,-0.2553 1.41172,-0.7661 0.78063,-1.5539 1.75095,-4.1731 2.91097,-7.8574 l 0.38302,-1.2585 z"
         style="fill:#ffffff"
         id="path3219" />
      <path
         d="m 148.7927,1157.9868 c 2.85989,1.1965 4.93551,2.4514 6.22686,3.7646 0.67118,0.6493 1.00679,1.2038 1.0068,1.6634 -1e-5,0.715 -0.26995,1.0725 -0.80982,1.0725 -0.21888,0 -0.4487,-0.1861 -0.68944,-0.5581 -1.42996,-2.1012 -3.48369,-3.8886 -6.16119,-5.3624 -1.34971,1.5832 -2.7979,2.9074 -4.34458,3.9725 -1.45184,0.9995 -3.1262,1.8714 -5.02307,2.6155 l -0.2517,-0.6237 c 3.18091,-1.6707 5.73075,-3.5749 7.64952,-5.7126 1.78013,-1.9917 3.21373,-4.3919 4.3008,-7.2008 -2.75048,0.3648 -4.83705,0.6566 -6.25969,0.8755 -0.37209,0.066 -0.62379,0.1277 -0.7551,0.186 -0.20429,0.073 -0.41586,0.1095 -0.63473,0.1095 -0.24076,0 -0.55083,-0.2371 -0.9302,-0.7114 -0.3356,-0.4158 -0.59825,-0.8645 -0.78793,-1.346 l 0.53623,-0.3174 c 0.3283,0.3721 0.59095,0.6092 0.78794,0.7114 0.23345,0.124 0.53622,0.186 0.90831,0.186 1.60504,0 3.77185,-0.1714 6.50044,-0.5143 0.34288,-0.044 0.6493,-0.1569 0.91926,-0.3393 0.22615,-0.1313 0.383,-0.197 0.47057,-0.197 0.1459,0 0.42313,0.2007 0.8317,0.6019 0.40125,0.4086 0.60188,0.7077 0.6019,0.8974 -2e-5,0.1678 -0.0985,0.2955 -0.29548,0.383 -0.30643,0.1386 -0.57272,0.4378 -0.79887,0.8974 -0.91927,1.8677 -1.91878,3.5165 -2.99853,4.9464 z"
         style="fill:#ffffff"
         id="path3221" />
      <path
         d="m 171.44578,1156.1483 c -0.10945,2.6848 -0.56543,4.7751 -1.36794,6.2707 -0.98493,1.8749 -2.56079,3.3195 -4.7276,4.3336 l -0.38302,-0.5472 c 1.90416,-1.1965 3.24656,-2.7176 4.02721,-4.5634 0.58364,-1.4008 0.88277,-3.1882 0.89737,-5.3623 -2.19601,0.2261 -3.93602,0.4377 -5.22006,0.6347 -0.26994,0.044 -0.47787,0.095 -0.62378,0.1532 -0.21157,0.058 -0.36114,0.087 -0.44868,0.087 -0.38667,0 -0.80982,-0.2225 -1.26945,-0.6675 -0.38667,-0.3648 -0.71862,-0.8062 -0.99586,-1.3242 l 0.47058,-0.4049 c 0.4961,0.394 0.87547,0.6457 1.13812,0.7551 0.26994,0.1095 0.60918,0.1642 1.01775,0.1642 1.07975,0 3.356,-0.1496 6.82875,-0.4487 3.07876,-0.27 4.775,-0.4633 5.08873,-0.58 0.43772,-0.1678 0.82074,-0.2517 1.14907,-0.2517 0.58363,0 1.0542,0.1131 1.41171,0.3392 0.32829,0.2043 0.49244,0.4669 0.49246,0.7879 -2e-5,0.3284 -0.29914,0.4925 -0.89737,0.4925 l -2.22153,-0.055 c -0.89009,0 -2.34558,0.062 -4.36646,0.186 z m -6.6646,-6.3582 c 0.67849,0.5764 1.32781,0.8646 1.94794,0.8646 1.28403,0 2.95109,-0.1204 5.00119,-0.3611 0.58364,-0.073 1.0688,-0.2007 1.45549,-0.3831 0.26992,-0.1313 0.48514,-0.1969 0.64566,-0.197 0.44502,10e-5 0.84993,0.095 1.21473,0.2846 0.34288,0.1824 0.51433,0.4013 0.51435,0.6566 -2e-5,0.3429 -0.25537,0.5216 -0.76605,0.5362 -2.68482,0.1095 -5.25289,0.2992 -7.70423,0.5691 -0.10215,0.015 -0.21523,0.036 -0.33925,0.066 -0.1751,0.044 -0.34655,0.066 -0.51434,0.066 -0.57637,0 -1.21839,-0.5763 -1.92606,-1.7291 z"
         style="fill:#ffffff"
         id="path3223" />
      <path
         d="m 184.01987,1156.0608 c 0.69309,0.7441 1.44089,1.1162 2.24342,1.1162 1.3351,0 2.64832,-0.029 3.93966,-0.087 1.57586,-0.066 3.81928,-0.1934 6.73026,-0.3831 0.86087,-0.051 1.44453,-0.1276 1.75096,-0.2298 0.24074,-0.087 0.44867,-0.1313 0.62378,-0.1313 0.40125,0 0.80616,0.1058 1.21473,0.3174 0.43043,0.2189 0.64565,0.4815 0.64567,0.7879 -2e-5,0.4451 -0.29185,0.6676 -0.87548,0.6676 -0.32833,0 -0.7004,-0.015 -1.11624,-0.044 -0.61285,-0.044 -1.2877,-0.066 -2.02455,-0.066 -1.81664,0 -5.13981,0.1642 -9.96954,0.4925 -0.32101,0.022 -0.60554,0.073 -0.85359,0.1532 -0.21158,0.058 -0.39032,0.088 -0.53623,0.088 -0.78064,0 -1.52845,-0.766 -2.24342,-2.2981 z"
         style="fill:#ffffff"
         id="path3225" />
      <path
         d="m 210.15297,1149.5166 c 1.40806,0.2626 2.54253,0.7222 3.40343,1.3788 0.68579,0.5253 1.02868,1.0433 1.02869,1.554 -1e-5,0.2627 -0.0766,0.4815 -0.22981,0.6566 -0.15322,0.1751 -0.35385,0.2627 -0.60189,0.2627 -0.29184,0 -0.53625,-0.1788 -0.73322,-0.5363 -0.66391,-1.1527 -1.70355,-2.0646 -3.1189,-2.7358 z m -2.92192,4.257 c 1.5175,0.2991 2.68481,0.7697 3.50193,1.4117 0.6566,0.5253 0.9849,1.0761 0.98491,1.6525 -1e-5,0.5544 -0.27724,0.8317 -0.8317,0.8317 -0.25536,0 -0.51436,-0.2006 -0.77699,-0.6019 -0.79524,-1.2184 -1.82757,-2.123 -3.09702,-2.714 z m 1.46643,8.9408 c 0.59824,0.6566 1.05422,0.985 1.36794,0.9849 0.37937,10e-5 1.05787,-0.2407 2.0355,-0.7222 0.89006,-0.4451 1.86768,-1.0178 2.93286,-1.7182 3.04957,-2.0208 5.89488,-4.8224 8.53593,-8.4046 l 0.54718,0.4268 c -1.63425,2.7505 -3.52018,5.0851 -5.6578,7.0039 -1.78745,1.5977 -3.95061,3.0933 -6.4895,4.4868 -0.53988,0.2991 -0.95209,0.5034 -1.23661,0.6129 -0.19699,0.073 -0.36115,0.1094 -0.49246,0.1094 -0.32102,0 -0.68215,-0.2517 -1.08341,-0.7551 -0.35749,-0.4451 -0.66756,-0.9995 -0.9302,-1.6634 z"
         style="fill:#ffffff"
         id="path3227" />
      <path
         d="m 240.44461,1163.5352 c 0.12401,-1.8312 0.20061,-3.1736 0.22981,-4.0272 -2.22519,0.2262 -3.90684,0.4195 -5.04496,0.58 -0.45964,0.073 -0.74417,0.135 -0.85359,0.186 -0.16781,0.073 -0.31008,0.1095 -0.4268,0.1095 -0.53259,0 -1.15272,-0.4888 -1.8604,-1.4665 l 0.4268,-0.3939 c 0.53987,0.4012 1.13812,0.6019 1.79474,0.6019 0.47421,0 1.02138,-0.029 1.64152,-0.088 0.69308,-0.058 2.14857,-0.2079 4.36646,-0.4487 l 0.1751,-3.2283 c -2.56809,0.2189 -4.53062,0.4195 -5.88761,0.6019 -0.37209,0.044 -0.62014,0.084 -0.74416,0.1204 -0.21888,0.058 -0.39032,0.088 -0.51434,0.088 -0.40857,0 -0.97033,-0.5034 -1.6853,-1.5102 l 0.40491,-0.4049 c 0.43044,0.3064 0.77333,0.4961 1.02869,0.5691 0.21886,0.058 0.5654,0.088 1.03963,0.088 0.73685,0 1.89322,-0.058 3.46909,-0.1751 0.81711,-0.058 1.55762,-0.1349 2.22154,-0.2298 0.24803,-0.022 0.45596,-0.1021 0.62378,-0.2408 0.18967,-0.1677 0.33923,-0.2516 0.44868,-0.2517 0.21156,10e-5 0.53257,0.2153 0.96303,0.6457 0.2991,0.2991 0.44867,0.5472 0.44868,0.7442 -1e-5,0.1532 -0.0985,0.3246 -0.29547,0.5143 -0.2043,0.2335 -0.31373,0.5253 -0.32831,0.8755 -0.13863,1.8239 -0.31008,3.9688 -0.51434,6.4348 0.20426,0.066 0.3903,0.1897 0.55812,0.3721 0.16048,0.1751 0.24074,0.3429 0.24075,0.5034 -10e-6,0.1824 -0.0693,0.2991 -0.20792,0.3502 -0.12405,0.044 -0.38304,0.066 -0.77699,0.066 -1.78016,0 -4.05641,0.1751 -6.82875,0.5253 -0.24806,0.036 -0.43046,0.08 -0.54718,0.1313 -0.13862,0.058 -0.26265,0.088 -0.37208,0.088 -0.50341,0 -1.07976,-0.5691 -1.72907,-1.7072 l 0.4268,-0.3283 c 0.64201,0.5034 1.17824,0.7551 1.60869,0.7551 0.47421,0 1.20013,-0.036 2.17776,-0.1095 1.29132,-0.08 2.73222,-0.1933 4.32269,-0.3392 z"
         style="fill:#ffffff"
         id="path3229" />
      <path
         d="m 253.16096,1150.4358 c 1.75825,0.518 3.04229,1.1673 3.85212,1.948 0.6566,0.6128 0.98491,1.1965 0.98492,1.7509 -10e-6,0.7588 -0.28455,1.1382 -0.8536,1.1381 -0.24806,10e-5 -0.54718,-0.2918 -0.89737,-0.8754 -0.83901,-1.4154 -1.96619,-2.5572 -3.38154,-3.4254 z m 0.32831,12.1473 c 0.40126,0.5983 0.81346,0.8974 1.23662,0.8974 0.49609,0 1.21472,-0.2481 2.15587,-0.7442 4.74947,-2.4805 8.52133,-5.8037 11.31559,-9.9695 l 0.51434,0.4487 c -1.43727,2.517 -3.05326,4.6181 -4.84797,6.3034 -1.7072,1.6124 -3.86307,3.1408 -6.46762,4.5854 -0.86819,0.4742 -1.39348,0.7879 -1.57586,0.9411 -0.26995,0.2408 -0.61285,0.3611 -1.02869,0.3611 -0.22618,0 -0.53624,-0.2517 -0.9302,-0.7551 -0.37938,-0.4961 -0.67486,-1.0688 -0.88643,-1.7181 z"
         style="fill:#ffffff"
         id="path3231" />
      <path
         d="m 273.03438,1148.7943 c 2.70669,3.3268 4.06003,7.0257 4.06004,11.0967 -1e-5,4.0637 -1.35335,7.7626 -4.06004,11.0967 l -0.64567,-0.3611 c 2.12304,-3.1736 3.18456,-6.7449 3.18456,-10.7137 0,-3.9834 -1.06152,-7.562 -3.18456,-10.7356 z"
         style="fill:#ffffff"
         id="path3233" />
    </g>
  </g>
</svg>
