<?xml version="1.0" encoding="UTF-8" standalone="no"?>
<!-- Created with Inkscape (http://www.inkscape.org/) -->

<svg
   xmlns:dc="http://purl.org/dc/elements/1.1/"
   xmlns:cc="http://creativecommons.org/ns#"
   xmlns:rdf="http://www.w3.org/1999/02/22-rdf-syntax-ns#"
   xmlns:svg="http://www.w3.org/2000/svg"
   xmlns="http://www.w3.org/2000/svg"
   xmlns:sodipodi="http://sodipodi.sourceforge.net/DTD/sodipodi-0.dtd"
   xmlns:inkscape="http://www.inkscape.org/namespaces/inkscape"
   width="220"
   height="47"
   id="svg3082"
   version="1.1"
   inkscape:version="0.48.4 r9939"
   sodipodi:docname="youkihousou.svg">
  <defs
     id="defs3084" />
  <sodipodi:namedview
     id="base"
     pagecolor="#ffffff"
     bordercolor="#666666"
     borderopacity="1.0"
     inkscape:pageopacity="0.0"
     inkscape:pageshadow="2"
     inkscape:zoom="5.6"
     inkscape:cx="117.63424"
     inkscape:cy="1.3576387"
     inkscape:document-units="px"
     inkscape:current-layer="layer1"
     showgrid="false"
     inkscape:window-width="1920"
     inkscape:window-height="1017"
     inkscape:window-x="892"
     inkscape:window-y="250"
     inkscape:window-maximized="1" />
  <metadata
     id="metadata3087">
    <rdf:RDF>
      <cc:Work
         rdf:about="">
        <dc:format>image/svg+xml</dc:format>
        <dc:type
           rdf:resource="http://purl.org/dc/dcmitype/StillImage" />
        <dc:title />
      </cc:Work>
    </rdf:RDF>
  </metadata>
  <g
     inkscape:label="レイヤー 1"
     inkscape:groupmode="layer"
     id="layer1"
     transform="translate(0,-1005.3622)">
    <g
       transform="scale(0.99513458,1.0048892)"
       style="font-size:22.59886551000000000px;font-style:normal;font-variant:normal;font-weight:normal;font-stretch:normal;text-align:center;line-height:100%;letter-spacing:0px;word-spacing:0px;writing-mode:lr-tb;text-anchor:middle;fill:#ffffff;fill-opacity:1;stroke:none;font-family:IPAmjMincho;-inkscape-font-specification:IPAmjMincho"
       id="text3090">
      <path
         d="m 16.562684,1014.5501 c -0.05887,0.066 -0.110364,0.1141 -0.154485,0.1435 l -0.40828,0.2869 0,6.2787 -1.335187,0 0,-1.258 -8.9269932,0 0,1.258 -1.3351869,0 0,-6.4553 c -1.2432359,0.743 -2.6225599,1.3977 -4.13797584,1.9642 l -0.30896887,-0.5186 c 4.33291531,-1.9201 7.65432721,-4.7376 9.96424591,-8.4525 1.2505759,0.2942 1.8758699,0.5811 1.8758819,0.8607 -1.2e-5,0.1912 -0.338406,0.32 -1.015183,0.3862 2.574726,2.5306 5.837287,4.4212 9.787692,5.6718 -0.404623,0.3163 -0.735661,0.7466 -0.993114,1.291 -1.1844,-0.5076 -2.188548,-0.9931 -3.012446,-1.4566 z m -1.401395,-0.8496 c -1.655205,-1.1108 -3.222117,-2.4975 -4.70074,-4.1601 -1.1549657,1.5522 -2.7733724,3.0529 -4.8552254,4.5021 0.1324085,0.059 0.3052838,0.1325 0.5186263,0.2207 l 8.4966441,0 z m -0.496557,5.738 0,-4.6125 -8.9269932,0 0,4.6125 z m -5.0317786,-15.1947 0,-3.2552 c 1.5080506,0.066 2.2620806,0.2391 2.2620936,0.5186 -1.3e-5,0.1913 -0.323694,0.412 -0.971045,0.6621 l 0,2.0745 6.753176,0 0.882769,-1.1034 c 1.088727,1.0593 1.6331,1.7214 1.633121,1.9862 -2.1e-5,0.1177 -0.106689,0.1986 -0.320004,0.2427 l -0.750353,0.1325 c -0.647382,0.6547 -1.375665,1.2653 -2.184851,1.8317 l -0.430349,-0.3531 c 0.51493,-0.7651 0.919531,-1.4897 1.213806,-2.1738 l -14.6870558,0 c 0.014709,0.103 0.022065,0.2244 0.022069,0.3641 -4e-6,1.1329 -0.2023048,2.0598 -0.6069031,2.7807 -0.3383975,0.5591 -0.7062172,0.8387 -1.1034602,0.8387 -0.55908827,0 -0.83863125,-0.2575 -0.83862979,-0.7725 -1.46e-6,-0.228 0.11402265,-0.4524 0.34207267,-0.6731 0.86069632,-0.8901 1.34621832,-2.2105 1.45656752,-3.9614 l 0.5737993,0.044 c 0.036778,0.1839 0.07356,0.4561 0.110346,0.8165 z m 2.6372696,1.6552 c 3.994509,1.3315 5.99177,2.6594 5.991789,3.9835 -1.9e-5,0.4635 -0.224389,0.6952 -0.67311,0.6952 -0.228067,0 -0.478184,-0.1802 -0.750353,-0.5407 -0.971062,-1.3168 -2.600503,-2.538 -4.888329,-3.6635 z m -10.6594255,5.1973 c 2.0082931,-1.3021 3.6634818,-3.0566 4.9655711,-5.2635 1.2064411,0.3825 1.8096654,0.7357 1.8096748,1.0593 -9.4e-6,0.206 -0.3236907,0.32 -0.9710451,0.3421 -1.4271488,1.8759 -3.2441781,3.3141 -5.4510935,4.3145 z"
         style="fill:#ffffff"
         id="path3099" />
      <path
         d="m 35.784961,1002.5997 3.409692,0 0.816561,-0.9269 c 0.890105,0.7062 1.335167,1.1439 1.335186,1.3131 -1.9e-5,0.088 -0.06991,0.1765 -0.209657,0.2648 l -0.540696,0.3421 0,5.0649 -1.22484,0 0,-1.0042 -3.950388,0 0,1.1145 -1.224841,0 0,-6.9187 c 0.662063,0.2943 1.191723,0.5444 1.588983,0.7504 z m -0.364142,0.5627 0,3.9283 3.950388,0 0,-3.9283 z m -8.496644,11.5753 3.299346,0 0.717249,-0.8607 c 0.868046,0.6253 1.302073,1.0483 1.302084,1.269 -1.1e-5,0.088 -0.05151,0.1618 -0.154485,0.2207 l -0.496557,0.32 0,5.2635 -1.169668,0 0,-0.8828 -3.840041,0 0,1.1918 -1.246911,0 0,-6.0691 c -0.890127,0.3532 -1.780251,0.6695 -2.670373,0.949 l -0.242762,-0.5407 c 3.052903,-1.1108 5.469479,-2.6041 7.249734,-4.48 l -6.620761,0 -0.198623,-0.5628 7.315941,0 c 0.603216,-0.6915 1.199084,-1.5154 1.787606,-2.4717 1.221151,0.4561 1.831732,0.8128 1.831744,1.0703 -1.2e-5,0.1766 -0.349441,0.2869 -1.048287,0.3311 -0.264842,0.3604 -0.548063,0.7172 -0.849665,1.0703 l 8.353194,0 1.180703,-1.4235 c 0.500215,0.3752 1.048266,0.9012 1.644155,1.578 l -0.26483,0.4083 -7.724222,0 c 2.030352,1.6331 4.82946,2.6667 8.397333,3.1007 -0.419337,0.3972 -0.720949,0.835 -0.904838,1.3131 -0.684165,-0.1618 -1.217504,-0.3053 -1.600017,-0.4303 l -0.08828,0.088 -0.40828,0.2649 0,5.8042 -1.224841,0 0,-1.1918 -4.060734,0 0,1.1918 -1.224841,0 0,-7.1505 c 0.3016,0.088 0.801835,0.298 1.500706,0.629 l 3.7628,0 0.176553,-0.1545 c -1.949462,-0.7724 -3.670858,-1.9273 -5.164193,-3.4648 l -2.846928,0 c -1.280022,1.3977 -2.854291,2.5526 -4.72281,3.4648 0.03678,0.022 0.08459,0.051 0.14345,0.088 0.05885,0.037 0.09563,0.059 0.110346,0.066 z m -0.342072,0.5628 0,4.2042 3.840041,0 0,-4.2042 z m 8.606989,0 0,4.2042 4.060734,0 0,-4.2042 z m -8.529747,-12.7008 3.608315,0 0.750353,-0.9269 c 0.875401,0.6694 1.313107,1.0998 1.313117,1.291 -1e-5,0.088 -0.06254,0.1692 -0.187588,0.2428 l -0.540695,0.342 0,4.8553 -1.202772,0 0,-0.7504 -4.016595,0 0,1.2028 -1.224841,0 0,-6.9077 c 0.36046,0.1177 0.860694,0.3348 1.500706,0.6511 z m -0.275865,0.5627 0,3.9283 4.016595,0 0,-3.9283 z"
         style="fill:#ffffff"
         id="path3101" />
      <path
         d="m 50.174082,1012.9943 0,5.2414 c -6e-6,0.4782 0.165513,0.7503 0.496557,0.8166 0.55908,0.1324 2.357718,0.1986 5.395921,0.1986 3.141168,0 5.167855,-0.099 6.080066,-0.298 0.426653,-0.066 0.720908,-0.3715 0.882768,-0.9158 0.235386,-0.8092 0.422974,-1.8428 0.562765,-3.1008 l 0.606903,0.2097 c -0.01473,0.4929 -0.02209,0.9674 -0.02207,1.4235 -2e-5,0.846 0.05883,1.4234 0.176553,1.7324 0.125039,0.2648 0.353087,0.4083 0.684146,0.4303 0.02205,0.7725 -0.294277,1.247 -0.948976,1.4235 -0.794511,0.2281 -3.266259,0.3421 -7.415253,0.3421 -4.310859,0 -6.712722,-0.1288 -7.205595,-0.3862 -0.404607,-0.2501 -0.606908,-0.7614 -0.606903,-1.5338 l 0,-6.8305 c 0.492873,0.2134 0.98943,0.4414 1.489671,0.6842 l 5.914547,0 0,-3.8511 -7.834568,0 c -0.787138,0.9637 -1.585307,1.8097 -2.394509,2.538 l -0.430349,-0.4304 c 2.354045,-2.788 4.012912,-6.0285 4.976606,-9.7215 1.471272,0.3237 2.206911,0.6401 2.20692,0.949 -9e-6,0.206 -0.345759,0.3642 -1.037253,0.4745 -0.345758,0.9343 -0.632657,1.6515 -0.860699,2.1517 l 10.151835,0 0.893802,-1.1034 c 0.926888,0.7356 1.390341,1.2101 1.39036,1.4235 -1.9e-5,0.1177 -0.0699,0.2207 -0.209657,0.3089 l -0.518627,0.3642 0,1.2579 c -0.02209,4.6787 -0.250135,7.5366 -0.684145,8.5739 -0.404619,1.0005 -1.291065,1.4897 -2.659339,1.4676 -1.5e-5,-0.4267 -0.191281,-0.7283 -0.573799,-0.9048 -0.338409,-0.1545 -1.17336,-0.3348 -2.504855,-0.5407 l 0,-0.5628 c 1.184367,0.1324 2.192193,0.1986 3.023481,0.1986 0.94896,0 1.500689,-0.3678 1.65519,-1.1034 0.286883,-1.2138 0.430333,-3.3619 0.43035,-6.4442 -1.7e-5,-0.8166 -0.0074,-1.6074 -0.02207,-2.3725 l -10.637357,0 c -0.507598,1.0152 -1.103466,1.9863 -1.787606,2.9131 l 7.249734,0 0.83863,-1.0151 c 0.890111,0.6547 1.335173,1.0924 1.335187,1.3131 -1.4e-5,0.081 -0.07726,0.1765 -0.231727,0.2869 l -0.474488,0.3421 0,4.9104 -1.291048,0 0,-0.8607 z"
         style="fill:#ffffff"
         id="path3103" />
      <path
         d="m 78.477841,1013.3253 c -0.868066,0.8092 -1.978882,1.6147 -3.33245,2.4166 l 0,3.3435 c 1.920011,-0.184 3.869455,-0.4598 5.848339,-0.8276 l 0.04414,0.5848 c -3.207402,0.8313 -6.41479,1.4786 -9.622174,1.9421 -0.07357,0.4929 -0.202305,0.7393 -0.386211,0.7393 -0.331042,0 -0.654723,-0.6841 -0.971045,-2.0524 1.677255,-0.081 2.942555,-0.1619 3.795904,-0.2428 l 0,-2.8028 c -1.633127,0.8019 -3.560502,1.4787 -5.782132,2.0304 l -0.275865,-0.5628 c 3.795898,-1.1549 6.716387,-2.6777 8.761474,-4.5683 l -8.242848,0 -0.26483,-0.5628 9.368377,0 0,-2.5269 c 1.463912,0.066 2.195873,0.2391 2.195886,0.5186 -1.3e-5,0.1839 -0.308981,0.3789 -0.926907,0.5849 l 0,1.4234 6.940765,0 1.147599,-1.3572 c 0.639986,0.5664 1.143899,1.0703 1.51174,1.5117 l -0.26483,0.4083 -8.816647,0 c 0.676776,1.28 1.633107,2.4386 2.868996,3.4759 1.007811,-0.9122 1.942073,-1.9862 2.802789,-3.2221 1.118154,0.6106 1.67724,1.052 1.67726,1.3241 -2e-5,0.184 -0.213355,0.2759 -0.640007,0.2759 -0.16186,0 -0.297953,-0.01 -0.40828,-0.022 -0.713589,0.6253 -1.69199,1.3021 -2.935205,2.0304 1.588966,1.0814 3.593583,1.8869 6.013859,2.4166 -0.397267,0.3825 -0.743018,0.8423 -1.037253,1.3793 -4.553629,-1.3315 -7.577107,-3.8842 -9.070443,-7.658 z m -5.186263,-5.9808 c -0.919556,0.7504 -2.096579,1.5559 -3.531073,2.4166 -0.04414,0.5885 -0.154487,0.8828 -0.331038,0.8828 -0.294258,0 -0.680469,-0.5885 -1.158633,-1.7656 1.93473,-0.6767 3.60831,-1.4344 5.020744,-2.2731 l 0,-5.6056 c 1.463916,0.022 2.195877,0.195 2.195886,0.5187 -9e-6,0.1839 -0.301621,0.3862 -0.904838,0.6069 l 0,9.3794 -1.291048,0 z m 8.60699,-2.1738 0,4.0056 2.935204,0 1.081391,-1.3352 c 0.522285,0.4782 0.996772,0.9747 1.423464,1.4897 l -0.242762,0.4082 -10.990464,0 -0.242761,-0.5627 4.72281,0 0,-4.0056 -4.877294,0 -0.253796,-0.5627 5.13109,0 0,-3.5532 c 1.493334,0.052 2.240008,0.2354 2.240024,0.5517 -1.6e-5,0.184 -0.308984,0.3789 -0.926906,0.5849 l 0,2.4166 3.255207,0 1.059322,-1.3573 c 0.559067,0.537 1.040911,1.0483 1.445533,1.5338 l -0.220692,0.3862 z m -12.590482,-2.9573 c 1.655187,1.0667 2.482781,2.1224 2.482786,3.167 -5e-6,0.5885 -0.286904,0.8828 -0.860699,0.8827 -0.367824,10e-5 -0.584837,-0.2942 -0.651042,-0.8827 -0.09564,-0.8901 -0.540698,-1.8244 -1.335186,-2.8028 z"
         style="fill:#ffffff"
         id="path3105" />
      <path
         d="m 93.584208,1004.6521 c 0.463448,0.4267 0.857015,0.7099 1.180702,0.8497 0.294251,0.1324 0.647358,0.1986 1.059322,0.1986 0.55908,0 1.809667,-0.07 3.751765,-0.2097 2.118633,-0.1471 3.954053,-0.32 5.506263,-0.5186 0.4193,-0.051 0.76873,-0.1876 1.04829,-0.4083 0.14711,-0.103 0.28688,-0.1545 0.41932,-0.1545 0.21331,0 0.56274,0.2391 1.04828,0.7173 0.4193,0.4267 0.62896,0.754 0.62897,0.9821 -1e-5,0.1397 -0.15082,0.32 -0.45241,0.5407 -0.19864,0.1397 -0.4083,0.5002 -0.62898,1.0813 -1.19175,3.053 -2.55636,5.396 -4.09383,7.0291 -1.97889,2.126 -4.516843,3.818 -7.613879,5.0759 l -0.364142,-0.5628 c 3.258877,-1.6184 5.811541,-3.6965 7.658011,-6.2345 1.45656,-1.9642 2.54162,-4.3513 3.25521,-7.1615 -2.89844,0.2722 -5.76007,0.5886 -8.58492,0.949 -0.647371,0.088 -1.121858,0.2097 -1.423464,0.3642 -0.17656,0.088 -0.408286,0.1324 -0.69518,0.1324 -0.331043,0 -0.713576,-0.2391 -1.147598,-0.7173 -0.382537,-0.4193 -0.731966,-0.9416 -1.048287,-1.5669 z m 16.044312,-4.1601 c 0.63999,1e-4 1.18068,0.2428 1.62209,0.7283 0.38251,0.4194 0.57377,0.9086 0.5738,1.4676 -3e-5,0.6548 -0.24279,1.2028 -0.72829,1.6442 -0.41933,0.3825 -0.90853,0.5738 -1.4676,0.5738 -0.65474,0 -1.20279,-0.2428 -1.64416,-0.7283 -0.38255,-0.4266 -0.57381,-0.9232 -0.5738,-1.4897 -1e-5,-0.6473 0.24275,-1.188 0.72829,-1.6221 0.42665,-0.3825 0.92321,-0.5737 1.48967,-0.5738 z m 0,0.7283 c -0.43405,1e-4 -0.80187,0.1656 -1.10346,0.4966 -0.25749,0.2796 -0.38623,0.6032 -0.38621,0.971 -2e-5,0.4341 0.1655,0.8019 0.49656,1.1035 0.28688,0.2575 0.61791,0.3862 0.99311,0.3862 0.42665,0 0.78711,-0.1655 1.08139,-0.4965 0.25745,-0.2869 0.38619,-0.618 0.38621,-0.9932 -2e-5,-0.4266 -0.16554,-0.7871 -0.49656,-1.0814 -0.27956,-0.2574 -0.60324,-0.3861 -0.97104,-0.3862 z"
         style="fill:#ffffff"
         id="path3107" />
      <path
         d="m 118.52241,1002.9197 c 0.63264,0.4781 1.42345,0.7172 2.37243,0.7172 0.58115,0 1.22116,-0.022 1.92003,-0.066 0.86068,-0.052 1.55586,-0.1103 2.08554,-0.1765 0.59585,-0.081 1.00781,-0.1876 1.23587,-0.3201 0.22068,-0.1324 0.44873,-0.1986 0.68415,-0.1986 0.42665,0 0.80551,0.1104 1.13656,0.3311 0.27953,0.1765 0.4193,0.3678 0.41931,0.5738 -10e-6,0.4193 -0.22438,0.6289 -0.67311,0.6289 -0.31634,0 -0.80554,0.015 -1.4676,0.044 -1.2506,0.052 -3.0051,0.1729 -5.2635,0.3641 l -0.47449,0.044 -0.55173,0.066 c -0.58116,0 -1.20646,-0.526 -1.87588,-1.578 z m -2.05244,4.7117 c 0.41195,0.3679 0.77977,0.6106 1.10346,0.7283 0.27954,0.103 0.62897,0.1545 1.04829,0.1545 0.64735,0 1.66254,-0.051 3.04555,-0.1545 2.39082,-0.1839 4.29612,-0.3347 5.71592,-0.4524 0.52965,-0.044 0.93057,-0.1581 1.20277,-0.3421 0.16918,-0.1177 0.31263,-0.1765 0.43035,-0.1765 0.22068,0 0.52229,0.2023 0.90484,0.6069 0.36044,0.3825 0.54068,0.6988 0.54069,0.949 -1e-5,0.1839 -0.13611,0.342 -0.40828,0.4744 -0.19864,0.1104 -0.38622,0.3826 -0.56276,0.8166 -1.16233,2.6557 -2.59682,4.7633 -4.3035,6.3228 -1.61106,1.4787 -3.64142,2.6483 -6.0911,3.509 l -0.32,-0.5848 c 4.87728,-2.2069 8.04053,-5.7564 9.48976,-10.6484 -2.36878,0.1692 -4.98397,0.4157 -7.8456,0.7393 -0.73565,0.074 -1.2837,0.1803 -1.64416,0.32 -0.27219,0.088 -0.48921,0.1325 -0.65104,0.1324 -0.35311,10e-5 -0.75404,-0.2243 -1.20277,-0.6731 -0.40461,-0.3898 -0.72093,-0.8423 -0.94898,-1.3572 z"
         style="fill:#ffffff"
         id="path3109" />
      <path
         d="m 147.07997,1011.5487 c 2.88369,1.2065 4.97659,2.4718 6.27869,3.7959 0.67677,0.6547 1.01516,1.2138 1.01518,1.6773 -2e-5,0.7209 -0.27221,1.0814 -0.81656,1.0814 -0.22071,0 -0.45244,-0.1876 -0.69518,-0.5628 -1.44187,-2.1186 -3.5127,-3.9209 -6.21248,-5.4069 -1.36095,1.5963 -2.82119,2.9315 -4.38074,4.0055 -1.46393,1.0078 -3.15222,1.8869 -5.06488,2.6373 l -0.2538,-0.629 c 3.20739,-1.6846 5.77845,-3.6046 7.71319,-5.76 1.79495,-2.0083 3.24048,-4.4286 4.3366,-7.2608 -2.77338,0.3678 -4.87731,0.6621 -6.31179,0.8828 -0.37519,0.066 -0.62898,0.1287 -0.76139,0.1875 -0.20599,0.074 -0.41932,0.1104 -0.64001,0.1104 -0.24277,0 -0.55541,-0.2391 -0.93794,-0.7173 -0.3384,-0.4193 -0.60323,-0.8717 -0.79449,-1.3572 l 0.54069,-0.32 c 0.33104,0.3752 0.59587,0.6143 0.7945,0.7172 0.23539,0.1251 0.54068,0.1876 0.91587,0.1876 1.6184,0 3.80325,-0.1728 6.55455,-0.5186 0.34574,-0.044 0.65471,-0.1582 0.92691,-0.3421 0.22803,-0.1324 0.38619,-0.1986 0.47449,-0.1986 0.14711,0 0.42665,0.2023 0.83863,0.6069 0.40458,0.412 0.60688,0.7136 0.6069,0.9048 -2e-5,0.1692 -0.0993,0.298 -0.29794,0.3862 -0.30898,0.1398 -0.57749,0.4414 -0.80552,0.9049 -0.92692,1.8832 -1.93475,3.5458 -3.02348,4.9876 z"
         style="fill:#ffffff"
         id="path3111" />
      <path
         d="m 169.92159,1005.259 c -1e-5,1.4713 -0.0368,2.8727 -0.11035,4.2042 1.06667,-0.066 2.29151,-0.1508 3.67453,-0.2538 0.59585,-0.037 1.10344,-0.1582 1.52277,-0.3642 0.23539,-0.1176 0.48183,-0.1765 0.73932,-0.1765 0.3678,0 0.79079,0.1361 1.26898,0.4083 0.34573,0.1839 0.51861,0.4414 0.51863,0.7724 -2e-5,0.3163 -0.29428,0.4745 -0.88277,0.4745 -0.2575,0 -0.49658,-0.01 -0.71725,-0.022 -0.34577,-0.015 -0.94164,-0.022 -1.78761,-0.022 -1.06669,10e-5 -2.53797,0.051 -4.41384,0.1545 -0.15449,2.5527 -0.81657,4.572 -1.98623,6.058 -1.05933,1.4272 -2.76969,2.6336 -5.13109,3.6194 l -0.33103,-0.5959 c 2.4791,-1.2653 4.17842,-2.8175 5.09798,-4.6566 0.50023,-0.9931 0.83494,-2.4386 1.00415,-4.3366 -2.24371,0.206 -4.0681,0.4267 -5.47316,0.6621 l -0.70622,0.1545 c -0.25748,0.059 -0.45242,0.088 -0.58483,0.088 -0.56645,0 -1.22852,-0.6105 -1.98623,-1.8317 l 0.43035,-0.4304 c 0.47081,0.3679 0.8607,0.607 1.16967,0.7173 0.27218,0.096 0.6069,0.1435 1.00415,0.1434 0.67678,10e-5 1.33886,-0.029 1.98623,-0.088 1.00046,-0.088 2.40185,-0.2023 4.20418,-0.3421 0.0441,-0.8239 0.0662,-2.1775 0.0662,-4.0607 -2.72924,0.5296 -5.0134,0.8754 -6.85249,1.0372 l -0.0883,-0.6841 c 4.28878,-0.6474 7.5072,-1.4051 9.65528,-2.2732 0.63263,-0.2648 0.94896,-0.4855 0.94897,-0.662 -1e-5,-0.1986 -0.20599,-0.4377 -0.61793,-0.7173 l 0.56276,-0.2979 c 1.25057,0.6768 1.87587,1.2579 1.87588,1.7435 -10e-6,0.2427 -0.2722,0.4524 -0.81656,0.6289 -0.77979,0.2796 -1.86118,0.5959 -3.24417,0.949 z"
         style="fill:#ffffff"
         id="path3113" />
      <path
         d="m 184.47623,1008.6246 0.49655,-0.3863 c 1.79496,1.2065 2.69244,2.3615 2.69245,3.4649 -1e-5,0.6768 -0.27955,1.0152 -0.83863,1.0152 -0.24277,0 -0.41932,-0.085 -0.52966,-0.2538 -0.0883,-0.1398 -0.17656,-0.4156 -0.26483,-0.8276 -0.19128,-1.0078 -0.7099,-2.012 -1.55588,-3.0124 z m 4.09383,-1.0814 0.49656,-0.3752 c 0.94897,0.7724 1.60736,1.4419 1.9752,2.0083 0.33838,0.5149 0.50758,1.0336 0.50759,1.5559 -1e-5,0.7209 -0.30163,1.0814 -0.90484,1.0814 -0.21335,0 -0.36783,-0.088 -0.46345,-0.2649 -0.0883,-0.1618 -0.17289,-0.4634 -0.2538,-0.9048 -0.19128,-1.0593 -0.64369,-2.0929 -1.35726,-3.1007 z m -1.4676,12.8442 -0.34207,-0.5517 c 2.53059,-1.5228 4.49107,-3.1081 5.88144,-4.7559 1.36092,-1.6111 2.343,-3.4502 2.94624,-5.5173 0.15447,-0.5223 0.23171,-0.9012 0.23173,-1.1366 -2e-5,-0.2795 -0.30163,-0.559 -0.90484,-0.8386 l 0.20966,-0.5186 c 0.79447,0.1618 1.42345,0.3972 1.88692,0.7062 0.42665,0.2795 0.63998,0.5738 0.64,0.8828 -2e-5,0.1986 -0.0589,0.3715 -0.17655,0.5186 -0.16922,0.2207 -0.32002,0.5223 -0.45242,0.9048 -1.21382,2.8396 -2.60418,5.0244 -4.17108,6.5546 -1.39037,1.3536 -3.30671,2.6041 -5.74903,3.7517 z"
         style="fill:#ffffff"
         id="path3115" />
      <path
         d="m 213.39792,1005.8769 c 1.32414,-0.1103 2.86162,-0.2795 4.61246,-0.5076 0.42665,-0.059 0.75769,-0.1765 0.99311,-0.3531 0.1839,-0.1544 0.35677,-0.2317 0.51863,-0.2317 0.14711,0 0.43033,0.2097 0.84966,0.629 0.4708,0.4708 0.7062,0.8202 0.70622,1.0483 -2e-5,0.1692 -0.11404,0.3273 -0.34207,0.4745 -0.29428,0.1765 -0.58853,0.5591 -0.88277,1.1476 -1.57429,3.2 -3.40603,5.7196 -5.49523,7.5587 -1.98624,1.7508 -4.45431,3.1338 -7.40422,4.149 l -0.2869,-0.5849 c 3.26623,-1.5154 5.85936,-3.3103 7.77939,-5.3849 1.81702,-1.9641 3.35818,-4.4837 4.6235,-7.5587 l -6.32283,0.5849 c -0.93427,1.2874 -1.87956,2.3688 -2.83589,3.2442 -1.04461,0.9637 -2.25474,1.8391 -3.63038,2.6262 l -0.38621,-0.5628 c 2.44232,-1.8244 4.469,-3.954 6.08006,-6.389 0.66207,-1.0078 0.99311,-1.7104 0.99312,-2.1076 -1e-5,-0.3384 -0.33841,-0.64 -1.01519,-0.9049 l 0.19863,-0.6069 c 0.85333,0.1178 1.53747,0.3201 2.05243,0.6069 0.44137,0.2502 0.66207,0.5077 0.66208,0.7725 -1e-5,0.1545 -0.0662,0.3421 -0.19863,0.5627 -0.4561,0.6327 -0.8791,1.2286 -1.26897,1.7876 z"
         style="fill:#ffffff"
         id="path3117" />
      <path
         d="m 87.967595,1046.8926 -0.651041,0.3641 c -2.729229,-3.3619 -4.09384,-7.0916 -4.093838,-11.1891 -2e-6,-4.0975 1.364609,-7.8272 4.093838,-11.1891 l 0.651041,0.3862 c -2.140717,3.178 -3.211073,6.7863 -3.211069,10.825 -4e-6,4.0019 1.070352,7.6028 3.211069,10.8029 z"
         style="fill:#ffffff"
         id="path3119" />
      <path
         d="m 95.504228,1029.7668 10.670462,0 0.82759,-1.0593 c 0.98574,0.7725 1.47862,1.269 1.47864,1.4897 -2e-5,0.088 -0.0552,0.1619 -0.16552,0.2207 l -0.65104,0.4083 0,6.5325 -1.31312,0 0,-1.6332 -11.089773,0 c -0.3384,3.5164 -1.747149,6.2088 -4.226253,8.0774 l -0.386211,-0.4304 c 2.214274,-2.1922 3.321411,-5.3665 3.321416,-9.5228 l 0,-4.8001 c 0.544368,0.2354 1.055638,0.4745 1.533809,0.7172 z m -0.154484,0.5628 0,3.498 c -6e-6,0.3163 -0.01472,0.7614 -0.04414,1.3352 l 11.045634,0 0,-4.8332 z m 11.840126,-4.5021 1.20277,-1.5559 c 0.51493,0.4341 1.05563,0.9821 1.62209,1.6442 l -0.24276,0.4745 -18.085714,0 -0.176554,-0.5628 z"
         style="fill:#ffffff"
         id="path3121" />
      <path
         d="m 118.96379,1031.0248 0,0.2317 c 0,1.0888 -0.0662,2.1407 -0.19862,3.1559 l 3.189,0 0.81656,-0.9931 c 0.86805,0.7136 1.30207,1.1586 1.30208,1.3352 -1e-5,0.074 -0.0589,0.1471 -0.17655,0.2207 l -0.54069,0.3641 c -0.0662,3.4943 -0.33105,5.7454 -0.7945,6.7532 -0.44875,0.9637 -1.26898,1.4455 -2.46071,1.4455 -10e-6,-0.4561 -0.22806,-0.7871 -0.68415,-0.9931 -0.3384,-0.1471 -0.96369,-0.2979 -1.87588,-0.4524 l 0,-0.6069 c 1.11817,0.1618 2.00829,0.2428 2.67037,0.2428 0.7577,0 1.22484,-0.3458 1.4014,-1.0373 0.32367,-1.2285 0.49655,-3.1338 0.51862,-5.7159 l -3.43176,0 c -0.68415,4.0092 -2.48646,6.9555 -5.40695,8.8387 l -0.38621,-0.4524 c 3.14853,-2.6483 4.7228,-6.6686 4.72281,-12.0608 l 0,-0.2759 -1.44554,0 0,1.3352 -1.29104,0 0,-8.0884 c 0.33103,0.1177 0.82023,0.3348 1.4676,0.6511 l 5.12005,0 0.81656,-1.0152 c 0.90483,0.6768 1.35725,1.1145 1.35726,1.3131 -10e-6,0.103 -0.0625,0.1913 -0.18759,0.2648 l -0.56276,0.3862 0,6.2898 -1.26898,0 0,-1.1366 z m -2.78072,-5.5394 0,4.9766 5.4511,0 0,-4.9766 z m 9.75459,13.4733 0,-12.8112 c 1.43449,0.066 2.15173,0.2612 2.15175,0.5848 -2e-5,0.1619 -0.29427,0.3421 -0.88277,0.5407 l 0,11.6857 z m 0.87174,2.6924 c 1.35356,0.1177 2.34299,0.1766 2.9683,0.1766 0.57379,0 0.86068,-0.2318 0.8607,-0.6952 l 0,-17.2692 c 1.44919,0.066 2.1738,0.2686 2.17382,0.6069 -2e-5,0.1693 -0.28692,0.3568 -0.8607,0.5628 l 0,16.7285 c -2e-5,1.302 -0.76141,1.9421 -2.28416,1.92 -2e-5,-0.4782 -0.2391,-0.8092 -0.71725,-0.9931 -0.38991,-0.1398 -1.10348,-0.2759 -2.14071,-0.4083 z"
         style="fill:#ffffff"
         id="path3123" />
      <path
         d="m 136.76261,1024.8785 c 2.72922,3.3546 4.09383,7.0842 4.09383,11.1891 0,4.0975 -1.36461,7.8272 -4.09383,11.1891 l -0.65104,-0.3641 c 2.14071,-3.2001 3.21106,-6.801 3.21107,-10.8029 -1e-5,-4.0166 -1.07036,-7.6249 -3.21107,-10.825 z"
         style="fill:#ffffff"
         id="path3125" />
    </g>
  </g>
</svg>
